<?xml version="1.0" encoding="UTF-8"?>
<!DOCTYPE svg PUBLIC "-//W3C//DTD SVG 1.1//EN" "http://www.w3.org/Graphics/SVG/1.1/DTD/svg11.dtd">
<!-- Creator: CorelDRAW 2020 (64-Bit) -->
<svg xmlns="http://www.w3.org/2000/svg" xml:space="preserve" width="198.765mm" height="112.446mm" version="1.1" style="shape-rendering:geometricPrecision; text-rendering:geometricPrecision; image-rendering:optimizeQuality; fill-rule:evenodd; clip-rule:evenodd"
viewBox="0 0 19440.06 10997.7"
 xmlns:xlink="http://www.w3.org/1999/xlink"
 xmlns:xodm="http://www.corel.com/coreldraw/odm/2003">
 <defs>
  <style type="text/css">
   <![CDATA[
    .fil7 {fill:#393859;fill-rule:nonzero}
    .fil3 {fill:#3F3D56;fill-rule:nonzero}
    .fil5 {fill:#4E73DF;fill-rule:nonzero}
    .fil8 {fill:#A0616A;fill-rule:nonzero}
    .fil1 {fill:#D0D2D5;fill-rule:nonzero}
    .fil6 {fill:#E6E8EC;fill-rule:nonzero}
    .fil9 {fill:#FF6F61;fill-rule:nonzero}
    .fil4 {fill:white;fill-rule:nonzero}
    .fil2 {fill:black;fill-rule:nonzero;fill-opacity:0.101961}
    .fil0 {fill:#4E73DF;fill-rule:nonzero;fill-opacity:0.101961}
    .fil10 {fill:#4E73DF;fill-rule:nonzero;fill-opacity:0.301961}
   ]]>
  </style>
 </defs>
 <g id="Capa_x0020_1">
  <metadata id="CorelCorpID_0Corel-Layer"/>
  <g id="_2328181329440">
   <path class="fil0" d="M19440.06 10386.73c0,-337.42 -4351.8,-610.97 -9720.03,-610.97 -5368.23,0 -9720.03,273.55 -9720.03,610.97 0,337.43 4351.8,610.97 9720.03,610.97 5368.23,0 9720.03,-273.54 9720.03,-610.97z"/>
   <polygon class="fil1" points="9203.29,10182.53 5904.22,10140.3 5914.03,10055.7 6073.45,8659.9 8970.75,8659.9 9183.86,10055.7 9200.15,10161.42 "/>
   <polygon class="fil2" points="9200.15,10161.42 7553.85,10161.42 5904.22,10140.3 5914.03,10055.7 9183.86,10055.7 "/>
   <rect class="fil1" x="5354.35" y="10076.8" width="4377.72" height="105.72"/>
   <path class="fil3" d="M13908.71 276.42c0.01,-0.37 0.01,-0.74 0.01,-1.11 0,-151.52 -122.51,-274.64 -274.03,-275.31l-12225.39 0c-151.49,0.67 -274.01,123.79 -274.01,275.31 0,0.4 0,0.91 0,1.31l0 7410.53 12773.41 0 0 -7410.73z"/>
   <path class="fil1" d="M1135.3 7613.1l0 867.96c0.01,151.29 122.71,273.99 274.02,273.99l12225.39 0.02c151.31,-0.02 274.01,-122.71 274.01,-274.03l0 -867.94 -12773.41 0z"/>
   <rect class="fil4" x="1664.07" y="465.08" width="11779.38" height="6661.65"/>
   <path class="fil5" d="M7585.52 8425.7c0.03,-0.02 0.17,-0.02 0.2,-0.02 87.51,0 170.24,-40.14 224.4,-108.85l0 0c8.1,-10.33 15.57,-21.33 22.22,-32.62l-156.84 -26.82 169.41 1.29c17.18,-37.41 26.11,-78.18 26.11,-119.36 0,-36.61 -7.04,-72.98 -20.73,-106.9l-227.16 117.76 209.58 -154.03c-51.11,-87.85 -145.15,-141.93 -246.79,-141.93 -157.65,0 -285.49,127.84 -285.49,285.49 0,63.79 21.4,125.79 60.72,175.98l0 0c53.89,69.19 136.65,109.75 224.37,109.99l0 0.02z"/>
   <polygon class="fil2" points="7871.01,8755.07 9187.18,10076.8 8985.2,8755.07 "/>
   <path class="fil0" d="M11755.5 3908.38c0.04,-0.65 0.07,-1.3 0.07,-1.95 0,-0.65 -0.03,-1.3 -0.08,-1.95 -4.15,-91.65 -20.89,-182.64 -49.26,-269.74 -1.66,-5 -3.14,-10 -4.99,-14.82 -72.05,-210.71 -210.71,-392.88 -394.76,-518.42 -170.22,-115.98 -371.96,-178.16 -578.08,-178.16 -293.38,0 -572.86,125.5 -767.7,344.8 -17.15,-98.18 -45.02,-194.89 -81.93,-287.37 -191.68,24.13 -384.85,36.48 -578.03,36.48 -78.62,0 -158.37,-2.25 -236.43,-6.18 165.88,76.81 339.33,139.85 516.42,187.63l-6.3 23.51c-198.19,-53.37 -392.51,-126.1 -577.54,-215.79l-55.54 -27.03 62.2 4.08c99.4,6.33 201.01,9.71 300.91,9.71 189.09,0 378.77,-11.85 566.16,-34.99 -62.26,-147.75 -148.88,-285.2 -255.52,-405.26 -466.19,-47.02 -928.86,-144.78 -1360.43,-338.81l10 -22.04c420.27,188.85 870.17,286.05 1325.81,333.26 -275.11,-295.19 -661.14,-462.97 -1064.76,-462.97 -512.21,0 -986.93,269.25 -1249.61,708.78 -43.52,-416.98 -217.65,-810.43 -496.81,-1123.29 -248.11,99.14 -506.4,177.09 -767.54,232.27 -316.21,66.82 -640.18,101.36 -963.59,101.36 -78.72,0 -158.02,-2.27 -236.19,-6.23 166.56,76.59 339.48,140.12 516.41,187.98l-6.3 23.33c-198.52,-53.81 -391.92,-126.64 -577.23,-216.06l-55.54 -27.21 62.03 4.07c99.72,6.18 202.11,10.12 302.82,10.12 584.54,0 1165.13,-111.4 1708.04,-328 -23.88,-26.29 -48.7,-52.03 -74.06,-77.21 -797.23,16.11 -1665.37,8.33 -2451.3,-277.71 -591.37,364.64 -951.64,1010.53 -951.64,1705.6 0,0 0,0.49 0,0.49 0,376.21 103.31,893.68 283.27,1412.84 79.17,231.92 174.83,460.04 282.26,680.8 55.55,111.09 113.32,220.31 174.78,324.37l0.25 -0.26c73.8,126.23 155.5,248.76 243.47,365.01 15.92,20.92 32.03,41.48 48.14,61.47 90.72,114.54 193.02,220.36 304.29,314.76l-0.11 -0.13c22.48,18.76 45.12,36.66 67.95,53.69 61.15,45.57 126.79,86.09 194.96,120.17 113.65,59.01 238.97,93.11 366.81,99.54 10.18,0 20.19,0 30.37,0l0 4.26 5443.16 0.04 0 -4.25 4.08 0c31.54,-0.05 62.93,-5.57 92.58,-16.3 192.55,-68.32 370.29,-342.51 517.1,-688.91 32.59,-76.83 63.7,-157.18 92.57,-239.77 26.11,-72.76 50.92,-148.11 74.06,-222.17 68.03,-218.87 125.99,-443.99 171.35,-669.13 51.84,-256.98 80.53,-481.37 80.53,-623.56 -0.46,-14.04 -0.46,-29.42 -1.57,-44.78z"/>
   <path class="fil0" d="M6663.5 1527.44c-371.21,-353.79 -865.04,-551.56 -1378.13,-551.56 -359.46,0 -713.07,97.3 -1021.81,281.17 769.19,275.39 1618.07,285.57 2399.94,270.39z"/>
   <path class="fil0" d="M11121.94 5999.57l-840 -1455.04c-4.81,-8.29 -13.66,-13.41 -23.24,-13.41 -9.58,0 -18.44,5.12 -23.24,13.4l-839.99 1455.05c-2.32,4.05 -3.54,8.65 -3.54,13.32 0,14.76 11.92,26.76 26.68,26.84l250.68 0.02c14.72,0.08 26.65,11.93 26.86,26.64l0 310.86c-0.01,0.06 -0.01,0.13 -0.01,0.19 0,14.72 11.94,26.66 26.65,26.66 0,0 0,0 0,0l326.97 0.01c14.83,-0.01 26.85,-12.04 26.85,-26.86l0 -149.96c0,-0.06 0,-0.14 0,-0.19 0,-14.73 11.93,-26.66 26.66,-26.66 0,0 0,0 0,0l310.86 0.01c14.82,-0.01 26.84,12.02 26.84,26.84l0 149.96c0.01,14.82 12.03,26.85 26.85,26.85l326.04 0.01c11.58,-0.02 21.83,-7.51 25.37,-18.52 0.97,-2.71 1.48,-5.57 1.48,-8.44 0,-0.02 0,-0.05 0,-0.07l0 -310.66c0.1,-14.76 12.1,-26.67 26.85,-26.67 0,0 0,0 0,0l250.5 0.01c0.19,-0.01 0.39,-0.01 0.59,-0.01 14.82,0 26.84,-12.02 26.84,-26.84 0,-4.68 -1.22,-9.28 -3.55,-13.34l0.02 0.01zm-1195.11 201.07c-4.85,5.03 -11.53,7.9 -18.52,7.95l-117.93 0.01c-14.82,-0.01 -26.84,-12.04 -26.84,-26.86 0.2,-14.74 12.1,-26.64 26.84,-26.85l117.94 0.01c14.82,-0.01 26.84,12.02 26.84,26.84 0.92,-9.4 6.89,-17.56 15.56,-21.28l-23.88 40.18zm780.01 -18.89c-4.85,5.03 -11.53,7.89 -18.52,7.94l-117.92 0.02c-14.6,-0.31 -26.29,-12.25 -26.29,-26.85 0,-7.08 2.8,-13.87 7.78,-18.89 4.84,-5.05 11.52,-7.92 18.51,-7.97l117.93 0.02c14.83,-0.02 26.85,12.01 26.85,26.83 2.27,-1.14 4.71,-1.97 7.22,-2.41l-15.55 21.3z"/>
   <path class="fil0" d="M5929.77 6012.35l-839.99 -1455.04c-4.81,-8.21 -13.61,-13.24 -23.13,-13.24 -9.52,0 -18.33,5.04 -23.14,13.24l-725.78 1256.2c90.46,114.32 192.9,220.55 304,314.85l117.94 -0.11c14.83,0 26.85,12.02 26.85,26.84 -0.2,14.74 -12.1,26.64 -26.84,26.85l-49.81 0.01c61.11,45.93 126.34,86.41 194.59,120.85l-0.01 -63.46c0.01,-0.01 0.01,-0.01 0.01,-0.01 0,-14.72 11.94,-26.66 26.66,-26.66 0.06,0 0.13,0 0.19,0l310.84 0.01c14.74,-0.01 26.68,11.93 26.68,26.65l0 149.96c0,3.9 0.83,7.75 2.41,11.31 4.33,9.47 13.81,15.54 24.23,15.54 0.07,0 0.15,0 0.21,0l326.96 0.02c0.07,-0.01 0.13,-0.01 0.2,-0.01 8.34,0 16.2,-4 21.11,-10.74 3.48,-4.63 5.37,-10.27 5.37,-16.06 0,-0.02 0,-0.04 0,-0.06l-0.01 -309.91c0.01,-14.84 12.03,-26.86 26.86,-26.86l249.93 0.01c0.25,-0.01 0.5,-0.01 0.73,-0.01 14.72,0 26.66,-11.93 26.66,-26.65 0,-4.76 -1.27,-9.43 -3.69,-13.53l-0.01 0.01zm-579.13 163.3c4.89,-5.01 11.55,-7.87 18.52,-7.99l117.75 0.03c14.83,-0.02 26.85,12 26.85,26.83 0,14.82 -12.02,26.84 -26.85,26.84l-117.76 0.02c-14.81,-0.02 -26.83,-12.04 -26.83,-26.86 -10.82,-5.9 -17.54,-17.22 -17.54,-29.54 0,-18.56 15.06,-33.63 33.63,-33.63 5.62,0 11.17,1.42 16.11,4.11l-23.89 40.2zm-536 -519.52c0.02,-0.01 0.02,-0.01 0.02,-0.01 -14.73,0 -26.66,-11.94 -26.66,-26.66 0,-0.06 0,-0.13 0,-0.19l0 -203.66c0,-0.05 0,-0.13 0,-0.18 0,-14.73 11.93,-26.66 26.66,-26.66 0,0 0,0 0,0l439.52 0c14.76,0.1 26.66,12.09 26.66,26.84 0,0 0,0 0,0l0 203.66c0,0 0,0 0,0 0,14.75 -11.9,26.74 -26.66,26.84l-439.54 0.02z"/>
   <path class="fil0" d="M9250.32 3398.68l-1039.57 0 0 -224.95c0,-29.66 -24.04,-53.7 -53.68,-53.7l-305.31 0.01 0 -239.58c0.01,0 0.01,0 0.01,0 0,-18.61 -15.09,-33.69 -33.69,-33.69 -0.07,0 -0.13,0 -0.19,0l-393.62 0c0,0 0,0 0,0 -18.64,0 -33.78,15.05 -33.88,33.69l0 239.57 -358.45 0.01c-29.63,-0.01 -53.67,24.03 -53.67,53.68l0 224.76 -991.26 0.01c-0.06,-0.01 -0.12,-0.01 -0.19,-0.01 -5.93,0 -10.74,4.8 -10.74,10.74 0,0.06 0,0.13 0,0.19l0 2984.51c0,0.06 0,0.13 0,0.19 0,5.94 4.81,10.74 10.74,10.74 0.07,0 0.13,0 0.2,0l659.66 0.01c0.07,-0.01 0.13,-0.01 0.2,-0.01 5.93,0 10.74,-4.8 10.74,-10.74 0,-0.06 0,-0.13 0,-0.19l-0.02 -401.19c0.01,-0.02 0.01,-0.02 0.01,-0.02 0,-6.06 4.86,-11 10.92,-11.11l277.7 0.02c6.07,0.09 10.93,5.03 10.93,11.09 0,0 0,0 0,0l0 401.4c0,0.06 0,0.12 0,0.19 0,5.93 4.8,10.74 10.74,10.74 0.06,0 0.13,0 0.19,0l1301.92 0.01c6.04,-0.01 10.93,-4.9 10.93,-10.93l-0.01 -401.38c0.01,-0.08 0.01,-0.14 0.01,-0.21 0,-5.96 4.78,-10.83 10.74,-10.92l277.7 0.02c0,-0.02 0,-0.02 0,-0.02 6.03,0 10.92,4.89 10.92,10.92 0,0.07 0,0.13 0,0.19l0 401.4c0,6.03 4.89,10.92 10.92,10.92l658.93 0.01c6.03,-0.01 10.92,-4.9 10.92,-10.93l0 -2984.5c0,-0.01 0,-0.01 0,-0.01 0,-5.97 -4.78,-10.83 -10.75,-10.92l0 0.01zm-2700.87 2454.81c0.01,0.05 0.01,0.12 0.01,0.18 0,5.94 -4.8,10.74 -10.74,10.74 -0.06,0 -0.13,0 -0.19,0l-407.32 0.01c-0.05,-0.01 -0.12,-0.01 -0.18,-0.01 -5.94,0 -10.75,-4.8 -10.75,-10.74 0,-0.06 0,-0.13 0,-0.19l0 -138.86c0.01,-0.06 0.01,-0.12 0.01,-0.19 0,-6.02 4.89,-10.91 10.92,-10.91 0,0 0,0 0,0l407.3 0.01c0.02,-0.01 0.02,-0.01 0.02,-0.01 6.02,0 10.91,4.89 10.91,10.91 0,0.07 0,0.13 0,0.2l-0.01 138.86zm-10.92 -508.96c0.01,6.02 -4.88,10.92 -10.91,10.92l-407.32 0c-6.02,0 -10.91,-4.9 -10.91,-10.92l0 -139.05c0,-6.02 4.89,-10.91 10.92,-10.91l407.3 0c6.04,0 10.93,4.89 10.93,10.91l-0.01 139.05zm-10.92 -509.14c0.02,0.05 0.02,0.12 0.02,0.18 0,5.94 -4.81,10.74 -10.74,10.74 -0.07,0 -0.13,0 -0.2,0l-407.31 0.01c-0.06,-0.01 -0.13,-0.01 -0.19,-0.01 -5.94,0 -10.74,-4.8 -10.74,-10.74 0,-0.06 0,-0.13 0,-0.19l0 -138.86c0,-0.06 0,-0.12 0,-0.19 0,-5.93 4.8,-10.74 10.74,-10.74 0.06,0 0.13,0 0.19,0l407.3 0.02c0.08,-0.02 0.14,-0.02 0.21,-0.02 5.93,0 10.74,4.81 10.74,10.74 0,0.07 0,0.13 0,0.2l-0.02 138.86zm-10.92 -508.78c0.02,0.06 0.02,0.12 0.02,0.19 0,5.93 -4.81,10.74 -10.74,10.74 -0.07,0 -0.13,0 -0.2,0l-407.31 0c-0.06,0 -0.12,0 -0.19,0 -5.94,0 -10.74,-4.81 -10.74,-10.74 0,-0.07 0,-0.13 0,-0.2l0 -138.85c0,-0.06 0,-0.13 0,-0.19 0,-5.94 4.8,-10.74 10.74,-10.74 0.07,0 0.13,0 0.19,0l407.31 0c0.07,0 0.13,0 0.2,0 5.93,0 10.74,4.8 10.74,10.74 0,0.06 0,0.13 0,0.19l-0.02 138.86zm-10.91 -508.77c0,6.02 -4.89,10.91 -10.91,10.91l-407.32 0c3.64,-0.12 7.45,-0.22 11.12,-0.22 159.61,0 289.04,129.43 289.04,289.04 0,155.3 -122.76,282.87 -277.93,288.83l0 -139.04c-0.01,-6.04 4.88,-10.93 10.91,-10.93l407.3 0.01c6.04,-0.01 10.93,4.88 10.93,10.91l-33.15 -449.52zm22.21 79.42c0.02,0.06 0.02,0.12 0.02,0.19 0,5.93 -4.81,10.74 -10.75,10.74 -0.06,0 -0.12,0 -0.19,0l-407.32 0c-0.05,0 -0.12,0 -0.18,0 -5.94,0 -10.74,-4.81 -10.74,-10.74 0,-0.07 0,-0.13 0,-0.2l0 -138.85c0,-0.06 0,-0.12 0,-0.19 0,-5.94 4.8,-10.74 10.74,-10.74 0.06,0 0.13,0 0.19,0l407.3 0.01c0.08,-0.01 0.14,-0.01 0.2,-0.01 5.94,0 10.75,4.8 10.75,10.74 0,0.07 0,0.13 0,0.19l-0.02 138.86zm-10.92 -508.77c0.02,0.05 0.02,0.12 0.02,0.18 0,5.94 -4.81,10.75 -10.74,10.75 -0.07,0 -0.13,0 -0.2,0l-407.32 0c-0.05,0 -0.11,0 -0.18,0 -5.94,0 -10.74,-4.81 -10.74,-10.75 0,-0.06 0,-0.13 0,-0.19l0 -138.86c0,-0.06 0,-0.13 0,-0.19 0,-5.94 4.8,-10.74 10.74,-10.74 0.07,0 0.13,0 0.19,0l407.31 0.01c0.07,-0.01 0.13,-0.01 0.2,-0.01 5.93,0 10.74,4.8 10.74,10.74 0,0.06 0,0.13 0,0.19l-0.02 138.87zm953.68 2004.54c0.02,0.06 0.02,0.12 0.02,0.19 0,5.93 -4.81,10.74 -10.75,10.74 -0.06,0 -0.13,0 -0.19,0l-407.32 0c-0.05,0 -0.12,0 -0.18,0 -5.94,0 -10.74,-4.81 -10.74,-10.74 0,-0.07 0,-0.13 0,-0.2l0 -138.85c0,-0.06 0,-0.13 0,-0.19 0,-6.03 4.89,-10.92 10.92,-10.92 0,0 0,0 0,0l407.3 0.01c0.01,-0.01 0.01,-0.01 0.01,-0.01 6.03,0 10.92,4.89 10.92,10.92 0,0.06 0,0.13 0,0.19l-0.01 138.86zm-10.92 -508.96c0.01,6.02 -4.88,10.91 -10.91,10.91l-407.32 0.01c-6.01,-0.01 -10.91,-4.9 -10.91,-10.92l0 -139.05c0,-6.02 4.9,-10.92 10.92,-10.92l407.3 0.01c6.04,-0.01 10.93,4.89 10.93,10.91l-0.01 139.05zm-10.92 -509.14c0.02,0.06 0.02,0.12 0.02,0.19 0,5.93 -4.81,10.74 -10.74,10.74 -0.07,0 -0.13,0 -0.2,0l-407.32 0c-0.05,0 -0.11,0 -0.18,0 -5.94,0 -10.74,-4.81 -10.74,-10.74 0,-0.07 0,-0.13 0,-0.2l0 -138.85c0,-0.07 0,-0.13 0,-0.2 0,-5.93 4.8,-10.74 10.74,-10.74 0.07,0 0.13,0 0.19,0l407.31 0.01c0.07,-0.01 0.13,-0.01 0.2,-0.01 5.93,0 10.74,4.81 10.74,10.74 0,0.07 0,0.13 0,0.2l-0.02 138.86zm-10.91 -508.78c0.01,0.06 0.01,0.12 0.01,0.19 0,5.93 -4.8,10.74 -10.74,10.74 -0.07,0 -0.13,0 -0.19,0l-407.33 0c-0.05,0 -0.11,0 -0.18,0 -5.93,0 -10.74,-4.81 -10.74,-10.74 0,-0.07 0,-0.13 0,-0.2l0 -138.86c0,-0.05 0,-0.12 0,-0.18 0,-5.94 4.81,-10.74 10.74,-10.74 0.07,0 0.13,0 0.2,0l407.3 0.01c0.07,-0.01 0.13,-0.01 0.2,-0.01 5.94,0 10.74,4.8 10.74,10.74 0,0.06 0,0.13 0,0.19l-0.01 138.86zm-10.92 -508.78c0.01,6.03 -4.89,10.92 -10.91,10.92l-407.33 0c-6.01,0 -10.91,-4.89 -10.91,-10.92l0 -139.05c0,-6.02 4.89,-10.91 10.92,-10.91l407.3 0c6.03,0 10.93,4.89 10.93,10.91l-0.01 139.05zm-10.92 -509.15c0.01,0.06 0.01,0.13 0.01,0.19 0,5.94 -4.8,10.74 -10.74,10.74 -0.06,0 -0.13,0 -0.19,0l-407.32 0.01c-0.05,-0.01 -0.12,-0.01 -0.18,-0.01 -5.94,0 -10.75,-4.8 -10.75,-10.74 0,-0.06 0,-0.13 0,-0.19l0 -138.86c0,-0.06 0,-0.12 0,-0.19 0,-5.93 4.81,-10.74 10.75,-10.74 0.06,0 0.13,0 0.19,0l407.3 0.02c0.08,-0.02 0.15,-0.02 0.21,-0.02 5.94,0 10.74,4.81 10.74,10.74 0,0.07 0,0.13 0,0.2l-0.01 138.85zm-10.93 -508.77c0.03,0.06 0.03,0.13 0.03,0.19 0,5.94 -4.81,10.75 -10.75,10.75 -0.06,0 -0.13,0 -0.19,0l-407.32 -0.01c-0.05,0.01 -0.12,0.01 -0.18,0.01 -5.94,0 -10.74,-4.81 -10.74,-10.75 0,-0.06 0,-0.13 0,-0.19l0 -138.86c0,-0.05 0,-0.12 0,-0.18 0,-5.94 4.8,-10.75 10.74,-10.75 0.06,0 0.13,0 0.19,0l407.3 0c0.07,0 0.14,0 0.2,0 5.94,0 10.75,4.81 10.75,10.75 0,0.06 0,0.13 0,0.19l-0.03 138.85zm648.38 2004.54c0.01,6.02 -4.88,10.92 -10.91,10.92l-407.32 0c-6.02,0 -10.91,-4.9 -10.91,-10.92l0 -138.86c0,0 0,0 0,0 0,-6.06 4.86,-11 10.91,-11.11l407.31 0.01c6.07,0.1 10.93,5.04 10.93,11.1 0,0 0,0 0,0l-0.01 138.86zm-10.92 -508.95c-0.08,5.99 -4.92,10.82 -10.91,10.91l-407.32 0c-5.99,-0.1 -10.82,-4.93 -10.91,-10.92l0 -139.04c0.1,-6 4.93,-10.84 10.92,-10.93l407.3 0.01c6.01,0.09 10.85,4.93 10.94,10.92l-0.02 139.05zm-10.92 -509.15c0.01,6.02 -4.88,10.91 -10.91,10.91l-407.32 0.01c-6.01,-0.01 -10.91,-4.9 -10.91,-10.92l0 -138.86c0,-6.03 4.89,-10.92 10.91,-10.92l407.3 0.01c6.04,-0.01 10.93,4.88 10.93,10.91l-0.01 138.86zm-10.92 -508.78c0.01,6.03 -4.88,10.92 -10.91,10.92l-407.32 0.01c-6.01,-0.01 -10.91,-4.9 -10.91,-10.93l0 -138.86c0,-6.02 4.89,-10.91 10.92,-10.91l407.3 0c6.04,0 10.93,4.89 10.93,10.91l-0.01 138.86zm-10.92 -508.77c-0.08,6 -4.91,10.83 -10.91,10.92l-407.33 0c-5.98,-0.1 -10.82,-4.93 -10.91,-10.92l0 -139.05c0.1,-6 4.94,-10.83 10.93,-10.92l407.3 0.01c6.01,0.09 10.85,4.92 10.94,10.91l-0.02 139.05zm-10.92 -509.15c0.02,6.03 -4.88,10.92 -10.91,10.92l-407.33 0c-6.02,0 -10.91,-4.89 -10.91,-10.92l0 -138.85c0,-6.03 4.89,-10.92 10.92,-10.92l407.3 0c6.04,0 10.94,4.89 10.94,10.92l-0.02 138.85zm-10.92 -508.78c0.02,6.03 -4.87,10.92 -10.91,10.92l-407.32 0c-6.02,0 -10.92,-4.89 -10.92,-10.92l0 -138.85c0,-6.03 4.9,-10.92 10.92,-10.92l407.3 0c6.05,0 10.94,4.89 10.94,10.92l-0.02 138.85zm1139.56 4551.75c0,6.02 -4.89,10.91 -10.91,10.91l-407.32 0.01c-0.06,0 -0.12,0 -0.19,0 -5.93,0 -10.74,-4.81 -10.74,-10.75 0,-0.06 0,-0.13 0,-0.19l0 -138.86c0,-0.05 0,-0.12 0,-0.18 0,-6.03 4.89,-10.92 10.92,-10.92 0,0 0,0 0,0l407.31 0.01c6.06,0.09 10.92,5.03 10.92,11.09 0,0 0,0 0,0l0 138.87zm-10.92 -508.95c-0.09,5.99 -4.92,10.83 -10.91,10.92l-407.32 0c-6.03,-0.01 -10.92,-4.9 -10.92,-10.93l0 -139.04c0,-6.03 4.89,-10.92 10.92,-10.92l407.31 0.01c6.01,0.08 10.84,4.92 10.93,10.91l-0.01 139.05zm-10.92 -509.15c0.01,6.02 -4.88,10.92 -10.91,10.92l-407.32 0c-0.05,0 -0.12,0 -0.18,0 -5.94,0 -10.75,-4.8 -10.75,-10.74 0,-0.06 0,-0.13 0,-0.19l0 -138.86c0,-0.06 0,-0.13 0,-0.19 0,-5.94 4.81,-10.75 10.75,-10.75 0.06,0 0.13,0 0.19,0l407.3 0.02c6.04,-0.01 10.93,4.88 10.93,10.91l-0.01 138.86zm-10.92 -508.78c0.01,6.02 -4.88,10.91 -10.91,10.91l-407.32 0.01c-0.05,0 -0.12,0 -0.18,0 -5.94,0 -10.74,-4.8 -10.74,-10.74 0,-0.07 0,-0.13 0,-0.19l0 -138.86c0,-0.06 0,-0.12 0,-0.19 0,-5.93 4.8,-10.74 10.74,-10.74 0.06,0 0.13,0 0.19,0l407.3 0.01c6.04,0 10.93,4.89 10.93,10.92l-0.01 138.85zm32.77 91.09c-0.09,6 -4.92,10.83 -10.91,10.92l-407.32 0c-6.03,-0.01 -10.92,-4.9 -10.92,-10.93l0 -139.04c0,-6.03 4.89,-10.92 10.92,-10.92l407.31 0.01c6.01,0.09 10.84,4.93 10.93,10.91l-0.01 139.05zm-10.92 -509.15c0.01,6.02 -4.89,10.91 -10.91,10.91l-407.32 0.01c-0.06,0 -0.12,0 -0.18,0 -5.94,0 -10.75,-4.81 -10.75,-10.74 0,-0.07 0,-0.13 0,-0.2l0 -138.85c0,-0.06 0,-0.12 0,-0.19 0,-5.94 4.81,-10.74 10.75,-10.74 0.06,0 0.12,0 0.19,0l407.3 0.01c6.03,0 10.93,4.89 10.93,10.91l-0.01 138.86zm-10.92 -508.77c0.01,6.02 -4.88,10.91 -10.91,10.91l-407.32 0.01c-0.05,0 -0.12,0 -0.18,0 -5.94,0 -10.75,-4.81 -10.75,-10.75 0,-0.06 0,-0.13 0,-0.19l0 -138.86c0,-0.06 0,-0.13 0,-0.19 0,-5.94 4.81,-10.74 10.75,-10.74 0.06,0 0.13,0 0.19,0l407.3 0.01c6.04,-0.01 10.93,4.89 10.93,10.91l-0.01 138.87z"/>
   <path class="fil0" d="M6289.32 2589.6c-14.34,-2.73 -29,-4.12 -43.64,-4.12 -31.64,0 -63,6.46 -92.05,18.94 -25.63,11.45 -53.46,17.4 -81.56,17.4 -28.09,0 -55.92,-5.95 -81.56,-17.42 -28.98,-12.67 -60.27,-19.24 -91.89,-19.24 -34.59,0 -68.81,7.89 -99.94,22.95 -17,9.09 -36.02,13.88 -55.32,13.88 -0.06,0 -0.17,0 -0.22,0 -77.76,0 -142.57,-78.32 -155.89,-181.63 15.45,-11.37 28.62,-25.69 38.7,-42.03 45.72,-74.06 116.27,-120.52 195.51,-120.52 79.24,0 149.22,46.47 194.77,119.23 27.34,44.08 75.56,70.93 127.45,70.93 0.71,0 1.47,-0.02 2.16,-0.02l2.02 0c61.83,-0.36 115.53,50 141.44,121.64z"/>
   <path class="fil0" d="M6526.31 2265.23l-125.71 79.8 76.28 -138.86c-21.6,-17.15 -48.33,-26.67 -75.91,-27.02l-2.04 0c-0.73,0 -1.56,0.02 -2.31,0.02 -7.95,0 -15.94,-0.66 -23.79,-1.88l-42.58 26.84 18.51 -33.14c-29.99,-10.56 -55.92,-30.36 -74.06,-56.45l-76.29 48.32 48.14 -87.57c-40.99,-52.99 -103.72,-84.75 -170.7,-86.46 -79.43,0 -149.96,47.21 -195.7,120.72 -26.45,43.28 -73.56,69.7 -124.32,69.7 -1.76,0 -3.54,-0.04 -5.28,-0.1l-4.26 0c-87.39,0 -158.48,99.23 -158.48,222.17 0,122.93 71.09,222.17 158.48,222.17 19.34,-0.02 38.42,-4.73 55.54,-13.7 31.08,-15.19 65.28,-23.08 99.9,-23.08 31.64,0 62.97,6.62 91.92,19.37 25.67,11.33 53.47,17.21 81.56,17.21 28.09,0 55.88,-5.89 81.55,-17.21 28.75,-12.5 59.86,-18.98 91.23,-18.98 34.22,0 68.08,7.71 98.93,22.49 16.78,8.88 35.52,13.53 54.54,13.53 0.33,0 0.67,0 0.99,0 87.39,0 158.48,-99.23 158.48,-222.17 0.01,-0.12 0.01,-0.28 0.01,-0.39 0,-47.27 -11.94,-93.88 -34.61,-135.33l-0.02 0.01z"/>
   <path class="fil3" d="M9724.84 1906.23l6145.65 0c202.43,0.01 366.58,164.16 366.58,366.59l0 7550.53c0,202.42 -164.15,366.57 -366.58,366.57l-6145.65 0.01c-202.42,-0.01 -366.57,-164.16 -366.57,-366.59l-0.02 -7550.52c0.02,-202.43 164.17,-366.58 366.59,-366.58z"/>
   <rect class="fil4" x="9664.49" y="2741.98" width="6220.82" height="6612.4"/>
   <circle class="fil4" cx="12797.67" cy="9790.21" r="242.16"/>
   <path class="fil4" d="M12797.67 2502.59c-61.34,0 -111.09,-49.75 -111.09,-111.09 0,-61.34 49.74,-111.1 111.09,-111.1 61.33,0 111.09,49.75 111.09,111.1 0,61.33 -49.75,111.09 -111.09,111.09l0 0z"/>
   <g>
    <path class="fil4" d="M12797.67 2288.01c0.05,0 0.14,0 0.19,0 56.74,0 102.75,46.02 102.75,102.75 0,56.74 -46.02,102.75 -102.75,102.75 -56.74,0 -102.75,-46.02 -102.75,-102.75 0,0 0,0 0,0 0,-56.68 45.89,-102.66 102.57,-102.75l0 0zm0 -18.51c-0.05,0 -0.13,0 -0.19,0 -66.96,0 -121.27,54.3 -121.27,121.27 0,66.96 54.31,121.27 121.27,121.27 66.97,0 121.27,-54.31 121.27,-121.27 0,-0.05 0,-0.13 0,-0.19 0,-66.86 -54.22,-121.08 -121.08,-121.08 0,0 0,0 0,0l0 0z"/>
   </g>
   <path class="fil0" d="M15259.52 6170.84c0,0 0,-1.49 0,-2.23 -2.47,-53.28 -12.14,-106.15 -28.7,-156.82l-2.78 -8.52c-42.17,-122.27 -122.93,-227.94 -229.77,-300.84 -98.97,-67.53 -216.26,-103.73 -336.17,-103.73 -170.47,0 -332.86,72.92 -446.05,200.33 -10.17,-56.88 -26.27,-112.92 -47.57,-166.63 -112.88,14.35 -226.98,21.85 -340.76,21.85 -44.33,0 -89,-1.3 -133.01,-3.27 96.69,43.8 197.69,79.78 300.32,106.95l-3.71 13.7c-115.49,-30.8 -228.08,-72.7 -335.76,-124.66l-32.59 -15.74 37.03 2.41c58.36,3.36 117.19,5.65 175.7,5.65 109.5,0 219.66,-6.87 328.17,-20.26 -35.9,-86.03 -86.12,-165.81 -147.98,-235.59 -271.05,-27.4 -540.06,-84.24 -790.94,-197l5.74 -12.96c244.39,109.98 506.37,166.64 770.75,194.22 -160.02,-171.58 -384.21,-269.11 -618.86,-269.11 -297.67,0 -573.63,156.63 -726.34,412.03 -24.95,-242.8 -126.21,-472.12 -288.73,-654.2 -144.23,57.39 -294.43,103.11 -446.29,135.16 -184.28,38.93 -372.6,59.04 -561.25,59.04 -45.19,0 -91.36,-1.32 -136.21,-3.3 96.49,44.42 197.49,81.33 300.35,108.96l-3.71 13.52c-115.56,-31.23 -228.18,-73.27 -335.68,-125.51l-32.59 -15.74 37.03 2.41c58.28,3.43 117.49,5.72 176.04,5.72 340.18,0 677.73,-65.09 993.39,-191.02 -13.89,-15.37 -28.33,-30.18 -43.14,-44.8 -462.87,9.26 -968.12,4.81 -1425.61,-161.63 -343.79,212.21 -553.46,587.58 -553.46,991.68 0,0.28 0,0.85 0,1.13 0,218.65 60.18,519.52 164.78,821.3 46.04,134.12 101.26,267.5 163.27,395.36 31.84,64.98 65.73,128.11 101.46,188.48l-0.17 -0.08c42.71,73.34 90.59,144.49 141.63,212.19 9.25,12.04 18.51,24.07 28.14,35.73 52.57,66.34 112.06,127.88 176.59,182.65l0.05 0.08c13.14,10.92 26.29,21.29 39.62,31.1 35.4,26.83 73.48,50.52 113.11,70.56 66.25,34.66 139.35,54.66 214.03,58.46 5.73,0 11.66,0 17.59,0l0 2.42 3163.37 0.03 0 -2.41 2.22 0c18.22,-0.11 36.34,-3.34 53.52,-9.46 111.09,-39.81 214.94,-199.21 300.48,-400.64 18.51,-44.62 37.03,-91.28 54.44,-139.23 15.18,-42.4 29.44,-85.72 43.14,-129.6 39.25,-127.42 73.27,-258.19 99.53,-388.96 26.26,-118.66 42.46,-240.78 46.95,-362.41 -0.04,-8.82 -0.22,-17.7 -0.6,-26.77z"/>
   <path class="fil0" d="M12299.27 4786.7c-215.89,-205.62 -502.68,-320.32 -800.83,-320.32 -208.82,0 -413.96,56.57 -593.44,163.18 446.32,160.12 939.73,165.66 1394.27,157.14z"/>
   <path class="fil0" d="M14891.09 7387.23l-488.23 -845.92c-2.76,-4.88 -7.92,-7.88 -13.51,-7.88 -5.59,0 -10.76,3 -13.53,7.85l-488.39 845.95c-1.37,2.35 -2.09,5.03 -2.09,7.76 0,8.6 6.96,15.56 15.55,15.56 0.02,0 0.04,0 0.05,0l145.71 0.01c8.55,0.09 15.45,6.99 15.55,15.54l0 180.7c0.11,8.54 7,15.44 15.56,15.54l190.14 0.02c8.55,-0.12 15.44,-7.02 15.55,-15.57l0 -87.2c-0.01,-0.06 -0.01,-0.12 -0.01,-0.19 0,-8.49 6.88,-15.37 15.37,-15.37 0.07,0 0.13,0 0.2,0l180.7 0.02c8.59,-0.02 15.55,6.95 15.55,15.54l0 87.2c0.1,8.54 7,15.44 15.55,15.54l189.58 0.02c0.03,-0.01 0.06,-0.01 0.09,-0.01 6.66,0 12.59,-4.24 14.73,-10.55 0.12,-0.83 0.19,-1.67 0.19,-2.5 0,-0.83 -0.07,-1.67 -0.2,-2.49l0 -180.7c0,-8.59 6.97,-15.56 15.56,-15.56l145.71 0.02c0.39,0.02 0.79,0.04 1.18,0.04 8.59,0 15.55,-6.96 15.55,-15.56 0,-2.75 -0.72,-5.45 -2.1,-7.82l-0.01 0.02zm-695.4 115.9c-2.95,2.91 -6.94,4.59 -11.12,4.62l-68.49 0.01c-8.56,-0.11 -15.45,-7.01 -15.56,-15.56 0,-0.09 0,-0.19 0,-0.27 0,-4.1 1.67,-8.01 4.64,-10.84 2.89,-2.92 6.82,-4.6 10.92,-4.64l68.5 0.02c8.69,-0.01 15.74,7.03 15.74,15.73 0.79,-5.66 4.64,-10.43 10,-12.41l-14.62 23.35zm453.23 -10.92c-2.96,2.92 -6.94,4.59 -11.12,4.62l-68.49 0.01c-7.98,-0.87 -14.03,-7.62 -14.03,-15.65 0,-8.04 6.05,-14.78 14.03,-15.65l68.51 0.01c8.68,-0.01 15.74,7.03 15.74,15.73 1.68,-0.81 3.5,-1.32 5.37,-1.49l-10 12.42z"/>
   <path class="fil0" d="M11872.7 7394.07l-488.23 -845.92c-2.77,-4.88 -7.93,-7.88 -13.52,-7.88 -5.59,0 -10.76,3 -13.53,7.86l-421.75 730.58c52.66,66.36 112.15,127.74 176.68,182.52l68.45 0.05c0.01,-0.02 0.02,-0.02 0.04,-0.02 8.59,0 15.55,6.97 15.55,15.56 0,4.08 -1.61,8.02 -4.49,10.91 -2.83,2.96 -6.74,4.64 -10.84,4.64 -0.09,0 -0.18,0 -0.27,0l-28.87 0.01c35.44,26.66 73.44,50.3 113.11,70.32l0 -37.04c0.01,-8.56 6.97,-15.52 15.56,-15.52l180.7 0.01c8.55,0.09 15.44,6.99 15.55,15.54l0 87.2c-0.01,0.03 -0.01,0.07 -0.01,0.11 0,2.21 0.52,4.39 1.49,6.38 2.48,5.52 7.97,9.07 14.03,9.07 0.01,0 0.04,0 0.06,0l190.13 0.02c4.9,-0.04 9.5,-2.38 12.41,-6.31 1.99,-2.69 3.09,-5.93 3.14,-9.26l0 -180.69c0,-8.6 6.96,-15.56 15.56,-15.56l145.71 0.02c8.37,-0.29 15.01,-7.18 15.01,-15.56 0,-2.45 -0.58,-4.86 -1.68,-7.04l0 0.01zm-336.04 94.06c2.87,-2.87 6.76,-4.46 10.8,-4.46 0.04,0 0.08,0 0.12,0l68.69 0.02c0.1,-0.03 0.22,-0.03 0.31,-0.03 8.49,0 15.37,6.89 15.37,15.37 0,4.2 -1.72,8.22 -4.75,11.11 -2.79,2.95 -6.68,4.63 -10.75,4.63 -0.06,0 -0.12,0 -0.18,0l-68.69 0.02c-8.55,-0.12 -15.44,-7.02 -15.55,-15.57 -6.22,-3.32 -10.11,-9.79 -10.11,-16.84 0,-10.54 8.55,-19.09 19.09,-19.09 3.13,0 6.22,0.77 8.98,2.25l-13.32 22.59zm-311.42 -301.78c0,-0.01 0,-0.01 0,-0.01 -8.59,0 -15.55,-6.96 -15.55,-15.56 0,-0.06 0,-0.13 0,-0.19l0 -118.31c0,-8.58 6.96,-15.54 15.55,-15.54l255.5 0.01c8.55,0.09 15.44,6.99 15.55,15.54l0 118.3c0,0 0,0 0,0 0,8.63 -6.93,15.64 -15.56,15.75l-255.49 0.01z"/>
   <path class="fil0" d="M13803.01 5874.6l-604.31 0 0 -130.53c-0.01,-17.28 -14.02,-31.3 -31.3,-31.3l-177.36 0.02 0 -139.98c0,-10.86 -8.79,-19.64 -19.63,-19.64l-228.66 0.02c-0.06,-0.01 -0.13,-0.01 -0.19,-0.01 -10.74,0 -19.44,8.7 -19.44,19.43 0,0.07 0,0.13 0,0.19l0 139.22 -208.66 0.02c-17.27,-0.02 -31.28,14 -31.28,31.27l0 130.53 -576.17 0.02c0,-0.02 0,-0.02 0,-0.02 -3.51,0 -6.38,2.8 -6.48,6.3l0 1735.17c0.11,3.49 2.97,6.29 6.48,6.29 0,0 0,0 0,0l382.87 0.01c3.48,-0.01 6.3,-2.83 6.3,-6.31l0 -232.71c0.1,-3.52 2.96,-6.31 6.47,-6.31 0,0 0,0 0,0l161.63 0.01c0,-0.01 0,-0.01 0,-0.01 3.51,0 6.38,2.79 6.48,6.29l0 233.47c-0.01,3.48 2.82,6.3 6.29,6.3l756.87 0.01c3.48,-0.01 6.3,-2.83 6.3,-6.31l0 -233.45c0,-3.49 2.82,-6.31 6.3,-6.31l161.82 0.01c3.47,-0.01 6.3,2.81 6.3,6.28l0 233.47c0.1,3.5 2.96,6.29 6.47,6.29 0,0 0,0 0,0l382.88 0.02c3.47,-0.01 6.29,-2.83 6.29,-6.31l0 -1735.15c0,-3.49 -2.82,-6.31 -6.3,-6.31l0.01 0.01zm-1576.32 1420.06c0,3.46 -2.83,6.28 -6.3,6.28l-236.61 0.01c-3.48,-0.01 -6.3,-2.83 -6.3,-6.31l0 -80.9c0,-3.47 2.82,-6.3 6.3,-6.3l236.62 0.02c3.46,-0.02 6.29,2.81 6.29,6.28l0 80.92zm-6.29 -296.04c0,3.46 -2.83,6.28 -6.3,6.28l-230.32 0.02c-3.48,-0.02 -6.3,-2.84 -6.3,-6.32l0 -80.72c0,-3.48 2.82,-6.3 6.3,-6.3l236.62 0.02c3.46,-0.02 6.29,2.8 6.29,6.28l-6.29 80.74zm0 -295.68c0,3.47 -2.83,6.29 -6.3,6.29l-230.32 0.01c-3.48,-0.01 -6.3,-2.83 -6.3,-6.31l0 -80.9c0,-3.48 2.82,-6.3 6.3,-6.3l236.62 0.01c3.46,-0.01 6.29,2.81 6.29,6.29l-6.29 80.91zm0 -296.04c-0.01,-0.01 -0.01,-0.01 -0.01,-0.01 0,3.51 -2.8,6.38 -6.3,6.48l-230.31 0.01c-3.51,-0.12 -6.3,-2.98 -6.3,-6.49 0,0 0,0 0,0l0 -80.72c0,-3.48 2.82,-6.31 6.3,-6.31l236.62 0.02c3.46,-0.02 6.29,2.81 6.29,6.28l-6.29 80.74zm0 -295.67c0,3.46 -2.83,6.28 -6.3,6.28l-230.32 0.02c-3.48,-0.02 -6.3,-2.84 -6.3,-6.32l0 -80.9c0,-3.47 2.82,-6.3 6.3,-6.3l236.62 0.02c3.46,-0.02 6.29,2.81 6.29,6.28l-6.29 80.92zm0 -295.86c0,3.46 -2.83,6.28 -6.3,6.28l-230.32 0.01c-3.48,-0.01 -6.3,-2.83 -6.3,-6.31l0 -80.9c0,-3.48 2.82,-6.3 6.3,-6.3l236.62 0.02c3.46,-0.02 6.29,2.8 6.29,6.28l-6.29 80.92zm0 -296.04c0,3.46 -2.83,6.28 -6.3,6.28l-230.32 0.01c-3.48,-0.01 -6.3,-2.83 -6.3,-6.31l0 442.33c0,-3.49 2.82,-6.32 6.3,-6.32l236.62 0.02c3.46,-0.02 6.29,2.81 6.29,6.28l-6.29 -442.29zm567.09 1775.34c0,3.46 -2.82,6.28 -6.3,6.28l-236.61 0.01c-3.48,-0.01 -6.3,-2.83 -6.3,-6.31l0 -80.9c0,-3.47 2.82,-6.3 6.3,-6.3l236.61 0.02c3.48,-0.02 6.3,2.81 6.3,6.28l0 80.92zm-6.3 -296.04c0,3.46 -2.82,6.28 -6.29,6.28l-230.32 0.02c-3.48,-0.02 -6.3,-2.84 -6.3,-6.32l0 -80.72c0,-3.48 2.82,-6.3 6.3,-6.3l236.61 0.02c3.48,-0.02 6.3,2.8 6.3,6.28l-6.3 80.74zm0 -295.68c0,3.47 -2.82,6.29 -6.29,6.29l-230.32 0.01c-3.48,-0.01 -6.3,-2.83 -6.3,-6.31l0 -80.9c0,-3.48 2.82,-6.3 6.3,-6.3l236.61 0.01c3.48,-0.01 6.3,2.81 6.3,6.29l-6.3 80.91zm0 -296.04c0,-0.01 0,-0.01 0,-0.01 0,3.51 -2.79,6.38 -6.29,6.48l-230.32 0.01c-3.51,-0.12 -6.3,-2.98 -6.3,-6.49 0,0 0,0 0,0l0 -80.72c0,-3.48 2.82,-6.31 6.3,-6.31l236.61 0.02c3.48,-0.02 6.3,2.81 6.3,6.28l-6.3 80.74zm0 -295.67c0,3.46 -2.82,6.28 -6.29,6.28l-230.32 0.02c-3.48,-0.02 -6.3,-2.84 -6.3,-6.32l0 -80.9c0,-3.47 2.82,-6.3 6.3,-6.3l236.61 0.02c3.48,-0.02 6.3,2.81 6.3,6.28l-6.3 80.92zm0 -295.86c0,3.46 -2.82,6.28 -6.29,6.28l-230.32 0.01c-3.48,-0.01 -6.3,-2.83 -6.3,-6.31l0 -80.9c0,-3.48 2.82,-6.3 6.3,-6.3l236.61 0.02c3.48,-0.02 6.3,2.8 6.3,6.28l-6.3 80.92zm0 -296.04c0,3.46 -2.82,6.28 -6.29,6.28l-230.32 0.01c-3.48,-0.01 -6.3,-2.83 -6.3,-6.31l0 442.33c0,-3.49 2.82,-6.32 6.3,-6.32l236.61 0.02c3.48,-0.02 6.3,2.81 6.3,6.28l-6.3 -442.29zm389.54 1775.34c0,3.46 -2.82,6.28 -6.3,6.28l-236.61 0.01c-3.48,-0.01 -6.3,-2.83 -6.3,-6.31l0 -80.9c0,-3.47 2.82,-6.3 6.3,-6.3l235.87 0.02c3.48,-0.02 6.3,2.81 6.3,6.28l0.73 80.92zm-7.03 -296.04c0,3.46 -2.82,6.28 -6.3,6.28l-229.58 0.02c-3.48,-0.02 -6.3,-2.84 -6.3,-6.32l0 -80.72c0,-3.48 2.82,-6.3 6.3,-6.3l235.87 0.02c3.48,-0.02 6.3,2.8 6.3,6.28l-6.3 80.74zm0 -295.68c0,3.47 -2.82,6.29 -6.3,6.29l-229.58 0.01c-3.48,-0.01 -6.3,-2.83 -6.3,-6.31l0 -80.9c0,-3.48 2.82,-6.3 6.3,-6.3l235.87 0.01c3.48,-0.01 6.3,2.81 6.3,6.29l-6.3 80.91zm0 -296.04c-0.01,-0.01 -0.01,-0.01 -0.01,-0.01 0,3.51 -2.79,6.38 -6.3,6.48l-229.57 0.01c-3.5,-0.12 -6.3,-2.98 -6.3,-6.49 0,0 0,0 0,0l0 -80.72c0,-3.48 2.82,-6.31 6.3,-6.31l235.87 0.02c3.48,-0.02 6.3,2.81 6.3,6.28l-6.3 80.74zm0 -295.67c0,3.46 -2.82,6.28 -6.3,6.28l-229.58 0.02c-3.48,-0.02 -6.3,-2.84 -6.3,-6.32l0 -80.9c0,-3.47 2.82,-6.3 6.3,-6.3l235.87 0.02c3.48,-0.02 6.3,2.81 6.3,6.28l-6.3 80.92zm0 -295.86c0,3.46 -2.82,6.28 -6.3,6.28l-229.58 0.01c-3.48,-0.01 -6.3,-2.83 -6.3,-6.31l0 -80.9c0,-3.48 2.82,-6.3 6.3,-6.3l235.87 0.02c3.48,-0.02 6.3,2.8 6.3,6.28l-6.3 80.92zm0 -296.04c0,3.46 -2.82,6.28 -6.3,6.28l-229.58 0.01c-3.48,-0.01 -6.3,-2.83 -6.3,-6.31l0.01 442.33c-0.01,-3.49 2.81,-6.32 6.29,-6.32l235.87 0.02c3.48,-0.02 6.3,2.81 6.3,6.28l-6.3 -442.29zm567.84 1775.34c-0.1,3.42 -2.87,6.18 -6.3,6.28l-236.62 0.01c-3.48,-0.01 -6.3,-2.83 -6.3,-6.31l0 -80.9c0,-3.47 2.82,-6.3 6.3,-6.3l236.62 0.02c3.47,-0.02 6.3,2.81 6.3,6.28l0 80.92zm-6.3 -296.04c0,3.46 -2.83,6.28 -6.3,6.28l-230.32 0.02c-3.48,-0.02 -6.3,-2.84 -6.3,-6.32l0 -80.72c0,-3.48 2.82,-6.3 6.3,-6.3l236.62 0.02c3.47,-0.02 6.3,2.8 6.3,6.28l-6.3 80.74zm0 -295.68c0,3.47 -2.83,6.29 -6.3,6.29l-230.32 0.01c-3.48,-0.01 -6.3,-2.83 -6.3,-6.31l0 -80.9c0,-3.48 2.82,-6.3 6.3,-6.3l236.62 0.01c3.43,0.09 6.2,2.85 6.3,6.29l-6.3 80.91zm0 -296.04c0,-0.01 0,-0.01 0,-0.01 0,3.51 -2.8,6.38 -6.3,6.48l-230.32 0.01c-3.51,-0.12 -6.3,-2.98 -6.3,-6.49 0,0 0,0 0,0l0 -80.72c0,-3.48 2.82,-6.31 6.3,-6.31l236.62 0.02c3.47,-0.02 6.3,2.81 6.3,6.28l-6.3 80.74zm0 -295.67c0,3.46 -2.83,6.28 -6.3,6.28l-230.32 0.02c-3.48,-0.02 -6.3,-2.84 -6.3,-6.32l0 -80.9c0,-3.47 2.82,-6.3 6.3,-6.3l236.62 0.02c3.43,0.08 6.2,2.85 6.3,6.28l-6.3 80.92zm0 -295.86c-0.1,3.42 -2.87,6.18 -6.3,6.28l-230.32 0.01c-3.48,-0.01 -6.3,-2.83 -6.3,-6.31l0 -80.9c0,-3.48 2.82,-6.3 6.3,-6.3l236.62 0.02c3.47,-0.02 6.3,2.8 6.3,6.28l-6.3 80.92zm0 -296.04c0,3.46 -2.83,6.28 -6.3,6.28l-230.32 0.01c-3.48,-0.01 -6.3,-2.83 -6.3,-6.31l0.01 442.33c-0.01,-3.49 2.81,-6.32 6.29,-6.32l236.62 0.02c3.47,-0.02 6.3,2.81 6.3,6.28l-6.3 -442.29z"/>
   <path class="fil0" d="M12081.72 5404.34c-8.36,-1.57 -16.88,-2.38 -25.39,-2.38 -18.37,0 -36.58,3.71 -53.49,10.89 -14.86,6.55 -30.96,10 -47.22,10.01 -0.03,-0.01 -0.1,-0.01 -0.15,-0.01 -16.34,0 -32.52,-3.48 -47.42,-10.18 -16.74,-7.3 -34.87,-11.07 -53.14,-11.07 -20.08,0 -39.89,4.56 -57.95,13.3 -9.88,5.2 -20.88,7.95 -32.04,7.96 -45.18,0 -82.76,-45.55 -90.53,-105.53 8.98,-6.65 16.65,-14.97 22.57,-24.46 21.6,-42.79 65.47,-69.79 113.4,-69.79 47.94,0 91.81,27 113.39,69.8 15.76,25.64 43.73,41.29 73.83,41.29 0.08,0 0.17,0 0.23,0l1.3 0.01c36.29,-0.74 67.4,27.95 82.58,70.16z"/>
   <path class="fil0" d="M12219.47 5215.67l-74.06 46.48 44.44 -80.73c-12.61,-10 -28.19,-15.55 -44.27,-15.75l-0.18 0.01c-0.03,-0.01 -0.09,-0.01 -0.12,-0.01 -5.05,0 -10.08,-0.39 -15.06,-1.11l-24.81 15.55 10.75 -18.51c-17.57,-6.03 -32.75,-17.52 -43.34,-32.76l-44.43 27.95 28.14 -50.92c-23.89,-30.82 -60.43,-49.27 -99.41,-50.16 -47.54,1.9 -90.7,28.52 -113.7,70.17 -15.47,25.2 -42.97,40.58 -72.56,40.58 -0.86,0 -1.75,-0.02 -2.59,-0.04l-2.42 0.01c-50.91,0 -92.57,57.58 -92.57,129.6 0,72.01 41.29,129.6 92.57,129.6 11.17,-0.09 22.18,-2.89 32.03,-8.16 18,-8.68 37.76,-13.2 57.75,-13.2 18.36,0 36.51,3.81 53.32,11.17 14.97,6.64 31.2,10.13 47.58,10.18 16.26,-0.01 32.36,-3.45 47.23,-10 16.79,-7.35 34.96,-11.15 53.31,-11.15 19.99,0 39.76,4.52 57.76,13.18 9.73,5.2 20.62,7.95 31.66,7.96 50.92,0 92.57,-57.76 92.57,-129.6 0,-0.81 0.02,-1.69 0.02,-2.51 0,-27.15 -6.77,-53.95 -19.65,-77.84l0.01 0.01z"/>
   <path class="fil3" d="M18346.43 4983.32l14.44 0c23.41,0 42.4,18.98 42.4,42.4l0 732.98c0,23.41 -18.98,42.4 -42.4,42.4l-14.44 0c-23.42,0 -42.41,-18.98 -42.41,-42.4l0.01 -732.98c-0.01,-23.41 18.97,-42.4 42.39,-42.4z"/>
   <path class="fil3" d="M15034.57 4342.72l0.19 0c15.34,0 27.77,12.43 27.77,27.78l0.01 213.65c-0.01,15.34 -12.44,27.78 -27.79,27.78l-0.18 0c-15.35,0 -27.79,-12.44 -27.79,-27.78l0.02 -213.65c-0.02,-15.35 12.42,-27.78 27.76,-27.78z"/>
   <path class="fil3" d="M15036.05 4835.58l0.2 0c17.27,0 31.28,14.02 31.28,31.29l0.01 406.02c-0.01,17.27 -14.02,31.29 -31.3,31.29l-0.19 0c-17.28,0 -31.29,-14.02 -31.29,-31.29l0.01 -406.02c-0.01,-17.27 14,-31.29 31.28,-31.29z"/>
   <path class="fil3" d="M15035.5 5468.03l0.19 0c16.45,0 29.8,13.35 29.8,29.81l0 413.05c0,16.46 -13.35,29.81 -29.81,29.81l-0.18 0c-16.47,0 -29.82,-13.35 -29.82,-29.81l0.01 -413.05c-0.01,-16.46 13.34,-29.81 29.8,-29.81z"/>
   <path class="fil3" d="M15381.53 3452.92l2632.92 0c189.53,0 343.25,153.72 343.25,343.26l0 6059.56c0,189.53 -153.72,343.25 -343.26,343.25l-2632.91 0.01c-189.55,-0.01 -343.26,-153.73 -343.26,-343.27l0.01 -6059.55c-0.01,-189.54 153.7,-343.26 343.24,-343.26z"/>
   <path class="fil6" d="M16424.82 3654.36l369.54 0c25.97,0 47.01,21.06 47.01,47.02l0.01 0c-0.01,25.97 -21.06,47.02 -47.02,47.02l-369.54 0.01c-25.98,-0.01 -47.03,-21.07 -47.03,-47.03l0.01 0c-0.01,-25.97 21.05,-47.02 47.01,-47.02z"/>
   <circle class="fil6" cx="16964.7" cy="3701.57" r="53.32"/>
   <path class="fil4" d="M17888.94 3628.81l-379.92 0 0 45.73c-0.08,119.62 -96.98,216.68 -216.62,216.98l-1211.95 0c-119.93,0 -217.18,-97.25 -217.18,-217.17l0.01 -45.54 -356.4 0c-145.56,0.09 -263.55,118.08 -263.65,263.62l0 5867.22c0,145.57 118.06,263.64 263.64,263.64l2382.07 0.01c0.02,-0.01 0.15,-0.01 0.19,-0.01 145.47,0 263.45,-117.98 263.45,-263.46 0,-0.03 0,-0.16 0,-0.2l0 -5867.36c-0.1,-145.52 -118.13,-263.46 -263.65,-263.46 0,0 0,0 0,0l0.01 0.01z"/>
   <path class="fil0" d="M17814.5 6881.41l0 0c-1.06,-24.1 -5.43,-48.03 -12.95,-70.94 -0.35,-1.3 -0.79,-2.6 -1.3,-3.87 -37.17,-109.2 -139.82,-182.72 -255.2,-182.72 -76.82,0 -150.07,32.84 -201.18,90.14 -4.5,-25.73 -11.76,-51.07 -21.47,-75.35 -50.32,6.27 -101.22,9.54 -151.98,9.54 -20.63,0 -41.4,-0.6 -61.88,-1.63 43.6,20.06 89.19,36.69 135.53,49.32l-1.66 6.11c-52.08,-14.09 -102.98,-33.15 -151.45,-56.63l-14.63 -7.23 16.29 1.11c26.3,1.54 52.9,2.57 79.36,2.57 49.36,0 99.16,-3.1 148.08,-9.02 -16.35,-38.96 -39.1,-75 -67.1,-106.53 -122.77,-10.09 -243.53,-40.31 -356.75,-88.74l2.59 -5.93c110.26,47.57 228.08,77.3 347.68,87.62 -72.18,-77.31 -173.32,-121.24 -279.12,-121.24 -134.29,0 -258.85,70.64 -327.76,185.87 -11.13,-109.54 -56.57,-212.84 -129.62,-295.12 -144.7,57.59 -299.25,87.42 -455,87.42 -20.24,0 -40.92,-0.61 -61.01,-1.5 43.68,20.09 89.13,36.69 135.53,49.26l-1.67 6.1c-52.05,-14.1 -102.95,-33.16 -151.42,-56.64l-14.63 -7.03 16.29 1.11c26.15,1.52 52.85,2.55 79.1,2.55 153.56,0 305.94,-29.36 448.43,-86.29 -6.3,-6.86 -12.77,-13.52 -19.43,-20.19 -209.03,4.26 -436.75,2.23 -642.82,-72.94 -155.14,95.7 -249.64,265.11 -249.64,447.41 0,0.13 0,0.32 0,0.45 0,98.68 27.03,234.39 74.06,370.3 20.73,60.65 45.89,120.81 74.08,178.5 14.44,29.37 29.67,57.76 45.72,85.16l0 0c19.24,32.95 40.84,65.17 63.91,95.69l12.78 16.11c23.76,30 50.52,57.62 79.59,82.44l-0.03 -0.02c5.93,5 11.85,9.63 18.51,14.07 16.02,12.01 33.11,22.71 50.91,31.84 29.88,15.36 62.73,24.29 96.29,26.1l7.96 0.01 0 0.92 1427.27 0 0 -0.92 1.11 0c8.2,-0.06 16.34,-1.52 24.07,-4.27 50.54,-18.52 97.01,-89.79 135.53,-180.7 8.7,-20.18 16.85,-41.28 24.62,-62.95 7.78,-21.66 13.33,-38.52 19.44,-58.32 18.51,-59.25 33.69,-120.15 44.99,-175.33 11.83,-53.72 19,-108.54 21.16,-163.48 -0.8,-4.06 -0.98,-8.14 -1.17,-12.21z"/>
   <path class="fil0" d="M16479.06 6257.85c-97.4,-92.84 -226.88,-144.65 -361.46,-144.65 -94.28,0 -187.04,25.52 -268.02,73.75 202.37,70.9 424.54,74.05 629.49,70.9z"/>
   <path class="fil0" d="M17648.43 7429.8l-220.31 -381.58c-1.26,-2.19 -3.59,-3.55 -6.11,-3.55 -2.53,0 -4.86,1.36 -6.11,3.55l-220.32 381.58c-0.61,1.06 -0.94,2.28 -0.94,3.51 0,3.88 3.15,7.03 7.03,7.03 0.01,0 0.01,0 0.02,0l65.72 0.02c3.88,-0.01 7.03,3.14 7.03,7.02l0 81.46c0.01,3.88 3.15,7.03 7.04,7.03l84.98 0.02c3.88,-0.02 7.03,-3.17 7.03,-7.05l0 -39.25c0.01,-3.89 3.16,-7.04 7.04,-7.04l81.46 0.02c3.88,-0.02 7.02,3.13 7.02,7.01l0 39.25c0.01,3.89 3.16,7.04 7.04,7.04l85.73 0.02c3.03,-0.03 5.71,-1.97 6.67,-4.83 0.06,-0.37 0.09,-0.74 0.09,-1.11 0,-0.37 -0.03,-0.74 -0.09,-1.11l0 -81.46c0,-3.87 3.15,-7.02 7.03,-7.02l65.72 0.01c0.38,0.05 0.78,0.09 1.18,0.09 3.88,0 7.03,-3.15 7.03,-7.03 0,-1.28 -0.34,-2.53 -1,-3.62l0 0zm-314.37 52.78c-1.34,1.28 -3.13,2.01 -5,2.02l-30.92 0.01c-3.88,-0.01 -7.03,-3.16 -7.03,-7.05 -0.01,-0.03 -0.01,-0.06 -0.01,-0.1 0,-1.78 0.73,-3.49 2.03,-4.71 1.32,-1.35 3.12,-2.14 5.01,-2.22l30.92 0.01c3.88,-0.01 7.03,3.14 7.03,7.02 0.45,-2.73 2.49,-4.91 5.18,-5.56l-7.22 10.57zm204.4 -5c-1.29,1.29 -3.04,2.02 -4.88,2.02 -0.04,0 -0.08,0 -0.13,0l-30.91 0.01c-3.89,-0.02 -7.03,-3.17 -7.03,-7.05 -0.01,-0.03 -0.01,-0.06 -0.01,-0.09 0,-1.79 0.73,-3.49 2.03,-4.72 1.32,-1.35 3.11,-2.14 5.01,-2.22l30.92 0.01c3.88,-0.01 7.03,3.14 7.03,7.02 0.86,-0.37 1.79,-0.57 2.73,-0.57 0.15,0 0.28,0.01 0.42,0.01l-5.18 5.57z"/>
   <path class="fil0" d="M16286.7 7433.15l-220.32 -381.58c-1.25,-2.2 -3.59,-3.56 -6.11,-3.56 -2.52,0 -4.85,1.36 -6.11,3.55l-190.14 329.56c23.8,29.97 50.56,57.6 79.64,82.41l30.9 -0.02c0.37,-0.07 0.75,-0.11 1.13,-0.11 3.88,0 7.03,3.15 7.03,7.03 0,3.89 -3.15,7.03 -7.03,7.03 -0.38,0 -0.76,-0.03 -1.13,-0.09l-12.96 0.02c16.01,12 33.1,22.71 50.91,31.83l0 -16.28c0,-3.88 3.15,-7.03 7.03,-7.03l81.66 0c3.8,0.1 6.85,3.21 6.85,7.02 0,0 0,0 0,0l0 39.25c0.1,3.85 3.2,6.94 7.04,7.04l85.9 0.01c2.18,-0.03 4.23,-1.06 5.56,-2.79 0.84,-1.12 1.31,-2.49 1.31,-3.9 0,-0.12 0,-0.23 -0.01,-0.35l0 -81.47c0,-3.88 3.15,-7.03 7.03,-7.03l65.72 0.02c0,-0.03 0.01,-0.03 0.02,-0.03 3.88,0 7.03,-3.14 7.03,-7.03 0,-1.22 -0.32,-2.45 -0.95,-3.51l0.01 0.02zm-151.64 42.95c1.22,-1.31 2.92,-2.04 4.71,-2.04 0.04,0 0.06,0 0.1,0l30.93 0.01c0.37,-0.07 0.75,-0.11 1.12,-0.11 3.89,0 7.04,3.15 7.04,7.03 0,3.88 -3.15,7.03 -7.04,7.03 -0.37,0 -0.75,-0.03 -1.12,-0.09l-30.92 0.02c-3.89,-0.02 -7.04,-3.17 -7.04,-7.05 -2.82,-1.53 -4.58,-4.48 -4.58,-7.69 0,-4.82 3.91,-8.73 8.74,-8.73 1.45,0 2.89,0.36 4.16,1.06l-6.1 10.56zm-140.71 -136.45c-3.88,-0.02 -7.03,-3.17 -7.03,-7.05l0 -53.32c0,-3.88 3.15,-7.03 7.03,-7.03l115.35 0.01c3.87,-0.01 7.02,3.14 7.02,7.02l0 53.32c0,3.88 -3.15,7.03 -7.03,7.03l-115.34 0.02z"/>
   <path class="fil0" d="M17157.62 6747.75l-272.53 0 0 -59.06c0,-7.79 -6.3,-14.08 -14.07,-14.08l-80.35 0.01 0 -62.76c-0.01,-0.02 -0.01,-0.02 -0.01,-0.02 0,-4.83 -3.87,-8.78 -8.69,-8.89l-103.12 0.02c-4.91,-0.01 -8.89,3.97 -8.89,8.88l0 62.76 -94.23 0.01c-7.78,-0.01 -14.07,6.29 -14.07,14.06l0 59.05 -259.2 0.02c-1.54,-0.02 -2.78,1.22 -2.78,2.76l0 782.78c0,0 0,0 0,0 0,1.56 1.21,2.86 2.78,2.95l172.74 0.03c1.63,-0.02 2.95,-1.34 2.95,-2.98l0.01 -105.33c-0.01,-1.56 1.23,-2.8 2.77,-2.8l72.95 0.02c0,-0.02 0,-0.02 0,-0.02 1.56,0 2.86,1.22 2.95,2.78l0 105.34c0.01,0 0.01,0 0.01,0 0,1.56 1.22,2.86 2.78,2.95l341.4 0.03c1.63,-0.02 2.95,-1.34 2.95,-2.98l0.01 -105.33c0,-1.56 1.24,-2.8 2.78,-2.8l72.94 0.02c0,-0.02 0,-0.02 0,-0.02 1.56,0 2.86,1.22 2.95,2.78l0 105.34c0.01,0 0.01,0 0.01,0 0,1.56 1.21,2.86 2.78,2.95l172.93 0.03c1.55,-0.13 2.77,-1.42 2.77,-2.98 0,0 0,0 0,0l0.01 -782.76c0,-0.05 0,-0.09 0,-0.13 0,-1.53 -1.25,-2.78 -2.78,-2.78 -0.25,0 -0.51,0.04 -0.74,0.1l0 0.03zm-707.62 643.55c0,1.62 -1.32,2.94 -2.96,2.94l-106.64 0.02c-1.64,-0.02 -2.96,-1.34 -2.96,-2.97l0 -37.03c0.1,-1.56 1.39,-2.78 2.95,-2.78 0,0 0.01,0 0.01,0l106.64 0.02c0,-0.02 0,-0.02 0,-0.02 1.56,0 2.86,1.22 2.95,2.78l0.01 37.04zm-2.96 -133.85c-0.1,1.54 -1.4,2.76 -2.95,2.76 0,0 -0.01,0 -0.01,0l-106.64 0.02c-0.01,-0.02 -0.01,-0.02 -0.01,-0.02 -1.56,0 -2.86,-1.22 -2.95,-2.78l0 -37.03c0,-1.63 1.32,-2.95 2.95,-2.95l106.66 0.01c1.62,-0.01 2.95,1.31 2.95,2.94l0 37.05zm-2.95 -134.24c-0.01,1.62 -1.33,2.94 -2.97,2.94l-106.64 0.03c-1.64,-0.03 -2.96,-1.35 -2.96,-2.98l0 -37.03c0.1,-1.56 1.39,-2.78 2.95,-2.78 0,0 0.01,0 0.01,0l106.64 0.02c0,-0.02 0.01,-0.02 0.01,-0.02 1.56,0 2.86,1.22 2.95,2.78l0.01 37.04zm-2.97 -134.03c0,1.62 -1.32,2.94 -2.95,2.94l-106.65 0.01c-1.63,-0.01 -2.96,-1.33 -2.96,-2.97l0 -37.03c0,-1.64 1.33,-2.96 2.96,-2.96l106.65 0.02c1.63,-0.02 2.95,1.3 2.95,2.94l0 37.05zm-2.95 -134.05c-0.11,1.54 -1.4,2.76 -2.96,2.76 0,0 -0.01,0 -0.01,0l-106.64 0.02c0,-0.02 -0.01,-0.02 -0.01,-0.02 -1.56,0 -2.86,-1.22 -2.95,-2.78l0 -37.03c0.1,-1.55 1.39,-2.77 2.95,-2.77 0,0 0.01,0 0.01,0l106.65 0.01c-0.01,-0.01 0,-0.01 0,-0.01 1.56,0 2.86,1.22 2.95,2.78l0.01 37.04zm-2.96 -134.04c-0.01,1.62 -1.33,2.94 -2.96,2.94l-106.65 0.01c-1.63,-0.01 -2.96,-1.33 -2.96,-2.97l0 -37.03c0.1,-1.56 1.4,-2.77 2.95,-2.77 0,0 0.01,0 0.01,0l106.65 0c0,0 0,0 0,0 1.56,0 2.86,1.21 2.95,2.78l0.01 37.04zm-2.96 -133.86c-0.11,1.55 -1.4,2.76 -2.96,2.76 0,0 -0.01,0 -0.01,0l-106.64 0.02c0,-0.02 0,-0.02 0,-0.02 -1.56,0 -2.86,-1.21 -2.95,-2.78l0 -37.03c0,-1.63 1.32,-2.95 2.95,-2.95l106.65 0.02c1.63,-0.02 2.96,1.3 2.96,2.94l0 37.04zm267.72 801.3c-0.01,-0.01 -0.01,-0.01 -0.01,-0.01 0,1.56 -1.21,2.86 -2.77,2.95l-106.83 0.03c-1.56,-0.13 -2.78,-1.42 -2.78,-2.98 0,0 0,0 0,0l0 -37.03c0,-1.53 1.24,-2.78 2.78,-2.78l106.83 0.02c1.53,-0.02 2.78,1.23 2.78,2.76l0 37.04zm-2.78 -133.85c0,1.52 -1.25,2.77 -2.78,2.77l-106.83 0.01c-1.54,-0.01 -2.78,-1.26 -2.78,-2.79l0 -37.04c0,0 0,0 0,0 0,-1.56 1.22,-2.86 2.78,-2.95l106.83 0.01c1.55,0.09 2.77,1.38 2.77,2.94 0,0 0,0 0,0l0.01 37.05zm-2.78 -134.23c0,-0.02 0,-0.01 0,-0.01 0,1.56 -1.22,2.85 -2.78,2.94l-106.83 0.03c-1.56,-0.13 -2.78,-1.42 -2.78,-2.97 0,0 0,-0.01 0,-0.01l0 -37.03c0,-1.53 1.25,-2.78 2.78,-2.78l106.83 0.02c1.53,-0.02 2.78,1.23 2.78,2.76l0 37.05zm-2.78 -134.05c0,-0.01 0,0 0,0 0,1.56 -1.22,2.86 -2.78,2.95l-106.83 0.01c-1.56,-0.11 -2.78,-1.41 -2.78,-2.96 0,0 0,-0.01 0,-0.01l0 -37.03c0,0 0,-0.01 0,-0.01 0,-1.56 1.22,-2.86 2.78,-2.95l106.83 0.02c1.56,0.08 2.78,1.38 2.78,2.93 0,0 0,0.01 0,0.01l0 37.04zm-2.78 -134.04c0,1.52 -1.25,2.77 -2.78,2.77l-106.83 0.01c-1.53,-0.01 -2.78,-1.26 -2.78,-2.79l0 -37.04c0,-1.53 1.25,-2.78 2.78,-2.78l106.83 0.02c1.53,-0.02 2.78,1.23 2.78,2.76l0 37.05zm-2.78 -134.04c0,-0.02 0,-0.01 0,-0.01 0,1.56 -1.22,2.86 -2.78,2.95l-106.83 0.01c-1.56,-0.11 -2.78,-1.41 -2.78,-2.96 0,0 0,-0.01 0,-0.01l0 -37.03c0,-1.54 1.24,-2.78 2.78,-2.78l106.83 0.01c1.53,-0.01 2.78,1.23 2.78,2.77l0 37.05zm-2.78 -133.86c0,1.53 -1.24,2.77 -2.78,2.77l-106.82 0.01c-1.55,-0.01 -2.79,-1.25 -2.79,-2.79l0 -37.03c0.01,0 0.01,-0.01 0.01,-0.01 0,-1.56 1.21,-2.86 2.78,-2.95l106.82 0.01c1.56,0.09 2.77,1.38 2.77,2.94 0,0 0,0.01 0,0.01l0.01 37.04zm170.15 524.88c-0.01,1.62 -1.33,2.94 -2.97,2.94l-106.64 0.01c-1.64,-0.01 -2.96,-1.33 -2.96,-2.97l0 -37.03c0.1,-1.56 1.39,-2.77 2.95,-2.77 0,0 0.01,0 0.01,0l106.65 0.01c-0.01,-0.01 0,-0.01 0,-0.01 1.56,0 2.86,1.21 2.95,2.78l0.01 37.04zm-2.96 -133.85c-0.11,1.54 -1.4,2.76 -2.96,2.76 0,0 0,0 0,0l-106.65 0.02c0,-0.02 -0.01,-0.02 -0.01,-0.02 -1.56,0 -2.86,-1.22 -2.95,-2.79l0 -37.03c0,-1.62 1.33,-2.95 2.96,-2.95l106.65 0.02c1.63,-0.02 2.95,1.31 2.95,2.94l0.01 37.05zm-2.96 -134.24c0,1.62 -1.32,2.94 -2.96,2.94l-106.65 0.02c-1.63,-0.02 -2.95,-1.34 -2.95,-2.98l0 -37.03c0.1,-1.56 1.39,-2.77 2.95,-2.77 0,0 0,0 0,0l106.65 0.01c-0.01,-0.01 0,-0.01 0,-0.01 1.56,0 2.86,1.21 2.95,2.78l0.01 37.04zm-2.96 -134.04c-0.01,1.62 -1.33,2.94 -2.96,2.94l-106.64 0.02c-1.64,-0.02 -2.97,-1.34 -2.97,-2.97l0 -37.04c0,-1.63 1.33,-2.95 2.96,-2.95l106.65 0.01c1.63,-0.01 2.95,1.31 2.95,2.94l0.01 37.05zm-2.96 -134.04c-0.1,1.54 -1.4,2.76 -2.95,2.76 0,0 -0.01,0 -0.01,0l-106.65 0.02c0,-0.02 0,-0.02 0,-0.02 -1.56,0 -2.86,-1.22 -2.95,-2.79l0 -37.03c0.1,-1.55 1.39,-2.76 2.95,-2.76 0,0 0,0 0,0l106.65 0c0,0 0.01,0 0.01,0 1.56,0 2.86,1.21 2.95,2.78l0 37.04zm-2.96 -134.05c0,1.62 -1.32,2.94 -2.96,2.94l-106.64 0.02c-1.64,-0.02 -2.96,-1.34 -2.96,-2.97l0 -37.04c0.1,-1.55 1.4,-2.77 2.95,-2.77 0,0 0.01,0 0.01,0l106.64 0.01c0,-0.01 0,-0.01 0,-0.01 1.56,0 2.86,1.22 2.95,2.78l0.01 37.04zm-2.96 -133.86c-0.1,1.55 -1.4,2.77 -2.95,2.77 0,0 -0.01,0 -0.01,0l-106.64 0.01c-0.01,-0.01 -0.01,-0.01 -0.01,-0.01 -1.56,0 -2.86,-1.22 -2.95,-2.78l0 -37.03c0,-1.63 1.32,-2.95 2.95,-2.95l106.66 0c1.63,0 2.95,1.32 2.95,2.95l0 37.04zm290.13 1083.28c0,-0.01 0,-0.01 0,-0.01 0,1.56 -1.22,2.86 -2.78,2.95l-106.83 0.03c-1.56,-0.13 -2.78,-1.42 -2.78,-2.98 0,0 0,0 0,0l0 -37.03c0,-1.53 1.25,-2.78 2.78,-2.78l106.83 0.02c1.53,-0.02 2.78,1.23 2.78,2.76l0 37.04zm-2.78 -133.85c0,1.52 -1.25,2.77 -2.78,2.77l-106.83 0.01c-1.53,-0.01 -2.78,-1.26 -2.78,-2.79l0 -37.04c0,0 0,0 0,0 0,-1.56 1.22,-2.86 2.78,-2.95l106.83 0.01c1.56,0.09 2.78,1.38 2.78,2.94 0,0 0,0 0,0l0 37.05zm-2.78 -134.23c0,-0.02 0,-0.01 0,-0.01 0,1.56 -1.22,2.85 -2.78,2.94l-106.83 0.03c-1.56,-0.13 -2.78,-1.42 -2.78,-2.97 0,0 0,-0.01 0,-0.01l0 -37.03c0,-1.53 1.25,-2.78 2.78,-2.78l106.83 0.02c1.53,-0.02 2.78,1.23 2.78,2.76l0 37.05zm-2.78 -134.05c0,-0.01 0,0 0,0 0,1.56 -1.22,2.86 -2.78,2.95l-106.83 0.01c-1.56,-0.11 -2.78,-1.41 -2.78,-2.96 0,0 0,-0.01 0,-0.01l0 -37.03c0,0 0,-0.01 0,-0.01 0,-1.56 1.22,-2.86 2.78,-2.95l106.83 0.02c1.56,0.08 2.78,1.38 2.78,2.93 0,0 0,0.01 0,0.01l0 37.04zm-2.78 -134.04c0,1.52 -1.25,2.77 -2.78,2.77l-106.82 0.01c-1.54,-0.01 -2.79,-1.26 -2.79,-2.79l0 -37.04c0,-1.53 1.25,-2.78 2.78,-2.78l106.83 0.02c1.53,-0.02 2.78,1.23 2.78,2.76l0 37.05zm-2.78 -134.04c0,-0.02 0,-0.01 0,-0.01 0,1.56 -1.22,2.86 -2.78,2.95l-106.82 0.01c-1.56,-0.11 -2.78,-1.41 -2.78,-2.96 0,0 0,-0.01 0,-0.01l0 -37.03c-0.01,-1.54 1.23,-2.78 2.77,-2.78l106.83 0.01c1.54,-0.01 2.78,1.23 2.78,2.77l0 37.05zm-2.78 -133.86c0,1.53 -1.24,2.77 -2.78,2.77l-106.82 0.01c-1.55,-0.01 -2.79,-1.25 -2.79,-2.79l0 -37.03c0.01,0 0.01,-0.01 0.01,-0.01 0,-1.56 1.21,-2.86 2.78,-2.95l106.82 0.01c1.56,0.09 2.77,1.38 2.77,2.94 0,0 0,0.01 0,0.01l0.01 37.04z"/>
   <path class="fil0" d="M16380.94 6535.57c-3.74,-0.72 -7.55,-1.08 -11.36,-1.08 -8.31,0 -16.55,1.68 -24.2,4.95 -6.63,2.92 -13.82,4.44 -21.08,4.44 -0.07,0 -0.14,0 -0.21,0 -0.14,0.01 -0.26,0.01 -0.39,0.01 -7.28,0 -14.48,-1.59 -21.1,-4.64 -7.56,-3.27 -15.72,-4.95 -23.96,-4.95 -9.13,0 -18.17,2.08 -26.4,6.05 -4.46,2.29 -9.42,3.5 -14.44,3.52 -20.36,0 -37.03,-20.56 -40.91,-47.58 4.07,-2.93 7.54,-6.65 10.17,-10.92 9.78,-19.29 29.58,-31.44 51.2,-31.44 21.61,0 41.41,12.16 51.19,31.44 7.11,11.51 19.69,18.52 33.22,18.52 0.22,0 0.44,-0.01 0.66,-0.01l0 0.01c18.02,1.41 33.13,14.14 37.59,31.65l0 0.02z"/>
   <path class="fil0" d="M16443.15 6450.59l-32.96 20.72 19.99 -37.03c-5.65,-4.59 -12.7,-7.14 -19.99,-7.22l0 0.01c-1.12,0.12 -2.29,0.2 -3.42,0.2 -1.14,0 -2.3,-0.08 -3.43,-0.22l-11.3 7.03 4.82 -8.7c-7.84,-2.81 -14.64,-8 -19.43,-14.81l-20 12.59 12.59 -22.95c-10.78,-13.87 -27.24,-22.17 -44.8,-22.59 -21.47,0.95 -40.89,13.13 -51.09,32.04 -7.03,11.5 -19.55,18.52 -33.03,18.52 -0.28,0 -0.59,-0.01 -0.86,-0.01l-1.11 0.01c-22.96,0 -41.65,26.11 -41.65,58.13 0,32.03 18.51,58.13 41.65,58.13 0.08,-0.01 0.17,-0.01 0.24,-0.01 4.95,0 9.82,-1.21 14.19,-3.52 7.88,-3.66 16.48,-5.56 25.18,-5.56 8.69,0 17.29,1.9 25.18,5.56 6.74,2.92 14.02,4.45 21.37,4.45 7.35,0 14.64,-1.53 21.39,-4.45 7.81,-3.56 16.31,-5.42 24.9,-5.42 8.6,0 17.09,1.86 24.91,5.41 4.3,2.32 9.12,3.53 14,3.53 0.09,0 0.17,0 0.25,0 22.95,0 41.65,-25.92 41.65,-58.13 -0.02,-12.49 -3.22,-24.8 -9.25,-35.73l0 0.01z"/>
   <path class="fil3" d="M1844.96 10008.68c0.01,0.54 0.01,1.37 0.01,1.96 0,47.59 -5.02,95.17 -14.8,141.67 -1.86,8.89 -3.89,17.59 -5.93,26.11 -52.58,210.88 -200.88,365.1 -377.88,374.91 -5.93,0 -11.84,0 -18.51,0 -187.18,0 -345.47,-161.45 -397.69,-383.8 -1.49,-5.93 -2.78,-11.84 -4.08,-18.51 -9.81,-46.5 -14.83,-94.08 -14.83,-141.67 0,-0.59 0,-1.43 0,-2.01 0,-301.23 186.44,-545.25 416.58,-545.25 230.12,0 417.12,245.36 417.12,546.6z"/>
   <path class="fil2" d="M1844.96 10008.68c0.01,0.54 0.01,1.37 0.01,1.96 0,47.59 -5.02,95.17 -14.8,141.67 -1.86,8.89 -3.89,17.59 -5.93,26.11 -6.3,0 -12.41,0 -18.51,0 -45.68,-2.38 -91.61,-8.68 -136.29,-18.51 -39.57,12.23 -80.39,21.57 -121.4,27.77 -31.49,4.71 -63.52,7.72 -95.25,8.86l-32.22 0c0.07,0.05 -0.04,0.05 -0.04,0.05 -38.08,0 -76.27,-2.51 -113.92,-7.55 -61.07,-8.1 -121.31,-23.11 -179.09,-44.45 -31.64,10.52 -63.97,19.17 -96.61,25.87 -1.49,-5.93 -2.78,-11.84 -4.08,-18.51 -9.81,-46.5 -14.83,-94.08 -14.83,-141.67 0,-0.59 0,-1.42 0,-2 0,-301.24 186.44,-545.25 416.58,-545.25 230.12,0 416.38,244.43 416.38,545.67z"/>
   <path class="fil5" d="M2733.64 8992.79c0.01,-0.24 0.01,-0.67 0.01,-0.86 0,-132.24 -31.13,-262.73 -90.7,-380.75l-489.89 152.38 430.08 -252.73c-146.02,-210.95 -380.25,-344.65 -636.18,-362.74 -20.05,-30.35 -42.23,-59.76 -66.07,-87.31l-703.54 219.03 577.09 -339.37c-147.83,-113.42 -329.13,-175.03 -515.5,-175.03 -382.76,0 -718.08,257.07 -817.51,626.59l602.65 693.73 -653.8 -472.86c-223.75,158.7 -356.92,416.34 -356.92,690.73 0,467.62 379.23,846.85 846.85,846.85 90.98,0 181.65,-14.79 267.88,-43.52 93.83,34.51 193.27,52.25 293.32,52.25 84.28,0 168.25,-12.56 248.8,-37.16 59.96,13.21 121.37,19.93 182.88,19.93 467.62,0 846.85,-379.23 846.85,-846.85 0,-18.51 0,-37.03 -1.86,-55.54 23.46,-78.63 35.56,-160.61 35.56,-242.81 0,-1.24 0,-2.79 0,-4.03l-0.01 0.06z"/>
   <path class="fil2" d="M2719.02 9149.79c-138.2,-25.9 -279.55,-39.42 -420.34,-39.42 -121.76,0 -243.5,10.21 -363.6,29.54 -294.19,48.7 -594.87,155.9 -882.58,77.58 -168.85,-45.92 -314.74,-152.19 -479.71,-211.25 -96.24,-33.72 -197.84,-50.95 -299.89,-50.95 -65.59,0 -131.28,7.23 -195.31,21.22 -43.2,103.4 -65.55,214.59 -65.55,326.71 0,467.83 379.39,847.21 847.22,847.21 91.02,0 181.63,-14.68 267.89,-43.43 93.86,34.44 193.29,52.18 293.35,52.18 84.28,0 168.25,-12.56 248.79,-37.16 59.96,13.21 121.37,19.93 182.89,19.93 467.62,0 846.85,-379.23 846.85,-846.85 0,-18.51 0,-37.03 -1.86,-55.54 8.84,-29.45 16.22,-59.6 21.84,-89.75l0.01 -0.02z"/>
   <g>
    <path class="fil7" d="M9140.72 3816.36l-351.77 -15.56c-80.53,-3.51 -172.37,-2.41 -226.06,57.59 -57.22,63.88 -42.21,164.22 -8.52,243.28 33.7,79.06 82.95,154.77 85.54,240.69 3.89,135.16 -107.01,242.17 -207.55,333.26 -100.53,91.08 -207.91,203.66 -193.29,338.26 11.47,104.98 95.16,186.07 177.74,251.61 125.54,99.35 261.5,186.89 404.42,259.06 82.02,41.48 169.4,78.87 261.42,79.8 80.72,0.93 158.84,-26.29 234.76,-53.68 132.01,-47.4 267.53,-98.68 367.69,-196.63 51.15,-51.98 94.28,-111.72 127.85,-176.51 173.11,-314.74 219.21,-708.36 78.5,-1039.21 -29.22,-73.84 -73.43,-141.09 -129.56,-197.35 -149.96,-142.01 -378.8,-148.12 -585.42,-146.45 -5.28,-0.36 -10.66,-0.56 -15.95,-0.56 -32.27,0 -64.25,6.84 -93.68,20 -32.76,18.51 -55.54,59.8 -40.36,94.05l114.24 -91.64zm0 0l0 0 0 0z"/>
   </g>
   <path class="fil8" d="M8690.45 8171.67c-3.13,89.95 -4.99,184.77 -4.99,275.88 0,279.82 15.8,562.43 46.49,840.38 4.81,42.4 9.81,84.8 18.51,126.65 23.7,129.6 72.21,253.83 110.16,380.28 37.96,126.45 66.11,259.2 47.4,390.1 81.45,-8.78 163.03,-15.89 244.74,-21.32l1.11 -62.96c2.23,-120.71 -45.18,-238.46 -33.14,-358.62 11.47,-113.68 48.14,-224.76 46.47,-339 -1.66,-107.94 -37.03,-211.99 -53.87,-318.64 -9.33,-71.06 -14.63,-143.08 -15.3,-214.88 -1.74,-43.34 -3.06,-87.38 -3.06,-131.09 0,-54.97 1.65,-110.26 4.97,-164.9 15.55,-200.33 75.16,-399.91 47.58,-598.94 -151.02,69.49 -306.92,128.17 -457.07,197.05z"/>
   <path class="fil3" d="M9060.19 10615.94c1.64,0.14 3.3,0.21 4.94,0.21 7.66,0 15.26,-1.59 22.28,-4.67 12.21,-9.87 20,-24.2 21.65,-39.81 13.14,-49.51 34.31,-96.88 62.23,-139.8 20.92,-32.03 46.47,-64.62 46.84,-102.75 0,-61.66 -64.43,-104.79 -77.94,-164.97 -1.76,-19.34 -5.63,-38.52 -11.51,-57.01 -15.19,-32.39 -55.55,-43.5 -90.35,-50.73 -47.4,-10 -108.68,-14.06 -132.19,28.15 -20,35.91 2.22,79.61 5.18,120.52 3.7,55.54 -29.25,106.65 -64.8,149.42 -41.65,50.36 -151.08,170.88 -84.42,240.69 24.99,26.29 79.43,17.4 111.09,18.51l187 2.24z"/>
   <path class="fil8" d="M9775.57 8171.67c3.15,91.18 5.01,183.83 5.01,275.56 0,280.74 -15.75,561.47 -46.32,840.36 -4.63,42.4 -9.63,84.8 -17.41,126.65 -23.7,129.6 -72.21,253.82 -111.09,380.28 -38.88,126.45 -65.91,259.2 -47.21,390.09 -81.69,-8.56 -163.39,-15.55 -245.11,-20.98l-1.11 -62.96c-2.23,-120.71 44.98,-238.46 32.95,-358.62 -11.29,-113.68 -47.95,-224.76 -46.28,-339 1.66,-107.94 37.03,-211.99 53.68,-318.64 9.21,-71.17 14.83,-142.97 15.48,-214.75 1.75,-43.46 3.07,-87.51 3.07,-131.21 0,-54.97 -1.65,-110.26 -4.97,-164.9 -15.55,-200.33 -75.36,-399.91 -47.58,-598.94 151.58,69.49 307.28,128.17 456.87,197.05z"/>
   <path class="fil3" d="M9406.4 10615.94c-1.59,0.13 -3.19,0.2 -4.78,0.2 -7.66,0 -15.25,-1.58 -22.26,-4.66 -12.47,-9.74 -20.55,-24.08 -22.39,-39.81 -13.14,-49.51 -34.31,-96.88 -62.24,-139.8 -20.92,-32.03 -46.65,-64.62 -46.84,-102.75 0,-61.66 64.43,-104.79 77.76,-164.97 1.81,-19.33 5.72,-38.49 11.68,-57 15.18,-32.39 55.54,-43.51 90.35,-50.73 47.39,-10 108.49,-14.07 132.18,28.15 20,35.91 -2.41,79.6 -5.18,120.52 -3.88,55.54 29.25,106.65 64.8,149.41 41.65,50.37 151.07,170.89 84.42,240.7 -25,26.29 -79.44,17.4 -111.09,18.51l-186.42 2.23z"/>
   <circle class="fil8" cx="9114.8" cy="4509.73" r="379.36"/>
   <path class="fil8" d="M8899.85 4851.69c4.22,12.93 6.37,26.5 6.37,40.12 0,4.84 -0.26,9.68 -0.8,14.48 -5.78,19.06 -16.84,36.17 -31.85,49.25 -53.57,53.94 -117.58,96.66 -187.94,125.35 -7.4,23.88 6.47,48.5 19.99,69.24 45.55,70.17 93.69,138.3 142.01,206.63 86.61,133.19 196.22,251.24 322.72,347.5l111.09 -139.6c23.09,-27.74 44.8,-57.16 64.41,-87.56 22.23,-37.89 41.53,-77.57 57.74,-118.29l135.7 -314.74c-81.65,16.48 -164.58,-21.11 -234.39,-66.84 -13.96,-7.72 -25.71,-18.96 -34.03,-32.6 -4.92,-11.52 -7.48,-23.94 -7.48,-36.47 0,-1.29 0.03,-2.61 0.08,-3.89 -2.23,-65.41 -3.15,-130.76 -2.78,-196.06 -97.92,-13.14 -197.31,-21.46 -296.09,-23.3 -38.51,0 -64.43,-8.15 -74.06,32.59 -9.61,40.73 0.97,94.75 9.3,134.2z"/>
   <path class="fil9" d="M9068.33 5565.6c-61.02,-107.74 -135.98,-207.44 -222.15,-296.29 -19.27,-17.03 -35.09,-37.78 -46.49,-60.84 -6.61,-18.94 -10.13,-38.86 -10.37,-58.88l-6.67 -97.94c0,-0.31 0.01,-0.63 0.01,-0.94 0,-5.18 -1.77,-10.22 -5.02,-14.26 -3.79,-2.82 -8.39,-4.34 -13.12,-4.34 -0.63,0 -1.25,0.03 -1.87,0.09 -5.61,-0.75 -11.33,-1.15 -17,-1.15 -17.83,0 -35.46,3.81 -51.69,11.15 -13.77,9.66 -26.25,21.16 -37.04,34.06 -42.4,43.51 -102.02,64.07 -157.93,87.58 -41.36,17.22 -82.47,37.08 -121.86,58.64 -31.29,17.22 -63.5,37.03 -77.58,70.35 -6.65,18.84 -10.11,38.68 -10.11,58.63 0,2.54 0.07,5.18 0.17,7.71l-13.7 787.6c0.29,2 0.45,4.03 0.45,6.05 0,19.1 -13.01,35.77 -31.54,40.4 -16.75,7.29 -31.52,18.54 -42.96,32.77 -5.76,7.7 -8.88,17.05 -8.88,26.65 0,8.62 2.51,17.06 7.21,24.27 5.56,7.23 14.07,11.67 19.82,18.51 18.51,22.04 2.41,53.88 -10.01,79.44 -13.4,25.04 -20.48,53.1 -20.48,81.54 0,8.69 0.67,17.43 1.99,26.02 6.79,37.19 35.52,66.52 72.56,74.07 14.62,-47.22 -18.51,-100.72 0,-146.45 13.03,-25.49 35.92,-44.56 63.32,-52.78 26.04,-9.96 53.7,-15.13 81.6,-15.13 11.34,0 22.72,0.89 33.92,2.56l22.21 80.9c79.8,291.41 24.44,604.49 -48.32,897.75 -16.85,68.51 -38.13,135.9 -50.73,205.33 -18.51,104.23 -18.51,210.69 -18.51,316.59l0 289.57c0,35.17 2.22,74.99 29.07,97.76 26.85,22.77 76.28,21.11 96.46,52.58 11.66,18.51 9.44,42.4 20,61.28 7.75,12.18 18.64,22.1 31.49,28.69 30.9,16.64 65.47,25.41 100.58,25.41 70.3,0 136.11,-34.94 175.47,-93.17 20,-31.66 32.03,-69.99 61.66,-92.57 33.88,-26.48 80.9,-25.74 123.67,-23.7l252.17 12.03c43.16,0.24 86.29,6.04 128.1,16.87 37.12,13.33 73.72,29.28 108.89,47.04 70.88,30.95 147.56,47.04 224.92,47.04 10,0 20.06,-0.34 29.98,-0.81 0.22,0.02 0.44,0.02 0.64,0.02 23.75,0 47.2,-5.73 68.27,-16.68 24.07,-14.45 40.74,-40.74 67.2,-50.55 29.81,-11.11 68.14,0 91.28,-21.66 12.1,-14.78 18.74,-33.32 18.74,-52.44 0,-2.07 -0.08,-4.18 -0.22,-6.24l10.55 -247.54c11.11,-255.31 20.92,-518.39 -63.33,-759.09 -20.55,-58.68 -46.47,-115.53 -62.2,-175.7 -13.34,-62.16 -23.52,-125.38 -29.89,-188.61 -26.1,-176.08 -85.54,-349.37 -74.06,-526.92 0,-13.51 11.85,-16.66 25.18,-18.51 47.02,-4.63 98.3,4.07 131.82,37.03 29.81,29.62 40.35,74.06 43.69,115.35 1.24,6.94 1.84,14.11 1.84,21.23 0,22.95 -6.12,45.54 -17.68,65.34l69.61 -51.1c22.22,-16.28 47.02,-38.69 42.58,-65.91 -13.15,-80.9 -8.7,-171.44 -18.52,-252.72 -13.74,-137.62 -36.72,-275.51 -66.46,-410.24 -11.02,-38.51 -20.11,-77.73 -26.82,-117.11 -6.67,-54.06 -2.96,-108.68 -6.48,-163.11 -5.2,-76.89 -25.07,-152.42 -58.14,-222.09 -9.23,-21.4 -21.76,-41.32 -37.03,-58.9 -20.93,-20.46 -45.29,-37.29 -71.85,-49.61 -114.75,-59.69 -237.07,-104.14 -363.35,-131.97 -25,-5.36 -53.69,-9.44 -74.06,6.11 -25.92,20 -22.95,60.17 -11.47,90.91 11.48,30.73 29.07,61.66 24.07,94.05 -5,32.4 -32.59,57.95 -55.54,83.68 -58.69,68.69 -85.35,161.26 -148.12,226.8 -26.93,30.15 -65.8,57 -71.91,98.47z"/>
   <path class="fil7" d="M8832.63 4322.36c32.03,26.66 58.88,63.69 99.61,72.39 98.13,20.72 174.78,-137.93 269.2,-104.05 34.44,12.4 55.54,46.65 82.02,70.72 28.95,23.56 65.21,36.47 102.55,36.47 45.48,0 88.9,-19.09 119.63,-52.6 49.62,-57.94 50.17,-141.63 48.32,-217.91 0.18,-3.17 0.27,-6.44 0.27,-9.63 0,-25.02 -5.73,-49.72 -16.76,-72.19 -8.72,-13.35 -19.86,-25.05 -32.77,-34.44 -112.01,-87.57 -263.27,-100.16 -405.09,-109.23 -11.25,-1.32 -22.64,-1.97 -34,-1.97 -19.64,0 -39.32,1.99 -58.55,5.86 -42.22,10.74 -77.02,39.25 -111.09,67.02 -63.7,52.95 -218.66,153.67 -238.09,239.02 -19.44,85.35 111.8,58.31 174.75,110.53z"/>
   <path class="fil5" d="M8437.55 5462.84l1278.59 0c26.68,0 48.32,21.64 48.32,48.32l0 1392.48c0,26.67 -21.64,48.32 -48.32,48.32l-1278.6 0c-26.68,0 -48.32,-21.64 -48.32,-48.32l0 -1392.46c0,-26.68 21.64,-48.32 48.32,-48.32z"/>
   <path class="fil4" d="M8556.03 5591.33l1041.61 0c26.69,0 48.33,21.63 48.33,48.32l-0.01 804.08c0.01,26.67 -21.63,48.32 -48.32,48.32l-1041.62 0.01c-26.68,-0.01 -48.32,-21.65 -48.32,-48.33l0 -804.07c0,-26.69 21.64,-48.32 48.32,-48.32z"/>
   <path class="fil10" d="M9497.86 6062.71l0 0c-0.5,-9.17 -2.18,-18.3 -4.99,-27.04l0 -1.29c-14.13,-41.48 -53.1,-69.38 -96.92,-69.38 -29.16,0 -56.96,12.45 -76.38,34.2 -1.66,-9.76 -4.4,-19.37 -8.14,-28.52 -18.95,2.38 -38.09,3.6 -57.18,3.6 -7.92,0 -16.08,-0.22 -23.94,-0.62 16.56,7.69 33.81,13.92 51.47,18.49l0 2.41c-19.72,-5.35 -38.96,-12.62 -57.37,-21.49l-5.56 -2.78 6.1 0c10.17,0.68 20.5,1.08 30.71,1.08 18.52,0 37.21,-1.15 55.56,-3.44 -6.12,-14.79 -14.73,-28.45 -25.37,-40.38 -46.58,-3.83 -92.51,-15.25 -135.52,-33.67l1.11 -2.22c41.91,17.94 86.62,29.17 132.02,33.1 -27.42,-29.35 -65.81,-46.07 -106.01,-46.07 -51.04,0 -98.37,26.89 -124.5,70.7 -4.27,-41.54 -21.6,-80.84 -49.42,-112.01 -54.83,21.87 -113.48,33.18 -172.58,33.18 -7.73,0 -15.62,-0.22 -23.3,-0.57 16.6,7.49 33.85,13.71 51.44,18.48l0 2.22c-19.72,-5.34 -38.96,-12.61 -57.37,-21.48l-5.56 -2.58 6.11 0c9.88,0.65 19.96,0.99 29.88,0.99 58.33,0 116.33,-11.21 170.45,-32.83 -2.41,-2.59 -4.81,-5.19 -7.4,-7.6 -79.43,1.67 -165.7,0 -244.01,-27.77 -58.94,36.42 -94.82,100.8 -94.82,170.08 0,0.03 0,0.05 0,0.07 2.07,48.06 11.63,95.58 28.13,140.71 7.96,23.06 17.42,45.86 28.13,67.79 5.56,11.11 11.29,21.85 17.4,32.22l0.03 -0.01c7.35,12.76 15.47,25.17 24.24,37.01l4.82 6.11c9.03,11.42 19.26,21.96 30.38,31.3l-0.01 0.02c2.12,1.87 4.38,3.67 6.68,5.34 6.11,4.6 12.66,8.69 19.43,12.22 11.5,5.88 24.15,9.25 37.04,9.82l3.13 0.02 0 0 541.92 0 0 0 0 0c3.08,-0.04 6.15,-0.54 9.08,-1.5 18.51,-6.86 37.03,-34.26 51.65,-68.69 3.15,-7.6 6.3,-15.56 9.26,-23.88 2.96,-8.33 5,-14.63 7.4,-22.04 7.03,-22.59 12.77,-45.73 17.03,-66.65 4.53,-20.34 7.19,-41.18 7.96,-62.01l-2.22 -4.63z"/>
   <path class="fil10" d="M8991.49 5825.54c-36.9,-35.28 -86.05,-55 -137.12,-55 -35.86,0 -71.12,9.76 -101.89,28.16 76.64,27.39 161.07,28.33 239.01,26.85z"/>
   <path class="fil10" d="M9435.47 6270.8l-83.68 -144.78c-0.45,-0.88 -1.34,-1.43 -2.32,-1.43 -0.98,0 -1.87,0.55 -2.31,1.42l-83.69 144.78c-0.22,0.41 -0.32,0.85 -0.32,1.3 0,1.52 1.21,2.75 2.73,2.78l25 0.01c1.42,-0.01 2.58,1.15 2.58,2.58l0 31.1c0.01,1.43 1.17,2.59 2.6,2.59l32.58 0.01c0,-0.01 0.01,-0.01 0.01,-0.01 1.46,0 2.67,-1.13 2.77,-2.6l0 -14.99c0,0.01 0,0 0,0 0,-1.46 1.13,-2.67 2.59,-2.77l30.92 0.01c1.54,-0.01 2.78,1.23 2.78,2.77l0 14.99c0.01,1.43 1.17,2.59 2.6,2.59l32.58 0.01c0.03,-0.01 0.05,-0.01 0.07,-0.01 1.11,0 2.08,-0.77 2.35,-1.86l0 -31.1c0.09,-1.46 1.3,-2.59 2.76,-2.59 0,0 0.01,0 0.01,0l24.8 0.02c0.28,0.08 0.58,0.13 0.87,0.13 1.54,0 2.78,-1.25 2.78,-2.78 0,-0.85 -0.38,-1.65 -1.05,-2.18l0 0.01zm-119.24 20.93c-0.28,0.11 -0.6,0.18 -0.91,0.18 -0.32,0 -0.64,-0.07 -0.93,-0.19l-11.85 0.01c-1.43,-0.02 -2.59,-1.17 -2.59,-2.6 -0.1,-0.3 -0.16,-0.62 -0.16,-0.94 0,-0.31 0.06,-0.63 0.16,-0.92 0.47,-0.55 1.13,-0.88 1.85,-0.92l11.85 0.01c1.46,0.09 2.59,1.29 2.59,2.76 0,0 0,0.01 0,0.01 0.09,-1.26 1.14,-2.24 2.41,-2.24 0.06,0 0.12,0 0.19,0.01l-2.6 4.83zm76.84 -2.59c-0.29,0.11 -0.61,0.17 -0.93,0.17 -0.31,0 -0.63,-0.06 -0.92,-0.18l-11.85 0.01c-1.43,-0.02 -2.59,-1.18 -2.59,-2.61 -0.1,-0.29 -0.16,-0.61 -0.16,-0.92 0,-0.32 0.06,-0.64 0.16,-0.93 0.47,-0.55 1.13,-0.89 1.85,-0.92l11.84 0.01c1.47,0.08 2.6,1.29 2.6,2.75 0,0 0,0.01 0,0.01 0.31,-0.15 0.66,-0.22 1.01,-0.22 0.58,0 1.14,0.22 1.58,0.6l-2.59 2.24z"/>
   <path class="fil10" d="M8918.36 6272.1l-83.5 -143.86c-0.45,-0.88 -1.34,-1.43 -2.32,-1.43 -0.98,0 -1.87,0.55 -2.31,1.42l-72.95 124.25c9.04,11.29 19.27,21.78 30.36,31.09l11.67 0.01c1.54,-0.02 2.78,1.23 2.78,2.77 -0.04,0.7 -0.37,1.38 -0.93,1.84 -0.28,0.11 -0.6,0.17 -0.92,0.17 -0.31,0 -0.63,-0.06 -0.92,-0.17l-5.01 0.02c6.17,4.46 12.7,8.52 19.44,12.03l-0.01 -5.36c0.01,-0.02 0.01,-0.02 0.01,-0.02 0,-1.47 1.13,-2.68 2.59,-2.78l31.1 0.02c1.46,0.08 2.59,1.29 2.59,2.76 0,0 0,0 0,0l0 14.82c-0.02,0.18 -0.03,0.37 -0.03,0.55 0,0.19 0.01,0.37 0.03,0.56 0.48,0.92 1.38,1.55 2.41,1.67l32.59 0.01c0.03,-0.02 0.07,-0.02 0.1,-0.02 0.84,0 1.64,-0.41 2.12,-1.11 0.12,-0.25 0.17,-0.54 0.17,-0.82 0,-0.28 -0.05,-0.57 -0.16,-0.83l0 -30.93c-0.01,-1.43 1.15,-2.58 2.58,-2.58l25 0.01c0.49,0.41 1.11,0.65 1.76,0.65 1.49,0 2.69,-1.2 2.69,-2.7 0,-0.78 -0.34,-1.53 -0.93,-2.03l-0.01 0.01zm-59.06 16.29c0.3,-0.12 0.62,-0.18 0.93,-0.18 0.32,0 0.64,0.06 0.93,0.17l11.66 0.01c1.54,-0.01 2.78,1.23 2.78,2.77 -0.04,0.71 -0.37,1.38 -0.93,1.85 -0.29,0.1 -0.61,0.16 -0.92,0.16 -0.31,0 -0.64,-0.06 -0.93,-0.16l-11.66 0.01c0,-0.01 -0.01,-0.01 -0.01,-0.01 -1.46,0 -2.67,-1.13 -2.77,-2.6 -0.94,-0.73 -1.49,-1.86 -1.49,-3.05 0,-2.14 1.74,-3.89 3.89,-3.89 0.87,0 1.72,0.3 2.41,0.84l-3.89 4.09zm-53.5 -51.47c-1.54,-0.01 -2.78,-1.25 -2.78,-2.79l0 -26.28c0.1,-1.47 1.3,-2.6 2.77,-2.6 0,0 0.01,0 0.01,0l43.69 0.01c0,-0.01 0.01,-0.01 0.01,-0.01 1.46,0 2.67,1.13 2.77,2.59l0 20.19c0,1.53 -1.24,2.77 -2.78,2.77l-43.69 6.12z"/>
   <path class="fil10" d="M9249.03 6011.79l-102.94 0 0 -22.21c0,-2.98 -2.41,-5.38 -5.37,-5.38l-31.66 0.01 0 -23.88c0,-1.85 -1.49,-3.34 -3.33,-3.34l-39.26 0.01c-1.83,-0.01 -3.33,1.49 -3.33,3.33l0 23.88 -35.74 0.01c-2.96,-0.01 -5.37,2.39 -5.37,5.35l0 22.22 -98.13 0.01c-0.61,-0.01 -1.11,0.49 -1.11,1.11l0 297.33c0.08,0.54 0.55,0.93 1.09,0.93 0.01,0 0.01,0 0.02,0l65.54 0.01c0,0 1.11,0 1.11,-0.92l0 -39.99c0,-0.63 0.49,-1.12 1.11,-1.12l27.78 0.01c0.62,-0.01 1.11,0.49 1.11,1.11l0 39.98c0,0 0,0.93 1.11,0.93l129.59 0.01c0.01,-0.01 0.01,-0.01 0.02,-0.01 0.55,0 1.01,-0.39 1.1,-0.93l0 -39.99c0,0 0,-1.11 0,-1.11l27.77 0.02c0.62,-0.01 1.11,0.49 1.11,1.11l0 39.98c0.09,0.54 0.55,0.93 1.1,0.93 0.01,0 0.01,0 0.01,0l65.54 0.01c0.02,-0.01 0.02,-0.01 0.02,-0.01 0.55,0 1.01,-0.39 1.11,-0.93l-0.01 -297.32c0.11,-0.19 0.16,-0.37 0.16,-0.57 0,-0.2 -0.05,-0.39 -0.15,-0.56l-0.01 0.01zm-269.57 243.47c0,0.6 -0.5,1.1 -1.11,1.1l-40.54 0.01c-0.62,-0.01 -1.11,-0.51 -1.11,-1.12l0 -13.88c0,-0.63 0.5,-1.12 1.11,-1.12l40.54 0.02c0.62,-0.02 1.11,0.48 1.11,1.1l0 13.91zm-1.11 -50.73c0.01,0.6 -0.49,1.1 -1.11,1.1l-40.55 0.01c-0.62,-0.01 -1.11,-0.51 -1.11,-1.12l0 -13.88c0,-0.62 0.5,-1.11 1.11,-1.11l40.55 0.01c0.62,-0.01 1.11,0.49 1.11,1.11l-0.01 13.9zm-1.11 -50.73c-0.09,0.52 -0.55,0.91 -1.1,0.91 -0.01,0 -0.01,0 -0.01,0l-40.56 0.02c0,-0.02 0,-0.02 -0.01,-0.02 -0.55,0 -1.01,-0.39 -1.1,-0.93l0 -13.88c0,-0.62 0.5,-1.11 1.11,-1.11l40.54 0.01c0.63,-0.01 1.11,0.49 1.11,1.11l0 13.9zm-1.11 -50.92c0.01,0.61 -0.49,1.11 -1.11,1.11l-40.55 0c-0.62,0 -1.11,-0.5 -1.11,-1.11l0 -13.7c0,-0.62 0.49,-1.11 1.11,-1.11l40.55 0.02c0.62,-0.02 1.11,0.48 1.11,1.1l-0.01 13.71zm-1.11 -50.55c0,0.6 -0.5,1.1 -1.11,1.1l-40.54 0.02c-0.62,-0.02 -1.11,-0.52 -1.11,-1.13l0 -13.69c0,-0.62 0.5,-1.11 1.11,-1.11l40.54 0.01c0.62,-0.01 1.11,0.48 1.11,1.1l0 13.71zm-1.11 -50.55c0.01,0.61 -0.49,1.1 -1.11,1.1l-40.55 0.02c-0.62,-0.02 -1.11,-0.51 -1.11,-1.12l0 -13.89c0.09,-0.54 0.56,-0.93 1.1,-0.93 0.01,0 0.01,0 0.02,0l40.54 0.02c0.02,-0.02 0.02,-0.02 0.02,-0.02 0.55,0 1.01,0.39 1.11,0.93l-0.01 13.9zm-1.11 -50.55c0.01,0.61 -0.49,1.11 -1.11,1.11l-40.55 0.01c-0.61,-0.01 -1.11,-0.51 -1.11,-1.12l0 -13.89c0,-0.62 0.5,-1.11 1.11,-1.11l40.54 0.01c0.62,-0.01 1.11,0.48 1.11,1.1l-0.01 13.9zm94.98 199.59c0.01,0.6 -0.49,1.1 -1.11,1.1l-40.55 0.02c-0.61,-0.02 -1.11,-0.52 -1.11,-1.13l0 -13.88c0,-0.62 0.5,-1.11 1.11,-1.11l40.54 0.02c0.62,-0.02 1.11,0.48 1.11,1.1l-0.01 13.9zm-1.11 -50.73c0,0.61 -0.5,1.11 -1.11,1.11l-40.56 0c-0.61,0 -1.11,-0.5 -1.11,-1.11l0 -13.89c0,-0.62 0.5,-1.11 1.11,-1.11l40.55 0.02c0.61,-0.02 1.11,0.48 1.11,1.1l0 13.9zm-1.11 -50.73c-0.09,0.53 -0.55,0.92 -1.1,0.92 -0.01,0 -0.01,0 -0.02,0l-40.55 0.01c0,-0.01 0,-0.01 -0.01,-0.01 -0.55,0 -1.01,-0.39 -1.1,-0.93l0 -13.89c0,-0.62 0.49,-1.11 1.11,-1.11l40.55 0.01c0.62,-0.01 1.11,0.48 1.11,1.1l0 13.9zm-1.11 -50.91c0,0.6 -0.49,1.1 -1.11,1.1l-40.55 0.01c-0.62,-0.01 -1.11,-0.51 -1.11,-1.12l0 -13.7c0,-0.62 0.5,-1.11 1.11,-1.11l40.54 0.02c0.63,-0.02 1.11,0.48 1.11,1.1l0 13.72zm-1.11 -50.55c0.01,0.6 -0.49,1.1 -1.11,1.1l-40.55 0.01c-0.61,-0.01 -1.11,-0.51 -1.11,-1.12l0 -13.7c0,-0.62 0.5,-1.11 1.11,-1.11l40.54 0.01c0.62,-0.01 1.11,0.48 1.11,1.1l-0.01 13.72zm-1.11 -50.55c0,0.6 -0.5,1.1 -1.11,1.1l-40.55 0.02c-0.61,-0.02 -1.11,-0.52 -1.11,-1.13l0 -13.88c0.09,-0.54 0.56,-0.93 1.1,-0.93 0.01,0 0.01,0 0.02,0l40.54 0.01c0.02,-0.01 0.02,-0.01 0.02,-0.01 0.55,0 1.01,0.39 1.11,0.93l-0.01 13.9zm-1.11 -50.55c0.01,0.61 -0.49,1.1 -1.11,1.1l-40.55 0.01c-0.62,-0.01 -1.11,-0.5 -1.11,-1.11l0 -13.89c0,-0.63 0.5,-1.11 1.11,-1.11l40.54 0.02c0.63,-0.02 1.12,0.47 1.12,1.09l-0.01 13.91zm64.43 199.59c0,0.6 -0.5,1.1 -1.11,1.1l-40.55 0.01c-0.53,-0.1 -0.92,-0.57 -0.92,-1.11 0,-0.01 0,-0.01 0,-0.02l0 -13.88c0,-0.01 0,-0.02 0,-0.02 0,-0.55 0.39,-1.01 0.93,-1.11l40.54 0.02c0.62,-0.02 1.11,0.48 1.11,1.1l0 13.91zm-1.11 -50.74c0,0.61 -0.49,1.11 -1.11,1.11l-40.55 0.01c-0.54,-0.1 -0.93,-0.57 -0.93,-1.11 0,0 0,0 0,-0.01l0 -13.88c0,0 0,-0.01 0,-0.02 0,-0.55 0.39,-1.01 0.93,-1.1l40.55 0.01c0.62,-0.01 1.11,0.49 1.11,1.11l0 13.89zm-1.11 -50.72c0,0 0,0.93 -1.11,0.93l-40.54 0 -0.93 -0.93 0 -13.88c0.93,0.9 0.93,0.89 0.93,0.88 0,-0.54 0.39,-1.01 0.93,-1.1l40.53 0.02c0.63,-0.01 1.12,0.49 1.12,1.11l-0.93 12.97zm-0.2 -49.99c0.03,0.05 0.03,0.13 0.03,0.2 0,0.51 -0.41,0.92 -0.92,0.92 -0.07,0 -0.15,0 -0.22,-0.02l-40.55 0.02c0,0 -0.92,0 -0.92,-1.11l0 -13.7c0,0 0,-1.11 0.92,-1.11l40.55 0c0.07,-0.03 0.15,-0.03 0.22,-0.03 0.51,0 0.92,0.41 0.92,0.92 0,0.07 0,0.14 -0.02,0.21l-0.01 13.72zm-1.11 -50.55c0.02,0.06 0.02,0.13 0.02,0.2 0,0.51 -0.41,0.92 -0.92,0.92 -0.07,0 -0.14,0 -0.21,-0.02l-40.56 0.01c0,0 -0.92,0 -0.92,-1.11l0 -13.7c0,0 0,-1.11 0.92,-1.11l40.56 0c0.07,-0.03 0.14,-0.03 0.21,-0.03 0.51,0 0.92,0.41 0.92,0.92 0,0.07 0,0.14 -0.02,0.22l0 13.71zm-1.11 -50.55c0,0.61 -0.5,1.1 -1.11,1.1l-40.56 0.01c-0.53,-0.1 -0.92,-0.56 -0.92,-1.11 0,-0.01 0,-0.01 0,-0.01l0 -13.89 0.92 -0.92 39.62 0.93c0,0 1.11,0 1.11,0.92l0.93 12.97zm-41.66 -34.62c0,0.61 -0.49,1.1 -1.11,1.1l-40.55 0.02c-0.53,-0.11 -0.92,-0.57 -0.92,-1.11 0,-0.01 0,-0.01 0,-0.01l0 -13.89c0,-0.01 0,-0.01 0,-0.02 0,-0.55 0.39,-1.01 0.93,-1.1l40.54 0.02c0.62,-0.02 1.11,0.48 1.11,1.1l0 13.9zm94.98 199.59c0.01,0.6 -0.49,1.1 -1.11,1.1l-40.55 0.01c-0.62,-0.01 -1.11,-0.51 -1.11,-1.12l0 -13.88c0,-0.62 0.49,-1.11 1.11,-1.11l40.55 0.01c0.62,-0.01 1.11,0.49 1.11,1.11l-0.01 13.9zm-1.11 -50.74c0,0.61 -0.49,1.11 -1.11,1.11l-40.55 0.01c-0.62,-0.01 -1.11,-0.51 -1.11,-1.12l0 -13.89c0,-0.61 0.5,-1.11 1.11,-1.11l40.54 0.01c0.63,-0.01 1.11,0.49 1.11,1.1l0 13.9zm-1.11 -50.72c-0.09,0.52 -0.55,0.91 -1.1,0.91 0,0 0,0 -0.01,0l-40.55 0.01c-0.01,-0.01 -0.01,-0.01 -0.02,-0.01 -0.54,0 -1.01,-0.39 -1.1,-0.93l0 -13.89c0.01,-0.62 0.5,-1.11 1.11,-1.11l40.55 0.02c0.62,-0.02 1.11,0.47 1.11,1.09l-0.01 13.91zm-1.11 -50.92c0,0.61 -0.5,1.11 -1.11,1.11l-40.55 0c-0.61,0 -1.11,-0.5 -1.11,-1.11l0 -13.7c0,-0.62 0.5,-1.11 1.11,-1.11l40.54 0.02c0.62,-0.02 1.11,0.48 1.11,1.1l0 13.71zm-1.11 -50.55c0.01,0.61 -0.49,1.11 -1.11,1.11l-40.55 0c-0.62,0 -1.11,-0.5 -1.11,-1.11l0 -13.7c0,-0.62 0.5,-1.11 1.11,-1.11l40.54 0.02c0.63,-0.02 1.12,0.48 1.12,1.1l-0.01 13.71zm-1.11 -50.55c0.01,0.61 -0.49,1.11 -1.11,1.11l-40.55 0.01c-0.62,-0.01 -1.11,-0.51 -1.11,-1.12l0 -13.88c0.1,-0.54 0.56,-0.93 1.11,-0.93 0,0 0,0 0.01,0l40.55 0.01c0.01,-0.01 0.01,-0.01 0.02,-0.01 0.55,0 1.01,0.39 1.1,0.93l-0.01 13.89zm-1.11 -50.55c0,0.61 -0.49,1.1 -1.11,1.1l-40.56 0.02c-0.61,-0.02 -1.11,-0.51 -1.11,-1.12l0 -13.89c0,-0.62 0.5,-1.11 1.11,-1.11l40.55 0.02c0.62,-0.02 1.11,0.48 1.11,1.1l0 13.9z"/>
   <path class="fil0" d="M8954.27 5931.26c-1.33,-0.22 -2.7,-0.34 -4.07,-0.34 -3.23,0 -6.44,0.62 -9.44,1.81 -2.53,1.23 -5.33,1.89 -8.15,1.89 -2.83,0 -5.61,-0.66 -8.15,-1.89 -2.91,-1.29 -6.06,-1.97 -9.26,-1.97 -3.19,0 -6.34,0.67 -9.25,1.97 -1.69,0.96 -3.61,1.48 -5.56,1.48 -7.78,0 -14.26,-7.96 -15.56,-18.51 1.57,-1.13 2.9,-2.58 3.89,-4.25 3.81,-6.82 10.75,-11.33 18.52,-12.04 7.79,0.68 14.73,5.2 18.51,12.04 2.73,4.37 7.54,7.03 12.7,7.03 0.02,0 0.05,0 0.06,0l0 0.02c7.62,-0.01 14.17,5.32 15.75,12.76l-0.01 0.01z"/>
   <path class="fil0" d="M8977.8 5899.04l-12.41 7.96 7.6 -13.88c-2.19,-1.66 -4.85,-2.57 -7.59,-2.61l-2.79 0.01 -4.25 2.59 1.66 -3.33c-2.99,-1.02 -5.6,-2.97 -7.39,-5.57l-7.6 4.81 4.82 -8.7c-4.08,-5.31 -10.34,-8.51 -17.04,-8.69 -8.12,0.4 -15.45,4.96 -19.44,12.03 -2.65,4.37 -7.39,7.04 -12.5,7.04 -0.09,0 -0.19,0 -0.27,0l-0.01 0.01c-8.7,0 -15.74,9.81 -15.74,22.04 0,12.23 7.03,22.04 15.74,22.04 1.93,-0.06 3.82,-0.5 5.57,-1.32 2.89,-1.32 6.07,-2.01 9.26,-2.01 3.19,0 6.36,0.69 9.25,2.02 2.57,1.1 5.34,1.66 8.14,1.66 0,0 0,0 0,0 0.06,0.01 0.12,0.01 0.17,0.01 2.75,0 5.47,-0.57 7.99,-1.67 2.9,-1.31 6.06,-2 9.25,-2 3.2,0 6.36,0.68 9.26,2 1.74,0.81 3.64,1.25 5.56,1.29 8.7,0 15.74,-9.81 15.74,-22.04 0.02,-0.35 0.02,-0.72 0.02,-1.09 0,-4.38 -1.02,-8.69 -2.97,-12.61l-0.01 0.01z"/>
   <ellipse class="fil8" cx="8346.45" cy="6492.06" rx="113.86" ry="189.77"/>
   <ellipse class="fil8" cx="9845.19" cy="6397.08" rx="113.86" ry="189.77"/>
  </g>
 </g>
</svg>
