<?xml version="1.0" standalone="no"?>
<!DOCTYPE svg PUBLIC "-//W3C//DTD SVG 20010904//EN"
 "http://www.w3.org/TR/2001/REC-SVG-20010904/DTD/svg10.dtd">
<svg version="1.0" xmlns="http://www.w3.org/2000/svg"
 width="500.000000pt" height="500.000000pt" viewBox="0 0 500.000000 500.000000"
 preserveAspectRatio="xMidYMid meet">
<metadata>
Created by potrace 1.11, written by Peter Selinger 2001-2013
</metadata>
<g transform="translate(0.000000,500.000000) scale(0.100000,-0.100000)"
fill="#000000" stroke="none">
<path d="M2308 4995 c-2 -1 -34 -6 -73 -9 -250 -24 -555 -110 -801 -225 -273
-129 -487 -282 -709 -505 -197 -197 -343 -403 -470 -661 -81 -165 -119 -263
-164 -424 -35 -125 -47 -184 -67 -326 -3 -27 -9 -59 -11 -70 -3 -11 -6 -117
-8 -235 -4 -371 44 -637 177 -975 120 -304 301 -578 548 -825 197 -198 378
-332 620 -458 146 -77 395 -175 500 -197 8 -2 42 -10 75 -18 77 -20 227 -45
335 -56 84 -9 466 -7 505 2 16 4 116 18 160 22 6 1 35 7 65 13 30 7 66 14 79
17 55 10 213 59 316 98 412 154 788 428 1066 777 157 196 247 349 365 617 15
32 93 262 99 291 69 303 80 396 80 662 -1 242 -23 415 -79 635 -19 73 -28 103
-36 117 -6 10 -10 24 -10 31 0 25 -99 258 -155 365 -85 160 -196 326 -314 467
-60 71 -267 271 -346 333 -196 155 -482 316 -690 387 -44 15 -89 31 -100 36
-59 26 -275 74 -450 100 -70 10 -498 22 -507 14z"/>
</g>
</svg>
