<?xml version="1.0" encoding="UTF-8"?>
<!DOCTYPE svg PUBLIC "-//W3C//DTD SVG 1.1//EN" "http://www.w3.org/Graphics/SVG/1.1/DTD/svg11.dtd">
<!-- Creator: CorelDRAW 2019 (64-Bit) -->
<svg xmlns="http://www.w3.org/2000/svg" xml:space="preserve" width="64px" height="64px" version="1.1" style="shape-rendering:geometricPrecision; text-rendering:geometricPrecision; image-rendering:optimizeQuality; fill-rule:evenodd; clip-rule:evenodd"
viewBox="0 0 1.97 1.98"
 xmlns:xlink="http://www.w3.org/1999/xlink"
 xmlns:xodm="http://www.corel.com/coreldraw/odm/2003">
 <defs>
  <style type="text/css">
   <![CDATA[
    .str0 {stroke:#BA6600;stroke-width:0.03;stroke-miterlimit:10}
    .fil3 {fill:none;fill-rule:nonzero}
    .fil5 {fill:#793F2F;fill-rule:nonzero}
    .fil4 {fill:#BA6600;fill-rule:nonzero}
    .fil7 {fill:#BA6600;fill-rule:nonzero}
    .fil0 {fill:#E5B622;fill-rule:nonzero}
    .fil6 {fill:#E6850E;fill-rule:nonzero}
    .fil2 {fill:#E6850E;fill-rule:nonzero}
    .fil1 {fill:#F7941C;fill-rule:nonzero}
   ]]>
  </style>
 </defs>
 <g id="Capa_x0020_1">
  <metadata id="CorelCorpID_0Corel-Layer"/>
  <path class="fil0" d="M0.97 0.91c-0.01,-0.12 -0.16,-0.29 -0.16,-0.29 0,0 -0.14,0.19 -0.13,0.31 0.01,0.12 0.08,0.22 0.16,0.21 0.08,0 0.14,-0.1 0.13,-0.23z"/>
  <path class="fil1" d="M0.81 0.62c0,0 -0.02,0.02 -0.04,0.06 0.02,0.1 0.04,0.29 -0.07,0.35 0.03,0.07 0.08,0.12 0.14,0.11 0.08,0 0.14,-0.1 0.13,-0.23 -0.01,-0.12 -0.16,-0.29 -0.16,-0.29z"/>
  <path class="fil2" d="M0.81 0.62c0,0 0,0 0,0 0.02,0.06 0.11,0.34 -0.04,0.5 0.02,0.02 0.04,0.02 0.07,0.02 0.08,0 0.14,-0.1 0.13,-0.23 -0.01,-0.12 -0.16,-0.29 -0.16,-0.29z"/>
  <path class="fil3 str0" d="M0.97 0.91c-0.01,-0.12 -0.16,-0.29 -0.16,-0.29 0,0 -0.14,0.19 -0.13,0.31 0.01,0.12 0.08,0.22 0.16,0.21 0.08,0 0.14,-0.1 0.13,-0.23z"/>
  <path class="fil4" d="M0.85 0.98c0,-0.09 -0.03,-0.21 -0.03,-0.21 0,0 -0.02,0.13 -0.02,0.21 0.01,0.08 0.02,0.15 0.03,0.15 0.02,0 0.03,-0.07 0.02,-0.15z"/>
  <path class="fil4" d="M0.75 1.02c-0.02,-0.04 -0.02,-0.08 -0.01,-0.12 0.01,-0.03 0.02,-0.06 0.02,-0.06 0,0 0,0.03 0,0.06 0,0.04 0.01,0.08 0.02,0.11 0.03,0.06 0.06,0.1 0.05,0.11 0,0.01 -0.06,-0.03 -0.08,-0.1z"/>
  <path class="fil5" d="M0.92 1.01c0.01,-0.03 0.01,-0.08 0,-0.11 -0.01,-0.04 -0.03,-0.06 -0.03,-0.06 0,0 0.01,0.03 0.01,0.06 0,0.03 -0.01,0.07 -0.02,0.1 -0.01,0.07 -0.04,0.11 -0.03,0.12 0,0.01 0.05,-0.03 0.07,-0.11z"/>
  <path class="fil1" d="M0.92 1.31l-0.27 -0.49c0,0 -0.3,0.53 0.27,0.49z"/>
  <path class="fil2" d="M0.62 0.88c0.05,0.09 0.13,0.27 0.14,0.42 0.04,0.01 0.1,0.01 0.16,0.01l-0.27 -0.49c0,0 -0.01,0.02 -0.03,0.06z"/>
  <path class="fil0" d="M0.66 1.26c0.02,-0.09 -0.03,-0.22 -0.07,-0.3 -0.03,0.1 -0.04,0.23 0.07,0.3z"/>
  <path class="fil3 str0" d="M0.92 1.31l-0.27 -0.49c0,0 -0.3,0.53 0.27,0.49z"/>
  <path class="fil4" d="M0.82 1.21c0,0 -0.11,-0.09 -0.15,-0.23 0,0 0.01,0.17 0.08,0.23l0.07 0.04 0 -0.04z"/>
  <path class="fil0" d="M0.99 0.91c0,-0.12 0.16,-0.29 0.16,-0.29 0,0 0.13,0.19 0.13,0.31 -0.01,0.12 -0.08,0.22 -0.16,0.21 -0.08,0 -0.14,-0.1 -0.13,-0.23z"/>
  <path class="fil1" d="M1.15 0.62c0,0 0.02,0.02 0.04,0.06 -0.02,0.1 -0.04,0.29 0.07,0.35 -0.03,0.07 -0.08,0.12 -0.14,0.11 -0.08,0 -0.14,-0.1 -0.13,-0.23 0,-0.12 0.16,-0.29 0.16,-0.29z"/>
  <path class="fil2" d="M1.15 0.62c0,0 0,0 0,0 -0.02,0.06 -0.11,0.34 0.04,0.5 -0.02,0.02 -0.04,0.02 -0.07,0.02 -0.08,0 -0.14,-0.1 -0.13,-0.23 0,-0.12 0.16,-0.29 0.16,-0.29z"/>
  <path class="fil3 str0" d="M0.99 0.91c0,-0.12 0.16,-0.29 0.16,-0.29 0,0 0.13,0.19 0.13,0.31 -0.01,0.12 -0.08,0.22 -0.16,0.21 -0.08,0 -0.14,-0.1 -0.13,-0.23z"/>
  <path class="fil4" d="M1.11 0.98c0,-0.09 0.03,-0.21 0.03,-0.21 0,0 0.02,0.13 0.01,0.21 0,0.08 -0.01,0.15 -0.03,0.15 -0.01,0 -0.02,-0.07 -0.01,-0.15z"/>
  <path class="fil4" d="M1.21 1.02c0.01,-0.04 0.01,-0.08 0.01,-0.12 -0.01,-0.03 -0.02,-0.06 -0.02,-0.06 0,0 0,0.03 0,0.06 0,0.04 -0.02,0.08 -0.03,0.11 -0.02,0.06 -0.05,0.1 -0.05,0.11 0.01,0.01 0.06,-0.03 0.09,-0.1z"/>
  <path class="fil5" d="M1.04 1.01c-0.01,-0.03 -0.01,-0.08 0,-0.11 0.01,-0.04 0.02,-0.06 0.02,-0.06 0,0 0,0.03 0,0.06 0,0.03 0,0.07 0.01,0.1 0.02,0.07 0.05,0.11 0.04,0.12 -0.01,0.01 -0.06,-0.03 -0.07,-0.11z"/>
  <path class="fil1" d="M1.04 1.31l0.27 -0.49c0,0 0.29,0.53 -0.27,0.49z"/>
  <path class="fil2" d="M1.34 0.88c-0.05,0.09 -0.14,0.27 -0.14,0.42 -0.04,0.01 -0.1,0.01 -0.16,0.01l0.27 -0.49c0,0 0.01,0.02 0.03,0.06z"/>
  <path class="fil0" d="M1.3 1.26c-0.02,-0.09 0.03,-0.22 0.07,-0.3 0.02,0.1 0.04,0.23 -0.07,0.3z"/>
  <path class="fil3 str0" d="M1.04 1.31l0.27 -0.49c0,0 0.29,0.53 -0.27,0.49z"/>
  <path class="fil4" d="M1.13 1.21c0,0 0.12,-0.09 0.15,-0.23 0,0 0,0.17 -0.07,0.23l-0.08 0.04 0 -0.04z"/>
  <path class="fil0" d="M1.15 0.86c0,-0.14 -0.16,-0.33 -0.16,-0.33 0,0 -0.16,0.19 -0.16,0.33 0,0.13 0.07,0.24 0.16,0.24 0.08,0 0.16,-0.11 0.16,-0.24z"/>
  <path class="fil1" d="M0.99 0.53c0,0 -0.02,0.02 -0.05,0.06 0.01,0.11 0.03,0.32 -0.09,0.37 0.02,0.08 0.08,0.14 0.14,0.14 0.08,0 0.16,-0.11 0.16,-0.24 0,-0.14 -0.16,-0.33 -0.16,-0.33z"/>
  <path class="fil6" d="M0.99 0.53c0,0 0,0 -0.01,0 0.02,0.06 0.1,0.38 -0.07,0.54 0.03,0.02 0.05,0.03 0.08,0.03 0.08,0 0.16,-0.11 0.16,-0.24 0,-0.14 -0.16,-0.33 -0.16,-0.33z"/>
  <path class="fil3 str0" d="M1.15 0.86c0,-0.14 -0.16,-0.33 -0.16,-0.33 0,0 -0.16,0.19 -0.16,0.33 0,0.13 0.07,0.24 0.16,0.24 0.08,0 0.16,-0.11 0.16,-0.24z"/>
  <path class="fil4" d="M1.01 0.92c0,-0.09 -0.02,-0.22 -0.02,-0.22 0,0 -0.03,0.13 -0.03,0.22 0,0.09 0.01,0.16 0.03,0.16 0.01,0 0.02,-0.07 0.02,-0.16z"/>
  <path class="fil4" d="M0.9 0.96c-0.01,-0.04 -0.01,-0.09 0,-0.13 0,-0.04 0.02,-0.06 0.02,-0.06 0,0 -0.01,0.03 0,0.06 0,0.04 0.01,0.08 0.02,0.12 0.02,0.06 0.05,0.11 0.05,0.12 -0.01,0.01 -0.07,-0.03 -0.09,-0.11z"/>
  <path class="fil4" d="M1.09 0.96c0.01,-0.04 0.01,-0.09 0,-0.13 -0.01,-0.03 -0.02,-0.06 -0.02,-0.06 0,0 0,0.03 0,0.07 0,0.03 -0.01,0.08 -0.02,0.11 -0.02,0.07 -0.06,0.11 -0.05,0.12 0.01,0.01 0.06,-0.03 0.09,-0.11z"/>
  <path class="fil0" d="M1.15 1.18c0,-0.13 -0.16,-0.33 -0.16,-0.33 0,0 -0.16,0.2 -0.16,0.33 0,0.13 0.07,0.24 0.16,0.24 0.08,0 0.16,-0.11 0.16,-0.24z"/>
  <path class="fil1" d="M0.99 0.85c0,0 -0.02,0.03 -0.05,0.07 0.01,0.11 0.03,0.31 -0.09,0.37 0.02,0.08 0.08,0.13 0.14,0.13 0.08,0 0.16,-0.11 0.16,-0.24 0,-0.13 -0.16,-0.33 -0.16,-0.33z"/>
  <path class="fil2" d="M0.99 0.85c0,0 0,0 -0.01,0.01 0.02,0.06 0.1,0.37 -0.07,0.53 0.03,0.02 0.05,0.03 0.08,0.03 0.08,0 0.16,-0.11 0.16,-0.24 0,-0.13 -0.16,-0.33 -0.16,-0.33z"/>
  <path class="fil3 str0" d="M1.15 1.18c0,-0.13 -0.16,-0.33 -0.16,-0.33 0,0 -0.16,0.2 -0.16,0.33 0,0.13 0.07,0.24 0.16,0.24 0.08,0 0.16,-0.11 0.16,-0.24z"/>
  <path class="fil4" d="M1.01 1.24c0,-0.09 -0.02,-0.22 -0.02,-0.22 0,0 -0.03,0.13 -0.03,0.22 0,0.09 0.01,0.17 0.03,0.17 0.01,0 0.02,-0.08 0.02,-0.17z"/>
  <path class="fil4" d="M0.9 1.28c-0.01,-0.03 -0.01,-0.09 0,-0.12 0,-0.04 0.02,-0.07 0.02,-0.07 0,0 -0.01,0.03 0,0.07 0,0.04 0.01,0.08 0.02,0.11 0.02,0.07 0.05,0.12 0.05,0.13 -0.01,0.01 -0.07,-0.04 -0.09,-0.12z"/>
  <path class="fil4" d="M1.09 1.29c0.01,-0.04 0.01,-0.09 0,-0.13 -0.01,-0.04 -0.02,-0.06 -0.02,-0.06 0,0 0,0.03 0,0.06 0,0.04 -0.01,0.08 -0.02,0.11 -0.02,0.07 -0.06,0.12 -0.05,0.13 0.01,0.01 0.06,-0.04 0.09,-0.11z"/>
  <path class="fil1" d="M0.99 1.42c-0.08,0.01 -0.15,0 -0.2,0 -0.17,-0.03 -0.23,-0.12 -0.26,-0.18 -0.01,-0.03 -0.02,-0.05 -0.02,-0.05 0.28,-0.05 0.48,0.23 0.48,0.23z"/>
  <path class="fil2" d="M0.52 1.19c0.01,0 0.33,0.11 0.35,0.23 0.03,0 0.08,0 0.12,0 0,0 -0.2,-0.28 -0.47,-0.23z"/>
  <path class="fil0" d="M0.79 1.42c-0.17,-0.03 -0.23,-0.12 -0.26,-0.18 0.08,0.03 0.26,0.11 0.26,0.18z"/>
  <path class="fil3 str0" d="M0.99 1.42c0,0 -0.2,-0.28 -0.48,-0.23 0,0 0.04,0.28 0.48,0.23z"/>
  <path class="fil4" d="M0.99 1.42c0,0 -0.22,-0.15 -0.35,-0.18 0,0 0.2,0.11 0.21,0.19l0.14 -0.01z"/>
  <path class="fil1" d="M0.98 1.42c0.08,0.01 0.15,0 0.2,0 0.17,-0.03 0.23,-0.12 0.26,-0.18 0.01,-0.03 0.01,-0.05 0.01,-0.05 -0.27,-0.05 -0.47,0.23 -0.47,0.23z"/>
  <path class="fil2" d="M1.45 1.19c-0.01,0 -0.33,0.11 -0.35,0.23 -0.03,0 -0.08,0 -0.12,0 0,0 0.2,-0.28 0.47,-0.23z"/>
  <path class="fil0" d="M1.18 1.42c0.17,-0.03 0.23,-0.12 0.26,-0.18 -0.09,0.03 -0.26,0.11 -0.26,0.18z"/>
  <path class="fil3 str0" d="M0.98 1.42c0,0 0.2,-0.28 0.47,-0.23 0,0 -0.03,0.28 -0.47,0.23z"/>
  <path class="fil4" d="M0.98 1.42c0,0 0.22,-0.15 0.35,-0.18 0,0 -0.2,0.11 -0.21,0.19l-0.14 -0.01z"/>
  <path class="fil4" d="M1.06 1.55l-0.04 -0.14 -0.07 0 -0.04 0.14c-0.01,0.01 0.01,0.03 0.02,0.03l0.11 0c0.01,0 0.02,-0.02 0.02,-0.03z"/>
  <path class="fil4" d="M0.95 1.43c0,0 -0.02,0.1 -0.08,0.1 0,0 0,-0.06 0.04,-0.08 0,0 -0.09,0.05 -0.14,0.04 0,0 0.08,-0.12 0.18,-0.06z"/>
  <path class="fil4" d="M1.02 1.43c0,0 0.02,0.1 0.08,0.1 0,0 0,-0.06 -0.04,-0.08 0,0 0.09,0.05 0.14,0.04 0,0 -0.08,-0.12 -0.18,-0.06z"/>
  <path class="fil7" d="M0.7 1.51l-0.69 0c-0.01,0 -0.01,0.01 -0.01,0.01l0 0.02c0,0.01 0,0.01 0.01,0.01l0.69 0c0,0 0.01,0 0.01,-0.01l0 -0.02c0,0 -0.01,-0.01 -0.01,-0.01z"/>
  <path class="fil7" d="M1.96 1.51l-0.69 0c0,0 -0.01,0.01 -0.01,0.01l0 0.02c0,0.01 0.01,0.01 0.01,0.01l0.69 0c0.01,0 0.01,0 0.01,-0.01l0 -0.02c0,0 0,-0.01 -0.01,-0.01z"/>
  <path class="fil7" d="M1.86 0.93l-0.29 0c-0.01,0 -0.01,0.01 -0.01,0.01l0 0c0,0.01 0,0.01 0.01,0.01l0.29 0c0,0 0.01,0 0.01,-0.01l0 0c0,0 -0.01,-0.01 -0.01,-0.01zm-1.46 0l-0.29 0c0,0 -0.01,0.01 -0.01,0.01l0 0c0,0.01 0.01,0.01 0.01,0.01l0.29 0c0.01,0 0.01,0 0.01,-0.01l0 0c0,0 0,-0.01 -0.01,-0.01zm0.02 -0.06c0,0 0,0 0,0l-0.41 -0.19c-0.01,0 -0.01,-0.01 -0.01,-0.01 0,-0.01 0.01,-0.01 0.02,-0.01l0.41 0.19c0,0 0.01,0.01 0,0.01 0,0.01 0,0.01 -0.01,0.01zm-0.21 -0.24c0,0 0,0 -0.01,0l-0.03 -0.02c-0.01,-0.01 -0.01,-0.01 -0.01,-0.02 0.01,-0.01 0.02,-0.01 0.02,0l0.04 0.02c0,0 0,0.01 0,0.01 0,0.01 -0.01,0.01 -0.01,0.01zm0.26 0.16c-0.01,0 -0.01,0 -0.01,0l-0.19 -0.12c-0.01,0 -0.01,-0.01 0,-0.02 0,0 0.01,0 0.01,0l0.19 0.12c0.01,0 0.01,0.01 0.01,0.02 -0.01,0 -0.01,0 -0.01,0zm0.05 -0.07c0,0 -0.01,0 -0.01,0l-0.35 -0.29c0,-0.01 0,-0.02 0,-0.02 0.01,-0.01 0.01,-0.01 0.02,0l0.35 0.29c0,0 0,0.01 0,0.01 0,0.01 -0.01,0.01 -0.01,0.01zm0.06 -0.07c0,0 0,0 -0.01,0l-0.15 -0.17c0,0 0,-0.01 0,-0.01 0.01,-0.01 0.01,-0.01 0.02,0l0.15 0.16c0.01,0.01 0,0.01 0,0.02 0,0 -0.01,0 -0.01,0zm-0.2 -0.22c0,0 -0.01,0 -0.01,0l-0.03 -0.03c0,-0.01 0,-0.02 0,-0.02 0.01,-0.01 0.01,-0.01 0.02,0l0.03 0.03c0,0.01 0,0.01 0,0.02 -0.01,0 -0.01,0 -0.01,0zm0.27 0.16c0,0 -0.01,0 -0.01,0l-0.26 -0.37c0,0 0,-0.01 0.01,-0.02 0,0 0.01,0 0.01,0.01l0.26 0.37c0.01,0 0.01,0.01 0,0.01 0,0 -0.01,0 -0.01,0zm0.08 -0.04c0,0 -0.01,-0.01 -0.01,-0.01l-0.1 -0.2c-0.01,0 -0.01,-0.01 0,-0.01 0.01,-0.01 0.01,0 0.02,0l0.1 0.2c0,0.01 0,0.01 0,0.02 -0.01,0 -0.01,0 -0.01,0zm-0.14 -0.27c0,0 0,0 -0.01,0l-0.02 -0.04c0,-0.01 0,-0.02 0,-0.02 0.01,0 0.02,0 0.02,0.01l0.02 0.04c0.01,0 0.01,0.01 0,0.01 0,0 0,0 -0.01,0zm0.23 0.23c-0.01,0 -0.02,0 -0.02,-0.01l-0.11 -0.43c0,-0.01 0,-0.02 0.01,-0.02 0,0 0.01,0.01 0.01,0.01l0.12 0.44c0,0 0,0.01 -0.01,0.01 0,0 0,0 0,0zm0.08 -0.03c-0.01,0 -0.01,0 -0.01,-0.01l-0.03 -0.22c0,-0.01 0,-0.01 0.01,-0.01 0.01,0 0.01,0 0.01,0.01l0.03 0.22c0,0 0,0.01 -0.01,0.01 0,0 0,0 0,0zm-0.04 -0.29c-0.01,0 -0.01,-0.01 -0.01,-0.01l-0.01 -0.05c0,-0.01 0.01,-0.01 0.01,-0.01 0.01,0 0.02,0 0.02,0.01l0 0.05c0,0 0,0.01 -0.01,0.01 0,0 0,0 0,0zm0.13 0.29c-0.01,0 -0.01,-0.01 -0.01,-0.02l0 -0.45c0,0 0,-0.01 0.01,-0.01 0.01,0 0.01,0.01 0.01,0.01l0 0.45c0,0.01 0,0.02 -0.01,0.02zm0.09 0c0,0 0,0 0,0 -0.01,0 -0.01,-0.01 -0.01,-0.01l0.03 -0.22c0,-0.01 0.01,-0.01 0.01,-0.01 0.01,0 0.01,0 0.01,0.01l-0.03 0.22c0,0.01 0,0.01 -0.01,0.01zm0.04 -0.29c0,0 0,0 0,0 -0.01,0 -0.01,0 -0.01,-0.01l0 -0.05c0.01,-0.01 0.01,-0.01 0.02,-0.01 0,0 0.01,0 0.01,0.01l-0.01 0.05c0,0.01 0,0.01 -0.01,0.01zm0.05 0.31c0,0 0,0 0,0 -0.01,0 -0.01,-0.01 -0.01,-0.02l0.12 -0.43c0,-0.01 0,-0.01 0.01,-0.01 0.01,0 0.01,0.01 0.01,0.01l-0.12 0.44c0,0.01 0,0.01 -0.01,0.01zm0.07 0.04c0,0 0,0 0,0 -0.01,0 -0.01,-0.01 -0.01,-0.02l0.11 -0.19c0,-0.01 0.01,-0.01 0.01,-0.01 0.01,0.01 0.01,0.01 0.01,0.02l-0.11 0.2c0,0 0,0 -0.01,0zm0.14 -0.26c-0.01,0 -0.01,0 -0.01,0 -0.01,0 -0.01,-0.01 0,-0.02l0.02 -0.04c0.01,-0.01 0.01,-0.01 0.02,0 0.01,0 0.01,0.01 0,0.01l-0.02 0.05c-0.01,0 -0.01,0 -0.01,0zm-0.06 0.31c0,0 -0.01,0 -0.01,0 0,-0.01 -0.01,-0.01 0,-0.02l0.26 -0.37c0.01,0 0.01,0 0.02,0 0,0.01 0.01,0.01 0,0.02l-0.26 0.36c0,0.01 -0.01,0.01 -0.01,0.01zm0.07 0.06c0,0 -0.01,0 -0.01,-0.01 0,0 -0.01,-0.01 0,-0.01l0.15 -0.17c0.01,0 0.01,0 0.02,0 0,0.01 0,0.02 0,0.02l-0.15 0.16c-0.01,0.01 -0.01,0.01 -0.01,0.01zm0.2 -0.21c0,0 0,-0.01 -0.01,-0.01 0,0 0,-0.01 0,-0.01l0.03 -0.04c0.01,-0.01 0.02,-0.01 0.02,0 0.01,0 0.01,0.01 0,0.01l-0.03 0.04c0,0 0,0.01 -0.01,0.01zm-0.14 0.27c0,0 -0.01,0 -0.01,0 0,-0.01 0,-0.01 0,-0.02l0.35 -0.28c0.01,-0.01 0.02,-0.01 0.02,0 0,0 0,0.01 0,0.02l-0.35 0.28c0,0 -0.01,0 -0.01,0zm0.05 0.08c0,0 0,0 -0.01,-0.01 0,0 0,-0.01 0.01,-0.01l0.19 -0.12c0,0 0.01,0 0.01,0 0.01,0.01 0.01,0.02 0,0.02l-0.19 0.12c0,0 0,0 -0.01,0zm0.26 -0.15c-0.01,0 -0.01,-0.01 -0.01,-0.01 -0.01,0 0,-0.01 0,-0.02l0.04 -0.02c0,-0.01 0.01,-0.01 0.02,0 0,0 0,0.01 -0.01,0.02l-0.03 0.02c-0.01,0.01 -0.01,0.01 -0.01,0.01zm-0.21 0.23c-0.01,0 -0.01,0 -0.02,-0.01 0,0 0,-0.01 0.01,-0.01l0.41 -0.19c0.01,0 0.02,0 0.02,0.01 0,0 0,0.01 -0.01,0.01l-0.41 0.19c0,0 0,0 0,0z"/>
  <g id="_1937037957552">
   <path class="fil0" d="M0.35 1.87c0,0.01 0,0.02 0,0.02 0,0.01 0,0.02 0,0.03 0,0 0,0.01 0,0.01 0,0.01 0,0.01 0,0.02 0,0 0,0 0,0.01 -0.01,0 -0.01,0.01 -0.01,0.01 0,0 0,0 -0.01,0 0,0 0,0 -0.01,0 0,0 0,0 -0.01,0 0,0 0,0 -0.01,0 0,0 0,0 -0.01,0 0,0 0,0 -0.01,0 0,0 0,0 -0.01,0 0,0 0,0 0,0 0,0 0,-0.01 0,-0.01 -0.01,-0.01 -0.01,-0.01 -0.01,-0.02 0,0 0,-0.01 0,-0.02 0.01,0 0.01,-0.01 0,-0.01 0,-0.01 0,-0.02 0,-0.03 0,-0.01 0,-0.03 0,-0.04 0,-0.01 0,-0.02 0,-0.03 0,-0.02 0,-0.03 0,-0.04 0.01,0 0.01,-0.01 0.01,-0.01 0,0 0,-0.01 0,-0.01 0,0 0,0 0,-0.01 0,0 0,0 -0.01,0 0,-0.01 0,-0.01 0,-0.02 0,0 0,-0.01 0,-0.02 0.01,0 0.01,0 0.01,0 0,-0.01 0,-0.01 0,-0.01 0,0 0,0 0,-0.01 0,0 0,0 0,0 0.01,0 0.02,0 0.03,0 0.01,0 0.02,0 0.03,0 0.01,0 0.02,0 0.03,0 0.01,0 0.01,0 0.02,0 0.01,0 0.01,0 0.01,0 0,0 0.01,0 0.01,0 0,0 0.01,0 0.01,0 0,0 0,0 0.01,0 0.01,0 0.01,0 0.02,0.01 0.01,0 0.01,0 0.02,0.01 0.01,0 0.01,0.01 0.02,0.02 0,0 0,0.01 0.01,0.02 0,0 0,0.01 0,0.02 0,0 0,0.01 0,0.02 0,0.01 0,0.02 0,0.03 -0.01,0.01 -0.01,0.02 -0.02,0.02 0,0.01 -0.01,0.02 -0.02,0.03 -0.01,0 -0.02,0.01 -0.03,0.01 0,0 0,0 0,0 -0.01,0 -0.01,0 -0.01,0 -0.01,0 -0.02,0 -0.03,0 -0.01,0 -0.02,0 -0.03,0zm0.04 -0.17c0,0 0,0 0,0 0,0 0,0 0,0 0,0 0,0 0,0 0,0 0,0 0,0 0,0 0,0 0,0 0,0 0,0 0,0 0,0 0,0 0,0 0,0 0,0 0,0zm-0.07 0c0,0 0,0 0,0 0,0 0,0 0,0 0,0 0,0 0,0 0,0 0,0 0,0l-0.01 0 0 0.01c0,0 0,0 0,0 0,0 0,0 0,0 0,0 0,0 0,0 0,0 0,0 0,0 0,0 0.01,0 0.01,0 0,0 0,0 0,0 0,0 0,0 0,0 0,0 0,0 0,0 0,0 0,0 0,0l0 -0.01 0 0zm0 0c0,0 0,0 0,0 0,0 0,0 0.01,0 0,0 0,0 0,0 0,0 0,0 -0.01,0zm0.01 0c0.01,0 0.01,0 0.01,0 0,0 0,0.01 0,0.01 0,0 0,0 0,0 0,0 0,0 0,0 0,0 0,0 0,0 0,-0.01 0,-0.01 0,-0.01 0,0 0,0 0,0 -0.01,0 -0.01,0 -0.01,0l0 0zm0.1 0.01c0,-0.01 0,-0.01 0,-0.01 0,0 -0.01,0 -0.01,0 0,0 0,0 0,0.01 0.01,0 0.01,0 0.01,0zm-0.14 0c0.01,0 0.01,0 0.01,0 0,0 0,0 0,0 0,0 0,0 0,0 0,0 0,0 0.01,-0.01 -0.01,0 -0.01,0 -0.01,0 0,0 0,0 0,0 -0.01,0.01 -0.01,0.01 -0.01,0.01zm0.06 0c0,0 0,0 0.01,0 0,0 0,0 0,0.01 0,0 0,0 0,0 0.01,0 0.01,0 0.01,0 0,0 0,-0.01 0,-0.01 -0.01,0 -0.01,0 -0.01,0 0,0 0,0 -0.01,0 0,0 0,0 0,0 0,0 0,0 0,0 0,0 0,0 0,0l0 0 0 0c0,0 0,0.01 0,0.01 0,0 0,0 0,0 0,0 0,0 0,0 0,0 0,0 0,-0.01l0 0.01 0 -0.01zm0.07 0c0,0 0,0 0,0 0,0 0,0 0,0 0,0 -0.01,0 -0.01,0 0,0 0,0 0,0 0,0 0,0 0,0 0,0 0,0 0,0 0,0 0,0 0.01,0zm-0.04 0.01c0,0 0,0 0,0 0,0 0,0 0.01,0 0,0 0,0 0,0 0,0 0,0 0,0 0,0 0,0 0,0 0,-0.01 0,-0.01 0,-0.01 0,0 0,0 0,0 0,0 0,0 0,0 0,0 0,0 0,0 0,0 -0.01,0 -0.01,0 0,0 0,0 0,0 0,0.01 0,0.01 0,0.01zm0.06 0c0,0 0,-0.01 0,-0.01 0,0 0,0 0,0 0.01,0 0.01,0 0.01,0 0,0 0,0 0,0 0,0 0,0 -0.01,0 0,0 0,0 0,0 0,0 0,0 0,0.01zm-0.01 0c0,0 0,0 0,0 0,0 -0.01,0 -0.01,0 0,-0.01 0,-0.01 0,-0.01 0,0 0,0 0,0 0,0.01 0,0.01 0,0.01 0,0 0.01,0 0.01,0l0 0 0 0 0 0c0,0 0,0 0,0 0,-0.01 0,-0.01 0,-0.01 0,0 0,0 0,0 0,0 0,0 0,0l0 0 0 0.01zm-0.03 0c0,0 0,0 0,0 0.01,0 0.01,0 0.01,0 0,0 -0.01,0 -0.01,0 0,-0.01 0,0 0,0zm-0.06 0c0,0 0,0 0,0 0,0 0,0 0,0 0,0 -0.01,0 -0.01,0 0,0 0,0 0,0 0,0 0,0 0,0 0,0 0,0 0,0 0,0 0,0 0,0 0.01,0 0.01,0 0.01,0.01 0,-0.01 0,-0.01 0,-0.01l0 0 0 0 0 0c0,0.01 0,0.01 0.01,0.01 0,-0.01 0,-0.01 0,-0.01 0,0 0,0 0,0 0,0 0,0 0,0 0,0 0,0 0,0 0,0 0,0 0,0 0,0 0,0 0,0 0,0 0,0 -0.01,0l0 0 0 0zm0.1 0.01c0,0 0,0 0.01,0 0,0 0,0 0,0 0,0 0,0 0,0 0,0 0,0 0,0 0,0 0,0 0,0 0,0 0,0 0,0 0,-0.01 -0.01,-0.01 -0.01,-0.01 0,0 0,0 0,0l0 0.01zm-0.13 0c0,0 0,0 0.01,0 0,0 0,0 0,-0.01 0,0 0,0 -0.01,0 0,0 0,0.01 0,0.01 0,0 0,0 0,0 0,0 0,0 0,0zm-0.03 0c0,0 0,0 0.01,0 0,0 0,0 0,0 0,0 -0.01,0 -0.01,0 0,0 0,0 0,0zm0.14 0.02c0,0 0,0 0,0 0,0 0.01,0 0.01,0 0,0 0,0 0,0 0,-0.01 0,-0.01 0,-0.01 0,0 0,0 -0.01,0 0,0 0,0 0,0 0,0 0,0 0,0 0,0 0,0 0,0 0,0 0,0.01 0,0.01 0,0 0,0 0,0zm0.03 0c0,0 0,0 0,0 0,0 0,0 0,0 0,0 0,0 0,0 0,0.01 0,0.01 0,0.01 0,0 0,0 0,0 0,0 0,0 0.01,0 0,-0.01 -0.01,-0.01 -0.01,-0.02 0,0 0,0 0,0 0,0 0,0.01 0,0.01zm-0.05 0.05c0,0 0,0 0,0 0.01,-0.01 0.01,-0.01 0.01,-0.01 0,-0.01 0,-0.01 0,-0.02 0,0 0,0 0,-0.01 0,0 0,-0.01 -0.01,-0.01 0,0 0,0 -0.01,0 0,-0.01 0,-0.01 -0.01,-0.01 0,0 0,0 -0.01,0 0,0 -0.01,0 -0.01,0 0,0 -0.01,0 -0.01,0 0,0.01 0,0.01 0,0.02 0,0 0,0.01 0,0.01 0,0.01 0,0.01 0,0.02 0,0 0,0.01 0,0.01 0,0 0,0 0.01,0 0,0 0.01,0 0.01,0.01 0.01,0 0.01,0 0.01,0 0.01,0 0.01,-0.01 0.02,-0.01zm0.06 -0.03c0,0 0,0 0,0 0.01,0 0.01,0 0.01,0 0,0 0,0 0,-0.01 0,0 0,0 0,0 0,0 0,0 0,0 0,0 0,0 0,0 -0.01,0 -0.01,0 -0.01,0 0,0 0,0.01 0,0.01zm-0.03 0c0,0 0,0 0,0 0,0 0,0 0,0 0,0 0,0 0,0 0,0 0,0 0,0l0 0 0 0zm0.02 0.02c0,0 0,0 0,-0.01 0,0 0,0 0,0 0,0 0,0 -0.01,0 0,0 0,0 0,0 0,0 0.01,0 0.01,0.01 0,0 0,0 0,0zm-0.01 0l0 0c0,0 0,0 0,0 0,0 0,0 0,0 0,0 0,0 0,0 0,0 0,0 0,0 0,0 0,0 0,0 0,0 0,0 0,0zm0.02 0l0 0c0,0 0,0 0,0 0,0 0,0 0,0 0,0 0,0 0,0 0,0 0,0 0,0 0,0 0,0 0,0zm-0.02 0.01c0,0 0,0 0,0 0,0 0,0 0.01,0 0,0 0,0 0,0 0,0 0,0 0,0 0,0 0,0 0,0 0,0 0,0 0,-0.01 0,0 -0.01,0 -0.01,0.01 0,0 0,0 0,0zm-0.13 0c0.01,0.01 0.01,0.01 0.01,0.01 0,-0.01 0,-0.01 0,-0.01 0,0 0,0 0,0 0,0 0,0 0,0 0,0 -0.01,0 -0.01,0 0,0 0,0 0,0zm0.15 0c0,0 0,0 0,0 0,0 0,0 0,0 0,0 0,0 0,0 0,0 0,0 0,0 0,0 0,0 0,0 0,0 0,0 0,0zm0 0.01c0,0 0,0 0,0 0,0 0,0 0,0 0,0 0,0 0,0 0,0 0,0 -0.01,0 0,0 0,0 0.01,0 0,0 0,0 0,0 0,0 0,0 0,0 0,0 0,0 0,0zm-0.05 0c0,0 0,0 0,0 0,0 0,0 0,0 0,0 0,0 0,0 0,0 0.01,0 0.01,0 0,0 0,0 0,0 0,0 0,0 -0.01,0 0,0 0,0 0,0 0,0 0,0 0,0 0,0 0,0 0,0zm0.03 0.02c0,-0.01 0,-0.01 0,-0.01 0,0 0,0 0,0 0,0 0,0 0,0 0,0 0,0 0,0 0,0 0,0 0,0 0,0 0,0 0,0 0,0 0,0 0,0 0,0 0,0 0,0 0,0 0,0 0,0 0,0 0,0 0,0l0 0c-0.01,0 -0.01,0 -0.01,0 0,0.01 0,0.01 0,0.01 0,0 0,0 0,0 0,0 0,0 0,0 0,0 0,0 0,0 -0.01,0 -0.01,0 -0.01,-0.01 0,0 0,0 0,0 0,0 0,0 -0.01,0 0.01,0.01 0.01,0.01 0.01,0.01 0,0 0.01,0 0.01,0 0,0 0,0.01 0,0.01 0,0 0,0 0,0l0 0 0 0c0,0 0,0.01 0,0.01 0,0 0,0 0,0 0,0 0,0 0,0 0,0 0,0 0,0 0,0 0,0 -0.01,0 0,0 0,0 0,0 0,0 0,0 0,0 0,0 0,0 0,-0.01 0,0.01 0,0.01 0,0.01 0,0 -0.01,0 -0.01,0 0,0 0,0 0,0 0,0 0,0 0,0 0,0 0,0 0.01,0 0,0 0,0 0,0 0,0 0,0 0.01,0 0,0 0,0 0,0 0,0 0,0 0,0l0 -0.01c0,0 0,0 0,0 0,0 0.01,0 0.01,0 0,0 0,0 0,0 0,0 0,0 0,0 0,0 0,0 0,-0.01 0,0 0,0 0,0l0 0 0 0 0 -0.01 0 0c0,0 0,0 0,0 0,0 0,0 0,0 0,0 0,0.01 0,0.01zm0.02 -0.01l0 0.01c0,0 0,0 0,0l0 0c0,0 0.01,0 0.01,0l0 -0.01c0,0 0,0 -0.01,0 0,0 0,0 0,0l0 0c0,0 0,0 0,0zm-0.15 0.01l0.01 0c0,0 0,0 0,0 0,0 0,0 0,0 0,0 0,0 -0.01,0 0,0 0,0 0,0l0 0zm0.08 0c0,0 0,0 0,0 0,0 0,0 -0.01,0l0 0 0.01 0 0 0 0 0c0,0 0,0 0,0.01 0,0 0,0 0,0 0,0 0,0 0,0 0,0 0,0 0,0l0 0 0 0c0,0 0,0 0,0 0,0 0,0 0,0 0,0 0,0.01 0,0.01 0,0 0,0 0,0 0,0 0,0 0,0 0,0 0,-0.01 0,-0.01l0.01 0 0 0c0,0 0,0 0,0 0,0 0,0 0,0 0,0 -0.01,-0.01 -0.01,-0.01 0,0 0,0 0,0l0 0 0 0zm-0.06 0.01c0,0 0,0 0,0 0,0 0,-0.01 0,-0.01 0,0 0,0.01 0,0.01 0,0 0,0 0,0zm-0.01 0c0,0 0,0 0,0 0,0 0,0 0,0 -0.01,0 -0.01,0 -0.01,0 0,0 0,0 0,0 0,0 0,0 0,0 0,0 0,0 0,0 0,0.01 0.01,0.01 0.01,0.01 0,0 0,0 0,-0.01zm0.08 0.01c0,0 0,0 0,0 0,0 0,0 0,0 0,0 0,0 0,0 0,0 0,0 0,0 0,0 0,0 0,0 0,0 0,0 0,0 0,0 0,0 0,0 0,0 0,0 0,0zm-0.08 0.01c0,0 0,0 0,0 0,0 0.01,0 0.01,0 0,0 0,0 0,0 0,0 0,0 0,0 0,0 0,-0.01 0,-0.01 0,0 0,0 0,0 -0.01,0 -0.01,0 -0.01,0 0,0 0,0 0,0 0,0 0,0.01 0,0.01zm-0.01 0c0,0 0,0 0,0 0,0 0,0 0,0 0,0 0,0 0,0 0,0 0,0 0,0 0,0 0,0 0,0 0,0 0,0 0,0 0,0 0,0 0,0 0,0 0,0 0,0zm0.03 0c0,0 0,0 0,0 0,0 0,0 0,0 0,0 0,0 0,0 0,0 0,0 0,0 0,0 0,0 0,0 0,0 0,0 0,0zm-0.02 0.02c0,0 0,0 0,0 0,0 0.01,0 0.01,0 0,0 0,0 0,0 0,0 0,0 0,0 0,0 0,0 0,0 0,0 0,0 0,0 0,-0.01 0,-0.01 0,-0.01 -0.01,0 -0.01,0 -0.01,0 0,0 0,0.01 0,0.01 0,0 0,0 0,0 0,0 0,0 0,0 0,0 0,0 0,0zm-0.01 0.01c0,0 -0.01,0 -0.01,0 0,-0.01 0,-0.01 0,-0.01 0,0 0,0 0,0.01 0,0 0,0 0,0 0,0 0,0 0,0 0,0 0,0 0,0 0,0 0,0 0,0 0,0 0,0 0,0 0.01,0 0.01,0 0.01,0l0 0c0,0 0,0.01 0,0.01 0,0 0,0 0,0 0,0 0.01,0 0.01,0 0,0 0,0 0,0 0,0 0,0 0,0 0,0 0,0 0,0 0,0 0,0 0,0 0,0 0,0 -0.01,0 0,0 0,0 0,0 0,0 0,0 0,0 0,0 0,0 0,-0.01 0,0 0,0 0,0 0,0 0,0 0,0 0,0 0,0 0.01,0l-0.01 0 0 0 0 0zm0.02 0c0,0 0,0 0,0 0,0.01 0,0.01 0,0.01 0,0 0,0 0,0 0,0 0,0 0,-0.01 0,0 0,0 0,0 0,0 0,0 0,0 0,0 0,0 0,0 0,0 0,0 0,0zm-0.04 0l0 0c0,0 0,0 0,0l0 0zm0.01 0.03l0 0c0,0 0,0 0,0 0,0 0,0 0,-0.01 0,0 0,0 0,0 0,0 0,0 0,0 0,0 0,0 0,0 0,0 0,0 -0.01,0 0.01,0 0.01,0 0.01,0.01 0,0 0,0 0,0zm0.03 -0.01c0,0 0,0 0,0 0,0 0,0 0,0 0,0 0,0 0,0 0,0 0,0 0,0 0,0 0,0 0,0 0,0 0,0 0,0zm-0.01 0.01c0,0 0,0 0,0 -0.01,0 -0.01,0 -0.01,0 0,0 0,0 0,0 0,0 0,0 0,0l0 0 0 0c0,0.01 0,0.01 0,0.01 0.01,0 0.01,0 0.01,0 0,0 0,0 0,0 0,0.01 0,0.01 0,0.01 0,0 0,0 0,0 0,0 0,0 0,0 0,0 0,0 0,0.01 0,0 0,0 0,0 0,0 0,0 0,0 0,0 0,0 0,0 0,0 0,0 0,0 0,0 0,0 0,0 0,0 0,0 0,0 0,0 0,0 0,0 0,0 0,0 0,0 0,0 0.01,0 0.01,0 0,0 0,0 0,0 0,0 0,0 0,0 -0.01,0 -0.01,-0.01 -0.01,-0.01 0,0 0,0 0,0 0.01,0 0.01,0 0.01,0 0,0 0,0 0,-0.01 0,0 0,0 -0.01,0 0,0 0,0 0,0 0,0 0,0 0,0 0,0 0,0 0,-0.01 0,0.01 0,0.01 0,0.01 0,-0.01 0,-0.01 0,-0.01l0 0 0 0zm-0.03 0.02c0,0 0,0 0,0 0.01,0 0.01,0 0.01,0 0,0 0,0 0,0 0,0 0,0 0,0 0,0 0,0 0,0 -0.01,0 -0.01,0 -0.01,0zm-0.01 0.02c0,-0.01 0,-0.01 0,-0.01 0,0 0,0 0,0 0,0.01 0,0.01 0,0.01zm0.01 0c0,0 0,0 0,0 0,0 0,0 0,0 0,0 0,0 0,0 0,0 0,0 0,0 0,0 0,0 0,0 0,0 0,0 0,0 0,0 0,0 0,0 0,0 0,0 0,0zm0.02 -0.26c0,0 0.01,0 0.01,0l-0.01 0zm0.04 0.02c0,-0.01 0,-0.01 0,-0.01 0,0 0,0 0,0l0 0.01zm0.08 0c0,0 0,0 0,0 0,0 0,-0.01 0,-0.01l0 0.01zm-0.09 0c0,0 0,0 0,0 0,0 0,0 0,0l0 0zm0.09 0.12c0,0 0,0 0,0.01l0 -0.01zm0.01 -0.02c0,0 0,0 0,0 0,0 0,0 0,0l0 0zm-0.05 0.01c0,0 0,0 0,0 0,0 0,0 0,0l0 0zm0 0.01c0,0 0,0 0,0 0,0 0.01,0 0.01,0l-0.01 0zm-0.08 0.05c0,0 0,0 0,0 0,0 0,0 0,0l0 0zm0 0.03l0.01 0 -0.01 0z"/>
   <path class="fil0" d="M0.61 1.97c-0.01,0 -0.01,0 -0.02,0 0,0 -0.01,0 -0.02,0 0,0 -0.01,0 -0.02,0 0,0 -0.01,0 -0.01,0 0,0 -0.01,0 -0.01,-0.01 0,0 0,0 0,0 0,-0.01 0,-0.01 0,-0.01 0,-0.01 0,-0.01 0,-0.01 0,-0.02 0,-0.04 0,-0.06 0,-0.01 0,-0.03 0,-0.05 0,-0.02 0,-0.04 0,-0.06 0,-0.02 0,-0.04 0,-0.06 0,-0.01 0,-0.01 0,-0.01 0,-0.01 0,-0.01 0,-0.01 0,-0.01 0.01,-0.01 0.01,-0.01 0,0 0,0 0,0 0.01,0 0.01,0 0.01,0 0.01,0 0.01,0 0.02,0 0,0 0,0 0.01,0 0,0 0.01,0 0.01,0 0.01,0 0.01,0 0.02,0 0,0 0,0 0,0 0,0.01 0,0.01 0,0.02 0.01,0 0.01,0.01 0.01,0.01 0,0.01 -0.01,0.02 -0.01,0.02 0,0.01 0,0.01 0,0.02 0,0.01 0,0.02 0,0.03 0,0.01 0,0.02 0,0.03 0,0.01 0,0.02 0,0.04 0,0.01 0,0.02 0,0.03 0,0.01 0,0.02 0,0.02 0,0.01 0,0.02 0,0.03 0,0.01 0,0.01 0,0.01 0,0.01 0,0.01 0,0.01 0,0.01 0,0.01 0,0.01 0,0 0,0.01 0,0.01zm-0.03 -0.27c0,0 0,0 0,0 0,0 0,0 -0.01,0 0,0 0,0 0,0 0,0 0,0 0,0 0,0 0.01,0 0.01,0 0,0 0,0.01 0,0.01 0,0 0,-0.01 0,-0.01zm-0.02 0.01l0 0c0,0 0,0 0,0 0,0.01 0,0.01 0,0.01 0,0 0.01,0 0.01,0 0,0 0,0 0,0 0,0 0,0 0,0 0,0 0,0 0,0 0,0 -0.01,0 -0.01,0 0,0 0,-0.01 0,-0.01 0,0 0,0 0,0 0,0 0,0 0,0 0,0 0,0 0,0 0,0 0,0 0,0zm0.02 0.02c0,0 0,0 0,0 0.01,0 0.01,0 0.01,0 0,0 0,0 0,0 0,0 0,0 -0.01,0zm0 0.01c0,0 0,0 0,0 0,0 0,0 0,0 0,0 0,0 0,0 0,0 0,0 0,0 0,0 0,0 0,0 0,0 0,0 0,0zm-0.02 0.02c0,-0.01 0,-0.01 0.01,-0.01 0,0 0,0 0.01,0 0,0.01 0,0.01 0,0.01 0,0 0,0 0,0 0.01,0 0.01,0 0.01,0 0,0 0,0 0,0 0,0 0,0 0,0 0,0 0,-0.01 0,-0.01 0,0 -0.01,0 -0.01,0 0,0 0,0 0,0 0,0 0,0 -0.01,0 0,0 0,0 0,0 0,0 0,0 0,0 0,0 0,0 -0.01,0 0,0 0,0 0,0 0,0 0,0 0,0 0,0 0,0 0,0 0,0 0,0 0,0.01zm0.03 0.02c-0.01,0 -0.01,0 -0.01,0 0,0 0,0 0,0 0,0 0,-0.01 0,-0.01 -0.01,0 -0.01,0 -0.01,0 0,0 0.01,0 0,-0.01 0,0 0,0 0,0 0,0 0,0 0,0.01 -0.01,0 -0.01,0 0,0 0,0.01 0,0.01 0,0.01 0,0 0,0 0,0 0,0 0,0 0,0l0 0 0 0c0,0 0,0 0,0.01 0,0 0,0 0,0 0,0 0,0 0,0 0,0 0,0 0,0l0 0 0 0c0,0 0,0 -0.01,0 0,0 0,-0.01 0,-0.01 0,0 0,0 0,0 0,-0.01 0,-0.01 0,-0.01 0,0 -0.01,0 -0.01,0.01 0,0 0,0 0,0.01 0,0 0,0 0,0 0,0.01 0,0.01 0.01,0.01 0,0 0,0 0,0 0,0 0,0 0,0l0 0 0 0c0,0 0,0 0,0 0,-0.01 0,-0.01 0.01,-0.01 0,0 0,0 0,0 0,0 0,0 0,0l0 0 0 0c0,0 0,0 0,0 0,0 0.01,0 0.01,0 0,0 0,0 0,0 0,0 0,0 0,0 0,0 0,0 0,0 0,0 0,0 0,0 0,0 0.01,0 0.01,0 0,0 0,0 0,0 0,0 0,0 0,0 0,0 0,0 0,0 0,0 0,-0.01 0,-0.01 0,0 0,0 0,0l0 0 0 0 0 0c0,0 0,0 0,0 0,0 0,0 0,-0.01 0,0 0,0 0,0 0,0 0,0 0,0 0,0 0,0 0,0 0,0 0,0 0,0 0,0 0,0 0,0 0,0 0.01,0 0.01,0 0,0 0,0 0,0 0,0 -0.01,0 -0.01,0 0,0 0,0 0,0 0,0 0,0 0,0 0,0 0,0 0,0 0,0 0,0.01 0,0.01l0 0 0 0zm0 0.01c0,0 0,0 0,0 0,0 0.01,0 0.01,0 0,0 0,0 0,0 -0.01,0 -0.01,0 -0.01,0l0 0zm0 0.01c0,0.01 0,0.01 0,0 0,0 0,0 0,0 0,0 0,0 0,0 0,0 0,0 0,0l0 0c0,0 0,0 0,0 0,0 0,0 0,0 0,0 0,0 0,0 0,0 0,0 0,0zm-0.02 0.03l0 0c0,0 0.01,0 0.01,0 0,0 0,0 0,-0.01 0,0 0,0 0,0 0,0 0,0 0,0 0,0 0,0 0,0 0.01,0 0.01,0 0.01,-0.01 -0.01,0 -0.01,0 -0.01,0 0,0 0,0 0,0 0,0 0,0 0,0 0,0 -0.01,0 -0.01,-0.01l0 0c0,0.01 0,0.01 0,0.01 0,0 0,0.01 0,0.01l0 0 0 0c0,0 0,0 0,0 0,0 0,0 -0.01,0 0,0 0,0 0,0 0,0 0,0 0,0l0 0 0 0c0,-0.01 0,-0.01 0,-0.01 0,0 0,0 0,0 0,0 0,0 0,0 0,0 0,0 0,0 0,0 0,0 0,0 0,0 0,0 0,0 0,0 0,0.01 0,0.01 0,0 0,0 0,0l0 0 0 0c0,0 0,0 0,0 0,0 0,0 0,0 0,0 0,0 0,0 0,0 0,0.01 0,0.01l0 0 0 0 0 0c0,0 0,0 0,0 0,0 0,0 0,0 0,0 0,0 0,0l0 0 0 0 0.01 0c0,0 0,0 0,0l0 0 0 0c0,0 0,0 0,0l0 0 0 0.01c0,0 0,0 0,0 0,0 0,0 0,0 0,0 0,0 0,0 0,0 0,0 0,0l0 0 0 0 0 0c0.01,0 0.01,0 0.01,0 0,0 0,0 0,0 0,0 0,0 0,0 0,0 0,0 0,0 0,0 0,0 0,0l0 0 0.01 0c0,0 0,0 0,0 0,0 0,0 0,0 0,0 0,0 0,0 0,0 0,0 0,0 0,0 0,0 0,0 0,0 0,0 0,0l0 0 -0.01 0c0,0 0,0 0,0 0,0 0.01,0 0.01,0 0,0 0,0 0,0 0,0 0,0 0,0 0,-0.01 0,-0.01 0,-0.01 0,0 0,0 0,0 0,0 0,0 0,-0.01 0,0 0,0 0,0 0.01,0 0.01,0 0.01,0 0,-0.01 0,-0.01 -0.01,-0.01 0,0.01 0,0.01 0,0.01 0,0 0,0 -0.01,0.01 0,0 0,0 0,0 0,0.01 0,0.01 -0.01,0.01l0.01 0 -0.01 0c0,0 0,0 0,0l0 -0.01 0 0zm-0.01 0.01c0,0 0,0 0,0 0,0 0,0 0,0 0,0 0,0 0,0 -0.01,0 -0.01,0 -0.01,0 0,0 0,0 0,0 0.01,0 0.01,0 0.01,0 0,0 0,0 0,0 0,0 0,0 0,0zm0.01 0.02c0,0 0,0 0,0 0,0 0,0 0.01,0 0,0 0,0 0,0 0,0 0,0 0,0 0,0 0,-0.01 0,-0.01 0,0 0,0 -0.01,0 0,0 0,0 0,0 0,0 0,0.01 0,0.01zm0.02 -0.01c0,0 0,0 0,0 0,0 0,0 0,0 0,0 0,0 0,0 0,0 0,0 0.01,0 -0.01,0 -0.01,0 -0.01,0 0,0 0,0 0,0zm0.01 0l0 0c0,0 0,0 0,0l0 0zm-0.03 0.03c0,0 0,0 0,0 0,0 0,0 0,0 0,0 0.01,0 0.01,0 0,0 0,0 0,0 0,-0.01 0,-0.01 0,-0.01 0,0 0,0 -0.01,0 0,0 0,0 0,0 0,0.01 0,0.01 0,0.01zm0.02 0c0,0 0,-0.01 0,-0.01 0,0 0,0 0,0 0,0.01 0,0.01 0,0.01 0,0 0,0 0,0zm-0.04 0c0,0 0,0 0,0 0,0 0,0 0,0 0,0 0,0 0,0 0,0 0,0 0,0 0,0 0,-0.01 0,-0.01 0,0 0,0 0,0.01zm0.02 0.01c0,0 0,0 0,0 0,0 0,0 0,0 0.01,0 0.01,0 0.01,0 0,-0.01 -0.01,-0.01 -0.01,-0.01 0,0 0,0 0,0.01 0,0 0,0 0,0 0,0 0,0 0,0 0,0 0,0 0,0zm0.01 0c0.01,0 0.01,0 0.01,-0.01l-0.01 0c0,0 0,0.01 0,0.01 0,0 0,0 0,0 0,0 0,0 0,0 0,0 0,0 0,0zm-0.02 0.01c0,0 0,0 0,0 0,0 0,0 0,0 0,0 0,0 0,-0.01 0,0 -0.01,0 -0.01,0 0,0 0,0.01 0,0.01 0,0 0,-0.01 0,-0.01 0,0 0,0 0,0 0,0 0,0 0,0 0,0 0,0 0,0 0,0.01 0,0.01 0,0.01 0,0 0,0 0,0 0,0 0,0 0,0 0,0 0,0 0,0l0 0 0 0c0,0 0,0.01 0,0.01 0,0 0,0 0,0 0,0 0,0 0,0 0,0 0,0 0,0 0,0 0,0 0,0 0.01,0 0.01,0 0.01,0 0,0 0,0 0,0 0,0 0,0 0,0 0,0 0,-0.01 0,-0.01 0,0 0,0 0,0l0 0 0 0zm0.03 0c0,0 0,0 0,0 0,0 0,0 0,0 0,0 0,-0.01 0,-0.01 0,0 0,0 0,0 0,0.01 0,0.01 0,0.01zm-0.01 0.01c0,0 0,0 0.01,0 0,0 0,0 0,0 0,0 0,0 0,0 0,0 0,-0.01 0,-0.01 0,0 0,0 0,0 0,0 0,0 -0.01,0 0,0 0,0 0,0.01 0,0 0,0 0,0 0,0 0,0 0,0zm0.01 0.01c0,0 0,0 0,0 0,0 0,0 0,0 0,0 0,0 0,0 0,0 0,0 -0.01,0 0.01,0 0.01,0 0.01,0 0,0 0,0 0,0 0,0 0,0 0,0 0,0 0,0 0,0zm-0.01 0.01c0,0 0,0 0,0 0,0 0,0 0,0 0,0 0,0 0,0 -0.01,0 -0.01,0 -0.01,0 0,0 0,0 0,0 0,0 0,0 0,-0.01 0,0 0,0 0,0 0,0 0,0 0,0 0,0 0,0.01 0,0.01 0,0 0,0 0,0 0,0 0,0 0.01,0 0,0 0,0 0,0l0 0.01 0.01 -0.01 0 0.01c0,0 0,0 0,0 0,0 0,-0.01 0,-0.01l0 0 0 0 -0.01 0zm-0.02 0.01c0,0 0,0 0,0 0,0 0,0 0,0 0,0 0,0 0,-0.01 0,0 0,0 0,0 0,0 0,0 0,0 0,0 -0.01,0 -0.01,0 0.01,0 0.01,0 0.01,0.01 0,0 0,0 0,0 0,0 0,0 0,0 0,0 0,0 0,0 0,0 0,0 0,0 0,0 0,0 0,0 0,0 0,0 0,0 0,0.01 0,0.01 0,0.01 0,0 0,0 0,-0.01l0.01 0.01 0 -0.01c0,0.01 0,0.01 0,0.01 0,0 0,0 0,0 0,-0.01 0,-0.01 0,-0.01 0,0 0,0 0,0 0,0 0,0 0,0 0,0 0,0 0,0 0,0 0,0 0,0 0,0 0,0 0,0l0 0 -0.01 0zm0.02 0.01c0,0 0,0 0,0.01 0,0 0.01,0 0.01,0 0,0 0,-0.01 0,-0.01 0,0 0,0 0,0 0,0 0.01,0 0.01,0 0,-0.01 0,-0.01 0,-0.01 0,0 -0.01,0 -0.01,0 0,0 0,0 0,0 0,0 0,0 -0.01,0 0,0 0,0 0,0 0,0 0,0 0,0 0,0 0,0.01 0,0.01 0,0 0,0 0,0 0,0 0,0 0,0zm-0.03 0.01l0 0c0,0 0,0 0,0 0,0 0,0 0,-0.01 0,0 0,0 0,0 0,0 0,0.01 0,0.01 0,0 0,0 0,0 0,0 0,0 0,0zm0.01 -0.16l0 0c0,0 -0.01,0 -0.01,-0.01 0,0 0.01,0 0.01,0 0,0 0,0 0,0 0,0 0,0 0,0 0,0 0,0 0,0 0,0 0,0 0,0 0,0.01 0,0.01 0,0.01l0 0zm0.01 0.02l0 0c0,0 0,0 0,0 0,0 0,0 0,0 0,0 0,0 0,0 0,0 0,0 0,0.01 0,0 0,0 0,0 0,0 0,0 0,0l0 -0.01 0 0.01 0 -0.01 0 0zm-0.01 0.01l0 0c0,0 0,0 0,0 0,0 0,0 0,0l0 0 0 0 0 0 0 0zm-0.01 0.07l0 0 0 0 0 0 0 0c0,0 0,0 0,0 0,0 0,0 0,0l0 0zm0.02 -0.12c0,0 0,0 0,0l0 0zm0.02 0c0,0 0,0 0,0l0 0zm-0.03 0.02l0 0 0 0zm0.01 -0.01c0,0 0,0 0,0 0,0 0,0 0,0l0 0zm0 0.03c0,0.01 0,0.01 0,0.01l0 -0.01zm0.01 0.02c0,0 0,0 0.01,0 0,0 0,0 0,0l-0.01 0zm-0.01 -0.02c0,0 0,0 0,0 0,0 0,0 0,0l0 0zm-0.01 0c0,0 0,0 0,0l0 0zm0 0.01c0,0 0,0 0,0l0 0zm0 0c0,0 0,0 0,0 0,0 0,0 0,0l0 0zm0.01 0.01c0,0 0,0 0.01,0l-0.01 0zm0 -0.01c0,0 0,0 0,0 0,0 0,0 0,0l0 0zm-0.02 0.07c0,0 0,0 0,0 0,0 0,0 0,0l0 0zm0 0l0.01 0 -0.01 0zm0.03 0.04c0,-0.01 0,-0.01 0,-0.01 0,0 0.01,0 0.01,0l-0.01 0.01zm-0.01 0.01l0 -0.01 0 0.01z"/>
   <path class="fil0" d="M0.75 1.9c0,0 0.01,0 0.01,0 0.01,0 0.01,0 0.02,0 0.01,0 0.02,0 0.02,0 0.01,0 0.02,0 0.03,0 0.01,0 0.01,0 0.02,0 0,0 0.01,0 0.01,0 0,0 0,0.01 0,0.01 0,0 0,0.01 0,0.01 0,0 0,0 0,0.01 0,0 0,0 0,0.01 0,0 0,0 0,0 0,0.01 0,0.01 0,0.01 0,0.01 0,0.01 0,0.01 0,0.01 0,0.01 0,0.01 0,0 -0.01,0 -0.01,0 0,0 -0.01,0 -0.01,0 -0.01,0 -0.01,0 -0.01,0 -0.01,0 -0.01,0 -0.02,0 -0.01,0 -0.02,0 -0.03,0 0,0 -0.01,0 -0.02,0 -0.01,0 -0.02,0 -0.02,0 -0.01,0 -0.02,0 -0.02,0 -0.01,0 -0.02,0 -0.03,0 -0.01,0 -0.01,0 -0.02,0 0,0 0,-0.01 0,-0.01 0,0 0,-0.01 0,-0.01 0,-0.02 0,-0.03 0,-0.05 0,-0.02 0,-0.03 0,-0.05 0,-0.02 0,-0.03 0,-0.05 0,-0.02 0,-0.04 0,-0.05 0,-0.01 0,-0.01 0,-0.02 0,0 -0.01,-0.01 -0.01,-0.02 0,0 0.01,-0.01 0.01,-0.01 0,0 0,-0.01 0,-0.01 0,0 0,-0.01 0,-0.01 0,0 0,0 0.01,0 0,0 0,0 0.01,0 0,0 0.01,0 0.01,0 0,0 0.01,0 0.01,0 0,0 0.01,0 0.01,0 0,0 0,0 0,0 0.01,0 0.01,0 0.02,0 0,0 0,0 0,0 0.01,0.01 0.01,0.01 0.01,0.01 0,0.01 0,0.01 0,0.02 0,0.01 0,0.03 0,0.04 0,0.02 0,0.04 0,0.05 0,0.02 0,0.04 0,0.05 0,0.02 0,0.03 0,0.05zm-0.05 -0.17c0,0 0,0 0,0 0,0 0,0 0,0 0,0 0,0 0,0 0,0 0,0 0,0 0,0 0,0 0,0zm0.01 0.01c0,0 0,0 0,0 0,0 0,0 0,0 0,0 0,0 0,0l0 0c0,0 0,0 0,0 0,0 0,0 0,0 0,0 0,0 0,0zm0 0.02c0,0 0.01,0 0.01,0 0,0 0,0 0,-0.01l0 0c0,0 0,0 0,0 0,0 0,0 -0.01,0 0,0 0,0 0,0.01 0,0 0,0 0,0zm-0.01 0.04c0,0 0,0 0,0 0,0 0,0 0,0 0,0 0,0 0,0 0,0 0,0.01 0,0.01 0,0 0,0 0,0 0,0 0,0 0,-0.01zm0.03 0.05c0,0 0,0 0,0 0,0 0,-0.01 0,-0.01 0,0 0,0 0,0 0,0.01 0,0.01 0,0.01 0,0 0,0 0,0zm-0.01 0.06l0 0c0,0 0,-0.01 0.01,-0.01 0,0 0,0 0,0 0,0 0,0 0,0 0,0 0,0 -0.01,0 0,0 0,0 0,0 0,0 0,0 0,0 0,-0.01 0,-0.01 0,-0.01 0,0 0,0 0,0 0,0 0,0 0,0 0,0 0,0 0,0 0,-0.01 0,-0.01 0,-0.01 0,0 0,0 0,0 0,-0.01 0,-0.01 0,-0.01 0,0 0,-0.01 -0.01,-0.01 0,0 0,0 0,0 0,0 0,0 0,-0.01 0,0 0,0.01 0,0.01 0,0 0,0 0,0 0,0 0,0.01 0,0.01 0,0 0,0 0,0 0,0.01 0.01,0.01 0.01,0.01 0,0 -0.01,0 -0.01,0 0.01,0.01 0.01,0.01 0.01,0.01 0,0 0,0 0,0 0,0.01 0,0.01 0,0.01 0,0 0,0 0,0 0,0 0,0 0,0 0,0.01 0,0.01 0,0.01l0 0 0 0c0,0 0,0 0,0.01 0,0 0,0 0,0 0,0 0,0.01 0.01,0.01 0,0 0,0 0,0.01 0,0 0,0 0,0 0,0 -0.01,0 -0.01,0 0.01,0 0.01,0 0.01,0 0,0 0,0 0,0 0,0.01 0,0.01 0,0.01 0,0 0,0 0,0 0,0 0,0 0,0l0 0c0,-0.01 0,-0.01 0,-0.02 0,0 0,-0.01 0,-0.01 0,0 0,-0.01 -0.01,-0.01 0,0 0,0 0,0l0 0c0,0 0,0 0,0l0 0zm-0.04 0c0,0 0.01,0 0.01,0 0,0.01 0,0.01 0,0.01 0,0 0.01,-0.01 0.01,-0.01 -0.01,0 -0.01,0 -0.01,0 0,0 0,0 0,0 0,0 0,0 0,0 0,0 -0.01,0 -0.01,0zm0.15 0.02c0,0 0,0 0,0 0,0 0,-0.01 0,-0.01 0,0 0,0 0,0 0,0 0,0 0,0l0 0c0,0 0,0 0,0 0,0 0,0 0,0.01 0,0 0,0 0,0 0,0 0,0 0,0zm-0.16 0c0.01,0 0.01,0 0.01,0 0,0 0,0 0,-0.01 0,0 -0.01,0 -0.01,0.01 0,0 0,0 0,0zm0.05 0c0,0 0,0 0,0 0,0 0,0 0,0 0,0 0,0 0,0l0 0c0,0 0,0 0,0 0,0 0,0 0,0 0,0 0,0 0,0zm0.1 0.01c0,0 0,0 0,0 0,0 0,-0.01 0,-0.01 0,0 0,0 0,0 0,0 0,0 0,0 0,0 0,0 0,0 0,0 0,0 0,0.01 0,0 0,0 0,0zm-0.04 0c0,0 0,0 0,0 0,0 0,0 0,0 0,0 0,-0.01 0,-0.01 0,0 0,0 0,0 0,0 0,0 0,0 0,0.01 0,0.01 0,0.01 0,0 0,0 0,0zm0.05 0l0 0c0,0 0,0 0,0 0,0 0,0 0,0 0,0 0,0 0,0 0,0 0,0 0,0 0,0.01 0,0.01 0,0.01l0 0c0,0 0,0 0,0 0,0 0,0 0,0 0,0 0,0 0,0l0 0 0.01 0c0,0 0,0 0,0 0,0 0,0 0,0 0,0 0,0 0,0 0,0 0,-0.01 0,-0.01 0,0 0,0 0,0 0,0 0,0 0,0 0,0 0,0 0,0.01l-0.01 -0.01 0 0zm-0.12 -0.03c0,0 0,0 0.01,0l-0.01 0zm0.12 0.04c0,0 0,0 0,0 0,0 0,0 0,-0.01l0 0.01z"/>
   <path class="fil0" d="M0.98 1.75c0,0.01 0,0.01 0,0.02 0.01,0 0.01,0.01 0.01,0.01 0.01,0 0.01,0 0.02,0 0.01,0 0.01,0.01 0.02,0.01 0.01,0 0.02,0.01 0.03,0.01 0.01,0 0.02,0.01 0.02,0.01 0,0 0,0.01 0,0.01 0,0 0.01,0 0.01,0 0,0 0,0 0,0 0.01,0.01 0.01,0.01 0.01,0.01 0,0 0.01,0.01 0.01,0.01 0,0 0,0.01 0,0.01 0.01,0.01 0.01,0.01 0.01,0.02 0,0.01 0,0.02 0,0.02 0,0.01 -0.01,0.02 -0.01,0.02 0,0.01 0,0.02 -0.01,0.02 0,0.01 -0.01,0.01 -0.01,0.02 -0.01,0.01 -0.02,0.01 -0.03,0.02 -0.01,0 -0.02,0 -0.03,0.01 -0.01,0 -0.02,0 -0.04,0 0,0 -0.01,-0.01 -0.02,-0.01 -0.01,0 -0.02,0 -0.02,-0.01 -0.01,0 -0.02,0 -0.02,-0.01 -0.01,0 -0.02,-0.01 -0.02,-0.01 0,0 -0.01,-0.01 -0.01,-0.01 0,0 0,0 0,0 -0.01,-0.01 -0.01,-0.01 -0.01,-0.01 0,0 0,0 0,-0.01 0,0 0,0 0,0 0,0 0.01,-0.01 0.01,-0.01 0,0 0,0 0,0 0,0 0,0 0.01,-0.01 0,0 0,0 0,0 0,0 0,0 0.01,0 0,-0.01 0,-0.01 0,-0.01 0,0 0,0 0,0 0,0 0.01,-0.01 0.01,-0.01 0,0 0,0 0,0 0.01,0 0.01,0 0.01,0 0,0 0,0 0,0 0,0 0,0.01 0.01,0.01 0,0 0,0 0,0 0,0 0.01,0 0.01,0.01 0.01,0 0.01,0.01 0.02,0.01 0.01,0 0.01,0.01 0.02,0.01 0.01,0 0.02,0 0.02,-0.01 0.01,0 0.01,0 0.01,0 0,0 0,0 0,-0.01 0.01,0 0.01,0 0.01,0 0,-0.01 0,-0.01 0,-0.01 0,-0.01 -0.01,-0.01 -0.01,-0.01 0,-0.01 -0.01,-0.01 -0.01,-0.01 -0.01,0 -0.01,0 -0.02,-0.01 0,0 -0.01,0 -0.01,0 -0.01,-0.01 -0.02,-0.01 -0.03,-0.01 -0.01,-0.01 -0.02,-0.01 -0.02,-0.02 -0.01,0 -0.01,0 -0.02,-0.01 0,0 0,-0.01 -0.01,-0.01 0,-0.01 0,-0.01 -0.01,-0.02 0,0 0,-0.01 0,-0.02 0,-0.01 0,-0.02 0,-0.03 0.01,-0.01 0.01,-0.02 0.02,-0.02 0,0 0,-0.01 0,-0.01 0,0 0,0 0,0 0,0 0,0 0,0 0,0 0.01,0 0.01,0 0,0 0,0 0,0 0,0 0,0 0,-0.01 0,0 0,0 0,0 0.01,0 0.01,0 0.01,0 0,0 0.01,0 0.01,-0.01 0.01,0 0.02,0 0.02,0 0.01,-0.01 0.02,-0.01 0.03,-0.01 0.01,0 0.02,0 0.03,0 0,0 0,0.01 0.01,0.01 0,0 0.01,0 0.01,0 0,0 0.01,0 0.01,0.01 0.01,0 0.01,0 0.01,0 0.01,0 0.01,0.01 0.02,0.01 0,0 0,0 0.01,0.01 0,0 0,0 0,0 0.01,0.01 0.01,0.01 0.01,0.01 0,0.01 0,0.01 -0.01,0.01 0,0 0,0 0,0.01 0,0 -0.01,0 -0.01,0 0,0 0,0.01 0,0.01 0,0 -0.01,0 -0.01,0 0,0.01 0,0.01 0,0.01 -0.01,0 -0.01,0 -0.01,0.01 0,0 0,0 -0.01,0 0,0 0,0 0,0 -0.01,-0.01 -0.01,-0.01 -0.01,-0.01 0,0 -0.01,-0.01 -0.01,-0.01 0,0 -0.01,0 -0.01,0 0,-0.01 -0.01,-0.01 -0.01,-0.01 -0.01,0 -0.01,0 -0.02,0 0,0 0,0 -0.01,0 0,0.01 -0.01,0.01 -0.01,0.01zm0.04 -0.03c0,0 0,0 0,0 0,0 0,0 0.01,0 0,0 0,0 0,0 0,0 0,0 0,0 0,0 0,0 0,0 0,0 0,0 0,0 0,0.01 0,0.01 0,0.01 0,0 0,0 0,0 0,0 0,0 0,0 0,0 0,0 0.01,0.01 0,-0.01 0,-0.01 0,-0.01 0,0 0,-0.01 0,-0.01 0,0 0,0 0,0 0,0 0,0 0,0 0,0 0,0 0,0 0,0 0,0 0,0 0,0 0,0 0,0 0,0.01 0,0.01 0.01,0.01 0,-0.01 0,-0.01 0,-0.01 0,0 0,0 0,0 -0.01,0 -0.01,-0.01 -0.01,-0.01 0,0 0.01,0 0.01,0l0 0 0 0c0,0 0,0 0.01,0 0,0 0,0 0,0 0,0 0,0 0,0 0,0 0,0 0,0 0,0 0,0 -0.01,0 0,0 0,0 0,0 0,0 0,0 0,0 0,0 0,0 0,0l0 0c-0.01,0 -0.01,0 -0.01,0 0,0 0,-0.01 0,-0.01 -0.01,0 -0.01,0 -0.01,0 0,-0.01 0,-0.01 0,-0.01 0,0.01 0,0.01 0,0.01 0,0 0,0 -0.01,0 0,0.01 0,0.01 0,0.01 0,0 0,0 0,0 0,0 0,0 0,0 0,0 0,0 0,0 0,0 0,0 0,0.01 0,0 0,0 0,0 0,0 0,0 0,0 0,0 0,0 0,0 -0.01,0 -0.01,0 -0.01,0 0,0 0,0 0,0 0,-0.01 0,-0.01 0,-0.01 0,0 0,0 0,0 0,0 0,0 0,0 0,-0.01 0,-0.01 0,-0.01 0,0 0,0 -0.01,0 0,0 0,0 0,0 0,0 0,0.01 0,0.01 0,0 0,0 0,0l0 0 0 0c0,0 0,0 0,0 0,-0.01 0,-0.01 0,-0.01l0 0 -0.01 0c0,0 0,0 0,0 0.01,0 0.01,0 0.01,0 0,0 0,0 0,0 0,0 0,0 -0.01,0 0,0 0,0 0,0 0,0 0,0 0,0l0 0 0 0c0,0 0,0 0,0 0,0.01 0,0.01 0,0.01l0 0 0 0c0,0 0,0 0,0 0,0 0,0 0,0 0,0 0,0 0,0 0,0 0,0 0,0 0,0 0,0 0,0 0,0 0,0 0,0 0,0 0,0 0,0 0,0 0,0 0,0l0 0 0.01 0 0 0 0 0c0,0 0,0 0,0 0,0 0,0 0,0 0,0 0,0 0,0 0,0 0,0 0,0 0,0 0,0 0.01,0 0,0 0,0 0,0.01 0,0 0,0 0,0 0,0 0,0 0,0 0,0 0,0 0,0 0,0 0.01,0 0.01,0l0 0 0 0zm-0.03 -0.03c0,0 0,0 0,0 0,0 0,0 0,0 0,0 0,0 0,0 -0.01,0 -0.01,0 -0.01,0 0.01,0 0.01,0 0.01,0 0,0 0,0 0,0zm-0.03 0.02c0,0 0,0 0,0 0,0 0,-0.01 0,-0.01 0,0 0,0 0,0 0,0 0,0 0,0 0,0 0,0 0,0 0,0 0,0 0,0 0,0 0,0.01 0,0.01 0,0 0,0 0,0zm0.05 -0.01c0.01,0 0.01,0 0.01,0 -0.01,0 -0.01,0 -0.01,0 0,0 0,0 0,0 0,0 0,0 0,0zm0.01 0l0 0 0 0 0 0 0 0zm-0.05 0c0,0 0,0 0,0 0.01,0.01 0.01,0.01 0.01,0 0,0 0,0 0,0 0,0 0,0 0,0 0,0 0,0 0,0 0,0 0,0 0,0 0,0 0,0 0,0 0,0 0,0 0,0 -0.01,0 -0.01,0 -0.01,0zm0.1 0.01c0,0 0,0 0,0 0,0 0,0.01 0,0.01 0,0 0,0 0,0 0,0 0,0 0,0 0,0 0,0 0,0 0,0 0,0 0,0 0,0 0,0 0,0 0,0 0,0 0,0 0,0 0,0 0,-0.01 0,0 0,0 0,0 0.01,0 0.01,0 0.01,0 0,0 0,0 0,0 0,0 0,0 0,0 -0.01,0 -0.01,0 -0.01,0 0,0 0,0 0,0 0,0 0,0 0,0 0,0 0,0 0,0 0,0 0,0 0,0 0,0 0,0 0,0zm-0.08 0c0,0 0,0 0,0 0,0 0,0 0,0 0,0.01 0,0.01 0,0.01 0,0 0,0 0,-0.01zm-0.05 0.01c0,0 0,0 0,0 0,0 0,0 0,0 0,0 0,0 0,0 0,0.01 0,0.01 0,0.01l0.01 0c0,0 0,-0.01 0,-0.01 0,0 0,0 0,0 0,0 0,0 0,0 0,0 0,0 0.01,0 -0.01,0 -0.01,0 -0.01,0 0,-0.01 -0.01,-0.01 -0.01,0zm0.11 -0.01c0,0.01 0,0.01 0,0.01 0.01,0 0.01,0 0.01,0 0,0 0,0 0,0 0,0 0,-0.01 -0.01,-0.01zm-0.09 0.01c0,0 0,0 0,0 0,0 0.01,0 0.01,0 0,0 0,0 0,0 0,0 0,0 0,0 0,0 0,0 0,0 0,0 0,0 0,0 -0.01,0 -0.01,0 -0.01,0 0,0 0,0 0,0zm0.12 0.01c0,0 0,-0.01 0,-0.01 0,0 0,0 0,0 0,0 0,0 0,0 0,0 0,0 0,0 0,0 0,0.01 0,0.01 0,0 0,0 0,0zm-0.02 0c0,0 0,0 0,0 0,0 0,0 0,0 0,0 0,-0.01 0,-0.01 0,0 0,0 0,0.01zm-0.08 0c0,0 0,0 0.01,0 0,0 0,0 0,0 0,0 0,0 0,0 0,0 0,0 -0.01,0 0,0 0,0 0,0 0,0 0,0 0,0zm0.09 0c0,0 0,0 0,0 0,0 0,0 0,0 0,0 0,0 0,0 0,0 0,0 0,0zm-0.01 0.02c0,-0.01 0,-0.01 0,-0.01 0,0 0,0 0,0 -0.01,0 -0.01,0 -0.01,0 0,-0.01 0,-0.01 0,-0.01 0,0 0,0 0,0 0,0 0,0 0,0 0,0 0,0 0,0 0,0 0,0 -0.01,0 0.01,0 0.01,0 0.01,0.01 0,0 0,0 0.01,0.01zm0.02 -0.01c0,0 0,0 0,0 0,0 0,0 0,0 0,0 0,0 0,0 0,0 0,-0.01 0,-0.01 0,0 0,0 0,0 0,0 0,0 0,0 -0.01,0.01 -0.01,0.01 -0.01,0.01 0,0 0.01,0 0.01,0zm-0.01 0l0 0 0 0 0 0 0 0zm-0.12 0.01c0,-0.01 0,-0.01 0,-0.01 0,0 0,0 0,0 0,0 0,0 0,0 -0.01,0 -0.01,0 -0.01,0 0,0 0,0 0,0 0,0 0.01,0 0.01,0.01zm0.03 -0.01l0 0 0 0 0 0 0 0zm-0.02 0.01c0,0 0,0 0.01,0 0,-0.01 0,-0.01 0,-0.01 -0.01,0 -0.01,0 -0.01,0 0,0 0,0 0,0 0,0 0,0 0,0 0,0 0,0 0,0 0,0 0,0 0,0 0,0.01 0,0.01 0,0.01zm0.1 0.01c0,0 0,0 0,0 0,-0.01 0,-0.01 0,-0.01 0,0 0,0 0,0.01zm-0.11 0c0,0 0,0 0,0 0,0 0,0 0,0 0,0 0,0 0,0 0,-0.01 0,-0.01 0,-0.01 0,0 0,0 0,0 0,0 0,0 0,0 0,0.01 0,0.01 0,0.01 0,0 0,0 0,0 0,0 0,0 0,0.01 0,0 0,0 0,0l0 0 0 0c0,0 0,0 0,0 0,0 0,0 0,0 0,0 0,0 0.01,0 0,0 0,0 0,0 0,0 -0.01,0 -0.01,0 0,0 0,0 0,0 0,0 0,0 0,0 0,0 0,0 0,0l0 -0.01 0 0zm-0.02 0l0.01 0 0 -0.01c0,0.01 0,0.01 0,0.01 0,0 -0.01,0 -0.01,0zm-0.01 0.01c0,0 0,0 0,0 0.01,0.01 0.01,0.01 0.01,0.01 0,-0.01 0,-0.01 0,-0.01 0,0 0,0 0,0 0,0 0,0 0,0 -0.01,0 -0.01,0 -0.01,0zm0.05 0.04c0,0 0,-0.01 0,-0.01 0.01,0 0.01,0 0.01,0 0,0 0,0 0,0 0,0 0,0 0.01,0 0,0 0,0 0,0 0,0 0,0 0,0 0,0 0,0 0,0 0,0 0,0 0,0 0,0 0,0 0,0.01 0,0 0,0 0,0 0,0 0,0 0,0 0,0 0,0 0,0 0,0 0,0 0,0 0,0 0,0 0,0 0,-0.01 0,-0.01 0,-0.01 0.01,0 0.01,0 0.01,0 0,0 0,0 0,0 0,0 0,0 0,0 0,0 0,0 0,0 0,0 0,0 -0.01,0 0,0 0,0 0,0 0,0 0,0 0,0 0,0 0,0 0,-0.01 0,0 0,0 0,0 0,0 0,0 0,0 0,0 0,0 0,0 0,0 0,0 0,0 -0.01,0 -0.01,0 -0.01,0 0,0 0,0 0,0 0,0.01 0,0.01 0,0.01 0,0 0,0 0,0 0,-0.01 -0.01,-0.01 -0.01,-0.01 0,0 0,0 0,0 0,0 0,0 0,0 0,-0.01 0,-0.01 0,-0.01 0,0 0,0 0,0 0,0 0,0 0,0 0,0 0,0 0,-0.01 0,0 0,0 0,0 0,0 0,0.01 0,0.01 0,0 0,0 0,0 0,0 0,0.01 0,0.01 0,0 0,0 0,0 0,0 0,0 0,0 0,0 0,0 0,0 0,0 0,0 0,0 0,0 0,0 0,0 0,0 0,0 0,0 0,0 0,0.01 0,0.01 0,0 0,0 0,0 0,0 0,0 0,0 0,0 0,0 0,0 0,0 0,0 0,0 0,0 0,0 0,0.01 0,0 0,0 0,0 0,0 0,0 0,0 0,0 0,0 0,0l0 0 0 0c0,0 0,0 0,0 0,0 0,0 0,0.01 0,0 0,0 0,0 0,0 0,0 0,0 0,0 0,0 0.01,0 0,0 -0.01,0 -0.01,-0.01 0,0 0,0 0,0l0 0 0 0zm-0.03 -0.03c0,0 0,0 0,0 0,0 0,0 0,0 0,0 0,0 -0.01,0 0,0 0,0 0,0 0,0 0,0 0,0 0,0 0,0 0,0 0.01,0 0.01,0 0.01,0 0,0 0,0 0,0 0,0 0,0 0,0l0 0 0 0.01c0,0 0,0 0,0 0,0 0,0 0,0 0,0 0,0 0,0 0,0 0,0 0,0 0,0 0,0 0,0 0,0 0,0 0,0 0,0.01 0,0.01 0,0.01 0,0 0,0 0,0 0,0 0,0 -0.01,0 0,0 0,0 0,0 0,0 0.01,0 0.01,0 0,0 0,0 0,0 0,0 0,0 0,0 0,0.01 0,0.01 0,0.01 0,-0.01 0,-0.01 0,-0.01 0,0 0,0 0,0 0.01,0 0.01,-0.01 0.01,-0.01 0,0 0,0 0,0 0.01,0 0.01,0 0.01,0 0,0 0,0 -0.01,0 0,0 0,0 0,0 0,-0.01 0,-0.01 0,-0.01 0,0 0,0 0,0 0,0 0,0.01 0,0.01 0,0 0,0 0,0 0,0 0,0 -0.01,0 0,0 0,0 0,0 0,0 0,0 0,-0.01 0,0 0,0 0,0 0,0 0,0 0,0l0 0 0 0zm-0.02 0.01l0.01 0 0 -0.01 -0.01 0 0 0.01zm0.11 0.03c0,-0.01 0,-0.01 0,-0.01 0,0 0.01,0 0.01,0 0,0 0,0 0,0 0,-0.01 0,-0.01 0,-0.01 0,0 0,0 0,0 0,0.01 0,0.01 -0.01,0.01 0,0 0,0 0,0 0,0 0,0 0,0.01zm-0.08 0c0,-0.01 0,-0.01 0,-0.01 0,0 0,0 0.01,0 0,0 0,0 0,0 0,0 0,0 0,0 0,0 0,0 0,0 0,0 0,0 0,-0.01 0,0 0,0 0,0 -0.01,0 -0.01,0 -0.01,0 0,0 0,0.01 0,0.01 0,0 0,0 -0.01,0 0.01,0 0.01,0 0.01,0 0,0 0,0.01 0,0.01 0,0 0,0 0,0l0 0c0,0 0,0 0.01,0 0,0 0,0 0,0 0,0 0,0 0,0 0,0 0,0 0,0 0,0 0,0 0,0 0,0 0,0 0,0 -0.01,0 -0.01,0 -0.01,0l0 0zm0.04 0c0,-0.01 -0.01,-0.01 -0.01,-0.01 0,0 0,0 0,0.01 0,0 0,0 0.01,0l0 0 0 0c0,0 0,0 0,0 0,0 -0.01,0 -0.01,0 0,0 0,0 0,0 0,0 0,0 0,0.01l0 0 0 0c0,0 0,0 0,0 0,0 0,0 0,0 0,0 0,0 0,0 0,0 0,0 0,0l0 0 0 0 0 0c0.01,0 0.01,0 0.01,0 0,0 0,0 0,0 0,0 0,0 0,0 0,0 0,0 0,0 0.01,0 0.01,0 0.01,0 0,0 0,0 0.01,0 0,0 0,0 0,0 0,0 0,0 0,0 0,0 0,0 0,0 0,0 0,0 0.01,0.01 0,0 0,0 0,0 0,0 0,0 0,0 0,0 0,0 0,0 0,0 0,0 0,0 0,0 0,0 0,0 0,0 0,-0.01 0,-0.01 0,0 0,0 0.01,0.01 0,0 0,0 0,0l0 0 0 0c0,0 0,0 0.01,0.01 0,0 0,0 0,0 0,0 0,0 0,0 0,0 0,0 0,0 0,0 0,0 0,0 0,0 0,0 0.01,0 0,0.01 0,0.01 0,0.01 0,0 0,0 0,0 0,0.01 0,0.01 0,0.01 0,0 0,0 0,0 0,0 0,0 0,0 0,0 0,0 0,0 0,0 0,0 0,0 0,0 0,-0.01 0.01,-0.01 0,0 0,0 0,0 0,0 0,0 0,0 0,0 0,0.01 0,0.01 0,0 0,0 0,0 0,-0.01 0.01,-0.01 0.01,-0.02 0,0 0,0 0.01,0 0,0 0,0 0,0 0,0 0,0 0,0 0,0 0,0 0,0 0,0 0,0 0,0 0,0 0,0 0,0 0,0 0,0 0,0 0,0 0,0 0,0 0,0 0,0 0,0 0,0 0,0 0,0 0,0 0,0 0,0 0,0 0,0 0,0 0,0 0,0 0,-0.01 0,0 0,0 0,0 0,0 0,0 0,0 0,-0.01 0,-0.01 0,-0.01 0,0 0,0 0,0 0,0 0,0 0,0 0,0 0,0 0,0 0,0 0,0 0,0 0,0 0,0 0,0 0,0 0,0 0,0 0,0 0,0 -0.01,0 0,0 0,0 0,0 0,0 -0.01,0 -0.01,0 0,0 0,0.01 0,0.01 -0.01,0 -0.01,0 -0.01,0 0,0 0,0 0,0 0,0 0,0 0,0.01l0 0 0 0c0,0 0,0 -0.01,0 0,0 0,0 0,0 0,0 0,0 0,0 0,-0.01 0,-0.01 0,-0.01l0 0 -0.01 0c0,0 0,0 0,-0.01 0,0 0,0 0,0 0,0 -0.01,0 0,0 -0.01,0 -0.01,-0.01 -0.01,-0.01 0,0 0,0 0,0 0,0 0,0 0,0 0,0 0,0 -0.01,0 0,0 0,0 0,0.01 0,0 0,0 0,0 0,0 0,0 0,0 0,0 0,-0.01 0,-0.01 0,0 0,0 0,0 0,0 0,0 0,0l0 0 0 0 0 -0.01 -0.01 0 0 0.01 0 0 0 0c0,0 0,0 0,0 0,0 0,0 -0.01,0 0,0 0,0 0,0 0,0 0,0 0,0l0 0 0 0zm0.04 0.01c0,0 0.01,0 0.01,0 0,0 0,0 0,0 0,-0.01 0.01,-0.01 0.01,-0.01 0,0 0,0 0,0 0,0 -0.01,0 -0.01,0 0,0 0,0 0,0 0,0 0,0 -0.01,0 0,0 0,0.01 0,0.01zm-0.01 -0.01l0 0 0 0 0 0 0 0zm0.03 0.01c0,0 0,0 0,0 0,0 0,0 0,0 0,0 0,0 0,0 0,0 0,0 0,0 0,0 0,0 0,0 0,0 0,0 0,0 0,0 0,0 0,0 0,-0.01 0,-0.01 0.01,-0.01 0,0 0,0 0,0 0,0 0,0 0,0.01 0,0 0,0 0,0 0,0 0,0 0,0 0,0 0,-0.01 0,-0.01 0,0 0,0 0,0 0,0 0,0 0,0 0,0 0,0 0,0 0,0 0,0 0,0 0,0 0,0 -0.01,0 0,0 0,0.01 0,0.01 0,0 0,0 0,0zm-0.01 0.01c0,0 0,0 0,0 0,0 0,0 0,0 0,0 0,0 0,0 0,0 0,0 0,0 0,0 0,0 0,0 0,0 0,0 0,0zm0.05 0c0,0 0,0 0,0 0,0 0,0 0,0 0,0 0,0 0,0 0,0 0,0 0,0zm-0.09 0c0,0 0,0 0,0 0,0 0.01,0 0.01,0 0,0 0,0 0,0 0,0 0,0 0,0 0,0 0,0 0,0 0,0 0,0 0,0 0,0 0,0 0,0 0,0 0,0 -0.01,0 0,0 0,0 0,0 0,0 0,0 0,0zm0.03 0.01c0,0 0,0 0,0 0,0 0,0 0,0 0,0 0,0 0,0 0,0 0,-0.01 0,-0.01 -0.01,0.01 -0.01,0.01 -0.01,0.01 0,0 0,0 0.01,0zm0.06 0c0,0 0,0 0,0 0,0 0,0 0.01,0 0,0 0,0 0,0 0,0 0,0 0,0 0,0 0,0 -0.01,0 0,0 0,0 0,0 0,0 0,0 0,0zm-0.01 0.02c0,0 0,0 0,0 0,0 0,0 0,0 0,-0.01 0,-0.01 0,-0.01 0,0 0,0 0,0 0,0 0,0 -0.01,0 0,0 0,0 0,0 0,0 0,0 0,0.01 0,0 0,0 0,0 0,0 0,0 0,0 0.01,0 0.01,0 0.01,0 0,0 0,0 0,0 0,0 0,0 0,0l0.01 0 0 0c0,0 0,0 0,0 0,0 0,0 0,0 0,0 0,0 0,0 0,0.01 0,0.01 0,0.01 0.01,-0.01 0.01,-0.01 0.01,-0.01 0,0 0,0 0,0 0,0 0,0 0,0 0,0 0,0 0,0 0,0 0,0 0,0 0,0 -0.01,0 -0.01,0 0,0 0,0 0,0 0,-0.01 0,-0.01 0,-0.01 0,0 0,0 0,0 0,0 0,0 0,0 0,0 0,0 0,0 0,0 0,0.01 0,0.01 0,0 0,0 0,0 0,0 0,0 0,0l-0.01 0 0 0zm-0.02 0.01c0,0 0,0 0,0 0,0 0,0 0,0 0,0 0,0 0,0 0,0 0,0 0,0 0,0 0,0 0,0 0,0 0,0 0,0 0,0 0,0 0,0 0,-0.01 0,-0.01 0,-0.01 0,0 0,0 0,0 0,0 0,0 0,0 0,0 0,0 0,0 0,0 0,0 0,0 0,0 0,0.01 0,0.01 0,0 0,0 0,0 0,0 0,0 0,0 0,0 0,0 0,0zm0.01 0c0,0 0,0 0,0 0,0 0,0 0,0 0.01,0 0.01,0 0.01,0 0,0 0,0 0,0l-0.01 0c0,0 0,0 0,0 0,0 0,0 0,0 0,0 0,0 0,0 0,0 0,0 0,0zm0.02 0.01c0,0 0,0 0,0 0,0 0,0 0,0 0,-0.01 0,-0.01 0,-0.01 0,0 0,0 0,0 0,0 0,0 0,0 0,0 0,0 0,0 0,0.01 0,0.01 0,0.01 0,0 0,0 0,0zm-0.04 0.01c0,0 0,0 0,0 0,0.01 0,0.01 0,0.01 0,0 0,0 0,0 0.01,0 0.01,0 0.01,0 0,0 0,0 0,-0.01 0,0 0,0 0,0 0,0 0.01,-0.01 0.01,-0.01 0,0 0,0 0,0 0,0 0,0 0,0 0,0 0,0 0,0 0,0 -0.01,0 -0.01,0 0,0.01 0,0.01 0,0.01 0,0 -0.01,0 -0.01,0 0,0 0,0 0,0zm-0.12 0.01c0,0 0,0 0,0 -0.01,0 -0.01,0 -0.01,0 0,0 0,0 -0.01,0 0,0 0,0 0,0 0,0.01 0,0.01 0,0.01 0.01,0 0.01,0 0.01,0 0,0 0,0 0,0 0.01,0 0.01,0 0.01,0 0,0 0,0 0.01,0 0,0 0,0 0,0 0,0 0,0 0,0 0,0 0,0 0.01,0 0,0 0,-0.01 0,-0.01 0,0 0,0 0,0 0,0 0,-0.01 0,-0.01 0,0 0,0 0,0 0,0 0,0 0,0 0,0 0,0.01 0,0.01 0,0 0,0 -0.01,0 0,0 0,0 0,0 0,0 0,0 0,0 0,0 0,0 0,0 0,0 0,-0.01 0,-0.01 0,0 0,0 0,0l0 0c0,0 0,0 0,0 0,0 0,0 0,0.01 0,0 0,0 0,0 0,0 0,0 -0.01,0zm0.15 0c0,0 0,0 0,0 -0.01,0 -0.01,0 0,-0.01 0,0 0,0 0,0 0,0 0,0 0,0 -0.01,0 -0.01,0 -0.01,0 0,0 0,0 0,0 0,0 0,0 0,0 0,0 0,0 0,0.01 0,0 0,0 0,0 0,0 0.01,0 0.01,0zm0.01 0.01c0,0 0,0 0,-0.01 0,0 0,0 0,0 0,0 0,0 0,0 0,0 0,-0.01 0,-0.01 0,0 0,0 0,0.01 0,0 0,0 0,0 0,0 0,0 0,0 0,0 0,0.01 0,0.01zm-0.11 0c0,0 0,0 -0.01,0 0,-0.01 0,-0.01 0,-0.01 -0.01,0 -0.01,0 -0.01,0.01 0,0 0,0 -0.01,0 0.01,0 0.01,0 0.01,0 0,0 0,0 0,0l0 0.01 0.01 -0.01c0,0.01 0,0.01 -0.01,0.01 0,0 0,0 0,0 0.01,0 0.01,0 0.01,0 0,0 0,0 0,0 0,0 0,0 0,0 0,0 0,0 0,0 0,0 0,0 0,-0.01l0 0 0 0c0,0 0,0 0,0 0,0 0,0 0,0 0,0 0,0 0,0 0,0 0,0 0,0 0,0 0.01,0 0.01,0 0,0 0,0 0,0 0,0 0,0 0,0 0,0 0,0 0,0 0,0 0,0 0,0 0,0 0,0 0,0l0 0 0 0c0,0 0,0 0,0 0,0 0,0 0,0 0.01,0 0.01,0 0.01,0 0,0 0,0 0,0 0,0 0,0 0,0 -0.01,0 -0.01,0 -0.01,0l0 0 0 0zm0.06 0c0,0 0,0 0,0 0,0 0,0 0,0 0,0 0,0 0,0 0,0 0,0 0,0 0,0 0,0 0,0 0,0 0,0 0,0l0 0c0,0 0,0 0,0 0,0 0,0 0,0 0,0 -0.01,0 -0.01,0 0,0 0,0 0.01,0zm0.02 0l0 0c0,0 0,0 0,0 0,0 0,0 0,0 0,0 0,0 0,0l0 0 -0.01 0c0,0 0,0 0,0 0,0 0,0 0,0.01 0,0 0,0 0,0 0,0 0.01,0 0.01,0 0,0 0,0 0,0 0,0 0,0 0,-0.01 0,0 0,0 0,0 0,0 0,0 0,0 0,0 0,0 0,0l0 0zm0.01 0c0,0 0,0.01 0,0.01 0,0 0,0 0,0 0,0 0,0 0,0 0.01,0 0.01,0 0.01,0 0,0 0,0 0,0 0,0 0.01,0 0,0 0.01,0 0.01,0 0.01,0 0,0 0,-0.01 0,-0.01 0,0 0,0 0,0 0,0 0,0 0,0 0,0 0,0 0,0 0,0 -0.01,0 -0.01,0 0,0 0,0 0,0 0,0 0,0 0,0 0,0 0,0 0,0 0,0 0,0 0,0 0,0 0,0 0,0 -0.01,0 -0.01,0 -0.01,0zm-0.06 0.02c0,0 0,0 0.01,0.01 0,-0.01 0,-0.01 0,-0.01 0,0 0,0 0,0 0,0 0.01,0 0.01,0 0,0 0,0 0,0 0,0 0,0 0,0 0,0 0,-0.01 0,-0.01 0,0 0,0 0,0 0,0 0,0 0,0.01 -0.01,0 -0.01,0 -0.01,0 0,0 0,0 -0.01,0 0,0 0,-0.01 0,-0.01 0,0 0,0 0,0 0,0 0,0 0,0 0,0 0,-0.01 0,-0.01l0 0c0,0.01 0,0.01 0,0.01 0,0 0,0 0,0 0,0 0,0 0,0.01 0,0 0,0 0,0zm-0.07 -0.01l0.01 0c0,0 0,0 0,0 0,0 0,0 0,0 0,0 0,0 0,0 0,0 0,0 0,0 0,0 0,0 0,0 0,0 0,0 -0.01,0 0,0 0,0 0,0 0,0 0,0 0,0zm0.02 0.02c0,0 0,0 0,0 0.01,0 0.01,0 0.01,0 0,0 0,0 0,0 0,0 0,-0.01 -0.01,-0.01 0,0 0,0 0,0l0 0c0,0 0,0 0,0 0,0 0,0 0,0 0,0 0,0 0,0 0,0 0,0.01 0,0.01zm0.1 -0.01l0 0 -0.01 0 0 0 0 0 0 0 0 0c0,0 0,0 0,0 0,0 0,0 0,0 0,0 0,0 0,0 0,0 0,0 0,0.01 0,0 0,0 0,0 0.01,-0.01 0.01,-0.01 0.01,-0.01 0,0 0,0 0,0 0,0 0,0 0,0l0 0 0 0zm-0.07 0c0,0.01 -0.01,0.01 -0.01,0.01 0,0 0,0 0,0 0,0 0,0 0,0 0,0 0,0 0,0 0,0 0,0 0,0 0,0 0,0 -0.01,0 0,0 0.01,0.01 0.01,0.01l0 0c0,-0.01 0,-0.01 0.01,-0.01 0,0 0,-0.01 0,-0.01 0,0 0,0 0,0 0,0 0,0 0,0zm0 0.02c0,0 0,0 0,0 0.01,0 0.01,0 0.01,0 0,0 0,0 0,0 0,0 0,0 0.01,0 0,0 0,0 0,0 0,0 0,0 0,0 0,0 0,0 0,0 0,0 0,0 0,0 0,0 0,0 0,0 0,-0.01 0,-0.01 0,-0.01 0,0 0,0 0,0 0,0 0,0 -0.01,0 0,0 0,0.01 0,0.01 0,0 0,0 0,0 0,0 0,0 -0.01,0 0,0 0,0 0,0zm0.01 -0.14l0 0 0 0 0.01 0c0,0 0,0 0,0 0,0 0,0 -0.01,0 0,0 0,0 0,0 0,0 0,0 0,0l0 0zm0.05 0.03l0 0 0 0 0 0 0 0c0.01,0 0.01,0 0.01,0 -0.01,0 -0.01,0 -0.01,0 0,0 0,0 0,0 0,0 0,0 0,0l0 0zm0.02 -0.01l0 0c0,0 0,-0.01 0,-0.01 0,0 0,0 0,0 0,0 0,0 0,0 0,0 0,0 0,0.01 0,0 0,0 0,0l0 0zm-0.05 -0.12c0,0 0,0 0,0 0,0 0,0 0,0l0 0zm-0.03 -0.02c0,0 0.01,0 0.01,0l-0.01 0zm0 0.01c0,0 0,0 0,0 0,0 0,0 0,0l0 0zm0.01 0c0,0 0,0 0,0l0 0zm0.05 0c0,0 0,0 0,0l0 0zm-0.1 0.06c0,0 0,0 0,0 0,0 0,-0.01 0,-0.01l0 0.01zm-0.01 0.01c0,0 0,0 0,0 0,0 0,0 0,0l0 0zm0.03 0.03c0,0 0,0 0,0 0,0 0,0 0,0l0 0zm0.02 0.01c0,0 0,0 0,0 0,0 0,0 0,0l0 0zm0.04 0.02c0,0 0,0 0,0 0,0 0,0 0.01,0l-0.01 0zm-0.02 -0.02c0,0 0,0 -0.01,0l0.01 0zm-0.01 0c0,0 0,0 0,0 0,0 0,0 0,0l0 0zm-0.05 0c0,0 0,0 0,0l0 0zm0.11 0.02c0,0 0,0 -0.01,0.01 0,0 0,0 0,0l0.01 -0.01zm-0.01 0.01c0,0 0,0 0,0 0,0 0,0 0,0l0 0zm-0.07 -0.02c0,0 0,0 0,0 0,0 0,0 0,0l0 0zm0.11 0.04c0,0 0,0 -0.01,0l0.01 0zm-0.13 0.06c0,-0.01 0.01,-0.01 0.01,-0.01 0,0 0,0 0,0l-0.01 0.01zm0.02 -0.01l0 0 0 0zm0.08 0c0,0 0,0 0,0 0,0 0,0 0,0l0 0zm-0.01 0.02c0,0 0,0 0,0 0.01,0 0.01,0 0.01,0l-0.01 0zm0.01 -0.09l0 0c0,0 0,0 0,0 0,-0.01 0,-0.01 0,-0.01 0,0 0,0 0.01,0 0,0.01 0,0.01 0,0.01 -0.01,0 -0.01,0 -0.01,0l0 0zm0 0.01l-0.01 0c0,0 0,0 0,0 0,0 0.01,0 0.01,0 0,0 0,0 0,0 0,0 0,0 0,0 0,0 0,0 -0.01,0l0.01 0zm-0.03 -0.15l0 0c-0.01,0 -0.01,0 0,0 0,0 0,0 0,0 0,0 0,0 0,0 0,0 0,0 0,0 0,0 0,0 0,0l0 0z"/>
   <path class="fil0" d="M1.37 1.75c0,0 -0.01,0 -0.01,0 -0.01,0 -0.01,0 -0.02,0 0,0 -0.01,0 -0.01,0 -0.01,0 -0.02,0 -0.02,0l-0.07 0 0 0.04c0.01,0 0.02,0 0.03,0 0.01,0 0.02,0 0.02,0 0.01,0 0.01,0 0.02,0 0,0 0.01,0 0.01,0 0.01,0 0.01,0 0.01,0 0.01,0 0.01,0.01 0.02,0.01 0,0 0,0 0,0.01 0,0 0,0.01 0,0.01 0,0.01 0,0.01 0,0.01 0,0.01 0,0.01 0,0.01 0,0 0,0 0,0.01 0,0 0,0 -0.01,0 0,0 0,0 0,0.01 -0.01,0 -0.01,0 -0.02,0 0,0 -0.01,0 -0.01,0 -0.01,0 -0.01,0 -0.02,0l-0.05 0 0 0.04c0.01,0 0.02,0 0.04,0 0.01,0 0.02,0 0.03,0 0.01,0 0.01,0 0.02,0 0.01,0 0.01,0 0.02,0 0,0 0.01,0 0.01,0 0.01,0 0.01,0 0.02,0 0,0.01 0,0.01 0,0.02 0,0.01 0,0.01 0,0.02 0,0 0,0.01 0,0.02 0,0 0,0.01 0,0.01 -0.01,0 -0.02,0 -0.03,0 -0.01,0 -0.02,0 -0.03,0l-0.05 0c-0.02,0 -0.04,0 -0.05,0 -0.02,0 -0.04,0 -0.06,0 0,0 0,-0.01 0,-0.01 0,0 0,0 0,-0.01 0,0 0,0 0,-0.01 0,0 0,0 0,0l0 -0.23c0,0 0,0 0,-0.01 0,0 0,0 0,-0.01 0,0 0,0 0,0 0,-0.01 0,-0.01 0.01,-0.01 0.01,0 0.02,0 0.03,0 0.01,0 0.03,0 0.04,0 0.02,0 0.03,0 0.04,0 0.02,0 0.03,0 0.05,0 0,0 0,0 0.01,0 0,0 0.01,0 0.01,0 0.01,0 0.01,0 0.02,0 0,0 0,0 0,0 0.01,0 0.01,0.01 0.01,0.01 0,0 0,0 0,0.01 0,0 0,0 0,0.01 0,0 0,0 0,0.01 0,0 0,0 0,0 0,0.01 0,0.01 0,0.01 0,0 0,0.01 0,0.01 0,0 0,0 -0.01,0.01zm-0.19 -0.06c0,0 0,0 0,0 0,0 0,0 0,0 0,0 0,0 -0.01,0 0,0 0,0 0,0 0,0 0,0 0,0 0,0 0,0 0.01,0 0,0 0,0 0,0 0,0 0,0 0,0zm0.01 0.01c0,0 0,0 0,0 0,0 0,0 0,0 0,0 0,0 0,0 0,0 0.01,0 0.01,0 0,0 0,0 0,0 0.01,0 0.01,0 0.01,-0.01 0,0 -0.01,0 -0.01,0 0,0 0,0 0,0 -0.01,0 -0.01,0.01 -0.01,0.01 0,0 0,0 0,0zm0.12 0c0,0 0,0 0,0 0,0 0,0 0,0 0,0 0,0 0,0 0,0 0,0 0,0 0,0 0,0 0,0zm-0.01 0.01c0,0 0,0 0,-0.01 0,0 0,0 0,0 0,0 0,0.01 0,0.01 0,0 0,0 0,0zm0.02 0c0,0 0,0 0,0 0,0 0,0 0,0 0.01,0 0.01,0 0.01,0 0,0 0,0 0,0 0,0 0,0 0,0 0,-0.01 0,-0.01 0,-0.01 0,0 0,0 0,0 0,0 0,0 0,0 0,0 0,0 0,0 -0.01,0 -0.01,0.01 -0.01,0.01 0,0 0,0 0,0 0,0 0,0 0,0 0,0 0,0 0,0 0,0 0,0 0,0l0 0 0 0c0,0 0,0 0,0 -0.01,0 -0.01,0 -0.01,0l0 0 0 0c0,0 0,0 0,0 0,0 0,0 0,0 0,0 0,0 0,0 0,0 0,0 0,0 0,0 0,0 0,0 0,0 0,0.01 0,0.01 0,0 0,0 0,0l0 0 0 -0.01c0.01,0 0.01,0 0.01,0 0,0 0,0 0,0l0 0 0 0zm0.03 0c0,0 0,0 0,0 0,0 0,-0.01 0,-0.01 0,0 0,0 0,0 0,0 0,0 -0.01,0 0,0 0,0 0,0 0,0 0,0.01 0,0.01 0,0 0,0 0,0 0,0 0,0 0,0l0 0 0 0c0,0 0,0 0.01,0 0,0 0,0 0,0l0 0c0,0 0,0 0,0l0 0 0 0zm0.01 0l0 0 0 -0.01 0 0 0 0.01zm-0.15 0c0,0 0,0 0,0 0,0 0,0 0,0 0,0 0,0 0,0 0,0 0,0 0,0zm0.02 0.01c0,0 0,0 0,0 0,0 0,0 0,0 0,0 0,0 0,0 0,0 0.01,0 0.01,0 0,0 0,0 0,0 0,-0.01 -0.01,-0.01 -0.01,-0.01 0,0 0,0 0,0 0,0.01 0,0.01 0,0.01 0,0 0,0 0,0 0,0 0,0 0,0zm-0.03 0c0,0 0,0 0,0 0,0 0,0 0,0 0,0 0.01,0 0.01,0 0,0 0,0 0,0 0,0 -0.01,0 -0.01,0 0,0 0,0 0,0zm0 0.01c0,0 0,0 0,0 0.01,0 0.01,0 0.01,0 0,0 0,0 0,0 0,0 0,0.01 0,0.01 0,0 0,0 0,0 0,0 0,0 0.01,0 0,0 0,0 0,0 0,-0.01 -0.01,-0.01 -0.01,-0.01 0,0 0,0 0,0 0,0 0,0 0,0l-0.01 0c0,0 0,0 0,0 0,0 0,0 0,0 0,0 0,0 0,0 0,0 0,0 0,0l0 0 0 0 -0.01 0c0.01,0 0.01,0 0,0 0,0.01 0.01,0.01 0.01,0.01l0 0 0 0c-0.01,0 -0.01,0 -0.01,0 0,0 0,0 0,0.01 0,0 0,0 0,0 0,0 0,0 0,0 0,0 0.01,0 0.01,0 0,0.01 0,0.01 0,0.01 0,0 0,0 0,0 0,0 0,0 0,0 0,0 0,0 0,-0.01 0,0 0,0 0,0 0,0 0,0 0,0 0,0 0,0 -0.01,0 0,0 0,0 0,0 0.01,-0.01 0.01,-0.01 0.01,-0.01 0,0 0,0 0,0 0,0 0,0 0,0l0 0 0 0c0,0 0,0 0,0 0,0 0,0 0,0 0,-0.01 0,-0.01 0,-0.01 0,0 0,0 0,0l0 0 0 0zm0.02 0c0,0 0,0 0,0 0,0 0.01,0 0.01,0 -0.01,0 -0.01,0 -0.01,0 0,0 0,0 0,0zm-0.02 0.02l0 0 0 -0.01 0 0 0 0.01zm-0.02 0.03c0,0 0,0 0,0 0,0 0,0 0,0 0,0 0,0 0,0 0,0 0,0 0,0l0 0zm0.02 0.01c0,0 0,0 0,0 0,0 0,0 0,0 0,0 0,0 0,0 0,0 0.01,0 0.01,0 -0.01,0 -0.01,0 -0.01,0 0,0 0,0 0,0 0,0 0,0 0,0 0,0 0,0 0,0 0,0 0,0 0,0zm-0.02 0.01c0,0 0,0 0,0 0,0 0,0 0,0 0,0 0,0 0,-0.01 -0.01,0 -0.01,0 -0.01,0l0 0.01c0,0 0.01,0 0.01,0 0,0 0,0 0,0l0 0 0 0c0,0 0,0 0,0 0,0 0,0 0,0.01 0,0 0,0 0,0 0,0 0,0 0,0 0,0 0,0 0,0 0.01,0 0.01,0 0.01,0 0,-0.01 0,-0.01 0,-0.01 0,0 -0.01,0 -0.01,0l0 0 0 0zm0.05 0.01c0,0 0,0 0,0 0,0 0,0 0,0 0,0 0,0 0,0 0,0 0.01,0 0.01,0 0,0 0,0 0,0 0,-0.01 0,-0.01 0,-0.01 0,0.01 -0.01,0.01 -0.01,0.01 0,0 0,0 0,0 0,0 0,0 0,-0.01 0,0 0,0 0,0 0,0 -0.01,0.01 -0.01,0.01 0,0 0,0 0,0 0.01,0 0.01,0 0.01,0 0,0 0,0 0,0l0 0.01c0,0 0,0 0,0 0,0 0,0 0,0l0 0 0 0c0,0 0,0 0,0 0,0 0,0.01 0,0.01 0.01,0 0.01,0 0.01,0 0,0 0,-0.01 0,-0.01 -0.01,0 -0.01,0 -0.01,0 0,0 0,0 0,0l0 0c0,0 0,0 0,0 0,0 0,0 0,0l0 -0.01 0 0zm-0.04 0.01c0.01,0 0.01,0 0.01,0 0,-0.01 0,-0.01 0,-0.01 0,0 0,0 0,0 -0.01,0 -0.01,-0.01 -0.01,-0.01 0,0.01 0,0.01 0,0.01 0,0 0,0 0,0.01zm0.02 0c0,0 0,0 0,0 0,0 0,0 0.01,0l0 -0.01c-0.01,0 -0.01,0 -0.01,0 0,0 0,0 0,0.01zm0.02 0c0,0 -0.01,0 -0.01,0 0,0 0,0 0,0 0,0 0,0 0,0 0,0 0,0 0,0 0,0.01 0,0.01 0.01,0zm0.04 0.01c0,0 0,0 0,0 0,0 0,0 0.01,0 0,0 -0.01,0 -0.01,0 0,0 0,0 0,0 0,0 0,-0.01 0,-0.01 0,0 0,0 0,0 0,0.01 0,0.01 0,0.01 0,0 0,0 0,0 0,0 0,0 0,0 0,0 0,0 0,0zm-0.07 0.01c0,-0.01 0,-0.01 0,-0.01 0,0 0,0 0,0 0,0 0,0 0,0 0,0 0,0 0,0 0,0 0,0 0,0 0,0 0,0 0,0 0,0 0,0 0,0 0,0.01 0,0.01 0,0.01zm0.01 0l0.01 0c0,0 0,-0.01 0,-0.01 0,0 0,0 -0.01,0 0,0 0,0 0,0 0,0 0,0.01 0,0.01zm-0.02 0.01c0,0 0,-0.01 0,-0.01 0,0 0,0 0,0 0,0 0,0 0,0 0,-0.01 0,-0.01 0,-0.01 0,0.01 0,0.01 0,0.01 0,0 0,0.01 0,0.01zm0.04 -0.01l0 0c0,0 0,0 0,0 0,0 0,0 0,0 0,0 0,0 0,0 0,0 0,0 0,-0.01l0 0 0 0.01zm-0.01 0.01c0,0 0,0 0,0 0,0 0,0 0,0 0,0 0,0 0,-0.01 0,0 0,0 0,0 0,0 0,0 0,0.01zm-0.04 0.01c0,0 0,0 0,0 0,0.01 0,0.01 0,0.01 0,0 0,0 0,0 0,0 0,0 0,0 0,0 0.01,0 0.01,0 0,0 0,0 0,-0.01 0,0 0,0 0,0 0,0 0,0 0,0 0,0 -0.01,0 -0.01,0 0,0 0,0 0,0l0 0 0 0c0,0 0,0 0,0 0,0 0,0 0,0 -0.01,0 -0.01,0 -0.01,0 0,0 0,0 0,0 0,0 0,0 0,0 0,0 0,0 0.01,0 0,0 0,0 0,0 0,0 0,0 0,0l0 0 0 0zm0.04 0.03c0,0 -0.01,0 -0.01,0 0,0 0,0.01 0,0.01 0.01,0 0.01,0 0.01,0 0,0 0,0 0,0l0 0 0 0 0 -0.01c0,0 0,0 0,0 0,0 0,0 0,0 0,0 0,0 0,0 0,0 0,0 0.01,0 0,0 0,0 0,0 0,0 0,0 0,0 0,-0.01 -0.01,-0.01 -0.01,-0.01 0,0 0,-0.01 0.01,-0.01l0 0 0 0c0,0 0,0 0,0 0,0 0,-0.01 0,-0.01 0,0 0,0 0,0 0,0 0,0 0,0 0,0 0,0 0,0 -0.01,0 -0.01,0 -0.01,0 0,0 0,0 0,0 0,0 0,0.01 0,0.01l0 0 0 0 0.01 0c0,0 -0.01,0 -0.01,0 0,0 0,0 0,0 0,0 0,0 0,0 0,0 0,0 0,0 0,0 0,0 0,0 0,0 0,0 0,0 0,0 0,0 0,0 0,0 0,0 0,0 0,0 0,0 0,0 0,0 -0.01,0 -0.01,0 0,0 0,0 0,0 0,0 0,0 0,0 0,0 0,0 -0.01,0 0,0 0,0 0,0 0,0 0,0 0,0l0 0 0 0c-0.01,0 -0.01,0 -0.01,0 0,0 0,0 0,0.01 0,0 0,0 -0.01,0 0,0 0,0 0,0 0,0 0,0 0,0 0,0 0,0 0,0 0,0 0,0 0,0 0,0 0,0.01 0,0.01 0,0 0,0 0.01,0 0,0 0,0 0,0.01 0,0 0,0 0,0 0,0 0,0 0,0 0,0 0.01,0 0.01,0 0,0 0,0 0,0l0 0 0 0c0,0 0,0 0,0 0,0 0,0 0,0 0,0 0,0 0,0 0,0 0,0 0,0 0,0 0,0 0,0 0.01,0 0.01,0 0.01,0 0,0 0,0 0,0 0,0 0,0 0,0l-0.01 0 0 0 0 0c0,-0.01 0,-0.01 0,-0.01 0,0 0,0 0,0 0,0 0.01,0 0.01,0 0,0 0,0 0,0 0,0 0,0 0,0 0,0 0,0 0,0 0,0 0,0 0,0 0,0 0,0 -0.01,0 0,0 0,0 0,0 0,0 0,0 0,0 -0.01,0 -0.01,0 -0.01,-0.01 0,0 0,0 0,0 0,0 0,0 0,0 0,0 0,0 0,0 -0.01,0 0,0 0,0 0,0 0,0 0,0 0,0 0.01,0 0.01,0 0,0 0,0 0,-0.01l0 0 0 0c0,0 0,0 0,0 0,0.01 0.01,0.01 0,0.01 0.01,0 0.01,0 0.01,0 0,0 0,0 0,0 0,0 0,0 0,0 0,0 0,0 0,0 0,0 0,0 0,0 0,0 0,0 0,0 0,0 0.01,0.01 0.01,0.01 0,0 0,0 0,0l0 0 0 0zm-0.01 0.02c0,0 0,0 0,0 0,0 0,0 0,0 0,0 0,0 0,0 0,0 0,0 0,0 0,0 0,0 0,0 0,0 0.01,0 0.01,0 0,0 0,0 0,0 0,0 0,0 0,0 0,0 0,0 0,0 0,0 -0.01,0 -0.01,0 0,0 0,0 0,0 0,0 0,0 0,0l-0.01 0 0 0c0,0 0,0 0,0 0,0 0,0 0,0 0,0 0,0 -0.01,0 0,0 0,0 0,0 0,0 0,0 0.01,0 0,0 0,0 0,0 0,0 0,0 0,0 0,0 0,0 0,0l0.01 0 0 0zm0.02 0c0,0 0,0 0,0 0,0 0,0 0,0 0,0 0,0 0,0 0,0 0,0 0,0 0,0 0,0 0,0 0,0 0,0 0,0zm-0.05 0.01c0,0 0,-0.01 0,0 0,0 0,0 0,0 0,0 0,0 0,0 0,0 0,0 0,0zm0.14 0.01c0,0 0,0 0,0 0.01,-0.01 0.01,-0.01 0.01,-0.01 0,0 0,0.01 0,0.01 0,0 0,0 0,-0.01 0,0 0,0 0,0 0,0 0,0 0,0 0,0 0,0 0,0 0,0 0,0 0,0 0,0 0,0 0,0 -0.01,0 -0.01,0 -0.01,0 0,0 0,0 0,0 0,0 0,0.01 0,0.01zm-0.08 0c0,0 0,0 0,0 0,0 0,0 0,0 0,0 0,0 0,0 0,0 0,0 0,0 0,0 0,-0.01 0,-0.01 0,0 0,0 0,0 0,0 0,0 0,0 0,0.01 0,0.01 0,0.01 0,0 0,0 0,0 0,0 0,0 0,0zm0.04 0c0,0 0,0 0,0 0,0 0,0 0,0 0,0 0,-0.01 0,-0.01 0,0 0,0 0,0 0,0 0,0.01 0,0.01 0,0 0,0 0,0 0,0 0,0 0,0l0 0c0,0 0,0 0,0 0,0 -0.01,0 -0.01,0l0 0.01 0 -0.01 0 0.01c0,0 0,0 0,0 0,0 0,0 0,0 0.01,0 0.01,0 0.01,0l0 0 0 0c0,-0.01 0,-0.01 0,-0.01 0,0 0,0 0,0l0 0 0 0 0 0c0,0 0,0 0,0 0,0 0,0 0,0zm0.03 0c0,0 0,0 0,0 0,0 0,0 0,0 0,0 -0.01,0 -0.01,0 0,-0.01 0,-0.01 0,-0.01 0,0 0,0 0,0.01 -0.01,0 -0.01,0 -0.01,0 0,0 0,0.01 0.01,0.01 0,-0.01 0,-0.01 0,-0.01 0,0 0,0 0,0l0 0c0,0 0,0 0,0 0,0 0.01,0 0.01,0zm0 0c0,0 0,0 0,0 0.01,0 0.01,0 0.01,0 0,-0.01 0,-0.01 0,-0.01 0,0 -0.01,0 -0.01,0 0,0 0,0 0,0 0,0 0,0.01 0,0.01zm-0.11 0c0,0 0,0 0,0 0,0 0.01,0 0.01,0 0,0 0,0 0,0 0,0 0,0 0,0 0,0 0,0 0,0 0,0 0,0 0,0 -0.01,0 -0.01,-0.01 -0.01,0 0,0 0,0 0,0zm0.05 0c0,0 0,0 0,0 0,0 0,0 0,0 0,0 0,0 0,0 0,0 0,-0.01 0,-0.01 0,0.01 0,0.01 0,0.01 0,0 0,0 0,0 0,0 0,0 0,0 0,0 0,0 0,0zm0.01 0c0,0 0,0 0,0 0,0 0,0 0.01,0l0 -0.01c-0.01,0 -0.01,0.01 -0.01,0.01zm-0.03 0c0,0 0,0 0,0 0,0 0,0 0,0 0,0 0,0 -0.01,0 0,0 0,0 0,0 0,0 0,0 0,0 0,0 0,0 0,0 0,0 0.01,0 0.01,0 0,0.01 0,0 0,0zm-0.05 0l0 0 0 0 0 0 0 0zm0.08 0.01l0 0 0 -0.01 0 0 0 0.01zm0.08 0c0,0 0,0 0,0 0,0 0,0 0,-0.01 0,0 0,0.01 0,0.01zm0.01 0c0,0 0,0 0.01,0 0,0 0,0 0,0 0,0 0,0 0,0 0,0 0,0 0,0 0,0 0,0 0,-0.01 0,0 -0.01,0 -0.01,0 0,0 0,0.01 0,0.01 0,0 0,0 0,0zm-0.16 0c0,0 0,0 0,0 0,0 0,0 0,0 0,0 0,0 0,0 0,0 0,0 0,0 0,0 0,0 0,0 0,0 0,0 0,0 0,0 0,0 0,0 0,0 0,0 0,0zm0.01 0c0.01,0 0.01,0 0.01,0 0,0 0,0 0,0 0,0 0,0 0,0 0,0 0,0 0,0 0,0 0,0 0,0 0,0 0,0 -0.01,0l0 0zm0.05 0c0,0 0,0 0,0 0,0 0,0 0,0 -0.01,0 -0.01,0 -0.01,0 0,0 0,0 0,0 0,0 0,0 0,0 0,0 0,0 0,0 0.01,0 0.01,0 0.01,0 0,0 0,0 0,0zm-0.03 0.01c0,0 0,0 0,0 0,0 0.01,0 0.01,0 0,0 0,0 0,0 0,0 0,0 0,0 0,0 0,0 0,0 0.01,0 0.01,0 0.01,0 0,0 0,0 -0.01,0 0,0 0,0 0,0 0,0 0,0 0,0 0,0 0,0 -0.01,0zm0.07 0.01l0 0c0,0 0,0 0,0l0 0zm0.05 -0.25c0,0 0,0 0.01,0 0,0 0,0 0,0l-0.01 0zm-0.02 0c0,0 0,0 0,0 0,0 0,0 0,0l0 0zm-0.01 0.01c0,0 0,-0.01 0,-0.01 0,0 0,0 0,0l0 0.01zm-0.11 0.01c0,0 0,0 0,0 0,0 0,0 0,0l0 0zm0 0.01l0 0 0 0zm-0.02 0.06c0,0 0,0 0,0 0,0 0,0 0,0l0 0zm0.05 0.01c0,0 0,0 0,0 0,0 0,0 0,0l0 0zm0 0.01c0,0 0,0 0,0 0,0 0,0 0,0l0 0zm-0.05 0.04c0,0 0,0 0,0l0 0zm0.02 0.01c0,0 0,0 0,0 0,0 0,0 0,0l0 0zm0.02 0.01c-0.01,0 0,0 0,0l0 0zm0.01 -0.01c0,0 0,0 0,0 0,0 0,0 0,0l0 0zm-0.03 0.02c0,0 -0.01,0 -0.01,0 0,0 0,0 0,0l0.01 0zm0.01 0.02c0,0 -0.01,0 -0.01,0 0,0 0,0 0,0l0.01 0zm0.07 0.02c0,0 0,0 0,0 0,0 0,0 0,0l0 0zm-0.01 0c0,0.01 0,0.01 0,0.01 0.01,0 0.01,0 0.01,0l-0.01 -0.01z"/>
   <path class="fil0" d="M1.52 1.69c0,0.01 0.01,0.01 0.01,0.02 0,0 0.01,0.01 0.01,0.02 0.01,0 0.01,0.01 0.01,0.02 0.01,0 0.01,0.01 0.01,0.02 0.01,0 0.01,0.01 0.02,0.01 0,0.01 0,0.01 0.01,0.02 0,0.01 0.01,0.01 0.01,0.02 0,0 0.01,0.01 0.01,0.01l0 -0.11c0,-0.01 0,-0.01 0,-0.01 0,-0.01 0,-0.01 0,-0.01 0,-0.01 0,-0.01 0,-0.01 0,0 0,-0.01 0,-0.01 0.01,0 0.01,0 0.01,0 0,0 0.01,0 0.01,0 0,0 0.01,0 0.01,0 0,0 0.01,0 0.01,0 0.01,0 0.01,0 0.01,0 0.01,0 0.01,0 0.01,0 0.01,0 0.01,0 0.01,0 0,0 0.01,0 0.01,0 0,0.01 0,0.01 0,0.02 0,0.01 0,0.01 0,0.02 0,0.01 0,0.01 0,0.02 0,0.01 0,0.01 0,0.02l0 0.16c0,0 0,0.01 0,0.01 0,0.01 0,0.01 0,0.02 0,0 0,0 0,0.01 0,0 0,0.01 0,0.01 -0.01,0 -0.02,0 -0.02,0 -0.01,0 -0.01,0 -0.02,0 0,0 -0.01,0 -0.01,0 0,0 -0.01,0 -0.01,0 0,0 -0.01,0 -0.01,0 0,0 -0.01,0 -0.01,0 0,0 0,0 0,0 0,-0.01 -0.01,-0.01 -0.01,-0.01 0,0 0,-0.01 0,-0.01 0,0 -0.01,0 -0.01,-0.01 0,-0.01 -0.01,-0.02 -0.02,-0.03 -0.01,-0.01 -0.01,-0.03 -0.02,-0.04 0,0 -0.01,-0.01 -0.01,-0.01 0,0 0,-0.01 0,-0.01 0,0 -0.01,0 -0.01,-0.01 0,0 0,0 0,0 0,0 0,-0.01 -0.01,-0.01 0,0 0,-0.01 0,-0.01 0,0 -0.01,-0.01 -0.01,-0.01 0,0 0,-0.01 0,-0.01l0 0.13c0,0 0,0.01 0,0.01 0,0 0,0.01 0,0.01 0,0 0,0.01 0,0.01 0,0 -0.01,0.01 -0.01,0.01 0,0 -0.01,0 -0.01,0 -0.01,0 -0.02,0 -0.02,0 -0.01,0 -0.02,0 -0.02,0 -0.01,0 -0.01,0 -0.02,0 0,-0.01 0,-0.01 0,-0.02 0,0 0,-0.01 0,-0.01 0,-0.01 0,-0.02 0,-0.02 0,-0.01 0,-0.01 0,-0.02 0,0 0,0 0,-0.01 0,0 0,0 0,0 0,0 0,0 0,-0.01 0,0 0,0 0,0 0,0 0,0 0,0 0,0 0,-0.01 0,-0.01 0,0 0,0 0,-0.01 0,0 0,0 0,0 0,-0.01 0,-0.03 0,-0.04 0,-0.01 0,-0.02 0,-0.03 0,-0.02 0,-0.03 0,-0.04 0,-0.01 0,-0.02 0,-0.03 0,0 0,-0.01 0,-0.01 0,-0.01 0,-0.01 0,-0.02 0,0 0,0 0,-0.01 0,0 0.01,0 0.01,0 0,0 0,0 0.01,0 0,0 0.01,0 0.01,0 0,0 0.01,0 0.01,0 0.01,0 0.01,0 0.02,0 0,0 0.01,0 0.01,0 0.01,0 0.01,0 0.01,0 0,0 0,0 0,0 0,0.01 0.01,0.01 0.01,0.01zm-0.03 0.01c0,0 0,0 0,0 0,0 0,0 0,0 0,0 0,0 0.01,0 0,0 0,0 0,0 0,0 0,0 0,0 0,-0.01 0,-0.01 0,-0.01 0,0 0,0 0,0 0,0 0,0 0,0 0,0 -0.01,0 -0.01,0 0,0 0,0 0,0 0,0 0,0.01 0,0.01 0,0 0,0 0,0 0,0 0,0 0,0 0,0 0,0 0,0l0 0 0 0c-0.01,0 -0.01,0 -0.01,0 0,0 0,0 0,0 0,0 0,0 0,0 0,0 0,0 0,0 0,0 0,0.01 0,0.01 0,0 0,0 0.01,0 0,0 0,0 0,0 0,0 0,0 0,-0.01l0 0 0 0zm-0.02 0c0,-0.01 0,-0.01 0,-0.01 0,0 0,0 -0.01,0 0,0 0,0 0,0 0.01,0.01 0.01,0.01 0.01,0.01zm0 0c0.01,0 0.01,0 0.01,0 0,0 0,0 0,0 0,0 0,0 0,0 0,-0.01 0,-0.01 0,-0.01 0,0 0,0 0,0 0,0 -0.01,0 -0.01,0 0,0 0,0 0,0 0,0.01 0,0.01 0,0.01 0,0 0,0 0,0 0,0 0,0 0,0l0 0 0 0c0,0 0,0 0,0 -0.01,0 -0.01,0.01 -0.01,0.01 0,0 0,0 0,0 0,0 0,0 0,0 0,0 0,0 -0.01,0 0,0 0,0 0,0 0,0 0.01,0.01 0.01,0.01 0,0 0,0 0,0 0,0 0,-0.01 0,-0.01 0,0.01 0,0.01 0.01,0.01 0,0 0,0 0,0 0,0 0,0 0,0 0,0 0,-0.01 0,-0.01 0,0 0,0 0,0 0,0 0,0 0,0 0,0 0,0 0,0 0,0 0,0 0,-0.01 0,0 0,0 0,0 0,0 0,0 0,0 0,0 0,0 0,0l0.01 0 -0.01 0zm0.04 0.03c0,0 0,0.01 0,0.01 0,0 0,0 0,0 -0.01,0 -0.01,0 -0.01,0 0,0.01 0,0.01 0,0.01 0,0 0.01,0 0.01,0 0,0 0,0 0,0 0,-0.01 0,-0.01 0,-0.01 0,0 0,0 0,0 0,0 0,0 0,0 0,0 0.01,0 0.01,-0.01 0,0 0,0 0,0 0,0 -0.01,0 -0.01,0 0,0 0,0 0,0 0,0 0,0 0,0zm0.15 0c0,0 0,0 0,0 0,0 0,0 0,0 0,-0.01 0,0 0,0 0,0 0,0 0,0zm-0.17 0l0 0c0,0 0,0 0,0 0,0 0,0 0,0 0,0 0,0 0,0 0,0 0,0 0,0 0,0 0,0 0,0 0,0 0,0 0,0l0 0 0 0.01c0,0 0,0 0,0 0,0 0,0 0,0 0,0 0,0 0,0 0,0 0,0.01 0,0.01 0,0 0,0 0,0.01 0,0 0,0 0.01,0 0,0 0,0 0,0 0,0 0,0 0,0 -0.01,0 -0.01,0 -0.01,0 0,0 0,0 0,-0.01 0,0 0,0 0,0 0,0 0,0 0,0 0.01,0 0.01,0 0.01,0 0,0 0,0 0,0 0,-0.01 0,-0.01 0,0 0,0 0,0 0,0 0,0 -0.01,0 -0.01,0 0,0 0,0 0,0 0,-0.01 0,-0.01 0,-0.01 0,0 0,0 0,0 0,0 0,0 0,0 0,0 0,0 0,0l0 -0.01 0 0zm0.04 0.01c0,0 0,0 0,0 -0.01,0 -0.01,0 -0.01,0 0,0 0,0 0,0 0,0 0,0 0,0 0,0 0,0 0,0 0,0 0,0 0,0.01 0,0 0,0 0,0 0,0 0,0 0,0 0,0 0,0 0,0 0,0 0,0 0,0 -0.01,0 -0.01,0 -0.01,0 0,0 0,0 0,0 0,0.01 0,0.01 0,0.01 0,0 0.01,0 0.01,0 0,0 0,0 0,0 0,0 0,0 0.01,0 0,0 0,0 0,-0.01 0,0 0,0 0,-0.01 0,0 0,0 0,0 0.01,0 0.01,0 0.01,-0.01 0,0 0,0 -0.01,0 0,0 0,0 0,0.01 0,0 0,0 0,0 0,0 0,0 0,0zm0.12 0.03c0,0 0,0 0,0 0,0 0,0 0,0 0,0 0,0 0,0 0,0 0,0 0,-0.01 0,0 0,0 0,0 0,0 0,0.01 0,0.01zm-0.14 0c0,0 0,0 0,0 0,0 0,0 0,0 0,0 0,0 0,0 0,0.01 0,0.01 0,0.01 0,0 0,0 0,-0.01 0,0 0,0 0,0 0,0 0.01,0 0.01,0 0,0 0,0 0,0 -0.01,0 -0.01,0 -0.01,0 0,0 0,0 0,0zm0.02 0.01c0,0 0,0 0,-0.01 0,0 0,0 0,0 0,0 0,0 0,0 0,0 0,0 0,0 0,0 -0.01,0 0,0 0,0 0,0 0,0 0,0 0,0.01 0,0.01 0,0 0,0 0,0l0 0 0 0c0,0 0,0 0,0 0,0 0,0.01 0.01,0.01 0,0 0,0 0,0 0,0 0,0 0,0l0 0 0 0c0,0 0,0 0,0 0,0 0,0 0,0 0,0 0,0 0,0 0,0 0,0 0,0l0 0 0 0c0,0 0,0 0,0 0,0 0,0 0,-0.01 0,0 0,0 0,0 0,0 0,0 -0.01,0l0.01 0 -0.01 0zm0.02 0.01c0,0 0.01,-0.01 0.01,-0.01 0,0 0,0 0,0l-0.01 0c0,0 0,0 0,0 0,0 0,0 0,0 0,0 0,0.01 0,0.01 0,0 0,0 0,0zm0 0.01c0,0.01 0,0.01 0,0.01 0,0 0,0 0,0 0,0 0,0 0,0 0,-0.01 0,-0.01 0,-0.01 0,0 0,0 0,0 0,0 0,0 0,0 0,0 0,0 0,0 0,0 0,0 0,0 0,0 0,0 0,0 0,0 0,0 0,0zm-0.08 0.02c0,0 0.01,0 0.01,0 0,0 0,0 0,0 0,0 0,0 0,0 0,0 0,0 0,0 0,0 0,0 0,0 0,0 0,0 0,0 0,0 0,0 -0.01,0 0,0 0,0 0,0zm0.07 0c0,0 0,0 0,0 0,0 0,0 0,0 0,0 0,0 0,0 0,0 0,0 0,0zm0.1 0c0,0 0,0 0,0 0,0 0,0 0,0l0 0c0,0 0,0 0,0 0,0 0,0 0,0zm-0.08 0.01c0.01,0 0.01,0 0.01,0 0,0 0,0 0,0 0,0 0,0 0,0 0,0 0,0 0,0 0,0 0,0 -0.01,0 0,0 0,0 0,0zm0 0.01c0,0 0,0 0,0 0,0 0,-0.01 0,-0.01 0,0 0,0 0,0 0,0 0,0 0,0 0,0 0,0 0,0 0,0.01 0,0.01 0,0.01 0,0 0,0 0,0 0,0 0,0 0,0zm-0.02 -0.01c0,0 0,0 0,0 0,0 0,0 0,0 0,0 0,0 0,0.01 0,0 0,0 0,0 0,0 0,0 0,0 0,0 0,0 0,-0.01zm-0.08 0.02c0,0 0,0 0,0 0,0 0,0 0,0 0,0 0,0 0,0 0,0 0,0 0,0 0,-0.01 0,-0.01 0,-0.01 0.01,0 0.01,0 0.01,0 0,0 0,0 0,0 -0.01,0 -0.01,0 -0.01,0 0,0 0,0.01 0,0.01zm0.19 -0.01c0,0 0,0 0,0 0,0 0,0 0,0 0,0 0,0 0,0 0,0 0,0 0,0zm-0.07 0c0,0 0,0 0,0 0,0 0,0 0,0 0,0 0,0 0,0 0,0 0,0 0,0 0,0 0,0 0,0 0,0 0,0 0,0 0,0 0,0 0,0 -0.01,0 0,0 0,0zm0.06 0c0,0 0,0 0,0 0,0 -0.01,0 -0.01,0 0,0 0,0 0,0l0 0 0 0 0 0.01 0 0c0,0 0,0 0.01,-0.01 0,0 0,0 0,0l0 0c-0.01,0 -0.01,0 -0.01,0 0,0 0,0 0,0 0,0 0.01,0 0.01,0zm-0.08 0.01c0,0 0.01,0 0,-0.01 0,0 0,0 0,0.01 0,0 0,0 0,0zm0.06 0c0,0 0,0 0,0 0,0 0,0 0,0 0,0 0,0 0,0 0,0 0.01,0 0.01,0 0,0 0,0 -0.01,0 0,0 0,0 0,0 0,0 0,0 0,0zm-0.02 0c0,0 0,0 0,0 0,0 0,0 0,0 0,0 0,0 0,0 0,0 0,0 0,0 0,0 0,0 0,0 0,0 0,0 0,0zm-0.15 0.01c0,0 0,0 0,0 0,0 0,0 0,0 0.01,0 0.01,0 0.01,0 0,0 0,0 0,0 0,0 -0.01,-0.01 -0.01,-0.01 0,0 0,0 0,0 0,0.01 0,0.01 0,0.01 0,0 0,0 0,0zm0.19 0c0,0 0,0 0,0 0,0 0,0 0,0 0,0 0,0 0,0 0,0 0,0 0,-0.01 0,0.01 0,0.01 0,0.01 0,0 0,0 0,0 0,0 0,0 0,0 0,0 0,0 0,0zm-0.03 0l0 0 0 0c0,0 0,0 0,0l0 0 0 0c0,0 0.01,0.01 0.01,0.01 0,0 0,0 0,0 0,0 0,0 0,-0.01 0,0 0,0 0,0l0 0 -0.01 0zm-0.04 0c0,0 0,0 0,0 0,0 0,0 0,0 0,0.01 0.01,0.01 0.01,0.01 0,0 0,0 0,0 0,-0.01 0,-0.01 0,-0.01 0,0 0,0 0,0l0 0c0,0 0,0 0,0 0,0 0,0 0,0l0 0 0 0c0,0 0,0 0,0 0,0 0,0 0,0l0 0c0,0 0,0 0,0 -0.01,0 -0.01,0 -0.01,0zm0.06 0c0,0 0,0 0,0 0,0 0,0 0,0 0,0 0,0 0,0 0,0 0,0 0,0 0,0 0,0 0,0 0,0 0,0 0,0 0,0 0,0 0,0 0,0 0,0 0,0zm-0.18 0.02c0,0 0,0 0,0 0,0 0,0 0,0 0,0 0,0 0,0 0,0 0.01,0 0.01,0 0,0 0,0 0,0 0,0 0,0 0,0 0,0 0,0 0,0 0,0 0,0 0,-0.01 0,0 0,0 0,0 -0.01,0 -0.01,0 -0.01,0l0 0.01zm0.2 0c0,-0.01 0,-0.01 0,-0.01 0,0 0,0 0,0.01 0,0 0,0 0,0 0,0 0,0 0,0zm-0.05 0c0,0 0,0 0.01,0 0,0 0,0 0,0 0,0 0,0 0,0 0,0 0,0 0,0 0,0 0,0 0,0 0,0 0,0 0,0 0,0 0,0 0,0 0,0 0,0 0,0 0,0 0,0 0,0 0,0 0,0 0,0 0,0 0,0 -0.01,0 0,0 0,0 0,0zm0.04 0.01l0 0c0,0 0,0 0,0 0,0 0,0 0,0 0,-0.01 0,-0.01 0,-0.01 0,0 0,0 0,0 0,0 0,0 0,0.01 0,0 0,0 0,0zm-0.02 0c0,0 0,0 0,0 0,0 0,-0.01 0,-0.01 0,0.01 0,0.01 0,0.01 0,0 0,0 0,0zm-0.16 0c0,0 0,0 0,0 0,0 0,0 0,0 0,0 0,0 0,0 0,0 0,0 0,0 0,0 0,0 0,0 0,0 0,0 0,0 0,0 0,0 0,0 0,0 0,0 0,0zm0.17 0c0,0 0,0 0,0 0,0 0,0 0,0 0,0 0,0 0,0 0,0 0,0 0,0zm-0.04 0.02l0.01 0c0,-0.01 -0.01,-0.01 -0.01,-0.01l0 0.01zm-0.13 0.01c0,0 0,0 0.01,-0.01 0,0 0,0 0,0 0,0 0,0 -0.01,0 0,0 0,0 0,0 0,0 0,0 0,0.01zm0.01 0l0 0c0,0 0,0 0,0 0,0 0,0 0,0l0 0zm0.18 0.01c0.01,0 0.01,0 0.01,0 0,0 0,0 0,0 0,0 0,0 0,0 0,0 0,-0.01 0,-0.01 0,0.01 0,0.01 -0.01,0.01 0,0 0,0 0,0zm-0.03 0c0,0 0,0 0,0 0,0 0,0 0,0 0,0 0,0 0,0 0,0 0,0 0,0 0,0 0,0 0,0 0,0 0,0 0,0 0,0 0,0 0,0 0,0 0,0 0,0zm0.04 0.01l0 0 0 0 0 0 0 0zm-0.05 0.01c0,0 0,0 0,0 0,0 0,-0.01 0,-0.01 0,0 0,0 0,0 0,0 0,0 0,0 0,0 0,0 0,0 0,0 0,0 0,0.01zm0.03 0c0,0 0,0 0,0 0,0 0,0 0,0 0,0 0,0 0,0zm0.02 0l0.01 0 0 0 -0.01 0 0 0zm0.01 0.01c0,0 0,0 0,0 0,0 0,0 0,0 0,0 0,0 0,0 0,0 0,0 0,0 0,0 0,0 0,0 0,0 0,0 0,0zm-0.22 0l-0.01 0c0,0 0,0 0,0 0,0 0,0 0,0 0.01,0 0.01,0 0.01,0 0,0 0,0 0,0zm0.02 -0.26c0,0 0,0 0,0 0,0 0,0 0.01,0l-0.01 0zm0.02 0c0,0 0,0 0,0 0,0 0,0 0,0l0 0zm0 0.03c0,0 0,0 0,0 0,0 0,0 0,0l0 0zm0.05 0.05c-0.01,0 -0.01,0 -0.01,0l0.01 0zm0 0.01c0,0 0,0 0,0l0 0zm0.09 0.05c0,0 0,0 0,0 0,0 0.01,0 0.01,0l-0.01 0zm-0.02 0.02c0,0 0,0 0,0 0.01,0 0.01,0 0.01,0l-0.01 0zm-0.03 0c0,0 0,0 0,0l0 0z"/>
  </g>
 </g>
</svg>
