<?xml version="1.0" encoding="UTF-8"?>
<!DOCTYPE svg PUBLIC "-//W3C//DTD SVG 1.1//EN" "http://www.w3.org/Graphics/SVG/1.1/DTD/svg11.dtd">
<!-- Creator: CorelDRAW 2019 (64-Bit) -->
<svg xmlns="http://www.w3.org/2000/svg" xml:space="preserve" width="64px" height="64px" version="1.1" style="shape-rendering:geometricPrecision; text-rendering:geometricPrecision; image-rendering:optimizeQuality; fill-rule:evenodd; clip-rule:evenodd"
viewBox="0 0 2.42 2.43"
 xmlns:xlink="http://www.w3.org/1999/xlink"
 xmlns:xodm="http://www.corel.com/coreldraw/odm/2003">
 <defs>
  <style type="text/css">
   <![CDATA[
    .str0 {stroke:#68372C;stroke-width:0.04;stroke-miterlimit:10}
    .fil3 {fill:none;fill-rule:nonzero}
    .fil6 {fill:#D14839;fill-rule:nonzero}
    .fil0 {fill:#D14839;fill-rule:nonzero}
    .fil7 {fill:#A33E35;fill-rule:nonzero}
    .fil1 {fill:#A33E35;fill-rule:nonzero}
    .fil8 {fill:#843B30;fill-rule:nonzero}
    .fil2 {fill:#843B30;fill-rule:nonzero}
    .fil5 {fill:#793F2F;fill-rule:nonzero}
    .fil9 {fill:#68372C;fill-rule:nonzero}
    .fil4 {fill:#68372C;fill-rule:nonzero}
   ]]>
  </style>
 </defs>
 <g id="Capa_x0020_1">
  <metadata id="CorelCorpID_0Corel-Layer"/>
  <path class="fil0" d="M1.19 1.12c-0.01,-0.15 -0.2,-0.36 -0.2,-0.36 0,0 -0.17,0.23 -0.16,0.38 0.01,0.15 0.1,0.27 0.19,0.26 0.1,0 0.18,-0.13 0.17,-0.28z"/>
  <path class="fil1" d="M0.99 0.76c0,0 -0.02,0.03 -0.05,0.08 0.02,0.12 0.05,0.35 -0.08,0.42 0.03,0.09 0.09,0.15 0.16,0.14 0.1,0 0.18,-0.13 0.17,-0.28 -0.01,-0.15 -0.2,-0.36 -0.2,-0.36z"/>
  <path class="fil2" d="M0.99 0.76c0,0 0,0 0,0 0.02,0.07 0.13,0.43 -0.05,0.62 0.03,0.02 0.05,0.03 0.08,0.02 0.1,0 0.18,-0.13 0.17,-0.28 -0.01,-0.15 -0.2,-0.36 -0.2,-0.36z"/>
  <path class="fil3 str0" d="M1.19 1.12c-0.01,-0.15 -0.2,-0.36 -0.2,-0.36 0,0 -0.17,0.23 -0.16,0.38 0.01,0.15 0.1,0.27 0.19,0.26 0.1,0 0.18,-0.13 0.17,-0.28z"/>
  <path class="fil4" d="M1.04 1.2c0,-0.1 -0.04,-0.25 -0.04,-0.25 0,0 -0.02,0.15 -0.02,0.25 0.01,0.11 0.03,0.19 0.04,0.19 0.02,0 0.03,-0.09 0.02,-0.19z"/>
  <path class="fil4" d="M0.92 1.25c-0.02,-0.04 -0.02,-0.1 -0.01,-0.14 0,-0.04 0.02,-0.07 0.02,-0.07 0,0 -0.01,0.03 0,0.07 0,0.04 0.02,0.09 0.03,0.13 0.03,0.07 0.07,0.13 0.06,0.14 -0.01,0.01 -0.07,-0.04 -0.1,-0.13z"/>
  <path class="fil5" d="M1.13 1.25c0.01,-0.05 0.01,-0.11 0,-0.15 -0.02,-0.04 -0.04,-0.07 -0.03,-0.07 -0.01,0 0,0.03 0,0.08 0,0.04 -0.01,0.09 -0.02,0.13 -0.02,0.07 -0.05,0.13 -0.04,0.14 0.01,0.01 0.07,-0.04 0.09,-0.13z"/>
  <path class="fil1" d="M1.13 1.61l-0.34 -0.6c0,0 -0.36,0.65 0.34,0.6z"/>
  <path class="fil2" d="M0.76 1.08c0.06,0.12 0.16,0.33 0.17,0.52 0.05,0.01 0.12,0.01 0.2,0.01l-0.34 -0.6c0,0 -0.01,0.03 -0.03,0.07z"/>
  <path class="fil0" d="M0.8 1.55c0.03,-0.12 -0.03,-0.27 -0.08,-0.37 -0.03,0.12 -0.05,0.28 0.08,0.37z"/>
  <path class="fil3 str0" d="M1.13 1.61l-0.34 -0.6c0,0 -0.36,0.65 0.34,0.6z"/>
  <path class="fil4" d="M1.01 1.49c0,0 -0.14,-0.11 -0.18,-0.28 0,0 0,0.2 0.09,0.28l0.09 0.05 0 -0.05z"/>
  <path class="fil0" d="M1.21 1.12c0.01,-0.15 0.2,-0.36 0.2,-0.36 0,0 0.17,0.23 0.16,0.38 -0.01,0.15 -0.1,0.27 -0.19,0.26 -0.1,0 -0.18,-0.13 -0.17,-0.28z"/>
  <path class="fil1" d="M1.41 0.76c0,0 0.02,0.03 0.05,0.08 -0.03,0.12 -0.05,0.35 0.08,0.42 -0.03,0.09 -0.09,0.15 -0.16,0.14 -0.1,0 -0.18,-0.13 -0.17,-0.28 0.01,-0.15 0.2,-0.36 0.2,-0.36z"/>
  <path class="fil2" d="M1.41 0.76c0,0 0,0 0,0 -0.02,0.07 -0.13,0.43 0.05,0.62 -0.03,0.02 -0.05,0.03 -0.08,0.02 -0.1,0 -0.18,-0.13 -0.17,-0.28 0.01,-0.15 0.2,-0.36 0.2,-0.36z"/>
  <path class="fil3 str0" d="M1.21 1.12c0.01,-0.15 0.2,-0.36 0.2,-0.36 0,0 0.17,0.23 0.16,0.38 -0.01,0.15 -0.1,0.27 -0.19,0.26 -0.1,0 -0.18,-0.13 -0.17,-0.28z"/>
  <path class="fil4" d="M1.36 1.2c0,-0.1 0.04,-0.25 0.04,-0.25 0,0 0.02,0.15 0.02,0.25 -0.01,0.11 -0.03,0.19 -0.04,0.19 -0.02,0 -0.03,-0.09 -0.02,-0.19z"/>
  <path class="fil4" d="M1.48 1.25c0.02,-0.04 0.02,-0.1 0.01,-0.14 0,-0.04 -0.02,-0.07 -0.02,-0.07 0,0 0,0.03 0,0.07 0,0.04 -0.02,0.09 -0.03,0.13 -0.03,0.07 -0.07,0.13 -0.06,0.14 0.01,0.01 0.07,-0.04 0.1,-0.13z"/>
  <path class="fil5" d="M1.27 1.25c-0.01,-0.05 -0.01,-0.11 0,-0.15 0.02,-0.04 0.04,-0.07 0.03,-0.07 0,0 0,0.03 0,0.08 0,0.04 0.01,0.09 0.02,0.13 0.01,0.07 0.05,0.13 0.04,0.14 -0.01,0.01 -0.07,-0.04 -0.09,-0.13z"/>
  <path class="fil1" d="M1.27 1.61l0.34 -0.6c0,0 0.36,0.65 -0.34,0.6z"/>
  <path class="fil2" d="M1.64 1.08c-0.06,0.12 -0.16,0.33 -0.17,0.52 -0.05,0.01 -0.12,0.01 -0.2,0.01l0.34 -0.6c0,0 0.01,0.03 0.03,0.07z"/>
  <path class="fil0" d="M1.6 1.55c-0.03,-0.12 0.03,-0.27 0.08,-0.37 0.03,0.12 0.05,0.28 -0.08,0.37z"/>
  <path class="fil3 str0" d="M1.27 1.61l0.34 -0.6c0,0 0.36,0.65 -0.34,0.6z"/>
  <path class="fil4" d="M1.39 1.49c0,0 0.14,-0.11 0.18,-0.28 0,0 0,0.2 -0.09,0.28l-0.09 0.05 0 -0.05z"/>
  <path class="fil6" d="M1.41 1.05c0,-0.16 -0.2,-0.4 -0.2,-0.4 0,0 -0.19,0.24 -0.19,0.4 0,0.16 0.08,0.3 0.19,0.3 0.11,0 0.2,-0.14 0.2,-0.3z"/>
  <path class="fil7" d="M1.21 0.65c0,0 -0.03,0.03 -0.06,0.08 0.02,0.13 0.04,0.39 -0.11,0.45 0.03,0.1 0.09,0.17 0.17,0.17 0.11,0 0.2,-0.14 0.2,-0.3 0,-0.16 -0.2,-0.4 -0.2,-0.4z"/>
  <path class="fil8" d="M1.21 0.65c0,0 0,0 0,0 0.02,0.08 0.12,0.47 -0.09,0.66 0.03,0.03 0.06,0.04 0.09,0.04 0.11,0 0.2,-0.14 0.2,-0.3 0,-0.16 -0.2,-0.4 -0.2,-0.4z"/>
  <path class="fil3 str0" d="M1.41 1.05c0,-0.16 -0.2,-0.4 -0.2,-0.4 0,0 -0.19,0.24 -0.19,0.4 0,0.16 0.08,0.3 0.19,0.3 0.11,0 0.2,-0.14 0.2,-0.3z"/>
  <path class="fil4" d="M1.24 1.13c0,-0.11 -0.03,-0.28 -0.03,-0.28 0,0 -0.03,0.17 -0.03,0.28 0,0.11 0.01,0.2 0.03,0.2 0.02,0 0.03,-0.09 0.03,-0.2z"/>
  <path class="fil4" d="M1.1 1.18c-0.01,-0.05 -0.01,-0.11 0,-0.16 0.01,-0.04 0.03,-0.08 0.03,-0.08 0,0 -0.01,0.04 -0.01,0.09 0.01,0.04 0.02,0.09 0.03,0.13 0.03,0.09 0.07,0.15 0.06,0.16 -0.01,0.01 -0.08,-0.05 -0.11,-0.14z"/>
  <path class="fil4" d="M1.33 1.18c0.02,-0.05 0.02,-0.11 0.01,-0.16 -0.01,-0.04 -0.03,-0.07 -0.03,-0.07 0,0 0,0.03 0,0.08 0,0.04 -0.01,0.1 -0.03,0.14 -0.02,0.08 -0.06,0.14 -0.05,0.15 0,0.01 0.07,-0.04 0.1,-0.14z"/>
  <path class="fil0" d="M1.41 1.45c0,-0.16 -0.2,-0.4 -0.2,-0.4 0,0 -0.19,0.24 -0.19,0.4 0,0.17 0.08,0.3 0.19,0.3 0.11,0 0.2,-0.13 0.2,-0.3z"/>
  <path class="fil1" d="M1.21 1.05c0,0 -0.03,0.03 -0.06,0.08 0.02,0.13 0.04,0.39 -0.11,0.46 0.03,0.09 0.09,0.16 0.17,0.16 0.11,0 0.2,-0.13 0.2,-0.3 0,-0.16 -0.2,-0.4 -0.2,-0.4z"/>
  <path class="fil2" d="M1.21 1.05c0,0 0,0 0,0 0.02,0.08 0.12,0.47 -0.09,0.66 0.03,0.03 0.06,0.04 0.09,0.04 0.11,0 0.2,-0.13 0.2,-0.3 0,-0.16 -0.2,-0.4 -0.2,-0.4z"/>
  <path class="fil3 str0" d="M1.41 1.45c0,-0.16 -0.2,-0.4 -0.2,-0.4 0,0 -0.19,0.24 -0.19,0.4 0,0.17 0.08,0.3 0.19,0.3 0.11,0 0.2,-0.13 0.2,-0.3z"/>
  <path class="fil4" d="M1.24 1.53c0,-0.11 -0.03,-0.27 -0.03,-0.27 0,0 -0.03,0.16 -0.03,0.27 0,0.11 0.01,0.2 0.03,0.2 0.02,0 0.03,-0.09 0.03,-0.2z"/>
  <path class="fil4" d="M1.1 1.58c-0.01,-0.05 -0.01,-0.11 0,-0.16 0.01,-0.04 0.03,-0.07 0.03,-0.07 0,0 -0.01,0.03 -0.01,0.08 0.01,0.04 0.02,0.09 0.03,0.14 0.03,0.08 0.07,0.14 0.06,0.15 -0.01,0.01 -0.08,-0.04 -0.11,-0.14z"/>
  <path class="fil4" d="M1.33 1.58c0.02,-0.05 0.02,-0.11 0.01,-0.15 -0.01,-0.05 -0.03,-0.08 -0.03,-0.08 0,0 0,0.03 0,0.08 0,0.04 -0.01,0.1 -0.03,0.14 -0.02,0.08 -0.06,0.14 -0.05,0.15 0,0.01 0.07,-0.04 0.1,-0.14z"/>
  <path class="fil1" d="M1.22 1.74c-0.1,0.01 -0.19,0.01 -0.26,0 -0.2,-0.03 -0.28,-0.15 -0.31,-0.22 -0.02,-0.03 -0.02,-0.06 -0.02,-0.06 0.34,-0.05 0.59,0.28 0.59,0.28z"/>
  <path class="fil2" d="M0.63 1.46c0.01,0.01 0.41,0.14 0.43,0.29 0.05,0 0.1,0 0.16,-0.01 0,0 -0.25,-0.33 -0.59,-0.28z"/>
  <path class="fil0" d="M0.96 1.74c-0.2,-0.03 -0.28,-0.15 -0.31,-0.22 0.1,0.04 0.31,0.14 0.31,0.22z"/>
  <path class="fil3 str0" d="M1.22 1.74c0,0 -0.25,-0.33 -0.59,-0.28 0,0 0.05,0.35 0.59,0.28z"/>
  <path class="fil4" d="M1.21 1.74c0,0 -0.26,-0.18 -0.43,-0.21 0,0 0.25,0.14 0.27,0.22l0.16 -0.01z"/>
  <path class="fil1" d="M1.2 1.74c0.1,0.01 0.18,0.01 0.25,0 0.2,-0.03 0.29,-0.15 0.32,-0.22 0.01,-0.03 0.02,-0.06 0.02,-0.06 -0.34,-0.05 -0.59,0.28 -0.59,0.28z"/>
  <path class="fil2" d="M1.78 1.46c-0.01,0.01 -0.4,0.14 -0.43,0.29 -0.04,0 -0.1,0 -0.15,-0.01 0,0 0.25,-0.33 0.58,-0.28z"/>
  <path class="fil0" d="M1.45 1.74c0.2,-0.03 0.29,-0.15 0.32,-0.22 -0.11,0.04 -0.32,0.14 -0.32,0.22z"/>
  <path class="fil3 str0" d="M1.2 1.74c0,0 0.25,-0.33 0.59,-0.28 0,0 -0.05,0.35 -0.59,0.28z"/>
  <path class="fil4" d="M1.2 1.74c0,0 0.27,-0.18 0.43,-0.21 0,0 -0.24,0.14 -0.26,0.22l-0.17 -0.01z"/>
  <path class="fil4" d="M1.3 1.9l-0.05 -0.17 -0.08 0 -0.06 0.17c0,0.02 0.01,0.04 0.03,0.04l0.13 0c0.02,0 0.04,-0.02 0.03,-0.04z"/>
  <path class="fil4" d="M1.17 1.76c0,0 -0.03,0.12 -0.1,0.12 0,0 -0.01,-0.07 0.04,-0.1 0,0 -0.1,0.07 -0.17,0.05 0,0 0.1,-0.14 0.23,-0.07z"/>
  <path class="fil4" d="M1.24 1.76c0,0 0.04,0.12 0.11,0.12 0,0 0,-0.07 -0.05,-0.1 0,0 0.1,0.07 0.18,0.05 0,0 -0.11,-0.14 -0.24,-0.07z"/>
  <path class="fil4" d="M0.86 1.86l-0.85 0c0,0 -0.01,0 -0.01,0.01l0 0.02c0,0.01 0.01,0.02 0.01,0.02l0.85 0c0,0 0,-0.01 0,-0.02l0 -0.02c0,-0.01 0,-0.01 0,-0.01z"/>
  <path class="fil4" d="M2.41 1.86l-0.85 0c0,0 -0.01,0 -0.01,0.01l0 0.02c0,0.01 0.01,0.02 0.01,0.02l0.85 0c0.01,0 0.01,-0.01 0.01,-0.02l0 -0.02c0,-0.01 0,-0.01 -0.01,-0.01z"/>
  <g id="_1937042756752">
   <path class="fil0" d="M0.29 2.3c0,0.01 0,0.02 0,0.03 0,0.01 0,0.02 0,0.03 0,0.01 0,0.01 0,0.02 0,0 0,0.01 0,0.01 0,0.01 0,0.01 0,0.02 0,0 0,0.01 0,0.01 0,0 -0.01,0 -0.01,0 -0.01,0 -0.01,0 -0.01,0 -0.01,0 -0.01,0 -0.02,0 0,0 0,0 -0.01,0 0,0 -0.01,0 -0.01,0 -0.01,0 -0.01,0.01 -0.01,0 -0.01,0 -0.01,0 -0.01,0 -0.01,0 -0.01,0 -0.01,0 0,0 -0.01,-0.01 -0.01,-0.01 0,-0.01 0,-0.01 0,-0.02 0,-0.01 0,-0.02 0,-0.02 0,-0.01 0,-0.02 0,-0.02 0,-0.01 0,-0.03 0,-0.04 0,-0.01 0,-0.03 0,-0.04 0,-0.02 0,-0.03 0,-0.05 0,-0.02 0,-0.03 0,-0.04 0,-0.01 0,-0.01 0.01,-0.02 0,0 0,0 0,-0.01 0,0 0,0 0,-0.01 -0.01,0 -0.01,0 -0.01,0 0,-0.01 0,-0.02 0,-0.02 0,-0.01 0,-0.02 0,-0.02 0,-0.01 0,-0.01 0,-0.01 0,-0.01 0,-0.01 0,-0.01 0.01,0 0.01,-0.01 0.01,-0.01 0,0 0,0 0,-0.01 0.01,0 0.02,0 0.03,0 0.01,0 0.03,0 0.04,0 0.01,0 0.02,0 0.03,0 0.02,0 0.03,0 0.04,0 0,0 0.01,0 0.01,0 0,0 0.01,0 0.01,0 0,0 0.01,0 0.01,0 0,0 0.01,0 0.01,0.01 0.01,0 0.02,0 0.03,0 0.01,0.01 0.02,0.01 0.02,0.02 0.01,0.01 0.02,0.01 0.02,0.02 0.01,0.01 0.01,0.02 0.02,0.03 0,0 0,0.01 0,0.02 0,0.01 0.01,0.01 0.01,0.02 0,0.02 -0.01,0.03 -0.01,0.04 -0.01,0.01 -0.01,0.02 -0.02,0.04 -0.01,0.01 -0.02,0.01 -0.03,0.02 -0.01,0.01 -0.02,0.01 -0.03,0.02 0,0 -0.01,0 -0.01,0 0,0 0,0 -0.01,0 -0.01,0 -0.02,0 -0.03,0 -0.02,0 -0.03,0 -0.05,0zm0.06 -0.21c0,0 0,0 0,0 0,0 0,0 0,0 0,0 0,0 0,0 0,0 0,0 0,-0.01 0,0 0,0 0,0.01 0,0 0,0 0,0 -0.01,0 -0.01,0 -0.01,0 0,0 0,0 0.01,0zm-0.09 0.01c0,-0.01 0,-0.01 0,-0.01 0,0 0,0 0,0 0,0 0,0 0,0 0,0 0,0 0,0.01l-0.01 -0.01 0 0.01c0,0 0,0 0,0 0,0 0,0 0,0 0,0 0,0 0,0 0,0 0,0 0,0 0,0 0.01,0 0.01,0 0,0 0,0 0,0 0,0 0,0 0,0 0,0 0,0 0,0 0,0 0,0 0,0l0 0 0 0zm0.01 -0.01c0,0 0,0.01 0,0.01 0,0 0,0 0,0 0,0 0,-0.01 0,-0.01 0,0 0,0 0,0zm0.01 0c0,0 0,0 0,0.01 0,0 0,0 0,0 0,0 0,0 0,0 0.01,0 0.01,0 0.01,0 0,0 0,0 0,0 0,0 -0.01,0 -0.01,-0.01 0,0 0,0 0,0 0,0 0,0 0,0l0 0zm0.11 0.01c0,-0.01 0,-0.01 0,-0.01 0,0 0,0 0,0 0,0 0,0.01 0,0.01 0,0 0,0 0,0zm-0.16 0.01c0,0 0,0 0,-0.01 0.01,0 0.01,0 0.01,0 0,0 0,0 0,0 0,0 0,0 0,0 0,0 0,-0.01 0,-0.01 0,0 -0.01,0 -0.01,0 0,0.01 0,0.01 0,0.02zm0.07 0c0,0 0,0 0.01,0 0,0 0,0 0,0 0,0 0,0 0.01,0 0,0 0,0 0,0 0,0 0,0 0,0 0,0 -0.01,-0.01 -0.01,-0.01 0,0 0,0 -0.01,0 0,0 0,0 0,0 0,0 0,0 0,0 0,0 0,0 0,0.01l0 0 0 0c-0.01,0 -0.01,0 -0.01,0 0,0 0,0 0,0 0.01,0 0.01,0 0.01,0 0,0 0,0 0,0l0 0 0 0zm0.08 0c0,-0.01 0,-0.01 0,-0.01 0,0 0,0 0,0 0,0 0,0 0,0 0,0 0,0 0,0 0,0 0,0 0,0 0,0 0,0.01 0,0.01 0,0 0,0 0,0zm-0.04 0c0,0 0,0 0,0 0,0 0,0 0,0 0,0 0,0 0,0 0.01,0 0.01,0 0.01,0 0,0 0,0 0,0 0,0 0,0 0,0 0,-0.01 0,-0.01 0,-0.01 0,0 0,0 -0.01,0 0,0 0,0 0,0.01 0,0 0,0 0,0 0,0 0,0 0,0 0,0 0,0 0,0zm0.07 0c0,0 0,0 0,0 0,0 0,0 0,0 0,0 0.01,0 0.01,0 0,0 0,0 0,-0.01 0,0 0,0 -0.01,0 0,0 0,0 0,0 0,0.01 0,0.01 0,0.01zm-0.02 0c0,0 0,0 0,0 0,0 0,0 0,0 0,0 0,0 0,0 0,0 0,0 0,0 0,0 0,0 0,0 0,0 0,0 0,0l0 0 0.01 0 0 0c0,0 0,0 0,0 0,0 0,0 0,0 0,0 0,0 0,0 0,0 0,0 0,0l-0.01 0 0 0zm-0.03 0c0,0 0,0 0.01,0 0,0 0,0 0,0 0,0 0,0 -0.01,0 0,0 0,0 0,0zm-0.07 0.01c0,-0.01 0,-0.01 0,-0.01 -0.01,0 -0.01,0 -0.01,0 0,0 0,0 0,0 -0.01,0 -0.01,0 -0.01,0 0,0 0,0 0,0.01 0,0 0.01,0 0.01,0 0,0 0,0 0,0 0,0 0,0 0,0 0,0 0,0 0.01,0l0 0 0 0 0 0c0,0 0,0 0,0 0,0 0,0 0,0 0.01,0 0.01,0 0.01,0 0,0 0,0 0,0 0,0 0,0 0,0 0,0 0,0 -0.01,0 0,0 0,0 0,0 0,0 0,0 0,0l0 -0.01 0 0.01zm0.12 0.01c0,0 0,0 0.01,0 0,0 0,0 0,0 0,0 0,0 0,0 0,0 0,0 0,0 0,0 0,0 0,-0.01 0,0 0,0 0,0 0,0 -0.01,0 -0.01,0 0,0 0,0 0,0l0 0.01zm-0.16 0c0,-0.01 0,-0.01 0.01,-0.01 0,0 0,0 0,0 0,0 0,0 -0.01,0 0,0 0,0 0,0 0,0 0,0 0,0 0,0 0,0.01 0,0.01zm-0.04 0c0.01,0 0.01,0 0.01,0 0,0 0,0 0,-0.01 0,0 0,0 0,0 -0.01,0 -0.01,0.01 -0.01,0.01zm0.18 0.02c0,0 0,0 0,0 0,0 0,0 0,0 0,0 0,0 0,0 0,0 0,-0.01 0,-0.01 0,0 0,0 0,0 0,0 0,0 0,0 0,0 -0.01,0 -0.01,0 0,0 0,0 0,0 0,0 0,0.01 0,0.01 0,0 0.01,0 0.01,0zm0.03 0c0,0 0,0 0,0 0,0 0,0 0,0 0,0 0,0.01 0,0.01 0,0 0,0 0,0 0,0 0,0 0,0 0,0.01 0.01,0.01 0.01,0 0,-0.01 -0.01,-0.01 -0.01,-0.02 0,0 0,0 0,0 0,0 0,0.01 0,0.01zm-0.07 0.07c0.01,0 0.01,-0.01 0.02,-0.01 0,0 0,-0.01 0,-0.01 0,-0.01 0.01,-0.01 0.01,-0.02 0,0 -0.01,-0.01 -0.01,-0.01 0,-0.01 0,-0.01 0,-0.02 -0.01,0 -0.01,0 -0.02,0 0,-0.01 -0.01,-0.01 -0.01,-0.01 -0.01,0 -0.01,0 -0.02,0 0,0 0,0 -0.01,0 0,0.01 -0.01,0 -0.02,0 0,0.01 0,0.02 0,0.02 0,0.01 0,0.01 0,0.02 0,0.01 0,0.01 0,0.02 0,0.01 0,0.01 0,0.02 0.01,0 0.01,0 0.02,0 0,0 0.01,0 0.02,0 0,0 0.01,0 0.01,0 0,0 0.01,0 0.01,0zm0.09 -0.05c0,0 0,0 0,0 0,0 0,0 0,0 0,0 0,0 0,0 0,0 0,0 0,0 0,0 0,0 0,0 0,0 0,0 0,0 0,0 0,0 0,0 0,0 0,0 0,0zm-0.05 0.01c0,0 0,0 0,0 0,0 0.01,0 0.01,0 0,0 0,0 0,0 0,0 0,0 0,0l-0.01 0 0 0zm0.03 0.02c0,0 0,0 0,-0.01 0,0 0,0 0,0 0,0 0,0 -0.01,0 0,0 0,0 0,0 0,0 0.01,0 0.01,0.01 0,0 0,0 0,0zm-0.01 0l0 0c0,0 0,0 0,0 0,0 0,0 0,0 0,0 0,0 0,0 0,0 0,0 0,0 0,0 0,0 0,0 0,0 0,0 0,0zm0.02 0l0.01 0c0,0 0,0 0,0 0,0 0,0 0,0 -0.01,0 -0.01,0 -0.01,0 0,0 0,0 0,0 0,0 0,0 0,0zm-0.03 0.01c0.01,0 0.01,0 0.01,0 0,0 0,0 0.01,0.01 0,-0.01 0,-0.01 0,-0.01 0,0 0,0 0,0 0,0 0,0 0,0 0,0 0,0 0,0 0,0 -0.01,0 -0.01,0 0,0 -0.01,0 -0.01,0zm-0.15 0.01c0.01,0 0.01,0 0.01,0 0,0 0,0 0,0 0,-0.01 0,-0.01 0,-0.01 0,0 0,0 0,0 0,0 -0.01,0 -0.01,0 0,0 0,0.01 0,0.01zm0.19 0c-0.01,0 0,0 0,0 0,-0.01 0,-0.01 0,-0.01 0,0 0,0 0,0 -0.01,0 -0.01,0 -0.01,0 0,0.01 0,0.01 0,0.01 0,0 0,0 0.01,0zm-0.01 0.01c0,0 0,0 0,0 0,0 0,0 0,0 0,-0.01 0,-0.01 0,-0.01 0,0 0,0 0,0 0,0.01 0,0.01 0,0.01 0,0 0,0 0,0 0,0 0,0 0,0 0,0 0,0 0,0zm-0.06 0c0,0 0,0 0,0 0,0 0,0 0,0 0.01,0 0.01,0 0.01,0 0,0 0,0 0,0 0,0 0,0 0,0 0,0 0,0 0,0 0,0 -0.01,0 -0.01,0 0,0 0,0 0,0 0,0 0,0 0,0zm0.04 0.01c0,0 0,0 0,0 0,0 0,0 0,0 0,0 0,0 0,0 0,0 0,0 0,0 0,0 0,0 0,0 0,0 0,0 0,0 0,0 0,0 0,0 0,0 0,0 0,0 0,0 0,0 -0.01,0 0,0 0,0 0,0l0 0c0,0 0,0 0,0 0,0 0,0 0,0.01 0,0 0,0 0,0 0,0 0,0 0,0 -0.01,0 -0.01,0 -0.01,0 0,0 0,-0.01 0,-0.01 0,0 0,0 -0.01,0 0,0 0,0 0,0 0,0.01 0,0.01 0.01,0.01 0,0 0,0 0.01,0 0,0 0,0.01 0,0.01 0,0 0,0 0,0.01l0 0 0 0c-0.01,0 -0.01,0 -0.01,0 0,0 0,0 0,0 0,0 0,0 0,0 0,0 0,0 0,0 0,0 0,0 0,0 0,0 0,0 0,0 0,0 -0.01,0 -0.01,0 0,0 0,0 0,0 0,0 0,0 0,0 0,0 0,0 0,0 0,0 0,0 0,0.01 -0.01,0 -0.01,0 0,0 0,0 0,0 0,0 0,0 0,0 0,0 0.01,0 0.01,0 0.01,-0.01 0,0 0,0 0.01,0 0,0 0,0 0,0l0 0c0,0 0,0 0,0 0,0 0,0 0,0 0,0 0,-0.01 0,-0.01 0.01,0 0.01,0 0.01,0 0,0 0,0 0,0 0,-0.01 0,-0.01 0,-0.01l-0.01 0 0 0 0.01 -0.01 0 0c0,0 0,0 0,0 0,0 0,0 0,0 0,0 0,0 0,0zm0.03 0l0 0c0,0 0,0 0,0.01l0 0c0,-0.01 0,-0.01 0,-0.01l0 0c0,0 0,0 0,0 0,0 0,0 0,0l0 0c0,0 0,0 0,0zm-0.19 0.01l0.01 0c0,0 0,0 0,0 0,0 0,0 0,0 0,0 0,0 -0.01,0 0,0 0,0 0,0l0 0zm0.1 0c0,0 -0.01,0 -0.01,0 0,0 0,0 0,0l0 0 0 0 0 0 0.01 0c0,0 0,0.01 0,0.01 0,0 0,0 0,0 0,0 0,0 0,0 0,0 0,0 0,0.01l0 0 0 0c0,0 0,0 0,0 0,0 0,0 0,0 0,0 0,0 0,0 0,0 0,0 0,0 0,0 0,0 0,0 0,0 0,0 0,0l0 0 0 0c0,-0.01 0,-0.01 0.01,-0.01 0,0 -0.01,0 -0.01,0 0,0 0,0 0,-0.01 0,0 0,0 0,0l0 0 0 0zm-0.08 0.01c0,0 0,0 0,0 0,0 0,0 0,0 0,0 0,0 0,0 0,0 0,0 0,0zm-0.01 0.01c0,0 0,0 0,0 0,0 0,-0.01 0,-0.01 -0.01,0 -0.01,0 -0.01,0 0,0 0,0 0,0 0,0 0,0 0,0 0,0.01 0,0.01 0,0.01 0,0 0.01,0 0.01,0 0,0 0,0 0,0zm0.1 0.01c0,0 0,0 0,0 0,0 0,0 0,0 0,0 0,-0.01 0,-0.01 0,0 0,0 0,0 0,0 0,0 0,0 0,0 0,0 0,0 0,0 0,0.01 0,0.01 0,0 0,0 0,0zm-0.1 0c0,0 0,0 0.01,0 0,0 0,0 0,0 0,0 0,0 0,0 0,0 0,0 0,0 0,0 0,0 0,0 0,0 0,0 0,0 0,0 0,0 0,0 -0.01,0 -0.01,0 -0.01,0 0,0 0,0 0,0zm-0.01 0.01c0,0 0,0 0,0 0,0 0,0 0,0 0,-0.01 0,-0.01 0,-0.01 0,0 0,0 0,0 0,0 0,0 0,0 0,0.01 0,0.01 0,0.01 0,0 0,0 0,0 0,0 0,0 0,0zm0.03 -0.01c0,0 0,0.01 0,0.01 0,0 0,0 0,0 0.01,0 0.01,0 0.01,0 0,0 0,0 0,-0.01 0,0 0,0 0,0 -0.01,0 -0.01,0 -0.01,0zm-0.02 0.03c0,0 0,0 0.01,0 0,0 0,0 0,0 0,0 0,0 0,0 0,0 0,0 0.01,0 -0.01,0 -0.01,0 -0.01,0 0,0 0,0 0,0 0,0 0,-0.01 0,-0.01 0,0 0,0 0,0 0,0 0,0.01 0,0.01 0,0 -0.01,0 -0.01,0 0,0 0,0 0,0 0,0 0,0 0,0zm-0.02 0.01c0,0 0,0 0,0 0,0 0,0 0,0 0,0 0,0 -0.01,0 0,0 0,0 0,0 0,0 0,0 0,0 0,0 0,0 0,0 0,0 0.01,0 0.01,0 0,0 0,0 0,0.01 0,0 0,0 0,0l0.01 0c0,0 0,0 0,0 0,0.01 0,0.01 0,0.01 0,0 0.01,0 0.01,0 0,0 0,-0.01 0,-0.01 0,0 0,0 0,0 0,0 0,0 0,0 0,0 0,0 0,0.01 0,0 0,0 -0.01,0 0,-0.01 0,-0.01 0,-0.01 0,0 0,0 0,0 0,0 0,0 0,0 0,0 0,0 0,0 0,0 0,0 0,0 0,0 0,0 0.01,0l-0.01 0 0 -0.01 -0.01 0zm0.03 0.01c0,0 0,0 0,0 0,0 0,0 0,0 0,0 0,0 0,0 0,0 0.01,0 0.01,0 0,0 0,0 0,0 0,0 0,-0.01 0,-0.01 -0.01,0 -0.01,0 -0.01,0 0,0 0,0 0,0.01zm-0.05 0l0.01 0c0,-0.01 -0.01,-0.01 -0.01,-0.01l0 0.01zm0.01 0.04l0.01 0c0,-0.01 0,-0.01 0,-0.01 0,0 0,0 0,-0.01 0,0 0,0 0,0 0,0 0,0 -0.01,0 0,0 0,0 0,0 0,0 0,0 0,0 0,0 0,0 0,0.01 0,0 0,0 0,0.01zm0.05 -0.02c0,0 0,0 0,0 0,0 0,0 0,0 0,0 0,0 0,0 0,0 0,0 0,0 0,0 0,0 0,0 0,0 0,0 0,0zm-0.02 0.01c0,0 0,0 0,0 -0.01,0 -0.01,0 -0.01,0 0,0 0,0 0,0 0,0 0,0 0,0l0 0 0 0.01c0,0 0,0 0,0 0.01,0 0.01,0 0.01,0 0,0.01 0,0.01 0,0.01 0,0 0,0 0,0 0,0 0,0 0,0.01 0,0 0,0 0,0 0,0 0,0 0,0 0,0 0,0 0,0 0,0.01 0,0.01 0,0.01 0,0 0,0 0,0 0,0 0,0 0,0 0,0 0,0 0,0 0,0 0,0 0,0 0,0 0,0 0,0 0,0 0.01,0 0.01,0 0,0 0,0 0,0 0,0 0,0 0,-0.01 0,0 0,0 0,0 0,0 0,0 0,0 0,0 0,0 0,0 0,0 0,0 0,-0.01 0,0 0,0 0,0 0,0 0,0 0,0 0,0 -0.01,0 -0.01,-0.01 0,0 0,0 0,0 0,0 0,0 0,0 0,0 0,0 0,0 0,0 0,0 0,0l0 -0.01 0 0zm-0.03 0.03c0,0 0,0 0,0 0,0 0,0 0,0 0.01,0 0.01,0 0.01,0 0,0 0,0 0,-0.01 0,0 -0.01,0 -0.01,0 0,0 0,0.01 0,0.01zm-0.01 0.02c0,-0.01 -0.01,-0.01 -0.01,-0.01 0,0 0,0 0,0 0,0 0,0.01 0.01,0.01zm0 0c0.01,0 0.01,0 0.01,0 0,0 0,0 0,0 0,0 0,0 0,-0.01 0,0 0,0 -0.01,0 0,0.01 0,0.01 0,0.01 0,0 0,0 0,0 0,0 0,0 0,0 0,0 0,0 0,0zm0.03 -0.32c0,0.01 0.01,0.01 0.01,0.01l-0.01 -0.01zm0.05 0.02c0,0 0,0 0,0 0,0 0,0 0,0l0 0zm0.1 0c0,0 0,0 -0.01,0 0,0 0,0 0,0l0.01 0zm-0.11 0.01c0,0 0,0 0,0 0,0 0,0 0,-0.01l0 0.01zm0.11 0.15c0,0 0,0 0,0l0 0zm0.01 -0.03c-0.01,0 -0.01,0 -0.01,0 0,0 0,0 0,0l0.01 0zm-0.07 0.01c0.01,0 0.01,0 0.01,0 0,0 0,0 0,0l-0.01 0zm0.01 0.02c0,0 0,0 0,0 0,0 0,0 0,0l0 0zm-0.11 0.06c0,0 0,0 0.01,0 0,-0.01 0,-0.01 0,-0.01l-0.01 0.01zm0.01 0.03l0.01 0 -0.01 0z"/>
   <path class="fil0" d="M0.55 2.23l0 0c0,0 0,0 0,0 0,0 0,0 0,0 0,0 0,0 0,0 0,0 0,0 0,0l0 0zm0.13 -0.17c0.01,0 0.03,0 0.04,0 0.01,0 0.03,0.01 0.04,0.01 0,0 0.01,0 0.01,0.01 0.01,0 0.01,0 0.01,0 0.01,0 0.01,0.01 0.02,0.01 0,0 0,0 0.01,0.01 0,0 0.01,0 0.01,0.01 0,0 0.01,0 0.01,0.01 0,0 0,0 0,0 0,0 0,0 0,0 0,0 0,0 0,0 0,0 0,0 0,0 0.01,0.01 0.01,0.01 0.01,0.01 0,0 0.01,0.01 0.01,0.01 0,0 0,0.01 0,0.01 0.01,0 0.01,0 0.01,0.01 0,0 0,0 0,0 0,0 0,0.01 0,0.01 0,0 0,0 0,0 0,0 0.01,0 0.01,0 0,0.01 0,0.02 0,0.02 0.01,0.01 0.01,0.02 0.01,0.03 0,0.01 0,0.02 0,0.03 0,0.01 0,0.02 0,0.02 -0.01,0.03 -0.01,0.04 -0.02,0.06 -0.01,0.02 -0.02,0.03 -0.04,0.05 0,0 -0.01,0.01 -0.02,0.01 0,0.01 -0.01,0.01 -0.02,0.02 -0.01,0 -0.02,0.01 -0.03,0.01 -0.01,0 -0.02,0.01 -0.03,0.01 -0.01,0 -0.03,0 -0.04,0 -0.01,0 -0.03,0 -0.04,-0.01 -0.01,0 -0.03,-0.01 -0.04,-0.02 -0.01,0 -0.02,-0.01 -0.03,-0.02 -0.01,0 -0.01,-0.01 -0.02,-0.02 -0.01,-0.01 -0.01,-0.02 -0.02,-0.03 -0.01,-0.01 -0.01,-0.02 -0.01,-0.03 -0.01,-0.01 -0.01,-0.03 -0.01,-0.04 0,-0.01 0,-0.02 0,-0.03 0,-0.01 0,-0.02 0,-0.03 0.01,-0.01 0.01,-0.02 0.01,-0.03 0,0 0.01,0 0.01,-0.01 0,0 0,0 0,0 0,0 0,-0.01 0,-0.01 0,0 0.01,0 0.01,-0.01 0,0 0,0 0,0 0,0 0,0 0,0 0.01,0 0.01,-0.01 0.01,-0.01 0,0 0,0 0,0 0,0 0,0 0,0 0,0 0,0 0,0 0,0 0.01,-0.01 0.01,-0.01 0,0 0,-0.01 0,-0.01 0.01,-0.01 0.02,-0.01 0.03,-0.02 0,0 0.01,-0.01 0.02,-0.01 0.01,-0.01 0.02,-0.01 0.03,-0.01 0.01,-0.01 0.02,-0.01 0.04,-0.01zm-0.12 0.18c0,0 0,0 0,0 0,-0.01 0.01,-0.01 0.01,-0.01 0,0 0,0 0,0 0,0 0,0 0,0 0,0 0,0 -0.01,0 0,0 0,0 0,0 0,0 0,-0.01 0,-0.01 0,0 0,0 0,0 0,0 0,0 0,0 0,0 0,0 0.01,0l0 0 0 0c0,0 0,0 0,0 0,0 0,0 0,0l0 0 0 0 0 0c0,0 0,-0.01 -0.01,-0.01 0,0 0,0 0,0 0,0 0,0 0,0 -0.01,-0.01 -0.01,-0.01 0,-0.01 -0.01,0 -0.01,0 -0.01,0 0,0 -0.01,-0.01 -0.01,-0.01 0,0.01 0,0.01 0,0.01 0,0 0,0 0,0.01 0,0 0,0 0,0 0,0 0.01,0 0.01,0 0,0 0,0 0,0 0,0 0,0 0,0 0,0 0,0 0,0 0,0 0,0 0,0 0,0 0,0 0,0 0,0 0,0 0,0 0,0 0,0.01 0,0.01 0,0 0,0 0,0 0,0 0,0 0,0 0,0 -0.01,0 -0.01,0 0,0 0,0 0,0 0,0 0,0 0,0.01 0,0 0,0 0,0 0,0 0,0.01 0,0.01 0,0 0,0 0,0 0,0 0,0.01 0,0.01 -0.01,0 -0.01,0 -0.01,0 0,0 0,0 0,0 0,0 -0.01,0 -0.01,0 0,0 0,0 0,0 0,0 0.01,0 0.01,0 0,0.01 0,0.01 0,0.01 0,0 0,0 0,0 0,0 0,0 0.01,0.01 0,0 0,0 0,-0.01 0,0 0,0 0,0 0.01,0 0.01,0 0.01,0 0,0 0,0 0,0 0,0 0,0 0,0 0,0 0,0 0,0 0,0 0,0 0,0 0,0 0,0 0,0 0,0 0,0 0,0 0,0 0,-0.01 0,-0.01 0,0 0,0 0.01,0 0,0 0,0 0,0l0 0.01 0 -0.01c0,0.01 0,0.01 0,0.01l0 0 0 0c0,0 0,0 0,0 0,0.01 0,0.01 0,0.01 0,-0.01 0,-0.01 0,-0.01 0,0 0,0 0,0l0.01 0 -0.01 0c0,0 0,0 0,0 0,0 0,0 0,0 0,0 0.01,0 0.01,0 0,0 0,-0.01 0,-0.01l-0.01 0 0 0 0 0c0,0 0,0 0,0 0,0 0,0 0,0 0,0 0,-0.01 0,-0.01 0,0 0,0 0,0l0 0 0 0zm0.1 -0.15c0,0 0,0 0,0 0,0 0,0 0,0 0,0.01 0,0.01 0,0.01 0,0 0,0 0,0 0,0 0,-0.01 0,-0.01 0,0 0,0 0,0 0,0 0.01,0 0.01,0 0,0 0,0 0,0 0,-0.01 0,-0.01 0,-0.01 0,0 -0.01,0 -0.01,0 0,0 0,0 0,0 0,0 0,0 0,0 0,0.01 0,0.01 0,0l-0.01 0.01c0,-0.01 0,-0.01 0,-0.01 -0.01,0 -0.01,0 -0.01,0l0 0.01c0,0 0.01,0 0.01,0 0,0 0,0 0,0 0,0 0.01,0 0.01,0l0 0c0,0 0,0 0,0 0,0 0,0 0,0 0,0 0,0 0,0zm0.07 -0.01c0,0 0,0 0,0 0,0 0,0 0,0 0,0 0,0 0,0 0,0 -0.01,0 -0.01,0 0,0 0,0 0,0 0,0 0,0 0,0 0,0 0,0 0.01,0 0,0 0,0 0,0zm-0.03 0.02c0,0 0,0 0,0 0,0 0,0 0.01,0 0,0 0,0 0,0 0,0 0,0 -0.01,0 0,0 0,0 0,0 0,0 0,0 0,0 0,-0.01 0,-0.01 0,-0.01 0,0 0,0 -0.01,0 0,0 0,0 0,0 0,0 0,0 0,0 0,0 0,0 0,0 0,0 0,0 0,0 0,0.01 0,0.01 0,0.01 0,0 0,0 0,0 0,0 0,0 0,0 0,0 0,0 0,0l0 0 0 0c0,0 0,0 0,0 0,0 0,0 0,0 0,0 0,0 0,0 0,0 0,0 0,0l0.01 0 0 0zm-0.07 0l0.01 0 0 -0.01 -0.01 0 0 0.01zm0.01 0.01c0,0 0,0 0,0 0,0 0,0 0,0 0,0 0,-0.01 0,-0.01 0,0 0,0 0,0 0,0 0,0 0,0 0,0 0,0.01 0,0.01 0,0 0,0 0,0 0,0 0,0 0,0zm0.12 0c0,0 0,0 0,0 0,0 0,0 0,0 0,0 0,0 0,0 0,-0.01 0,-0.01 0,-0.01l0 0.01zm0.04 0c0,0 0,0 0,0 0,0.01 0,0.01 0,0.01 0,0 0,0 0,0 0.01,0 0.01,0 0.01,0 0,-0.01 0,-0.01 0,-0.01 -0.01,0 -0.01,0 -0.01,0 0,0 0,0 0,0 0,0 0,0 0,0 0,0 0,0 0,0 0,0 -0.01,0 0,0zm-0.02 0c0,0 0,0 0.01,0 0,0.01 0,0.01 0,0.01 0,0 0,-0.01 0,-0.01 0,0 0,0 0,0 0,0 0,0 0,0 0,0 0,0 0,0 0,0 -0.01,0 -0.01,0zm-0.1 0.01c0,0 0,0 0,0 0.01,0 0.01,-0.01 0.01,-0.01 0,0 0,0 -0.01,0 0,0 0,0 0,0 0,0 0,0 0,0 0,0 0,0 0,0l0 0.01 0 0c0,0 0,0 0,0 0,0 -0.01,0 0,0 0,0 0,0 0,0 0,0 0,0 0,0 0,0 0,0 0,0l0 0zm-0.1 0.01c0,0 0,0 0,0 0.01,0 0.01,0 0.01,0 0,0 0,0 0,0 0,0 0,0 0,-0.01 0,0 0,0 0,0 0,0 0,0 0,0 0,0 0,0 0,0 0,0 0,-0.01 -0.01,-0.01 0,0.01 0.01,0.01 0,0.01 0,0 0,0 0,0 0,0 0,0 0,0 0,0 0,0.01 0,0.01zm0.17 -0.01c0,0 0,0 0,0 0,0 0,0 0,0 0,0 0,0 0,0 0,0 0,-0.01 0,-0.01 0,0 0,0 0,0 0,0 0,0 0,0.01 0,0 0,0 0,0 0,0 0,0 0,0zm-0.13 0c0,0 -0.01,0 -0.01,0 0,0 0,0 0,0 0,0 0,0 0,0 0,0 0,0 0,0 0,0 0,0 0.01,0 0,0 0,0 0,0zm0.11 0c0,0 0,0 0,0 0,0 0,0 0,0 0,0 0,0 0,0 0,0 0,0 -0.01,0 0,0 0,0 0,0 0,0 0,0 0.01,0 0,0.01 0,0.01 0,0.01 0,0 0,0 0,-0.01zm-0.07 0.01c0,0 0,0 0,0 0,0 0,0 0,0 0,0 0,0 0,0 0,0 0,0 0,0 0,0 0,0 0.01,0 0,0 0,0 0,0 0,0 0,0 0,0 0,0 0,0 0,0 0,0 -0.01,0 -0.01,-0.01 0,0 0,0 0,0 0,0 0,0 0,0 0,0 0,0 -0.01,0.01 0,0 0,0 0.01,0zm0.11 -0.01c0,0 0,0 0,0 0,0 0,0 0,0 0,0 0,0 0,0 0,0 0,0 0,0zm-0.13 0.01c0,0 0,0 0,0 0,0 0,0 0,0 0,0 0,0 0,0 0,-0.01 0,-0.01 0,-0.01 0,0 0,0.01 0,0.01 0,0 0,0 0,0zm0.16 0c0,0 0,0 0,0 0,0 0,0 0,0 0,0 0,0 0,0 0,0 0,0 0,0 0,0 0,0 0,0 0,0 0,0 0,-0.01 0,0 0,0 0,0.01 0,0 0,0 0,0zm-0.19 0.02c0,0 0,0 0,0 0,0 0,0 0,0 0,0 0.01,0 0.01,0 0,0 0,0 0,0 0,0 0,0 0.01,0 0,0 0,-0.01 0,-0.01 0,0 0,0 -0.01,0 0,0 0,0 0,0 0,-0.01 0,-0.01 0,-0.01 0,0 0,0 0,0 -0.01,0 -0.01,0 -0.01,0 0,0 0,0 0,0.01 0,0 0,0 0,0 0,0 0,0 0,0.01zm0.19 -0.01l0 0 -0.01 0c0,0 0,0 0.01,0zm-0.02 0c0,0 0,0 0,0 -0.01,0 0,0 0,0 0,0 0,0 0,0zm-0.19 0.02c0,0 0,0 0,0 0,0 0.01,0 0.01,0 0,0 0,0 0,-0.01 0,0 0,0 0,0 0,0 0,0 0,0 0,0 -0.01,0 -0.01,0 0,0 0,0 0,0 0,0 0,0.01 0,0.01zm0.11 0.18c0.01,0 0.02,-0.01 0.03,-0.01 0.01,0 0.01,-0.01 0.02,-0.01 0.01,-0.01 0.01,-0.02 0.02,-0.02 0,-0.01 0.01,-0.02 0.01,-0.03 0,0 0,-0.01 0,-0.02 0,0 0,-0.01 0,-0.02 0,-0.01 0,-0.01 0,-0.02 0,-0.01 -0.01,-0.01 -0.01,-0.02 -0.01,-0.01 -0.01,-0.01 -0.02,-0.02 0,0 -0.01,-0.01 -0.02,-0.01 -0.01,-0.01 -0.01,-0.01 -0.02,-0.01 -0.01,0 -0.02,0 -0.03,0 -0.01,0 -0.01,0 -0.02,0.01 -0.01,0 -0.01,0 -0.02,0.01 0,0 -0.01,0 -0.01,0.01 -0.01,0 -0.01,0.01 -0.01,0.01 -0.01,0.01 -0.01,0.03 -0.01,0.04 0,0.01 0,0.03 0,0.04 0,0.01 0.01,0.03 0.02,0.04 0.01,0.01 0.02,0.02 0.03,0.02 0,0 0.01,0 0.01,0 0,0 0.01,0 0.01,0 0,0.01 0.01,0.01 0.01,0.01 0,0 0.01,0 0.01,0zm-0.13 -0.18c0,0 0,0 0,0 0,0 0,0 0,0 0,0 0,0 0,0 0,0 0,0 0,0 0,0 0,0 0,0 0,0 0,0 0,0l0 0 0 0.01c0,0 -0.01,0 -0.01,0 0,0 0,0 0,0l0 0 0 0 0 0 0 0 0 0 0 0 0 0c0,0 0,0 0,0 0,0 0,0 0.01,0 0,0 0,0 0,0l0 0 0 -0.01zm0.05 0l0 0.01c0,0 0,0 0.01,0 0,0 0,-0.01 0,-0.01 0,0 0,0 0,0 0,0 0,0 -0.01,0 0,0 0,0 0,0zm0.22 0c0,0 0,0 0,0 0,0.01 0,0.01 0,0.01 0,0 0,0 0,-0.01 0,0 0,0 0,0zm-0.26 0.01c0,0 0,0 0,0 0.01,0 0.01,0 0.01,0 0,0 0,0.01 0,0.01 0,0 0,0 0,0 0,0 0,-0.01 0,-0.01 0,0 0,0 -0.01,0l0 0zm0.03 0.01c0,0 0,0 0,-0.01 0,0 0,0 -0.01,0 0,0 0.01,0.01 0.01,0.01 0,0 0,0 0,0zm0.21 0c0,0 0,0 0,0 0,0 0,-0.01 0,-0.01 0,0 0,0 0,0 0,0 0,0 0,0 0,0 0,0.01 0,0.01 0,0 0,0 0,0zm-0.24 0.01c0,0 0,-0.01 0,-0.01 0,0 0,0 0,0 0,0 0,0 0,0 0,0.01 0,0.01 0,0.01zm0.22 -0.01l0 0c0,0 0,0 0.01,0 0,0 0,0 0,0 0,0 0,0 0,0 0,0 -0.01,0 -0.01,0 0,0 0,0 0,0zm-0.26 0.03c0,0 0,0 0,0 -0.01,0 -0.01,0 -0.01,0 0,0 0,0 0,0 0,0 0,0.01 0,0.01 0,0 0.01,0 0.01,0 0,-0.01 0,-0.01 0,-0.01zm0.05 0.01c0,0 0,0 0,0 0,0 0,0 0,0 0,0 0,0 0,-0.01 0,0 0,0 0,0 0,0 0,0 0,0 0,0 0,0 0,0 0,0 0,0 0,0 0,0 0,0 0,0 0,0 0,0.01 0,0.01zm0.23 0c0,0 0,0 0,0 0,0 0,0 0,0 0,0 0,0 0,0 0,0 0,0 0,0 0,0 0,0 0,0 0,0 0,0 0,0 0,0 0,0 0,0 0,0 0,0 0,0 0,0 0,0 0,0 0,0 0,0 0,0 0,0 0,0 0,0 0,0 -0.01,0 0,0zm-0.3 0.01c0,0 0.01,0 0.01,0 0,0 0,0 0,0 0,-0.01 0,-0.01 0,-0.01 0,0 -0.01,0 -0.01,0 0,0.01 0,0.01 0,0.01 0,0 0,0 0,0zm0.07 0c0,0 0,0 0,0 0,0 0,0 0,0 0,0 0,0 0,0 0,0 0,0 0,0zm0.27 0.02c0,0 0,-0.01 0,-0.01 0,0 0,0.01 0,0.01 0,0 0,0 0,0zm-0.04 0.01c0,0 0,0 0,0 0,-0.01 -0.01,-0.01 -0.01,-0.01 0,0 0,0 0,0 0,0 0,0 0,0 0,0 0,0.01 0.01,0.01zm-0.24 0c0,0 0,0 0,0 0,-0.01 -0.01,-0.01 -0.01,-0.01 0,0 0,0 0,0 0,0.01 0,0.01 0,0.01 0,0 0,0 0,0 0,0 0,0 0.01,0zm0.01 0.01c0,0 0,0 0,-0.01 0,0 0,0 0,0 0,0 0,0 0,0.01 0,0 0,0 0,0zm-0.07 0c0.01,0 0.01,0 0.01,0 0,0 0,0 0,0 0,0 0,0 0,0 0,0 0,0 -0.01,0l0 0zm0.02 0.01l0.01 0c0,-0.01 0,-0.01 0,-0.01 -0.01,0 -0.01,0 -0.01,0l0 0.01zm0.28 0c0,0 0,0 0,0 0,0 0,-0.01 0,-0.01l-0.01 0c0,0.01 0,0.01 0.01,0.01zm-0.26 0.01c0.01,0 0.01,0 0.01,0 0,0 0,0 0,0 0,0.01 -0.01,0.01 -0.01,0.01 0,0 0.01,0 0.01,0 0,-0.01 0,-0.01 0,-0.01 0,0 0,0 0.01,0 0,0 0,0 0,0 0.01,0.01 0.01,0.01 0.01,0.01 0,0 0,0 0,-0.01 0,0 0,0 0,0 0,0 0,0 0,0 0,0 0,0 0.01,0 0,0 0,-0.01 0,-0.01 -0.01,0 -0.01,0 -0.01,0 0,0 -0.01,0 -0.01,0 0,0.01 -0.01,0.01 -0.01,0.01l0 -0.01 -0.01 0.01c0,-0.01 0,-0.01 0,-0.01 0,0 -0.01,0 -0.01,0 0,0 0,0 0,0.01 0,0 0,0 0,0l0 0 0 0c0,0 0,0 0,0 0,0 0,0 0,0 0,0 0,0 0,0.01 0,0 0,0 0,0 -0.01,0 -0.01,0 -0.01,0 0,0 0.01,-0.01 0.01,-0.01 0,0 0,0 0,0l0 0c0,0 0.01,0 0.01,0 0,0 0,0 0,0 0,0 0,0 0,0 0,0 0,0 0,0l0 0 0 0zm0.28 -0.01l0 0c0,0 0,0 0,0 0,0 0,0 0,0 0,0 0,0 0,0 -0.01,0 -0.01,0 -0.01,0 0,0 0,0 0,0 0,0 0,0.01 0,0.01 0,0 0,0 0,0 0,0 0,0 0,0 0,0 0,0 0.01,0 0,0 0,0 0,0l-0.01 0 0.01 0c-0.01,0 -0.01,0 -0.01,0.01 0,0 0,0 0,0 0,0 0.01,0 0.01,0 0,0 0,0 0,0 0,0.01 0,0.01 0,0.01l0 0 0 0 0 0 0 0.01 0.01 0c0,0 0,-0.01 0,-0.01 0,0 0,0 0,0l0 0 0 0c0,0 0,0 0,0 0,0 0,0 0,0 0,-0.01 0,-0.01 0,-0.01 -0.01,0 0,0 0,-0.01l0 0 0 0c0,0 0,0 0,0 0,0 0,0 0,0l0 0 0 0 0.01 0 0 0 -0.01 0 0 0 0 0c0,0 0,0 0,0l0 0 0 -0.01 0 0.01 -0.01 0 0.01 -0.01 -0.01 0zm-0.3 0.01c0,0 0,0 0,0 0,0 0,0 0,0 0,0 0,-0.01 0,-0.01 0,0 0,0 0,0l0 0.01zm-0.01 0c0,0 0,0 0,0 0,0.01 0,0.01 0,0.01 0,0 0,0 0,0 0,-0.01 0,-0.01 0,-0.01 0,0 0,0 0,0 0,0 0,0 0,0 0,0 0,0 0,0zm0.06 0.02c0,-0.01 0,-0.01 0,-0.01 0,0 0,0 0,0 0,0 0,0 0,0 0,0 0,0 0,0 0,0 0,0.01 0,0.01zm-0.04 0c0,0 0,0 0,0 0,0 0,0 0,0 0,0 0,0 0,-0.01 0,0 0,0 0,0 0,0.01 0,0.01 0,0.01 -0.01,0 -0.01,0.01 -0.01,0.01 0,0 0,0 0,0.01 0,0 0,0 0.01,0 0,0 0,0 0,0 0,0 0,0 0,0 0,0 0,0 0.01,0 0,0 0,0 0,0 0,-0.01 0,-0.01 0,-0.01 0,0 0,0 -0.01,0 0,0 0,0 0,-0.01 0,0 0,0 0,0zm0.02 0l0 -0.01 -0.01 0c0,0.01 0,0.01 0,0.01 0,0 0,0 0.01,0zm0.01 0c0.01,0 0.01,0 0.01,0 0,0 0,0 0,0 0,0 0,0 0,0 0,0 0,0 0,0 0,0 0,0 0,0 0,0 -0.01,0 -0.01,0zm0.03 0.01c0,0 0,-0.01 0,-0.01 0,0 0,0 0,0l-0.01 0c0,0 0.01,0.01 0.01,0.01zm0 0.01c0,0 0,0 0,0 0,0 0,0 0,0 0,0 0.01,0 0.01,-0.01 0,0 0,0 0,0 -0.01,0 -0.01,0 -0.01,0 0,0 0,0 0,0 0,0 0,0 0,0 0,0 0,0 0,0.01 0,0 0,0 0,0 0,0 0,0 0,0zm0.16 0c0,0 0,0 0,0 0,0 0,0 0,0 0,0 0,0 0,0 0,0 0,0 0,0 0,0 0,0 0,0 0,0 0,0 0,0zm-0.21 0c0,0 0,0.01 0,0.01l0 -0.01c0,0 0,0 0,0zm0.19 0.01c0,0 0,0 0.01,0 0,0 0,0 0,0 0,0 0,0 0,0 0,0 0,0 0,0 0,0 0,0 0,0 0,0 0,0 0,-0.01 0,0.01 0,0.01 0,0.01 -0.01,0 -0.01,0 -0.01,0 0,0 0,0 0,0l0 0 0 0c0,0 0,0 0,0.01 0,0 0,0 0,0l0 0 0 0c0,0.01 0,0.01 0,0.01 0,0 0,0 0,0 0,0 0,0 0,0 0,0 0,0 0,-0.01l0 0 0 0c0,0 0,0 0,0 0,0 0,0 0,0 0,0 0,0 0,0 0,-0.01 0,-0.01 0,-0.01l0 0 0 0zm0.07 0c0,0 0,0 0,0 0,0 0.01,0 0.01,0 0,0 0,0 0,0 0,0 -0.01,0 -0.01,0 0,0 0,0 0,0 0,0 0,0 0,0zm-0.23 0c0,0 0,0 0,0 0,0 0,0 0,0 0,0 0,0 0,0 0,0 0,0 0,0 0,0 0,0 0,0 0,0 0,0 0,0 0,0 0,0 0,0 0,0 0,0 0,0zm0.02 0.01c0,0 0,0 0.01,0 0,0 0,0 0,0 0,0 0,0 0,0 0,0 0,0 0,0 0,0 0,0 0,0 0,-0.01 0,-0.01 0,-0.01 0,0 -0.01,0 -0.01,0 0,0 0,0.01 0,0.01zm0.16 0.01c0,-0.01 -0.01,-0.01 -0.01,-0.01 0,0 0,0.01 0.01,0.01zm0.01 0c0,0 0,0 0,-0.01 0,0.01 0,0.01 0,0.01zm-0.08 0.02c0,0 0,0 0,0 0,0 0,0 0,0 0,0 0,0 0,-0.01 0,0 0,0 0.01,0 -0.01,0 -0.01,0 -0.01,0 0,0 0.01,0 0.01,-0.01 0,0 0,0 0,0 0,0 0,0 -0.01,0 0,0 0,0 0,0 0,0 0,0 0,0.01 0,0 0,0 0,0 0,0 0,0.01 0,0.01zm0.04 -0.01l0 -0.01c-0.01,0 -0.01,0 -0.01,0 0,0 0,0 0,0 0,0 -0.01,0 -0.01,0 0,0 0,0 0,0 0,0 0,0 0,0 0,0 0,0 0.01,0 0,0 0,0 0,0.01 0,0 0.01,0 0.01,0zm0.02 0c0.01,0 0.01,0 0.01,0 0,0 0,0 0,-0.01l-0.01 0c0,0 0,0.01 0,0.01 0,0 0,0 0,0 0,0 0,0 0,0 0,0 0,0 0,0zm-0.12 0c0,0 0,0 0,0 0,0 0,0 0,0 0,0 0,0 0,0 0,0 0,0 0,0 0,0 0,0 0,0 0,0 0,0 0,0zm0.11 0l0.01 0c0,0 0,0 0,0 0,0 0,0 0,0l-0.01 0 0 0zm-0.16 0c0,0 0,0 0,0 0,0 -0.01,0 -0.01,0 0,0 0,0 0,0 0.01,0 0.01,0 0.01,0 0,0 0,0 0,0 0,0 0,0 0,0zm0.07 0c0,0 -0.01,0 -0.01,0 0,0 0,0 0,0 0,0 0,0 0,0 0.01,0 0.01,0 0.01,0zm0.07 0c0,0 0,0 0,0 0,0 -0.01,0 -0.01,0 0,0 0,0 0,0 0,0.01 0,0.01 0,0.01 0.01,0 0.01,0 0.01,0 0,0 0,0 0,-0.01zm-0.11 0.01l0 -0.01c0,0 0,0 0,0 -0.01,0 -0.01,0 -0.01,0 0,0 0.01,0.01 0.01,0.01 0,0 0,0 0,0zm0.11 0c0,0 0,0 0.01,0 0,0 0,0 0,0 0,0 0,-0.01 0,-0.01 -0.01,0 -0.01,0.01 -0.01,0.01zm0.03 0.01c0,0 0,0 0,0 0.01,0 0.01,0 0.01,0 0,0 0,-0.01 0,-0.01 0,0 0,0 0,0 0,0 0,0 0,0 -0.01,0 -0.01,0 -0.01,0 0,0 0,0 0,0 0,0 0,0 0,0 0,0 0,0.01 0,0.01 0,0 0,0 0,0zm-0.02 0c0,0 0,0 0,0 0,0 0,0 0,0 0,0 0,0 0,0 0,0 0,0 0,0l0 0c0,0 0,0 0,0 0,0 0,0 0,0zm-0.08 0.01c0,0 0,0 -0.01,0 0,0 0.01,0 0.01,0zm0.05 0c0,0 0,0 -0.01,0 0,0 0,0 0,0 0,0 0,0 0,0 0,0 0,0.01 0,0.01 0,0 0,0 0,0 0,0 0,0 0,0 0,0 0,0 0.01,0 0,0 0,0 0,0 0,0 0,0 0,-0.01 0,0 0,0 0,0 0,0 0,0 0,0 0,0 0,0 0,0zm-0.15 -0.16l0 0c0,0 0,0 0,0 0,0 0,0 0,0 0,0 0,0 0,0 0,0 0,0 -0.01,0 0,0 0,0 0,0 0,0 0,-0.01 0,-0.01 0,0 0,0 0.01,0 0,0 0,0 0,0 0,0 0,0 0,0 0,0 0,0 0,0.01l0 0zm0.29 0.05l0 0 -0.01 0 0 0 0.01 0 0 0zm-0.29 -0.05c0,0 0,0 0,0 0,0 0,0 0,0l0 0zm0.1 -0.16c0,0.01 0,0.01 0,0.01l0 -0.01zm0.04 0.02c-0.01,0 -0.01,0 -0.01,0 0,0 0,0 0,0l0.01 0zm-0.02 0.02c0,0 0,0 0,0l0 0zm-0.12 0.05c0,0 0,0 0,0 0,0 0,0 0,0l0 0zm0.01 0c0,0 0,-0.01 0,-0.01 0,0 0,0 0,0l0 0.01zm0 0.05c0,0 0,0 0,0 0,0 0,0 0,0l0 0zm-0.01 0.03c0,0 0,0 0,0 0,0 0,0 0,0.01l0 -0.01zm0.01 0.01c-0.01,0 -0.01,0 -0.01,0l0.01 0zm-0.02 0.03c0,0 0,0 0,0 0,0 0,0 0,0l0 0zm0.01 0c0,0 0,0 0,0 0,0 0,0 0.01,-0.01l-0.01 0.01zm0.27 0c0.01,0 0.01,0 0.01,0 0,0 0,0 0,0l-0.01 0zm0.01 0c0,0 0,0 0,0 0,0 0,-0.01 0.01,-0.01l-0.01 0.01zm0.01 0c0,0 0,0 0,0 0,0 0,0 0,0l0 0zm-0.01 0c0,0 0.01,0 0.01,0 0,0 0,0 0,0l-0.01 0zm0 0l0 0 0 0zm0.01 0c0,0 0,0 0,0 0,0 0,0 0,-0.01l0 0.01zm0 0.02c0,0 0,0 0,0 -0.01,0 -0.01,0 -0.01,0l0.01 0zm-0.1 0.04c0,0 0,0 0,0l0 0zm0 -0.01c0,0 0,0 0,0l0 0zm-0.21 -0.08l0 0c0,0 0,-0.01 0,-0.01 0,0 0,0 0,0 0.01,0 0.01,0 0.01,0 0,0 0,0 0,0.01 0,0 0,0 -0.01,0l0 0zm0.04 0.03l0 0c0,0 0,0 0,0 0,0 0,-0.01 0,-0.01 0.01,0 0.01,0.01 0.01,0.01 0,0 0,0 0,0 0,0 0,0 -0.01,0l0 0zm-0.03 -0.04l0 0c0,0 0,0 0,-0.01 0,0 0,0 0,0 0,0 0,0 0,0 0.01,0.01 0.01,0.01 0.01,0.01 -0.01,0 -0.01,0 -0.01,0l0 0z"/>
   <path class="fil0" d="M0.97 2.3l0.01 0c0,0 0,0.01 0,0.01 0,0 0,0 0,0 0,0 0,0 0,0 0,0 0,0 0,0 0,0 -0.01,0 -0.01,0 0,0 0,0 0,-0.01zm0.2 -0.02c0.01,0.02 0.01,0.04 0.02,0.05 0.01,0.02 0.02,0.04 0.03,0.05 0,0.01 0,0.01 0,0.01 0.01,0 0.01,0.01 0.01,0.01 0,0 0,0.01 0,0.01 0,0 0,0 0,0.01 0,0 0,0 0,0 -0.01,0 -0.01,0.01 -0.02,0.01 0,0 -0.01,0 -0.01,0 0,-0.01 -0.01,-0.01 -0.01,-0.01 -0.01,0 -0.01,0 -0.02,0.01 0,0 -0.01,0 -0.01,0 -0.01,0 -0.01,0 -0.01,0 -0.01,0 -0.01,-0.01 -0.01,-0.01 -0.01,0 -0.01,0 -0.01,0 0,0 0,-0.01 0,-0.01 -0.01,0 -0.01,0 -0.01,-0.01 0,0 0,0 0,0 -0.01,-0.01 -0.01,-0.02 -0.01,-0.03 -0.01,0 -0.01,-0.01 -0.02,-0.02 0,-0.01 -0.01,-0.02 -0.01,-0.02 0,-0.01 -0.01,-0.02 -0.01,-0.02l-0.04 0 0 0.06c0,0 0.01,0.01 0.01,0.01 0,0.01 0,0.01 0,0.02 0,0 0,0.01 -0.01,0.01 0,0 0,0.01 0,0.01 0,0 -0.01,0 -0.02,0 0,0 -0.01,0.01 -0.02,0.01 -0.01,0 -0.01,0 -0.02,-0.01 -0.01,0 -0.01,0 -0.02,0 0,0 0,0 0,0 0,0 0,0 0,0 0,0 0,0 -0.01,0 0,0 0,0 0,0 0,0 0,0 0,-0.01 0,0 0,-0.01 0,-0.01 0,0 0,-0.01 0,-0.01 0,0 0,-0.01 0,-0.01l0 -0.28c0,0 0,0 0,-0.01 0,0 0,0 0,-0.01 0,0 0,0 0,-0.01 0,0 0,0 0,0 0.02,0 0.03,0 0.04,-0.01 0.02,0 0.03,0 0.05,0 0.01,0 0.03,0 0.04,0 0.02,0 0.03,0 0.05,0 0.01,0 0.02,0.01 0.04,0.02 0.01,0 0.02,0.01 0.03,0.02 0.01,0.01 0.02,0.02 0.03,0.04 0,0.01 0.01,0.03 0.01,0.04 0,0.01 0,0.03 -0.01,0.04 0,0.01 -0.01,0.01 -0.01,0.02 -0.01,0.01 -0.01,0.02 -0.02,0.02 -0.01,0.01 -0.01,0.02 -0.02,0.02zm-0.16 -0.19c0,0 0,0 0,0 0,0 0,0 0,0 0,0 0,0 0,0 0,0 0,0 0,0 0,0 0,0 0,0 0,0 0,0 0,0zm0.01 0.01c0,0 0,0 0,0 0,-0.01 0,-0.01 0,-0.01 0,0 0,0 0,0 0,0 0,0 0,0 0,0 0,0 0,0 0,0 0,0 0,0 0,0 0,0.01 0,0.01 0,0 0,0 0,0zm0.12 0.01c0,0 0,0 0,0.01 0,0 0,0 0,0 0,0 0,-0.01 0,-0.01 0,0 0,0 0,0zm0.01 0l0 0c0,0 0,0 0,0l0 0zm-0.19 0.01c0,0 0,0 0,0 0,0 0.01,0 0.01,0 -0.01,0 -0.01,0 -0.01,0 0,0 0,0 0,0zm0.01 0.01l0 0c0,0 0,0 0,0l0 0zm0.02 0.01l0 0c0,0 0,0 0,0 0,0 0,0 0,0 0,0 0,0 0,0 0,0 0,0 0,0zm0.12 0.08c0,0 0.01,-0.01 0.01,-0.02 0,0 0.01,-0.01 0,-0.02 0,-0.01 0,-0.01 0,-0.02 -0.01,-0.01 -0.01,-0.01 -0.02,-0.02 -0.01,0 -0.01,0 -0.02,0 0,0 -0.01,0 -0.01,0 -0.01,0 -0.01,0 -0.02,0 0,0 -0.01,0 -0.01,0 0,0.01 0,0.01 -0.01,0.02 0,0.01 0,0.02 0,0.02 0,0.01 0,0.02 0.01,0.02 0,0.01 0,0.02 -0.01,0.02 0.01,0 0.02,0 0.02,0 0.01,0 0.02,0.01 0.02,0.01 0.01,0 0.02,-0.01 0.02,-0.01 0.01,0 0.01,0 0.02,0zm0.05 -0.08c0,0.01 0,0.01 0,0.01 0,0 0,0 0,0 0.01,0 0.01,0 0.01,0 0,0 0,0 0,0 0,0 0,0 0,0 0,0 0,0 0,0 0,-0.01 0,-0.01 0,-0.01 0,0 0,0 0,0 0,0 0,0 0,0 0,0 0,0 0,0 -0.01,0 -0.01,0 -0.01,0 0,0 0,0 0,0zm0.01 0.02c0.01,0 0.01,-0.01 0.01,-0.01 0,0 0,0 -0.01,0 0,0 0,0 0,0l0 0.01 0 0 0 0c0,0 0,0 0,0 0,0 -0.01,0 -0.01,0 0,0 0,0 0,0 0,0.01 -0.01,0.01 -0.01,0.01 0,0 0,0 0,0 0.01,0 0.01,0.01 0.01,0.01 0,0 0,0 0.01,0 0,0 0,0 0,-0.01 0,0 0,0 0,0 0,0 0,0 0,0 0,0 0,0 0,0 -0.01,0 -0.01,0 0,0 0,0 0,0 0,0 0,0 0,0 0,-0.01 0,0 0,0 0,0 0,0 0,0 0,0l0.01 0 -0.01 0zm-0.2 0.01c0,0 0,0 0,-0.01 0,0 0,0 0,0 0,0 0,0 0,0 0,0 0,0 0,0 0,0 0,0 0,0.01zm0.17 0c0,0 0,0 0,0 0,-0.01 0.01,-0.01 0.01,-0.01 0,0 0,0 0,0 0,0 0,0 0,0 0,0 0,0 -0.01,0 0,0 0,0 0,0 0,0 0,0 0,0 0,0.01 0,0.01 0,0.01zm0.05 0.01l0 0c0,0 0,0 0,0 0,0 0,0 0,0 0,0 0,0 0,0 0,0 0,0 0,0l0 0zm-0.21 0.01c0,0 0,0 0,0 0,0 0,0 0,0 0,0 0,0 0,0 0,0 0,0 0,0l0.01 0 0 0c0,0 0,0 0,0 0,0 0,0 0,0 0,0 0,0 0,0 0,0 0,0 0,0l-0.01 0 0 0zm0.17 0.01c0,0 0.01,0 0.01,0 0,0 0,0 0,-0.01 0,0 0,0 0,0 0,0 0,0 -0.01,0 0,0 0,0 0,0 0,0 0,0 0,0.01 0,0 0,0 0,0 0,0 0,0 0,0zm-0.19 0.01c0,0 0,0 0,0 0.01,0 0.01,0 0.01,0 0,0 0,0 0,0 0,-0.01 0,-0.01 0,-0.01 -0.01,0.01 -0.01,0.01 -0.01,0.01zm0.17 0.03c0,0 0,0 0,0.01 0,0 0,0 0,0 0,0 0,0 0,0 0.01,0 0.01,0 0.01,0 0,0 0,0 0,-0.01 0,0 0,0 -0.01,0 0,0 0,0 0,0 0,0 0,0 0,0 0,0 0,0 0,0 0,0 0.01,0 0.01,0 0,0 0,0 0,0 0,0 0,0 0,0 0,0 0,0.01 0,0.01 0,0 0,0 0,0 0,0 0,0 0,0 0.01,0 0.01,0 0.01,0 0,0 0,0 0,0 0,0 0,0 0,0 0,0 0,0 0,0 0.01,0 0.01,0 0.01,0 0,0 0,-0.01 0,-0.01 0,0 0,0 0,0 0,0 0.01,0 0.01,0 0,0 0,0 0,0 0.01,0 0.01,0 0.01,0 0,0 0,0 0,-0.01 0,0.01 0,0.01 0,0.01 0,0 -0.01,0 -0.01,0 0,0 0,-0.01 -0.01,-0.01 0,0 -0.01,0 -0.01,0 0,0 0,0 0,0 0,0.01 0,0.01 0,0.01 0,0 0,0 0,0 0,0 0,0 0,0 -0.01,0 -0.01,0 -0.01,-0.01 0,0 0,0 0,0 0,0 0,-0.01 0,-0.01 0,0 0,0 0.01,0 0,0 0,0 0,0 0,0 0,-0.01 0,-0.01l-0.01 0c0,0 0,0.01 0,0.01 0,0 0,0 0,0 0,0.01 0,0.01 0,0.01 -0.01,0 -0.01,0 -0.01,0.01l0 -0.01 0 0.01c0,-0.01 0,-0.01 -0.01,-0.01 0,0 0,0 0,0.01 0,0 0,0 0,0 0,0 0,0 0,0 0,0 0,0 0,0 0,0 0,0 0,0 0,0 0.01,0 0.01,0 0,0 0,0 0,0l0 0zm-0.14 -0.02c0.01,0 0.01,0 0.01,0 0,0 0.01,0 0.01,0 0,0 0,0 0,0 0,0 -0.01,-0.01 -0.01,-0.01 0,0 0,0 0,0.01 0,0 0,0 -0.01,0zm0.18 0c0,0 0,0 0,0 0,0 0,0 0,0 0,0.01 0,0.01 0,0.01 0,0 0,0 0,-0.01zm0.02 0.02c0,0 0,0 0,-0.01 0,0 0,0 0,0 0,0 0,0 0,0 0,0 0,0 0,0 0,0 0,0 0,0 0,0 0,0 0,0 0,0 0,0 0,0 0,0.01 0,0.01 0,0.01zm-0.24 -0.01l0 0 0 0 0 0 0 0zm0.03 0.01c0,0 0,0 0,0 0,0 0,0 0,0 0,-0.01 0,-0.01 0,-0.01 0,0 0,0 0,0 0,0.01 0,0.01 0,0.01zm0.03 0c0,0 0,0 0,0 0,0 0,0 0,0 0,0 0,0 0,0 0,0 0,0 0,0 0,0 0,0 0,0 0,0 0,0 0,0zm-0.01 0.02c0,0 0,0 0.01,0 0,0 0,0 0,0 0,0 0,0 0,0 0,-0.01 0,-0.01 0,-0.01 0,0 0,0 0,0 0,0 0,0 0,0 0,0 -0.01,0 -0.01,0 0,0 0,0 0,0.01zm0.16 0c0,0 0.01,0 0.01,0 0,0 0,-0.01 0,-0.01 0,0 0,0 0,0 0,0 0,0 0,0 0,0 0,0 0,0 0,0 0,0 -0.01,0 0,0 0,0 0,0 0,0 0,0 0,0.01zm-0.08 -0.01l0 0c0,0 0,0 0,0 0,0 0,0 0,0 0,0 0,0 0,0 0,0 0,0 0,0 0,0 0,0 0,0 0,0 0,0 0,0zm0.03 0.01l0 0c0,0 0,0 0,-0.01 0,0 0,0 0,0l0 0c0,0 0,0 0,0 0,0 0,0.01 0,0.01zm-0.16 0c0,0 0,0 0,0 0,0 0.01,0 0.01,0 0,0 0,0 0,0 0,0 0,0 0,0 0,0 0,0 0,0 0,0 0,0 0,0 0,0 0,0 0,0 0,0 0,0 0,0 0,0 0,0 0,0 -0.01,0 -0.01,0 -0.01,0 0,0 0,0 0,0 0,0 0,0 0,0zm0.09 0l0.01 0 0 0c0,0 0,0 0,0 0,0 0,0 0,0 0,0 0,0 0,0 -0.01,0 -0.01,0 -0.01,0zm0.12 0c0,0 0,0 0,0 0,0 0,0 -0.01,0 0,0 0,0 0,0 0,0 0.01,0 0.01,0zm-0.16 0.01c0,0 0,0 0,-0.01 0,0 -0.01,0 -0.01,0 0,0 0,0 0,0 0,0 0,0.01 0,0.01 0,0 0,0 0,0 0,0 0,0 0.01,0zm-0.02 0c0,0 0,0 0,0 0,0 0,-0.01 0,-0.01 0,0.01 0,0.01 0,0.01 0,0 0,0 0,0l0 0 0 0c0,0 0,0 0,0 0,0 0,0 0.01,0 0,0 0,0 0,0 0,0 0,0 0,0 0,0 0,0 0,0 -0.01,0 -0.01,0 -0.01,0l0 0zm0.09 0.01c0,0 0,0 0,0 0,0 0,0 0,-0.01 0,0 0,0 0,0 0,0 0,0 0,0 0,0 0,0 0,0 0,0 0,0 0,0.01 0,0 0,0 0,0 0,0 0,0 0,0zm-0.04 -0.01c0,0 0,0 0,0 0,0 0,0 0,0 0,0 0,0 0,0l0 0.01 0 0c0,0 0,0 0,0 0,0 0,0 0,0 0,0 0,0 0,0 0.01,0 0.01,0 0.01,0 0,0 -0.01,0 -0.01,0 0,0 0,0 0,0 0,0 0,0 0,0l0 -0.01zm0.09 0l0 0c0,0 0,0 0,0 0,0 0,0 0,0 0,0 0,0 0,0 0,0 0,0 0,0 0,0 0,0 0,0zm-0.15 0.01c0,0 0,0 0.01,-0.01 0,0 0,0 0,0l-0.01 0c0,0 0,0 0,0 0,0 0,0 0,0.01zm0.13 0c0,0 0,0 0,0 0.01,0 0.01,0 0.01,0 0,0 0,0 0,0 0,0 0,0 0,0 0,0 0,0 0,0 0,0 0,0 0,0 0,0 0,0 0,0 0,-0.01 0,-0.01 -0.01,-0.01 0,0 0,0.01 0,0.01 0,0 0,0 0,0zm-0.12 0.06c0,0 0,0 0,0 0,-0.01 0,-0.01 0,-0.01 0,0 0,0 0,0 0,-0.01 0,-0.01 0,-0.01 0,0 0,0 0,0 0,0 -0.01,0 -0.01,0 0,0 0,0 0,0 0,0 0,0 -0.01,0 0,0 0.01,-0.01 0.01,-0.01 0,0 0,0 0,0 0,0 0.01,0 0.01,0 0,0 0,0 0,0 0.01,0 0.01,0 0.01,0 0,0 -0.01,-0.01 -0.01,-0.01 0,0 0,0 0,0 0,0 0,-0.01 0,-0.01 0,0 -0.01,0 -0.01,0 0,0 0,0 0,0 0,0 0,-0.01 0,-0.01 0,0 0,0 0,0 0,0 0,0 0,0 0,0 0,0 0,0 0,0 -0.01,0 -0.01,0 0,0 0,0 0,0.01 0,0 0,0 0,0 0,0 -0.01,0.01 -0.01,0.01 0.01,0 0.01,0 0.01,0 0,0 0,-0.01 0,-0.01 0,0 0,0 0,0 0,0 0,0 0.01,0 0,0 0,0 0,0.01 0,0 0,0 0,0 0,0 0,0 0,0 0,0 0,0 0,0 0,0 0,0 0,0 0,0.01 0,0.01 0,0.01 0,0 0,0 0,0 0,0 0,0 0,0 -0.01,0 -0.01,0 -0.01,0 0,0 0,0 0,0 0,0 0,0 0,0 0,0 0,0 0,0 0,0 0,0 0,0 0,0 0,0 0,0 0,0 0,0.01 0,0.01 0,0 0,0 0,0 0,0 0,0 0,0 0,0 0,0 0.01,0 0,0 0,0 0,0 0,0 0,0.01 0,0.01 0,0 0,0 0,0 0,0 0,0 0,0.01 0,0 -0.01,0 -0.01,0 0,0 0,0 0,0 0,0 0,0 0,0 0,0 0,0 0,0.01 0,0 0,0 0,0 0,0 0,0 0,0 0,0 0,0 0,0 0,0 0,0 0,0 0,0 0,0 0,0 0,0 0.01,0 0.01,0 0,0 0,0 0,0 0,0 0,0 0,0 0,0 0,0 0,0 0,0.01 0,0.01 0,0.01 0,0 0,0 0,0 0,0 0,0 0,0 0,0 0,0 0,0.01 0,0 -0.01,0 -0.01,0 0,0 0,0 0,0 0,0 0,0 0,0l0 0 0 0 0 0 0 0.01c0,0 0,0 0,0 0,-0.01 0,-0.01 0,-0.01l0 0 0 0c0.01,0 0.01,0 0.01,0 0,0 0,0 0,0 0,0 0,0 0,0 0,0 0,0.01 0,0.01 0,-0.01 0,-0.01 0,-0.01 0.01,-0.01 0.01,-0.01 0.01,-0.01 0,0 0,0 0,-0.01 0,0 0,0 -0.01,0 0,0 0,0 0,0 0,-0.01 0,-0.01 0,-0.01 0,0 0,0 0,0 0,0 0,0 0,0 0.01,0 0.01,0 0.01,0 0,0 0,0 0,0l0 0 0 0 0 0.01c0,0 0,0 0,0 0,0 0,0 0,0 0,0 0,-0.01 0,-0.01 0,0 0,0 0,0l0 0 0 0zm0.02 -0.06c0,0 0,0 0.01,0 0,0 0,0 0,0 0,0 0,0 0,0 -0.01,0 -0.01,0 -0.01,0l0 0zm0.08 0.01c0,-0.01 0,-0.01 0,-0.01 0,0 0,0 0,0 0,0 0,0 0,0 0,0.01 0,0.01 0,0.01 0,0 0,0 0,0zm0.04 0c0,0 0,0 0,0 0,0 0,-0.01 0,-0.01l0 0c0,0 0,0 0,0 0,0 0,0.01 0,0.01zm-0.11 0c0,0 0,0 0,0 0,0 0,0 0,0 0,0 0,0 0,0 0,0 0,0 0,0 0,0 -0.01,0 -0.01,0 0,0 0,0 0,0 0,0 0,0 0,0l0 0.01c0,0 0,0 0,0l0 0c0,0 0,0 0,0 0,0 0,0 0,0 0.01,0 0.01,-0.01 0.01,-0.01l0 0 0 0zm-0.02 0.01c0,0 0,0 0,0 0.01,0 0.01,0 0.01,0 0,0 0,-0.01 0,-0.01 0,0 -0.01,0 -0.01,0 0,0 0,0 0,0.01 0,0 0,0 0,0zm0.1 0c0,0 0,0 0,0 0,0 0,0 0,0 0,0 0,0 0,0 0,0 0,0 0,0 0,0 0,0 0,0 0,0 0,0 0,0 0,0 0,0 0,0 0,0 0,0 0,0zm0.02 0l0.01 0c0,0 0,0 -0.01,0l0 0zm0 0.01c0,0 0,0 0,0.01 0,0 0,0 0.01,0 0,0 0,-0.01 0,-0.01 0,0 0,0 0,0 0,0 0,0 0,0 0,0 0,0 0,0 0,0 0,0 0,0 0,0 0,0 0,0 0,0 0,0 0,0 0,0 0,0 -0.01,0 0,0 0,0 0,0 0,0 0,0 0,0zm0.03 0c0,0 0.01,0 0.01,0 0,0 0,0 0,0 0,0 0,0 0,0 0,0 0,0 0,0 0,0 0,0 -0.01,0 0,0 0,0 0,0 0,0 0,0 0,0zm-0.13 0.01l0 -0.01 -0.01 0c0,0 0,0.01 0.01,0.01zm-0.02 0c0,0 0,0 0,0 0,0 0,0 0,0l0 0c0,0 0,0 0,0 0,0 0,0 0,0l0 0zm0.15 0.01c0,0 0,0 0,0 0,0 0,0 0,0 0,0 0,0 0,0 0,0 0,0 0,0 0,0 0,0 0,0 0,0 0.01,0 0.01,0 0,0 0,-0.01 0,-0.01 0,0 0,0 0,0 0,0 0,0 0,0 -0.01,0 -0.01,0.01 -0.01,0.01zm0.02 0c0,0 0,0 0,0 0,0 0,0 0,0l0 0c0,0 0,0 0,0 0,0 0,0 0,0zm-0.04 0.01c0,0 0,0 0,0 0,0 0,0 0,0 0,0 0,0 0.01,0 0,0 0,-0.01 0,-0.01 0,0 0,0 0,0 0,0 0,0 -0.01,0 0,0 0,0 0,0 0,0 0,0 0,0.01zm-0.12 0c0,0 0,0 0,0 0,0 0,0 0,-0.01 0,0 0,0 -0.01,0 0,0 0,0 0,0 0,0.01 0,0.01 0,0.01 0,0 0,0 0,0 0,0 0,0 0,0l0 0 0 0c0,0 0,0.01 0,0.01 0,0 0,0 0,0 0,0 0,0 0,0 0,0 0,0 0,0 0,0 0.01,0 0.01,0 0,0 0,0 0,0 0,0 0,0 0,0 0,0 0,-0.01 0,-0.01l0 0 0 0 0 0 0 0zm0.01 0.01c0,0 0,0 0,0 0,0 0,0 0,0 0,0 0,-0.01 0,-0.01 0,0 0,0 0,0l0 0c0,0 0,0 0,0 0,0 0,0 0,0.01zm0.11 0c0,0 0,0.01 0,0.01 0.01,0 0.01,0 0.01,0 0,0 0,0 0,0 0,0 0,0 0,0 0,0 0,0 0,0 0,0 0,0 0,0 0,0 0,0 0,0 0,0 0,0 0,-0.01 0,0 0,0 0,0 0,0 0,0 0,0 0,0 0,0 0,0 -0.01,0 -0.01,0 -0.01,0zm0.06 0l0 0 0 0 0 0 0 0zm-0.17 0.02c0,0 0,0 0,0 0,0 0,0 0,0 0,0 0,0 0.01,0 0,0 0,0 0,0 0,0 0,-0.01 0,-0.01 0,0 0,0 0,0 0,0 0,0 0,0 0,0 0,0 0,0 0,0 0,0 0,0 -0.01,0 -0.01,0 -0.01,0 0,0 0,0 0,0.01 0,0 0,0 0,0zm0.14 -0.01c0,0 0,0 0,0 0,0 0,0 0,0 0,0 0,0 0,0 0,0.01 0,0 0,0zm0.04 0.02c0,0 0,0 0,0 0,0 0,0 0,0 0,0 0,0 0,0 0,0 0,0 0,0 0,0 0,0 0,0 0,0 0,0 0,-0.01 0,0 0,0 0,0 0,0 0,0 0,0 0,0 0,0 0,0 0,0.01 0,0.01 0,0.01l-0.01 0 0 0c0,0 0,0 0,0 0,0.01 -0.01,0 -0.01,0 0,0.01 0,0.01 0,0.01 0,0 0,0 -0.01,0 0,0 0,0 0,0 0,0 0,0 0,0 0,0 0,0 0,-0.01 0,0 0,0 0,0 0,0 0,0 0.01,0 0,0 0,0 0,0 -0.01,0 -0.01,0 -0.01,0 0,0 0,0 0,0 0,0 0,0 0,0 0,0 -0.01,0 -0.01,0 0,0 0,0 0,0 0,0.01 0,0.01 0,0.01 0,0 0,0 0,0 0,0 0,0 0,0.01 0,0 0,0 0,0 0,0 0.01,0 0.01,0 0,0 0,0 0,0 0,0 0,0 0,0 0,0 0,0 0,0 0,-0.01 0,-0.01 0,-0.01 0,0 0,0 0,0 0.01,0 0.01,0.01 0.01,0.01 0,0 0,0 0,0 0,0 0,0 0,0 0,0 0,0 0,-0.01 0,0 0,0 0,0 0,0 0,0 0,0 0,0 0,0 0,0 0,0 0.01,0 0.01,0 0,0 0,0 0,0 0,0 0,0 0,0 0,0 0.01,0 0.01,0 -0.01,0 -0.01,0 -0.01,-0.01l0 0 0.01 0zm-0.04 0c0,-0.01 0,-0.01 -0.01,-0.01 0,0 0,0.01 0.01,0.01zm-0.16 0c0,0 0,-0.01 -0.01,-0.01 0,0.01 0,0.01 0.01,0.01zm0.01 0.02c0,-0.01 0,-0.01 0,-0.01 0.01,0 0.01,0 0.01,-0.01 0,0 0,0 0,0 0,0 -0.01,0 -0.01,0 0,0 0,0 0,0 0,0 0,0.01 0,0.01 0,0 0,0 0,0 0,0 0,0.01 0,0.01zm-0.04 -0.01c0,0 0,0.01 0,0.01 0,0 -0.01,0 -0.01,0 0.01,0 0.01,0 0.01,0 0,0 0,0 0,0 0,0 0,0 0,0 0.01,0 0.01,0 0.01,0 0,0 0,0 0,0 0.01,0 0.01,0 0.01,0 0,0 0,0 0,0l0 0 0 0c0,0 0.01,0 0.01,-0.01 0,0 0,0 0,0 0,0 0,0 0,0 0,0 0,0 0,0 0,0 0,0 -0.01,0 0,0 0,0 0,0l0 0 0 0c0,0 0,0 0,0 0,0 0,0 0,0 0,0 0,0 0,0 0,0 0,-0.01 0,-0.01 -0.01,0.01 -0.01,0.01 -0.01,0.01 0,-0.01 0,-0.01 -0.01,-0.01 0,0 0,0 0,0.01 0,0 0,0 0,0l0 0 0 0zm0.23 0.01c0,0.01 0,0.01 0.01,0.01 0,0 0,0 0,0 0,0 0.01,0 0.01,-0.01 0,0 0,0 0,0 0,0 0,0 0,0 -0.01,-0.01 -0.01,-0.01 -0.01,-0.01 0,0 0,0 0,0 0,0 0,0 -0.01,0 0,0 0,0 0,0.01 0,0 0,0 0,0l0 0 0 0c0,0 0,0 -0.01,0 0,0 0,0 0,0 0,0 0,0 0,0 0,0 0,0.01 0,0.01 0,0 0,0 0.01,0 0,0 0,-0.01 0,-0.01l0 0 0 0zm-0.18 0c0,0 0,0 0,0 0,0 0,0 0,0 0,0 0,0.01 0,0.01 0,0 0,0 0,0 0,-0.01 0,-0.01 0,-0.01 0,0 0,0 0,0 0.01,0 0.01,0 0.01,0 0,0 0,0 0,-0.01 0,0 0,0 -0.01,0 0,0 0,0 0,0 0,0 0,0 0,0 0,0 0,0 0,0 0,0 0,0 0,0.01zm0.12 0l0.01 0 0 0 -0.01 0 0 0zm-0.13 0.01l-0.01 0c0,0 0,0.01 0,0.01 0.01,0 0.01,0 0.01,0 0,0 0,0 0,0 0,-0.01 0,-0.01 0,-0.01zm0.17 -0.25c0,0 0,0 0,0 0,0 0,0 0.01,0l-0.01 0zm-0.18 0.03c0,0 0,0 0,0 -0.01,0 -0.01,0 -0.01,0l0.01 0zm0.14 0.05l0 -0.01 0 0.01zm-0.15 0.03c0,0 0,0 0,0 0,0 0,0 0,0l0 0zm0.05 0.01c0,0 0,0 0,0l0 0zm-0.05 0.06c0,0 0,0 0,0 0,0 0,0 0,0l0 0zm0.02 -0.05c0,0 0.01,0 0.01,0l-0.01 0zm0 0.05c0,0 0,0 -0.01,0l0.01 0zm-0.04 0.03c0,0 0,0 0,0 0,0 0,0 0,0l0 0zm0.22 0.01c0,0 0,0 0,0 0,0 0,0 0,0l0 0zm-0.2 0.02c0,0 0,0 0,-0.01 0,0 0,0 0,0l0 0.01zm-0.02 -0.01c0,0 0,0 0,0 0,0 0,0 0.01,0 0,0 0,0 0,0l-0.01 0zm0.23 0.01c0,0 0,0 0,0 0,0 0,0 0,0l0 0z"/>
   <path class="fil0" d="M1.28 2.09c0.01,0 0.01,0 0.01,0.01 0,0 0,0 0,0 0,0 0,0 0,0 -0.01,0 -0.01,0 -0.01,0 0,0 0,0 0,0 0,0 0,-0.01 0,-0.01 0,0 0,0 0,0zm0.02 0.01c0,0 0.01,0 0.01,0 0,0 0,0 0,0 0,0 0,0 0,0 0,0 0,0 0,0 0.01,0 0.01,0 0.01,0 0,0 0,0 0,0 0,0.01 0,0.01 -0.01,0.01l0 0 0 0c0,0 0,-0.01 0,-0.01 0,0 0,0 0,0 0,0.01 0,0.01 0,0.01 0,0 0,0 -0.01,0l0 -0.01 0 0zm0.01 0.01l0 0c0,0 0,0 0.01,0.01 0,0 0,0 -0.01,0 0,0 0,0 0,0 0,0 0,0 0,0 0,-0.01 0,-0.01 0,-0.01 0,0 0,0 0,0l0 0zm-0.01 0l0 0c0,0 0,0 -0.01,0l0 0c0.01,-0.01 0.01,-0.01 0.01,-0.01l0 0.01zm0.02 0.02c0.01,0 0.01,0 0.01,0 0,0 0,0 0,0 0,0 0,0 0,0 0,0 0,0 0,0 0,0 0,0 -0.01,0 0,0 0,0 0,0zm0.07 0.15c0,-0.01 0,-0.01 0,0 0,0 0,0 0,0 0,0 0,0 0,0 0,0 0,0 0,0zm-0.1 -0.17l0 0c0,0 0,0 0,0 0,0 -0.01,0 -0.01,0 0,0 0,0 0,0 0,0 0,0 0.01,0 0,0 0,0 0,0 0,0 0,0 0,0zm0.01 -0.04c0,0 0,0 0,0 0.01,-0.01 0.01,-0.01 0.01,-0.01 0.01,0 0.01,0 0.01,0 0.01,0 0.01,0 0.01,0 0.02,0 0.03,0 0.05,0 0.02,0 0.04,0 0.06,0 0.01,0 0.01,0 0.02,0 0.01,0 0.02,0 0.03,0 0.01,0 0.02,0 0.02,0 0.01,0 0.02,0 0.03,0.01 0,0 0,0 0,0 0,0.01 0,0.01 0,0.02 0,0 0,0 0,0.01 0,0 0,0 0,0.01 0,0 0,0 0,0.01 0,0 0,0 0,0.01 0,0 0,0.01 0,0.01 0,0 0,0.01 0,0.01 -0.01,0 -0.01,0 -0.01,0 -0.01,0 -0.01,0 -0.02,0 0,0 -0.01,0 -0.01,0 -0.01,0 -0.02,0 -0.02,0 -0.01,0 -0.01,0 -0.02,0 0,0 -0.01,0 -0.01,0 0,0.02 0,0.03 0,0.05 0,0.02 0,0.04 0,0.05 0,0.02 0,0.04 0,0.06 0,0.01 0,0.03 0,0.05 0,0 0,0.01 0,0.01 0,0.01 0,0.02 0,0.02 0,0.01 0,0.01 0,0.02 0,0 -0.01,0.01 -0.01,0.01 0,0 -0.01,0 -0.02,0 -0.01,0 -0.01,0 -0.02,0 -0.01,0 -0.02,0 -0.03,0 0,0 -0.01,0 -0.02,0 0,-0.01 0,-0.01 0,-0.02 0,0 0,-0.01 0,-0.01 0,-0.01 0,-0.01 0,-0.02 0,-0.01 0,-0.01 0,-0.02 0,-0.03 0,-0.06 0,-0.09 0,-0.04 0,-0.07 0,-0.11 -0.01,0 -0.02,0 -0.02,0 -0.01,0 -0.02,0 -0.03,0 -0.01,0 -0.02,0 -0.02,0 -0.01,0 -0.02,0 -0.02,0 0,-0.01 0,-0.01 0,-0.02 0,-0.01 0,-0.01 0,-0.02 0,0 0,-0.01 0,-0.01 0,-0.01 0,-0.01 0,-0.02 0,0 0,-0.01 0,-0.01 0,0 0.01,-0.01 0.01,-0.01 0,0 0,0 0.01,0 0,0 0,0 0,0 0.01,0 0.01,0 0.01,0 0,0.01 0,0.01 0,0.01l0 0 0 0 0 0c0,0 0,0.01 0,0.01 0,0 -0.01,0 -0.01,0 0,0 0,0 -0.01,0 0,0 0,0 0,0 0,0 0,0 0,0.01 0,0 0,0 0,0.01 0,0 0,0 0,0 0,0.01 0,0.01 0,0.01 0,0 0,0.01 0,0.01 0.01,0 0.01,0 0.01,0 0,0 0,0 0,0 0,0 0,0 0,0 -0.01,0 -0.01,0 -0.01,0 0,0 0,0 0,0 0,0 0,0.01 0,0.01 0,0 0,0 0,0 0,0 0,0 0,0 0,0 0,0 0,0 0,0 0,0 0,0 0,0 0,0 0,0 0,0 0,0 0,0 0,0 0,0 0,0.01 0,0 0,0 0,0 0,0 0.01,0 0.01,0 0,0 0,0 0.01,0 0,0 0,0 0,0 0,0 0,0 0,0 0,0 0,-0.01 0,-0.01 0,0 0,0 0,0 0,0 0,0 0,0 0,0 0,0 0,0 0,0 0,0 -0.01,0 0,0 0,0 0,0 0,0 0,0 0,-0.01 0,0 0,0 0,0.01 0,0 0,0 0,0 0,0 0.01,0 0.01,0 0,-0.01 0,-0.01 0,-0.01l0 0 0 0 0 0c0,0 0,0 0,0 0,0 0,0 0,0 0,-0.01 0,-0.01 0,-0.01 0,0 0.01,0 0.01,0 0,0.01 0,0.01 0,0.01 0.01,0 0.01,0.01 0.01,0.01 0,0 0,-0.01 0.01,0 0,0 0,0 0,0 0,0 0,0 0,0.01 0,0 0,-0.01 0.01,0 0,0 0,0 0,0 0.01,0 0.01,0 0.01,0 0.01,0 0.01,0 0.01,-0.01 0,0 0,0 0,0 -0.01,0 -0.01,0 -0.01,0 0,0 0,0 0,0 0,0.01 0,0.01 0,0 -0.01,0 -0.01,0 -0.01,0 0.01,-0.01 0.01,-0.01 0.01,-0.01 -0.01,0 -0.01,0 -0.01,0 0,0 0,0 0,-0.01 0,0 0,0 0,0 0.01,0 0,0 0,0 0,0 0,0 0,0 0,0 0,0 0,0 0,0.01 0,0.01 0,0.01 0,0 0,0 -0.01,0 0,0 0,-0.01 0,-0.01 0,0 0,0 0,0 0,0 0,0 0,-0.01 0,0 0,0 0,0 0,0 0,0 0,0 0,0 0,0 0,0 -0.01,0 -0.01,-0.01 -0.01,-0.01 0,0 0,0 0,0 0.01,0 0.01,0 0.01,0 0.01,0 0.01,0 0.01,0.01 0,0 0,0 0,0 0,0 0,0 0,0 0,0 0,0 0,0 0,0 0,0 0,0 0,0 0,0 0,0 0,0 0,0 0,0 0,0 0,0 0,-0.01 0,0 0,0 0,0 0,0 0,0 0,0 0,0 0,0 0,0 0,-0.01 0,-0.01 0,-0.01 0,0 0,0 0,0 0,0 0,0 0,0 0,0 0.01,0 0.01,0 0,0 -0.01,0 -0.01,0 0,-0.01 -0.01,0 -0.01,0 0,0 0,0 0,0 0,0 0,0 0,0 0,0 0,0 0,0 0,0 0,0 0,0 0,0 0,0 -0.01,0 0,0 0,0 0,0 0,0 -0.01,0 -0.01,0 0,0 0,-0.01 0,-0.01l0 0 0 0zm0.05 0.01c0,0 0,0 0,0 0,0 0,0 -0.01,0 0,0 0,0 0,0 0.01,0 0.01,0 0.01,0 0,0 0,0 0,0 0,0 0,0 0,0zm0.02 0.01c0,0.01 0,0.01 0,0 0,0 0,0 0,0 0,0 0,0 0,0 0,0 0,0 0,0 0,0 0,0 0,0 0,0 0,0 0,0 0,0 0,0 0,0 0,0 0,0 0,0 0,0 0,0 0,0 0,0 0,0 0,-0.01 0,0 0,0 0,0 0,0 0,0 0,0 0,0.01 0,0.01 0,0.01 0,0 0,0 0,0 -0.01,0 -0.01,0 -0.01,0l0 0.01 0 0 0 0 0 0 0 0c0,0 0,0 -0.01,0 0,0 0,0 0,0 0,0 0.01,0 0.01,0 0,0.01 0,0.01 0,0.01 0,-0.01 0,-0.01 0,-0.01 0,0 0,0 0,0l0 0 0 0 0 0 0 0 0.01 0 0 -0.01zm0.15 0.01c-0.01,0 -0.01,0 -0.01,0 0,0 0,0 0,0.01 0,0 0,0 0,0 0.01,0 0.01,0 0.01,0 0,0 0,0 0,0 0,0 0.01,0 0.01,0 0,0 0,-0.01 0,-0.01 0,0 0,0 0,0 0,0 0,0 0,0 0,0 0,0 0,-0.01 -0.01,0.01 -0.01,0.01 -0.01,0 0,0 0,0 -0.01,0 0,0 0,0 0,0 0,0 0,0 0,0 0,0 0,0 0,0 0,0.01 0.01,0.01 0.01,0.01zm-0.17 0l0 -0.01 -0.01 0c0,0 0,0 0,0.01 0,0 0,0 0.01,0zm0.1 0c0,-0.01 -0.01,-0.01 -0.01,-0.01 0,0 0,0 0,0.01 0,0 0,0 0,0 0,0 0,0 0,0 0,0 0,0 0.01,0zm-0.09 0.01c0,0 0.01,0 0.01,0 0,0 0,0 0,0 0,0 0.01,0 0.01,0 0,0 0,0 0,0 0,0 0,0 0,0 0,0 0,0 0,0 -0.01,0 -0.01,0 -0.01,0 0,0 0,0 0,0 0,0 0,0 0,0 0,0 0,0 0,0 0,0 0,0 0,0 0,0 0,0 0,0 0,0 0,0 -0.01,0 0,0 0,0 0,0 0,0 0,0 0,0 0,0 0,0 0,0zm0.11 0.01c0,0 0,0 0,0 0,0 0,0 0,0 0,0 0,0 0.01,0 0,-0.01 0,-0.01 0,-0.01 -0.01,0 -0.01,0 -0.01,0 0,0.01 0,0.01 0,0.01 0,0 0,0 0,0 0,0 0,0 0,0zm-0.03 0l0 0 0 -0.01 0 0 0 0.01zm0.05 0c0,0 0,0 0.01,0 0,0 0,0 0,0 0,0 0,0 0,0 0,0 0,-0.01 0,-0.01 0,0 0,0 0,0.01 -0.01,0 -0.01,0 -0.01,0zm-0.14 0l0 0c0,0 0,0 0,0l0 0zm0.06 0c0,0 0,0 0,0 0,0 0,0 0,0 0,0 0,0 0,0 0,0 0,0 0,0 0,0 0,0 0,0 0,0 0,0 0,0 0,0 0,0 0,0 0,0 0,0 0,0zm0.07 0.01c0.01,0 0.01,0 0.01,0 0,0 0,0 0,0 0,0 0,0 0,0 0,0 0,0 -0.01,0zm-0.12 0.01l0 0 0 0 0 0 0 0zm0.03 0.01c0,0 0,0 0,0 0,0 0,0 0,0 0,0 0,0 0,-0.01 0,0 0,0 0,0 0,0 0,0.01 0,0.01 0,0 0,0 0,0 -0.01,0 -0.01,0 -0.01,0 0,0 0.01,0 0.01,0zm0.02 0.01l0 0 0 0 0 0c0,0 0,0 0,0 0,0 0,0 0,0zm-0.01 0l0 0 0 0 0 0 0 0zm0.02 0c0,0 0,0 0.01,0 0,0 0,0 0,0 0,0 0,0 0,0 0,0 0,0 0,0 0,0 0,0 0,0 0,0 0,0 0,0 0,0 -0.01,0 -0.01,0zm-0.03 0.02c0,0 0,0 0,0 0,0 0,0 0,0 0,0 0.01,0 0.01,0 0,0 0,0 0,0 0,0 -0.01,0 -0.01,0 0,0 0,0 0,0zm-0.02 0.02c0,0 0,0 0,0 0,0 0.01,0 0.01,0 0,0 0,0 0,0 0,0 0,0 0,0 0,0 0,0 0,0 0,0 0,0 0,0 -0.01,0 -0.01,0 -0.01,0 0,0 0,0 0,0zm0.05 0c0,0 0,0 0,0 0,0 0,0 0,0 0,0 0,0 0,0 0,0 0,0 0,0 0,0 0,0 0,0 0,0 0,0 0,0 0,0 0,0 0,0 0,0 0,0 0,0zm-0.06 0.01l0 0 0 0 0 0 0 0zm0.02 0.01c0,0 0,0 0,0 0,0 0.01,0 0.01,0 0,0 0,0 0,0 0,0 0,0 0,0 0,0 0,0 0,0 0,0 -0.01,0 -0.01,0 0,0 0,0 0,0 0,0 0,0 0,0zm0.04 0.01c0,0 0,0 0,-0.01 0,0 0,0 0.01,0 0,0 0,0 0,0 0,0 -0.01,0 -0.01,0 0,0 0,0 0,0 0,0 0,0 0,0 0,0 0,0 0,0 0,0.01 0,0.01 0,0.01zm-0.03 0.01c0.01,0 0.01,0 0.01,0 0,0 0,0 0,0 -0.01,0 -0.01,0 -0.01,0 0,0 0,-0.01 0,-0.01 0,0 0,0 -0.01,0.01 0,0 0,0 0,0 0.01,0 0.01,0 0.01,0 0,0 0,0 0,0 0,0 0,0.01 0,0.01l0 0 -0.01 0c0,0 0,0 0,0 0,0 0,0 0,0 0,0 0,0.01 0,0.01 0,0 0,0 0,0 -0.01,0 -0.01,0 -0.01,0 0,0 0,0 0,0 0,0 0,0 0,0 0,0 0,0 0,0 0,0.01 0,0.01 0,0.01 0,0 0,0 0,0 0,0 0,0 0,0 0,0 0,0 0,0 0,0 0,0 0,0 0.01,0 0.01,0 0.01,0l-0.01 0 0.01 0c0,0 -0.01,0 -0.01,0 0,0.01 0,0.01 0,0.01 0,0 0,0 0,0 0,0 -0.01,0 -0.01,0 0.01,0 0.01,0 0.01,0 0.01,0 0.01,0 0.01,0 0,0 0.01,0 0.01,0.01 0,0 0,0 0,0l-0.01 0 0.01 0 -0.01 0c0,0 0,0 0,0l0 0 0 0c0,0 -0.01,0 -0.01,0 0,0.01 0,0.01 0,0.01 0,0 0,0 0,0 0.01,0 0.01,0 0.01,0 0,0.01 0,0.01 0.01,0.01 0,0 0,0 0.01,0 0,-0.01 0,-0.01 0,-0.01 0,0 0,0 0,0 0,0 0,0 0.01,-0.01 0,0 0,0 0,0 -0.01,0 -0.01,0 -0.01,0 -0.01,-0.01 -0.01,-0.01 -0.01,-0.01 0,-0.01 0,-0.01 0,-0.01 0,-0.01 0,-0.01 0,-0.01 0,0 0,0 0.01,0 0,0 0,0 0,0 0,0 0,0 0,0 0,0 0,0 0,0l0 -0.01c0,0 0,0 -0.01,0 0,0 0,0 0,0l0 0 0 -0.01c0,0 0,0 0,0 0,0 0,0 0,0 0,0 0,0 0,0zm0.02 0.03c0,0 0,0 0,0 0,0 0,0 0,0 0,0 0,0 0,-0.01 0,0 0,0 0,0 0,0 0,0 0.01,0 0,0 0,0 0,0 0,0 0,0 0,0 0,0 0,0 0,0 0,0 0,0 0,0 0,0 -0.01,0 -0.01,0 0,-0.01 0,-0.01 0,-0.01 0,0 0,0 0,0 0,0 0,0 0,0 0,0 0,0 0,0 0,0 0,0 0,0.01 0,0 0,0 0,0.01zm0.02 -0.02c0,0 0,0 0,0 0,0 0,0 0,0 0,0 0,0 0,0 0,0 0,0 0,0 0,0 0,0 0,0 0,0 0,0 0,0zm0 0.01c0,0 0,0 0,0 0,0 0,0 0,0 0,0 0,0 0,0zm-0.01 0.02l0.01 0 0 -0.01c0,0.01 -0.01,0.01 -0.01,0.01 0,0 0,0 0,0zm-0.01 0.03c0.01,-0.01 0.01,-0.01 0.01,-0.01 0,0 0,0 0,0 0,0 0,-0.01 -0.01,-0.01 0,0 0,0.01 0,0.01 0,0 0,0 0,0 0,0 0,0 0,0 0,0 0,0 0,0.01zm-0.03 0c0,0 -0.01,0 -0.01,0 0,0 0,0 0,0 0,0 0,0 0,0 0,0 0,0 0,0 0,0 0,0 0,0 0,0 0,0 0.01,0zm0.03 0.01c0.01,0 0.01,0 0.01,0 0,0 0,0 0,0 0,0 0.01,0 0.01,0 0,0 0,0 0,0 0,0 0,0 0,0 0,0 0,0 0,0 0,0 0,0 0,0 0,-0.01 0,-0.01 0,-0.01 0,0 0,0 0,0 0,0 0,0 0,0.01 0,0 0,0 0,0 0,0 0,0 0,0 0,0 -0.01,0 -0.01,0 0,0 0,-0.01 0,-0.01 0,0 0,0 0,0 0,0 0,0 0,0 0,0 0,0 0,0 0,0 0,0 0,0 0,0 0,0 0,0 -0.01,0 -0.01,0 -0.01,0l0 0 0 0c0,0 0,0 0,0 0,0 0,0 0,0 0,0 0,0 0,0 0,0.01 0,0.01 0,0.01 0,0 0,0 0,-0.01l0 0.01 0 0zm-0.02 0.01l0 0c0,0 0,0 0,-0.01 0.01,0 0.01,0 0.01,0 -0.01,0 -0.01,0 -0.01,0 0,0 0,0 0,0 0,0.01 0,0.01 0,0.01l0 0 0 0c0,0 0,0 -0.01,0 0,0 0.01,0 0.01,0.01 0,0 0,0 0,0 0,0 0,0 0,-0.01l0 0 0 0zm0.02 0c0,0 0,0 0,0 0,0 0,0 0,0 0,0 0,0 0,0 0,0 0,0 0,-0.01 0,0 0,0 0,0 0,0 0,0 0,0 0,0 0,0 0,0 0,0 0,0 0,0 0,0 0,0 0,0 0,0 0,0 0,0l0 0 -0.01 0.01c0,0 0,0 0,0 0,0 0,0 0,0 0,0 0,0 0,0.01 0,0 0,0 0,0 0,0 0,0 0,0 0,0 0,0 0.01,0 0,0 0,0 0,0 0,0 0,0 0,0 0,0 0,0 0,0 0,0 0,0.01 0,0.01 0,-0.01 0,-0.01 0,-0.01 0,0 0,-0.01 0,-0.01 0,0 0,0 0,0 0,0 -0.01,0 -0.01,0l0 0 0.01 0 0 0zm-0.05 0.01c0,0 0.01,0 0.01,0 0,0 0,0 0,0 0,0 0.01,0 0.01,0 0,0 0,0 0,-0.01 0,0 -0.01,0 -0.01,0 0,0 0,0 0,0.01 0,0 0,0 -0.01,0 0,-0.01 0,-0.01 0,-0.01 0,0 0,0 0,0 0,0 0,0 0,0 0,0 0,0 0,0 0,0 0,0 0,0 0,0 0,0.01 0,0.01 0,0 0,0 0,0zm0.07 0l0 0c0,0 -0.01,0 -0.01,-0.01 0,0 0,0 0,0 0,0 0,0 0,0 0,0.01 0,0.01 0,0.01 0,0 0,0 0,0 0,0 0,0 0,0 0,0 0,0 0,0 0,0 0,0 0,0 0,0 0,0 0,0 0,0 0,0 0.01,0l-0.01 0 0.01 0c0,0.01 0,0.01 0,0.01 0,0 0,0 0,0 -0.01,0 -0.01,0 -0.01,0 0,0 0,0 0.01,0 0,0 0,0 0,0 0,0 0,0 0,0 0,0 0,-0.01 0,-0.01 0,0 0,0 0,0 0,0 0,0 0,0l0 0 0 0zm-0.05 0.01c0,0 0,0 -0.01,0 0,0 0,0 0,0 0,0 0,0 0.01,0 0,0 0,0 0,0 0,0 0,0 0,0l-0.01 0.01 0.01 0c-0.01,0 -0.01,0 -0.01,0 0,0 0,0 0,0 0,0 0,0 -0.01,-0.01 0,0 0,0 0,0.01 0,0 0,0 0,0 0,0 0,0 0,0 0,0 0,0 0,0 0,0 0,0 0,0 0.01,0 0.01,0 0.02,0 0,0 0,0 0,0l0 -0.01c0,0 0,0 0,0 0,0 0,0 0,0l0 0 0 0c0.01,0 0.01,0 0.01,0 0,0.01 0,0.01 0,0.01 0,0 -0.01,0 -0.01,0 0,0 0.01,0 0.01,0 0,0 0,0 0,0 0,0 0,-0.01 0,-0.01 0,0 0,0 0,0 0,0 0,0 0,0 0,0 0,0 0,0 0,0 0,0 -0.01,0l0 0 0 0zm0.02 0.02l0 0c0,0 0,0 0.01,0 0,0 0,0 0,0 0,0 0,0 0,0 0,0 0,0 0,0 0,0 0,0 0,0 0,0 0,0 0,0 0,0 0,0 -0.01,0zm-0.02 0.01c0,0 0,-0.01 0,-0.01 0,0 0,0 0.01,0 0,0 0,0 0,0 0,0 0,0 0,0 0,0 -0.01,0 -0.01,0 0,0 0,0 0,0l0 0 0 0.01 0 0 0 0c0,0 0,0 0,0l0 0 0 0zm0.04 0.01c0,0 0,0 0,0 0,0 0,0 0,0 0,0 0,0 0,0 0,0 0,0 0,0 0,0 0,-0.01 0,-0.01 0,0 0,0 0,0 0,0 0,0 0,0 0,0 0,0 0,0 0,0 0,0 0,0 0,0 0,0 0,0 0,0 0,0 0,0.01 -0.01,0 -0.01,0 0,0zm-0.04 -0.12l0 0c0,0 0,0 0,0 0,0 0,0 0,0 0,0 0,0 0,0 0,0 0,0 0,0 0,0 0,0 0,0 0,0 0,0 0,0l0 0zm0 0.03l0 0c0,0 0,0 0,0 0,0 0,0 0,0 0,0 0,0 0,0 0,0 0,0 0,0l0 0 0 0 0 0 0 0zm-0.07 -0.19c0,0 0,0 0,0 0,0 0,0 0,0l0 0zm-0.01 0c0,0 0,-0.01 0,-0.01l0 0.01zm0 -0.04c0,0 0,0 -0.01,0 0,0 0,0 0,0l0.01 0zm-0.01 0.05c0,0 0,0 0,0 -0.01,0 -0.01,0 -0.01,-0.01l0.01 0.01zm0.07 -0.02c0,0 0,0 0,0l0 0zm0.01 0c0,0 0,0 0,0 0,0 -0.01,-0.01 -0.01,-0.01l0.01 0.01zm0.02 0.15c0,0 0,0 0,0l0 0zm-0.02 0.02l0.01 0 -0.01 0zm0.01 0.03c0,0 0,0 0,0 0,-0.01 0,-0.01 0,-0.01l0 0.01zm0 0c0,0 0,0 0,0 0,-0.01 0,-0.01 0.01,-0.01l-0.01 0.01zm0.03 0.02l0 -0.01 0 0.01zm-0.02 0.01c0,0 0,0 0,0l0 0zm0.02 0c0,0 0,0 0,0 0,0 0,-0.01 0,-0.01l0 0.01zm0.02 0.01c0,0 0,0 0,0 0,0 -0.01,0 -0.01,0l0.01 0zm-0.06 0.02c0.01,0 0.01,0 0.01,0l-0.01 0zm0.01 -0.01c0,0 0,0 0,0 0,0 0,0 0,0l0 0zm0 0.03c0,0 0,0 0,0 0,0 0,-0.01 0,-0.01l0 0.01z"/>
   <path class="fil0" d="M1.86 2.15c-0.01,0 -0.01,0 -0.02,0 -0.01,0 -0.01,0 -0.02,0 -0.01,0 -0.01,0 -0.02,0 -0.01,0 -0.02,0 -0.02,0l-0.09 0 0 0.05c0.01,0 0.02,0.01 0.04,0.01 0.01,0 0.02,0 0.03,0 0.01,0 0.01,-0.01 0.02,-0.01 0,0 0.01,0 0.01,0 0.01,0 0.01,0.01 0.02,0.01 0,0 0.01,0 0.01,0 0,0 0.01,0.01 0.01,0.01 0,0.01 0,0.02 0,0.02 0,0.01 0,0.01 0,0.01 0,0.01 0,0.01 0,0.01 0,0.01 -0.01,0.01 -0.01,0.01 0,0 0,0.01 0,0.01 0,0 0,0 -0.01,0 0,0 -0.01,0 -0.02,0 0,0 -0.01,0 -0.01,0 -0.01,0 -0.02,0 -0.02,0l-0.07 0 0 0.06c0.02,0 0.03,0 0.05,0 0.01,0 0.03,0 0.04,0 0.01,0 0.02,0 0.02,0 0.01,0 0.02,0 0.02,0 0.01,0 0.02,0 0.03,0 0,0 0.01,0 0.01,0 0,0.01 0.01,0.01 0.01,0.02 0,0.01 0,0.02 0,0.02 0,0.01 0,0.02 0,0.03 -0.01,0 -0.01,0.01 -0.01,0.01 -0.01,0 -0.02,0.01 -0.03,0.01 -0.01,0 -0.02,-0.01 -0.03,-0.01l-0.07 0c-0.02,0 -0.04,0.01 -0.07,0.01 -0.02,0 -0.04,-0.01 -0.06,-0.01 0,0 0,0 0,-0.01 0,0 0,-0.01 0,-0.01 0,0 0,-0.01 0,-0.01 0,0 0,-0.01 0,-0.01l0 -0.28c0,0 0,0 0,-0.01 0,0 0,0 0,-0.01 0,0 0,0 0,-0.01 0,0 0,0 0,0 0.01,-0.01 0.03,-0.01 0.04,-0.01 0.02,0 0.04,0 0.05,0 0.02,0 0.04,0 0.06,0 0.02,0 0.03,0 0.05,0 0,0 0.01,0 0.01,0 0.01,0 0.02,0 0.02,0 0.01,0 0.01,0 0.02,0 0,0 0.01,0.01 0.01,0.01 0,0 0,0 0,0.01 0,0 0,0 0,0.01 0,0 0,0 0,0.01 0,0 0,0.01 0,0.01 0,0 0,0.01 0,0.01 0,0 0,0.01 0,0.01 0,0 0,0.01 0,0.01 0,0 0,0.01 0,0.01zm-0.24 -0.07c0,0 0,0 0,0 0,0 0,0 -0.01,0 0,0 0,0 0,0 0,0 0,0 0,0 0,0 0,0 0,0 0,0 0,0 0,0 0,0 0.01,0 0.01,0 0,0 0,0 0,0zm0.01 0.01c0,0 0,0 0,0 0,0 0.01,0 0.01,0 0,0 0,0 0,0 0,0 0,0 0,0 0,0 0.01,0 0.01,0 0,0 0,0 0,-0.01 0,0 0,0 0,0 -0.01,0 -0.01,0 -0.01,0 0,0 -0.01,0.01 -0.01,0.01 0,0 0,0 0,0zm0.15 0c0,0 0,0 0,0 0,0 0,0 0,0 0,0 0,0 -0.01,0 0,0 0,0 0,0 0,0 0,0 0.01,0zm-0.01 0.01c0,0 0,0 0,0 0,-0.01 0,-0.01 -0.01,-0.01 0,0.01 0,0.01 0.01,0.01 0,0 0,0 0,0zm0.02 0c0,0 0,0 0,0 0,0 0.01,0 0.01,0 0,0 0,0 0,0 0,0 0,0 0,0 0,0 0,0 0,0 0,0 0,-0.01 0,-0.01 0,0 0,0 0,0 0,0 0,0 0,0 0,0 0,0.01 0,0.01 0,0 0,0 0,0 0,0 -0.01,0 -0.01,0 0,0 0,0 0,0 0,0 0,0 0,0 0,0 0,0 0,0l0 0 0 0c0,0 0,0 0,0 -0.01,0 -0.01,0 -0.01,0.01l0 -0.01 0 0.01c0,0 0,0 0,0 0,0 0,0 0,0 0,0 0,-0.01 0,-0.01 0,0 0,0 0,0 0,0.01 0,0.01 0,0.01 0,0 0,0 0,0 0,0 0,0 0,0l0 0 0 0c0.01,0 0.01,0 0.01,0 0,0 0,-0.01 0,-0.01l0 0 0 0zm0.03 0c0,0 0,0 0,0 0,0 0,0 0,0 0,-0.01 0,-0.01 0,-0.01 0,0 0,0 0,0 0,0 0,0 0,0.01 0,0 0,0 0,0 0,0 0,0 0,0 0,0 0,0 0,0l0 0 0 0c0,0 0,0 0,0.01 0,0 0,0 0,0l0.01 0c0,0 -0.01,-0.01 -0.01,-0.01l0 0 0 0zm0.01 0l0.01 0 0 -0.01 -0.01 0 0 0.01zm-0.18 0c0,0 0.01,0 0.01,0 0,0 0,0 0,0 0,0 0,0 -0.01,0 0,0 0,0 0,0zm0.03 0.02c0,0 0,0 0,0 0,0 0,0 0,0 0,0 0,0 0.01,0 0,0 0,0 0,0 0,0 0,-0.01 0,-0.01 0,0 0,0 -0.01,0 0,0 0,0 0,0 0,0 0,0 0,0 0,0 0,0 0,0.01 0,0 0,0 0,0zm-0.04 -0.01c0,0 0,0 0.01,0 0,0 0,0 0,0 0,0 0,0 0,0 0,0 0,0 0,0 0,0 0,0 0,0 0,0 0,0 -0.01,0zm0 0.02c0.01,0 0.01,0 0.01,0 0,0 0,0 0,0 0.01,0 0.01,0 0.01,0 0,0 0,0 0,0 0,0.01 0,0.01 0,0.01 0,0 0,0 0,0 0,0 0,0 0,-0.01 0,0 0,0 0,0 0,0 0,0 0,0 0,0 0,-0.01 0,-0.01l-0.01 0c0,0 0,0 0,0.01 0,0 0,0 0,0 -0.01,0 -0.01,0 -0.01,0 0,0 0,0 0,0l0 0 0 0 0 0c0,0 0,0 0,0 0,0 0,0 0,0l0 0.01 0 0c0,0 -0.01,0 -0.01,0 0,0 0,0 0,0.01 0,0 0.01,0 0.01,0 0,0 0,0 0,0.01 0,0 0,0 0,0 0,0 0,0 0,0 0,0 0,0 0,0 0.01,0 0.01,0 0.01,0 0,0 0,0 0,0 0,0 -0.01,0 -0.01,-0.01 0,0 0,0 0,0 0,0 0,0 0,0 0,0 0,0 0,0 0,0 0,-0.01 0,-0.01 0,0 0,0 0,0 0,0 0,0 0,0l0 0 0 0c0,0 0,0 0,0 0,0 0,-0.01 0,-0.01 0,0 0,0 0,0 0,0 0,0 0,0l0 0 0 0zm0.03 0c0,0 0,0 0,0 0,0 0,0 0,0 0,0 0,0 0,0 0,0 0,0 0,0zm-0.03 0.02l0.01 0 0 -0.01 -0.01 0 0 0.01zm-0.03 0.04c0,0 0.01,0 0.01,0 0,0 0,0 0,0 0,0 0,0 0,0 0,0 -0.01,0 -0.01,0l0 0zm0.03 0.01c0,0 0,0 0,0 0,0 0,0 0,0.01 0.01,0 0.01,0 0.01,0 0,0 0,-0.01 0,-0.01 0,0 0,0 0,0 0,0 0,0 -0.01,0 0,0 0,0 0,0 0,0 0,0 0,0 0,0 0,0 0,0zm-0.02 0.01c0,0 0,0 0,0 0,0 0,0 0,0 -0.01,0 -0.01,0 -0.01,0 0,0 0,0 0,0l0 0c0,0 0,0 0.01,0 0,0 0,0 0,0l0 0.01 0 -0.01c0,0.01 0,0.01 0,0.01 0,0 0,0 0,0 0,0 0,0 0,0 0,0 0,0 0,0 0,0 0,0 0,0 0.01,0 0.01,0 0.01,0 0,0 0,0 0,0 0,-0.01 -0.01,-0.01 -0.01,-0.01l0 0 0 0zm0.06 0.02c0,0 0,0 0,0 0,0 0,0 0,0 0,-0.01 0,-0.01 0,-0.01 0.01,0 0.01,0 0.01,0 0,0 0,0 0,0 0,0 0,0 0,0 0,0 0,0 -0.01,0 0,0 0,0 0,0 0,0 0,0 0,0 0,0 0,0 0,0 -0.01,0 -0.01,0 -0.01,0 0,0 0,0 0,0.01 0,0 0.01,0 0.01,0 0,0 0,0 0,0l0 0c0,0 0,0.01 0,0.01 0,0 0,0 0,0l0 0 0 0c0,0 0,0 0,0 0,0 0,0 0.01,0 0,0 0,0.01 0,0 0,0 0,0 0,0 0,0 -0.01,0 -0.01,0 0,0 0,0 0,0l0 0c0,0 0,0 0,0 0,-0.01 0,-0.01 0,-0.01l0 0 0 0zm-0.04 0c0,0 0,0 0,0 0,0 0,0 0,0 0,0 0,-0.01 0,-0.01 0,0 -0.01,0 -0.01,0 0,0 0,0 0,0.01 0.01,0 0.01,0 0.01,0zm0.01 0c0,0 0,0.01 0.01,0.01 0,0 0,0 0,-0.01l0 0c0,0 0,0 0,0 -0.01,0 -0.01,0 -0.01,0zm0.02 0.01c0,0 0,0 0,0 0,0 0,0 0,0 0,0 0,0 0,0 0,0 0,0 0,0 0,0 0,0 0,0zm0.06 0.01c0,0 0,0 0,0 0,0 0.01,0 0.01,0 0,0 -0.01,0 -0.01,0 0,0 0,0 0,0 0,-0.01 0,-0.01 0,-0.01 0,0 0,0 0,0 0,0 0,0 0,0 0,0.01 0,0.01 0,0.01 0,0 0,0 0,0 0,0 0,0 0,0zm-0.09 0.01c0,0 0,-0.01 0.01,-0.01 0,0 0,0 0,0 0,0 0,0 -0.01,0 0,0 0,0 0,0 0,0 0,0 0,0 0,0 0,0 0,0 0,0 0,0 0,0.01 0,0 0,0 0,0zm0.02 0l0 0c0,0 0,0 0,0 0,-0.01 0,-0.01 0,-0.01 0,0 0,0.01 0,0.01 0,0 0,0 0,0zm-0.02 0.01c0,0 0,0 0,0 0,-0.01 0,-0.01 0,-0.01 0,0 0,0 0,0 0,0 -0.01,0 -0.01,-0.01 0,0.01 0,0.01 0,0.01 0,0.01 0,0.01 0.01,0.01zm0.04 -0.01l0 0c0,0 0,0 0,0 0,0 0,0 0,0 0,0 0,0 0,0 0,0 0,0 0,0l0 0 0 0zm-0.02 0.01c0,0 0,0 0,0 0.01,0 0.01,0 0.01,0 0,0 0,0 0,0 0,0 0,0 0,0 -0.01,0 -0.01,0 -0.01,0zm-0.04 0.02c0,0 0,0 0,0 0,0 0,0 0,0.01 0,0 0,0 0,0 0,0 0,0 0,0 0,0 0.01,0 0.01,0 0,0 0,-0.01 0,-0.01 0,0 0,0 0,0 0,0 0,-0.01 0,-0.01 0,0 -0.01,0.01 -0.01,0.01 0,0 0,0 0,0l0 0 0 0c0,0 0,0 0,0 -0.01,0 -0.01,0 -0.01,0 0,-0.01 0,-0.01 0,-0.01 0,0 0,0.01 0,0.01 0,0 0,0 0,0 0,0 0,0 0,0 0,0 0,0 0,0 0.01,0 0.01,0 0.01,0l0 0 0 0zm0.04 0.04c0,0 0,0 0,0 0,0 0,0 0,0 0,0 0,0 0,0 0,0 0,0 0.01,0l0 0 0 0 0 0c0,0 0,-0.01 0,-0.01 0,0 0,0 0,0 0,0 0,0 0,0 0,0 0,0 0,0 0,0 0.01,0 0.01,0 0,0 0,0 0,0 0,0 -0.01,-0.01 -0.01,-0.01 0,0 0,-0.01 0.01,-0.01l0 0 -0.01 0c0,-0.01 0,-0.01 0.01,-0.01 0,0 0,0 0,0 0,0 0,0 0,0 0,0 0,0 0,0 0,0 -0.01,0 -0.01,0 0,0 0,0 0,0 0,0 0,0 0,0 0,0 0,0 0,0.01l0 0 0 0 0 0c0,0 0,0 0,0 0,0 0,0 0,0 0,0 0,0 0,0.01 0,0 0,0 0,0 0,0 0,-0.01 0,-0.01 0,0 0,0 0,0 0,0 0,0 0,0 -0.01,0 -0.01,0 -0.01,0 0,0 0,0 0,0 0,0 0,0.01 0,0.01 0,-0.01 0,-0.01 -0.01,-0.01 0,0 0,0 0,0 0,0 0,0 0,0 0,0 -0.01,0 -0.01,0 0,0 0,0 0,0l0 0 0 0c0,0 0,0 -0.01,0 0,0 0,0 0,0.01 0,0 0,0 -0.01,0 0,0 0,0 0,0 0,0 0,0 0,0 0,0 0,0 0,0 0,0.01 0,0.01 0,0.01 0,0 0,0 0,0 0,0 0,0 0.01,0 0,0 0,0.01 0,0.01 0,0 0,0 0,0 0,0 0,0 0.01,0 0,0 0,0 0,0 0,0 0,0 0,0l0 0 0 0c0,0.01 0,0.01 0,0.01 0,0 0,0 0,0 0,0 0,0 0,0 0,0 0,0 0,0 0,0 0.01,0 0.01,0 0,0 0,0 0,0 0,0 0,0 0,0 0,0 0,-0.01 0,-0.01l0 0 0 0 0 0c0,0 0,0 0,0 0,0 0,0 0,0 0,0 0,0 0,0 0,0 0,0 0,0 0,0 0,0 0,0 0,0 0,0 0,-0.01 0,0 0,0 0,0 0,0 0,0 0,0 0,0 0,0 0,0 -0.01,0 -0.01,0 -0.01,0 0,0 -0.01,0 -0.01,0 0,0 0,0 0,0 0,0 0,0 0,0 0,0 -0.01,0 -0.01,-0.01 0,0 0.01,0 0.01,0 0,0 0,0 0,0 0.01,0 0.01,0 0.01,0 0,0 0,0 0,-0.01l0 0 0 0c0.01,0 0.01,0 0.01,0 0,0.01 0,0.01 0,0.01 0,0 0,0 0,0 0,0 0.01,0.01 0.01,0.01 0,0 0,0 0,0 0,0 0,0 0,0 0,0 0,0 0,-0.01 0,0 0,0 0,0 0,0.01 0,0.01 0,0.01 0,0 0,0 0,0.01l0 0 0 0zm-0.01 0.02c0,0 0,0 0,0 0,0 0,0 0,0 0,0 0,0 0,0 0.01,0 0.01,0 0.01,0 0,0 0,0 0,0 0,0 0,0 0,0 0.01,0 0.01,0 0.01,0 0,0 0,0 0,0 0,0 0,0 -0.01,0 0,0 0,0 0,0 0,0 0,0 0,0 -0.01,0 -0.01,0 -0.01,0l0 0 0 0c0,0 0,0 -0.01,0 0,0 0,0 0,0 0,0 0,0 0,0 0,0 -0.01,0 -0.01,0 0.01,0 0.01,0 0.01,0 0,0 0,0 0,0 0,0 0,0 0,0 0.01,0 0.01,0 0.01,0l0 0 0 0zm0.03 0c0,0 0,0 0,0 0,0 0,0 0,0 0,0 0,0 0,0 0,0 0,0 -0.01,0 0,0 0,0 0,0 0,0 0,0 0.01,0zm-0.06 0.01c0,-0.01 0,-0.01 0,-0.01 -0.01,0.01 -0.01,0.01 -0.01,0.01 0.01,0 0.01,0 0.01,0 0,0 0,0 0,0zm0.18 0.01c0,0 0,0 0,0 0,0 0,0 0,0 0,0 0,0 0.01,0 0,0 0,0 0,0 0,0 0,0 0,0 0,-0.01 0,-0.01 0,-0.01 0,0 0,0 0,0 0,0 0,0 0,0 -0.01,0 -0.01,0 -0.01,0 -0.01,0 -0.01,0 -0.01,0 0,0 0,0 0,0 0,0.01 0,0.01 0.01,0.01zm-0.11 0.01c0,-0.01 0,-0.01 0,-0.01 0,0 0,0 0,0 0,0 0,0 0,0 0,0 0,0 0,0 0,0 0,0 0,-0.01 0,0 0,0 0,0 0,0 0,0.01 0,0.01 0,0 0,0 0,0 0,0 0,0 0,0 0,0 0,0 0,0.01zm0.06 0c0,-0.01 0,-0.01 -0.01,-0.01 0,0 0,0 0,0 0,0 0,0 0,0 0,-0.01 0,-0.01 0,-0.01 0,0.01 0,0.01 0,0.01 0,0 0,0 0,0 0,0 0,0 0,0l0 0c0,0 0,0 0,0 0,0 0,0 -0.01,0l0 0.01 0 0 0 0c0,0 0,0 0,0.01 0,0 0,-0.01 0,-0.01 0.01,0 0.01,0 0.01,0l0 0 0 0c0,0 0,0 0,0 0,0 0,0 0,0l0 -0.01 0 0.01 0 -0.01c0,0 0,0 0,0.01 0,0 0.01,0 0.01,0zm0.03 0c0,-0.01 0,-0.01 -0.01,-0.01 0,0 0,0 0,0 0,0 0,0 0,0 0,0 0,0 0,-0.01 0,0 -0.01,0.01 -0.01,0.01 0,0 0,0 0,0.01 0,0 0,0 0,0 0,0 0,0 0,-0.01 0,0 0,0 0.01,0l0 0c0,0 0,0 0,0 0,0.01 0,0.01 0.01,0.01zm0 -0.01c0,0 0,0 0,0 0,0 0.01,0 0.01,0 0,0 0,0 0,-0.01 -0.01,0 -0.01,0 -0.01,0 0,0 0,0.01 0,0.01 0,0 0,0 0,0zm-0.14 0c0,0 0,0 0.01,0 0,0 0,0 0,0 0,0 0.01,0 0.01,0 0,0 0,0 0,0 0,0 0,0 0,0 -0.01,0 -0.01,0 -0.01,0 0,0 0,0 0,0 -0.01,0 -0.01,0 -0.01,0zm0.06 0c0,0 0,0 0,0 0.01,0 0.01,0 0.01,0 0,0 0,0 0,0 0,0 -0.01,0 -0.01,0 0,0 0,0 0,0 0,0 0,0 0,0 0,0 0,0 0,0 0,0 0,0 0,0zm0.02 0c0,0 0,0 0,0 0,0 0,0 0,0.01l0 -0.01c0,0 0,0 0,0zm-0.04 0.01c0,0 0,0 0,0 0,0 0,-0.01 0,-0.01 -0.01,0 -0.01,0 -0.01,0 0,0 0,0 0,0 0,0 0,0 0,0 0,0 0,0 0,0.01 0,0 0,0 0.01,0 0,0 0,0 0,0zm-0.06 -0.01l0 0 0 0 0 0 0 0zm0.09 0.01l0 0 0 0 0 0 0 0zm0.1 0c0,0 0.01,0 0.01,0 0,0 0,0 0,0 -0.01,0 -0.01,0 -0.01,0zm0.02 0.01c0,0 0,0 0,0 0,0 0,-0.01 0.01,-0.01 0,0 0,0 0,0 0,0 0,0 0,0 0,0 0,0 -0.01,0 0,0 0,0 0,0 0,0 0,0 0,0 0,0 0,0 0,0.01zm-0.2 -0.01c0,0 0,0 0,0 0,0 0,0 0,0 0,0 0,0 0,0 0,0 0,0 0,0 0,0 0,0 0,0 0,0 0,0 0,0 0,0 0,0.01 0,0.01 0,0 0,0 0,-0.01zm0.02 0.01c0,0 0,0 0,0 0,0 0,0 0,0 0,0 0,-0.01 0,-0.01 0,0 0,0 0,0 0,0 0,0 0,0 0,0 0,0 0,0l0 0.01zm0.05 0c0,0 0,0 0,0 0,0 0,-0.01 0,-0.01 0,0 0,0 0,0 0,0 0,0 0,0 0,0 0,0.01 0,0.01 0,0 0,0 0,0 0,0 0,0 0,0 0,0 0,0 0,0zm-0.03 0.01c0,0 0,0 0,0 0,0 0,0 0,0 0.01,0 0.01,0 0.01,0 0,0 0,0 0,0 0,0 0.01,0 0.01,0 0,0 0,0 0,0 0,0 0,0 0,0 -0.01,0 -0.01,0 -0.01,0 0,0 0,0 0,0 0,0 -0.01,0 -0.01,0zm0.08 0.01l0.01 0c0,0 0,0 -0.01,0l0 0zm0.07 -0.31c0,0 0,0 0,0 0,0 0,0 0,0l0 0zm-0.03 0c0,0 0,0 0,0 0,0 0,0 0,0l0 0zm-0.01 0.01c0,0 0,0 0,0 0,0 0,0 0,-0.01l0 0.01zm-0.14 0.02c0,0 0,0 0,0 0,0 0,0 0,0l0 0zm0 0.01l0 0 0 0zm-0.02 0.08c0,-0.01 0,-0.01 0,-0.01 0,0 0,0 0,0l0 0.01zm0.06 0.01c0,0 0,0 0,0 0,0 0,0 0,0l0 0zm0 0.01c0,0 0,0 0,0 0,0 0,0 0,0l0 0zm-0.06 0.05c0,0 0,0 0,0l0 0zm0.02 0.01c0,0 0,0 0,0 0,0 0,0 0,0l0 0zm0.03 0.01c-0.01,0 -0.01,0 0,0l0 0zm0 -0.01c0.01,0 0.01,0 0.01,0 0,0 0,0 0,0l-0.01 0zm-0.03 0.03c0,0 0,0 0,-0.01 -0.01,0 -0.01,0 -0.01,0.01l0.01 0zm0.01 0.02c0,0 0,0 0,0 0,0 0,0 0,0l0 0zm0.09 0.02c0,0 0,0 0,0 0,0 0,0 0,0.01l0 -0.01zm-0.01 0.01c0,0 0,0 0.01,0 0,0 0,0 0,0l-0.01 0z"/>
   <path class="fil0" d="M1.96 2.3l0.01 0c0,0 0,0.01 0,0.01 0,0 0,0 0,0 0,0 0,0 0,0 0,0 0,0 0,0 -0.01,0 -0.01,0 -0.01,0 0,0 0,0 0,-0.01zm0.2 -0.02c0,0.02 0.01,0.04 0.02,0.05 0.01,0.02 0.02,0.04 0.03,0.05 0,0.01 0,0.01 0,0.01 0,0 0.01,0.01 0.01,0.01 0,0 0,0.01 0,0.01 0,0 0,0 0,0.01 0,0 0,0 -0.01,0 0,0 0,0.01 -0.01,0.01 0,0 -0.01,0 -0.01,0 -0.01,-0.01 -0.01,-0.01 -0.02,-0.01 0,0 0,0 -0.01,0.01 0,0 -0.01,0 -0.01,0 -0.01,0 -0.01,0 -0.02,0 0,0 0,-0.01 -0.01,-0.01 0,0 0,0 0,0 0,0 0,-0.01 -0.01,-0.01 0,0 0,0 0,-0.01 0,0 0,0 0,0 -0.01,-0.01 -0.01,-0.02 -0.02,-0.03 0,0 0,-0.01 -0.01,-0.02 0,-0.01 -0.01,-0.02 -0.01,-0.02 0,-0.01 -0.01,-0.02 -0.01,-0.02l-0.04 0 0 0.06c0,0 0,0.01 0,0.01 0,0.01 0,0.01 0,0.02 0,0 0,0.01 0,0.01 0,0 0,0.01 0,0.01 -0.01,0 -0.01,0 -0.02,0 -0.01,0 -0.01,0.01 -0.02,0.01 -0.01,0 -0.02,0 -0.02,-0.01 -0.01,0 -0.02,0 -0.02,0 0,0 0,0 0,0 0,0 0,0 0,0 -0.01,0 -0.01,0 -0.01,0 0,0 0,0 0,0 0,0 0,0 -0.01,-0.01 0,0 0,-0.01 0,-0.01 0,0 0,-0.01 0,-0.01 0,0 0,-0.01 0,-0.01l0 -0.28c0,0 0,0 0,-0.01 0,0 0,0 0,-0.01 0,0 0,0 0.01,-0.01 0,0 0,0 0,0 0.01,0 0.03,0 0.04,-0.01 0.02,0 0.03,0 0.05,0 0.01,0 0.03,0 0.04,0 0.02,0 0.03,0 0.04,0 0.02,0 0.03,0.01 0.05,0.02 0.01,0 0.02,0.01 0.03,0.02 0.01,0.01 0.02,0.02 0.03,0.04 0,0.01 0,0.03 0,0.04 0,0.01 0,0.03 0,0.04 0,0.01 -0.01,0.01 -0.01,0.02 -0.01,0.01 -0.01,0.02 -0.02,0.02 -0.01,0.01 -0.02,0.02 -0.02,0.02zm-0.17 -0.19c0,0 0.01,0 0.01,0 0,0 0,0 0,0 0,0 0,0 0,0 0,0 0,0 -0.01,0 0.01,0 0,0 0,0 0,0 0,0 0,0zm0.02 0.01c0,0 0,0 0,0 0,-0.01 0,-0.01 0,-0.01 0,0 0,0 0,0 0,0 0,0 0,0 0,0 0,0 0,0 0,0 0,0 0,0 0,0 0,0.01 0,0.01 0,0 0,0 0,0zm0.12 0.01c0,0 0,0 0,0.01 0,0 0,0 0,0 0,0 0,-0.01 0,-0.01 0,0 0,0 0,0zm0.01 0l0 0c0,0 0,0 0,0l0 0zm-0.19 0.01c0,0 0,0 0,0 0,0 0,0 0,0 0,0 0,0 0,0 0,0 0,0 0,0zm0.01 0.01l0 0c0,0 0,0 0,0l0 0zm0.02 0.01l0 0c0,0 0,0 0,0 0,0 0,0 0,0 0,0 0,0 0,0 0,0 0,0 0,0zm0.11 0.08c0.01,0 0.02,-0.01 0.02,-0.02 0,0 0,-0.01 0,-0.02 0,-0.01 0,-0.01 -0.01,-0.02 0,-0.01 -0.01,-0.01 -0.01,-0.02 -0.01,0 -0.01,0 -0.02,0 0,0 -0.01,0 -0.01,0 -0.01,0 -0.01,0 -0.02,0 0,0 -0.01,0 -0.02,0 0,0.01 0,0.01 0,0.02 0,0.01 0,0.02 0,0.02 0,0.01 0,0.02 0,0.02 0,0.01 0,0.02 0,0.02 0.01,0 0.02,0 0.02,0 0.01,0 0.02,0.01 0.02,0.01 0.01,0 0.01,-0.01 0.02,-0.01 0.01,0 0.01,0 0.01,0zm0.06 -0.08c0,0.01 0,0.01 0,0.01 0,0 0,0 0,0 0,0 0,0 0,0 0.01,0 0.01,0 0.01,0 0,0 0,0 -0.01,0 0,0 0,0 0,0 0,-0.01 0.01,-0.01 0.01,-0.01 0,0 0,0 0,0 0,0 -0.01,0 -0.01,0 0,0 0,0 0,0 0,0 0,0 0,0 0,0 0,0 0,0zm0.01 0.02c0,0 0,-0.01 0,-0.01 0,0 0,0 0,0 0,0 0,0 0,0l0 0.01 0 0 0 0c0,0 0,0 -0.01,0 0,0 0,0 0,0 0,0 0,0 0,0 -0.01,0.01 -0.01,0.01 -0.01,0.01 0,0 0,0 0,0 0,0 0.01,0.01 0.01,0.01 0,0 0,0 0,0 0.01,0 0.01,0 0.01,-0.01 0,0 0,0 0,0 0,0 0,0 0,0 -0.01,0 -0.01,0 -0.01,0 0,0 0,0 0,0 0.01,0 0.01,0 0.01,0 0,0 0,0 0,-0.01 0,0 0,0 0,0 0,0 0,0 0,0l0 0 0 0zm-0.2 0.01c0,0 0,0 0,-0.01 0,0 0,0 0,0 0,0 0,0 0,0 0,0 0,0 0,0 -0.01,0 -0.01,0 0,0.01zm0.17 0c0,0 0,0 0,0 0,-0.01 0,-0.01 0,-0.01 0,0 0.01,0 0.01,0 0,0 -0.01,0 -0.01,0 0,0 0,0 0,0 0,0 0,0 0,0 0,0 0,0 0,0 0,0.01 0,0.01 0,0.01zm0.04 0.01l0.01 0c0,0 0,0 0,0 0,0 0,0 0,0 0,0 0,0 0,0 0,0 0,0 -0.01,0l0 0zm-0.2 0.01c0,0 0,0 0,0 0,0 0,0 0,0 0,0 0,0 0,0 0,0 0,0 0,0l0 0 0 0c0,0 0.01,0 0.01,0 0,0 0,0 0,0 0,0 0,0 0,0 -0.01,0 -0.01,0 -0.01,0l0 0 0 0zm0.17 0.01c0,0 0,0 0,0 0,0 0,0 0,-0.01 0,0 0,0 0,0 0,0 0,0 0,0 0,0 0,0 0,0 0,0 0,0 0,0.01 0,0 0,0 0,0 0,0 0,0 0,0zm-0.19 0.01c0,0 0,0 0,0 0,0 0,0 0,0 0,0 0,0 0,0 0,-0.01 0,-0.01 0,-0.01 0,0.01 0,0.01 0,0.01zm0.17 0.03c0,0 0,0 0,0.01 0,0 0,0 0,0 0,0 0,0 0,0 0,0 0,0 0,0 0,0 0,0 0,-0.01 0,0 0,0 0,0 0,0 0,0 0,0 0,0 0,0 0,0 0,0 0,0 0,0 0,0 0,0 0,0 0.01,0 0.01,0 0.01,0 0,0 0,0 0,0 0,0 0,0.01 0,0.01 0,0 0,0 0,0 0,0 0,0 0,0 0,0 0,0 0,0 0,0 0,0 0.01,0 0,0 0,0 0,0 0,0 0,0 0,0 0,0 0,0 0.01,0 0,0 0,-0.01 0,-0.01 0,0 0,0 0,0 0,0 0,0 0.01,0 0,0 0,0 0,0 0,0 0,0 0.01,0 0,0 0,0 -0.01,-0.01 0,0.01 0,0.01 0,0.01 0,0 0,0 0,0 0,0 -0.01,-0.01 -0.01,-0.01 0,0 -0.01,0 -0.01,0 0,0 0,0 0,0 0,0.01 0,0.01 0,0.01 0,0 0,0 0,0 0,0 -0.01,0 -0.01,0 0,0 0,0 0,-0.01 0,0 0,0 0,0 0,0 0,-0.01 0,-0.01 0,0 0,0 0,0 0,0 0.01,0 0.01,0 0,0 0,-0.01 0,-0.01l-0.01 0c0,0 0,0.01 0,0.01 0,0 0,0 0,0 0,0.01 -0.01,0.01 -0.01,0.01 0,0 0,0 0,0.01l0 -0.01 0 0.01c0,-0.01 -0.01,-0.01 -0.01,-0.01 0,0 0,0 0,0.01 0,0 0,0 0,0 0,0 0,0 0,0 0,0 0,0 0,0 0,0 0,0 0,0 0,0 0,0 0.01,0 0,0 0,0 0,0l0 0zm-0.14 -0.02c0.01,0 0.01,0 0.01,0 0,0 0.01,0 0.01,0 0,0 0,0 0,0 -0.01,0 -0.01,-0.01 -0.01,-0.01 0,0 0,0 0,0.01 -0.01,0 -0.01,0 -0.01,0zm0.18 0c0,0 0,0 0,0 0,0 0,0 0,0 0,0.01 0,0.01 0,0.01 0,0 0,0 0,-0.01zm0.02 0.02c0,0 0,0 0,-0.01 0,0 0,0 0,0 0,0 0,0 0,0 0,0 0,0 0,0 0,0 0,0 0,0 0,0 0,0 -0.01,0 0,0 0,0 0,0 0,0.01 0.01,0.01 0.01,0.01zm-0.24 -0.01l0 0 0 0 0 0 0 0zm0.03 0.01c0,0 0,0 0,0 0,0 0,0 0,0 0,-0.01 0,-0.01 0,-0.01 0,0 0,0 -0.01,0 0,0.01 0.01,0.01 0.01,0.01zm0.03 0c0,0 0,0 0,0 0,0 0,0 0,0 0,0 0,0 0,0 0,0 0,0 0,0 0,0 0,0 0,0 0,0 0,0 0,0zm-0.01 0.02c0,0 0,0 0,0 0,0 0,0 0.01,0 0,0 0,0 0,0 0,-0.01 0,-0.01 0,-0.01 0,0 0,0 0,0 0,0 0,0 -0.01,0 0,0 0,0 0,0 0,0 0,0 0,0.01zm0.16 0c0,0 0,0 0,0 0.01,0 0.01,-0.01 0.01,-0.01 0,0 0,0 0,0 0,0 0,0 0,0 0,0 -0.01,0 -0.01,0 0,0 0,0 0,0 0,0 0,0 0,0 0,0 0,0 0,0.01zm-0.08 -0.01l0 0c0,0 0,0 0,0 0,0 0,0 0,0 0,0 0,0 0,0 0,0 0,0 0,0 0,0 0,0 0,0 0,0 0,0 0,0zm0.02 0.01l0.01 0c0,0 0,0 0,-0.01 0,0 0,0 0,0l0 0c0,0 0,0 0,0 -0.01,0 -0.01,0.01 -0.01,0.01zm-0.15 0c0,0 0,0 0,0 0,0 0,0 0,0 0.01,0 0.01,0 0.01,0 0,0 0,0 0,0 0,0 0,0 0,0 0,0 0,0 0,0 0,0 0,0 0,0 0,0 0,0 -0.01,0 0,0 0,0 0,0 0,0 0,0 0,0 0,0 0,0 0,0 0,0 0,0 0,0zm0.09 0l0.01 0 0 0c0,0 0,0 0,0 0,0 0,0 0,0 -0.01,0 -0.01,0 -0.01,0 0,0 0,0 0,0zm0.11 0c0.01,0 0.01,0 0.01,0 -0.01,0 -0.01,0 -0.01,0 0,0 0,0 0,0 0,0 0,0 0,0zm-0.16 0.01c0.01,0 0.01,0 0,-0.01 0,0 0,0 0,0 0,0 0,0 0,0 0,0 0,0.01 0,0.01 0,0 0,0 0,0 0,0 0,0 0,0zm-0.01 0c0,0 0,0 0,0 0,0 0,-0.01 0,-0.01 0,0.01 0,0.01 0,0.01 0,0 0,0 0,0l0 0 0 0c0,0 0,0 0,0 0,0 0,0 0,0 0,0 0,0 0.01,0 0,0 0,0 0,0 -0.01,0 -0.01,0 -0.01,0 0,0 0,0 0,0l0 0zm0.09 0.01c0,0 0,0 0,0 0,0 0,0 0,-0.01 0,0 0,0 0,0 0,0 0,0 0,0 0,0 0,0 0,0 0,0 0,0 0,0.01 -0.01,0 -0.01,0 0,0 0,0 0,0 0,0zm-0.04 -0.01c0,0 0,0 0,0 0,0 0,0 0,0 0,0 0,0 0,0l0 0.01 0 0c0,0 0,0 0,0 0,0 0,0 0,0 0,0 0,0 0,0 0,0 0,0 0.01,0 -0.01,0 -0.01,0 -0.01,0 0,0 0,0 0,0 0,0 0,0 0,0l0 -0.01zm0.09 0l0 0c0,0 0,0 0,0 0,0 0,0 0,0 0,0 0,0 0,0 0,0 0,0 0,0 0,0 0,0 0,0zm-0.15 0.01c0,0 0,0 0,-0.01 0,0 0,0 0,0l0 0c0,0 0,0 0,0 0,0 0,0 0,0.01zm0.13 0c0,0 0,0 0,0 0,0 0,0 0.01,0 0,0 0,0 0,0 0,0 0,0 0,0 0,0 0,0 0,0 0,0 0,0 -0.01,0 0,0 0,0 0,0 0,-0.01 0,-0.01 0,-0.01 0,0 0,0.01 0,0.01 0,0 0,0 0,0zm-0.12 0.06c0,0 0,0 0,0 0,-0.01 0,-0.01 0,-0.01 0,0 0,0 0,0 0,-0.01 0,-0.01 0,-0.01 0,0 0,0 0,0 -0.01,0 -0.01,0 -0.01,0 0,0 0,0 0,0 -0.01,0 -0.01,0 -0.01,0 0,0 0,-0.01 0,-0.01 0.01,0 0.01,0 0.01,0 0,0 0,0 0.01,0 0,0 0,0 0,0 0,0 0,0 0,0 0,0 0,-0.01 0,-0.01 0,0 0,0 0,0 0,0 0,-0.01 0,-0.01 -0.01,0 -0.01,0 -0.01,0 0,0 0,0 -0.01,0 0.01,0 0.01,-0.01 0.01,-0.01 0,0 0,0 0,0 0,0 0,0 0,0 0,0 0,0 0,0 -0.01,0 -0.01,0 -0.01,0 0,0 0,0 0,0.01 0,0 0,0 -0.01,0 0,0 0,0.01 0,0.01 0,0 0,0 0.01,0 0,0 0,-0.01 0,-0.01 0,0 0,0 0,0 0,0 0,0 0,0 0,0 0,0 0.01,0.01 0,0 0,0 0,0 0,0 0,0 0,0 0,0 0,0 0,0 0,0 0,0 0,0 0,0.01 0,0.01 0,0.01 0,0 0,0 0,0 0,0 -0.01,0 -0.01,0 0,0 0,0 0,0 0,0 0,0 0,0 0,0 0,0 0,0 0,0 0,0 0,0 0,0 0,0 0,0 0,0 0,0 0,0 0,0 0,0.01 0,0.01 0,0 0,0 0,0 0,0 0,0 0,0 0,0 0,0 0,0 0.01,0 0.01,0 0.01,0 0,0 0,0.01 0,0.01 0,0 0,0 0,0 0,0 0,0 0,0.01 -0.01,0 -0.01,0 -0.01,0 0,0 0,0 0,0 0,0 0,0 0,0 0,0 0,0 0,0.01 -0.01,0 -0.01,0 -0.01,0 0,0 0,0 0,0 0.01,0 0.01,0 0.01,0 0,0 0,0 0,0 0,0 0,0 0,0 0,0 0,0 0,0 0.01,0 0.01,0 0.01,0 0,0 0,0 0,0 0,0 0,0 0,0 -0.01,0.01 -0.01,0.01 -0.01,0.01 0,0 0,0 0,0 0,0 0.01,0 0.01,0 0,0 0,0 -0.01,0.01 0,0 0,0 0,0 0,0 0,0 0,0 0,0 0,0 0,0l0 0 0 0 0 0 0 0.01c0,0 0,0 0,0 0,-0.01 0,-0.01 0,-0.01l0 0 0 0c0,0 0,0 0.01,0 0,0 0,0 0,0 0,0 0,0 0,0 0,0 0,0.01 0,0.01 0,-0.01 0,-0.01 0,-0.01 0,-0.01 0,-0.01 0.01,-0.01 0,0 0,0 0,-0.01 -0.01,0 -0.01,0 -0.01,0 0,0 0,0 0,0 0,-0.01 0,-0.01 0,-0.01 0,0 0,0 0,0 0,0 0,0 0,0 0,0 0.01,0 0.01,0 0,0 0,0 0,0l0 0 0 0 0 0.01c0,0 0,0 0,0 0,0 0,0 0,0 0,0 0,-0.01 0,-0.01 0,0 0,0 0,0l0 0 0 0zm0.02 -0.06c0,0 0,0 0,0 0,0 0,0 0,0 0,0 0,0 0,0 0,0 0,0 0,0l0 0zm0.08 0.01c0,-0.01 0,-0.01 0,-0.01 0,0 0,0 0,0 0,0 0,0 0,0 0,0.01 0,0.01 0,0.01 0,0 0,0 0,0zm0.04 0c0,0 0,0 0,0 0,0 0,-0.01 0,-0.01l0 0c0,0 0,0 0,0 0,0 0,0.01 0,0.01zm-0.12 0c0,0 0.01,0 0.01,0 0,0 0,0 0,0 0,0 0,0 0,0 0,0 0,0 0,0 -0.01,0 -0.01,0 -0.01,0 0,0 0,0 0,0 0,0 0,0 0,0l0 0.01c0,0 0,0 0,0l0 0c0,0 0,0 0,0 0,0 0,0 0,0 0,0 0,-0.01 0,-0.01l0 0 0 0zm-0.01 0.01c0,0 0,0 0,0 0,0 0,0 0,0 0,0 0,-0.01 0,-0.01 0,0 0,0 0,0 0,0 0,0 0,0.01 0,0 0,0 0,0zm0.09 0c0,0 0.01,0 0.01,0 0,0 0,0 0,0 0,0 0,0 0,0 0,0 0,0 0,0 0,0 0,0 0,0 0,0 0,0 0,0 0,0 -0.01,0 -0.01,0 0,0 0,0 0,0zm0.03 0l0.01 0c0,0 0,0 -0.01,0l0 0zm0 0.01c0,0 0,0 0,0.01 0,0 0,0 0,0 0.01,0 0.01,-0.01 0.01,-0.01 0,0 0,0 0,0 0,0 0,0 0,0 0,0 0,0 0,0 0,0 0,0 0,0 0,0 0,0 0,0 0,0 0,0 0,0 -0.01,0 -0.01,0 -0.01,0 0,0 0,0 0,0 0,0 0,0 0,0zm0.03 0c0,0 0,0 0,0 0,0 0.01,0 0.01,0 0,0 0,0 -0.01,0 0,0 0,0 0,0 0,0 0,0 0,0 0,0 0,0 0,0 0,0 0,0 0,0zm-0.14 0.01l0 -0.01 0 0c0,0 0,0.01 0,0.01zm-0.01 0c0,0 0,0 0,0 0,0 0,0 0,0l0 0c0,0 0,0 0,0 0,0 0,0 0,0l0 0zm0.15 0.01c0,0 0,0 0,0 0,0 0,0 0,0 0,0 0,0 0,0 0,0 0,0 0,0 0,0 0,0 0,0 0,0 0,0 0.01,0 0,0 0,-0.01 0,-0.01 0,0 0,0 0,0 0,0 0,0 -0.01,0 0,0 0,0.01 0,0.01zm0.01 0c0.01,0 0.01,0 0.01,0 0,0 0,0 0,0l0 0c0,0 0,0 -0.01,0 0,0 0,0 0,0zm-0.03 0.01c0,0 0,0 0,0 0,0 0,0 0,0 0,0 0,0 0,0 0,0 0,-0.01 0,-0.01 0,0 0,0 0,0 0,0 0,0 0,0 0,0 0,0 0,0 0,0 0,0 0,0.01zm-0.12 0c0,0 0,0 0,0 0,0 0,0 0,-0.01 -0.01,0 -0.01,0 -0.01,0 0,0 0,0 0,0 0,0.01 0,0.01 0,0.01 0,0 0,0 0,0 0,0 0,0 0,0l0 0 0 0c0,0 0,0.01 0,0.01 0,0 0,0 0,0 0,0 0,0 0,0 0,0 0,0 0,0 0,0 0,0 0,0 0.01,0 0.01,0 0.01,0 0,0 0,0 0,0 0,0 -0.01,-0.01 -0.01,-0.01l0 0 0 0 0 0 0.01 0zm0 0.01c0,0 0.01,0 0.01,0 0,0 0,0 0,0 0,0 0,-0.01 0,-0.01 0,0 0,0 0,0l0 0c0,0 0,0 0,0 0,0 -0.01,0 -0.01,0.01zm0.12 0c0,0 0,0.01 0,0.01 0,0 0,0 0.01,0 0,0 0,0 0,0 0,0 0,0 0,0 0,0 0,0 0,0 0,0 0,0 0,0 0,0 0,0 0,0 0,0 0,0 0,-0.01 0,0 0,0 0,0 0,0 0,0 0,0 -0.01,0 -0.01,0 -0.01,0 0,0 0,0 0,0zm0.06 0l0 0 0 0 0 0 0 0zm-0.17 0.02c0,0 0,0 0,0 0,0 0,0 0,0 0,0 0,0 0,0 0,0 0.01,0 0.01,0 0,0 0,-0.01 0,-0.01 0,0 0,0 0,0 0,0 0,0 0,0 0,0 0,0 -0.01,0 0,0 0,0 0,0 0,0 0,0 0,0 0,0 0,0 0,0.01 0,0 0,0 0,0zm0.14 -0.01c0,0 0,0 0,0 0,0 0,0 0,0 0,0 0,0 0,0 0,0.01 0,0 0,0zm0.03 0.02c0,0 0.01,0 0.01,0 0,0 0,0 0,0 0,0 0,0 0,0 0,0 0,0 0,0 0,0 0,0 0,0 0,0 0,0 0,-0.01 0,0 0,0 0,0 0,0 0,0 0,0 0,0 0,0 0,0 -0.01,0.01 -0.01,0.01 -0.01,0.01l0 0 0 0c0,0 0,0 0,0 0,0.01 -0.01,0 -0.01,0 0,0.01 0,0.01 0,0.01 0,0 -0.01,0 -0.01,0 0,0 0,0 0,0 0,0 0,0 0,0 0,0 0,0 0,-0.01 0,0 0,0 0,0 0,0 0,0 0,0 0,0 0,0 0,0 0,0 0,0 0,0 0,0 0,0 0,0 0,0 0,0 -0.01,0 0,0 0,0 0,0 0,0 0,0 0,0 0,0.01 0,0.01 0,0.01 0,0 0,0 0,0 0,0 0,0 0,0.01 0,0 0,0 0,0 0,0 0,0 0.01,0 0,0 0,0 0,0 0,0 0,0 0,0 0,0 0,0 0,0 0,-0.01 0,-0.01 0,-0.01 0,0 0,0 0,0 0,0 0,0.01 0,0.01 0.01,0 0.01,0 0.01,0 0,0 0,0 0,0 0,0 0,0 0,-0.01 0,0 0,0 0,0 0,0 0,0 0,0 0,0 0,0 0,0 0,0 0,0 0.01,0 0,0 0,0 0,0 0,0 0,0 0,0 0,0 0,0 0,0 0,0 0,0 0,-0.01l0 0 0 0zm-0.04 0c0.01,-0.01 0,-0.01 0,-0.01 0,0 0,0.01 0,0.01zm-0.16 0c0.01,0 0,-0.01 0,-0.01 0,0.01 0,0.01 0,0.01zm0.02 0.02c0,-0.01 0,-0.01 0,-0.01 0,0 0.01,0 0.01,-0.01 0,0 0,0 -0.01,0 0,0 0,0 0,0 0,0 0,0 0,0 0,0 0,0.01 0,0.01 0,0 0,0 0,0 0,0 0,0.01 0,0.01zm-0.04 -0.01c0,0 -0.01,0.01 -0.01,0.01 0,0 0,0 0,0 0,0 0,0 0.01,0 0,0 0,0 0,0 0,0 0,0 0,0 0,0 0.01,0 0.01,0 0,0 0,0 0,0 0,0 0.01,0 0.01,0 0,0 0,0 0,0l0 0 0 0c0,0 0,0 0,-0.01 0,0 0,0 0,0 0,0 0,0 0,0 0,0 0,0 0,0 0,0 0,0 0,0 0,0 0,0 0,0l0 0 0 0c0,0 0,0 0,0 0,0 -0.01,0 -0.01,0 0,0 0,0 0,0 0,0 0,-0.01 0,-0.01 0,0.01 0,0.01 0,0.01 0,-0.01 -0.01,-0.01 -0.01,-0.01 0,0 0,0 0,0.01 0,0 0,0 0,0l-0.01 0 0.01 0zm0.23 0.01c0,0.01 0,0.01 0,0.01 0.01,0 0.01,0 0.01,0 0,0 0,0 0.01,-0.01 0,0 0,0 0,0 0,0 -0.01,0 -0.01,0 0,-0.01 0,-0.01 0,-0.01 0,0 0,0 0,0 -0.01,0 -0.01,0 -0.01,0 0,0 0,0 0,0.01 0,0 0,0 0,0l0 0 -0.01 0c0,0 0,0 0,0 0,0 0,0 0,0 0,0 0,0 0,0 0,0 0,0.01 0,0.01 0,0 0,0 0,0 0,0 0.01,-0.01 0.01,-0.01l0 0 0 0zm-0.18 0c0,0 0,0 0,0 0,0 0,0 0,0 0,0 0,0.01 0,0.01 0,0 0,0 0,0 0,-0.01 0,-0.01 0,-0.01 0,0 0,0 0,0 0,0 0,0 0.01,0 0,0 0,0 0,-0.01 -0.01,0 -0.01,0 -0.01,0 0,0 0,0 0,0 0,0 0,0 0,0 0,0 0,0 0,0 0,0 0,0 0,0.01zm0.12 0l0.01 0 0 0 -0.01 0 0 0zm-0.13 0.01l-0.01 0c0,0 0,0.01 0,0.01 0,0 0,0 0.01,0 0,0 0,0 0,0 0,-0.01 0,-0.01 0,-0.01zm0.17 -0.25c0,0 0,0 0,0 0,0 0,0 0,0l0 0zm-0.19 0.03c0,0 0,0 0,0 0,0 0,0 0,0l0 0zm0.15 0.05l0 -0.01 0 0.01zm-0.15 0.03c0,0 0,0 0,0 0,0 0,0 0,0l0 0zm0.05 0.01c0,0 0,0 0,0l0 0zm-0.05 0.06c0,0 0,0 0,0 0,0 0,0 0,0l0 0zm0.02 -0.05c0,0 0,0 0,0l0 0zm-0.01 0.05c0,0 0,0 0,0l0 0zm-0.03 0.03c0,0 0,0 0,0 0,0 0,0 0,0l0 0zm0.22 0.01c0,0 0,0 0,0 0,0 0,0 0,0l0 0zm-0.2 0.02c0,0 0,0 0,-0.01 0,0 0,0 0,0l0 0.01zm-0.03 -0.01c0.01,0 0.01,0 0.01,0 0,0 0,0 0,0 0,0 0,0 0,0l-0.01 0zm0.24 0.01c0,0 0,0 0,0 0,0 0,0 0,0l0 0z"/>
  </g>
  <path class="fil9" d="M2.28 1.15l-0.35 0c-0.01,0 -0.01,0 -0.01,0.01l0 0c0,0 0,0.01 0.01,0.01l0.35 0c0.01,0 0.01,-0.01 0.01,-0.01l0 0c0,-0.01 0,-0.01 -0.01,-0.01zm-1.79 0l-0.35 0c-0.01,0 -0.01,0 -0.01,0.01l0 0c0,0 0,0.01 0.01,0.01l0.35 0c0.01,0 0.02,-0.01 0.02,-0.01l0 0c0,-0.01 -0.01,-0.01 -0.02,-0.01zm0.03 -0.08c0,0 -0.01,0 -0.01,0l-0.5 -0.23c-0.01,-0.01 -0.01,-0.01 -0.01,-0.02 0,-0.01 0.01,-0.01 0.02,-0.01l0.51 0.23c0,0.01 0.01,0.02 0,0.02 0,0.01 -0.01,0.01 -0.01,0.01zm-0.26 -0.3c0,0 -0.01,0 -0.01,0l-0.04 -0.02c-0.01,-0.01 -0.01,-0.02 -0.01,-0.02 0.01,-0.01 0.02,-0.01 0.02,-0.01l0.05 0.03c0,0 0.01,0.01 0,0.02 0,0 -0.01,0 -0.01,0zm0.31 0.2c0,0 0,0 -0.01,0l-0.23 -0.14c0,-0.01 -0.01,-0.02 0,-0.03 0,0 0.01,0 0.02,0l0.23 0.15c0.01,0 0.01,0.01 0,0.02 0,0 0,0 -0.01,0zm0.07 -0.09c-0.01,0 -0.01,0 -0.01,0l-0.43 -0.36c0,0 -0.01,-0.01 0,-0.02 0.01,0 0.01,0 0.02,0l0.43 0.36c0,0 0,0.01 0,0.02 0,0 -0.01,0 -0.01,0zm0.08 -0.08c-0.01,0 -0.01,0 -0.02,0l-0.18 -0.2c-0.01,-0.01 -0.01,-0.02 0,-0.03 0.01,0 0.01,0 0.02,0.01l0.19 0.2c0,0 0,0.01 0,0.02 -0.01,0 -0.01,0 -0.01,0zm-0.25 -0.27c-0.01,0 -0.01,0 -0.02,0l-0.03 -0.04c-0.01,-0.01 -0.01,-0.02 0,-0.02 0,-0.01 0.01,-0.01 0.02,0l0.04 0.03c0,0.01 0,0.02 0,0.03 -0.01,0 -0.01,0 -0.01,0zm0.33 0.2c0,0 -0.01,0 -0.01,-0.01l-0.32 -0.45c0,0 0,-0.01 0,-0.02 0.01,0 0.02,0 0.02,0l0.32 0.46c0.01,0 0.01,0.01 0,0.02 0,0 0,0 -0.01,0zm0.1 -0.06c-0.01,0 -0.01,0 -0.02,-0.01l-0.12 -0.24c-0.01,-0.01 0,-0.01 0,-0.02 0.01,0 0.02,0 0.02,0.01l0.13 0.24c0,0.01 0,0.02 -0.01,0.02 0,0 0,0 0,0zm-0.17 -0.32c-0.01,0 -0.01,0 -0.01,-0.01l-0.03 -0.05c-0.01,-0.01 0,-0.01 0,-0.02 0.01,0 0.02,0 0.02,0.01l0.03 0.05c0.01,0 0,0.01 0,0.02 0,0 -0.01,0 -0.01,0zm0.27 0.28c0,0 -0.01,0 -0.01,-0.01l-0.15 -0.54c0,0 0.01,-0.01 0.02,-0.01 0,-0.01 0.01,0 0.01,0.01l0.15 0.53c0,0.01 -0.01,0.02 -0.01,0.02 0,0 -0.01,0 -0.01,0zm0.11 -0.04c-0.01,0 -0.02,0 -0.02,-0.01l-0.03 -0.27c0,-0.01 0,-0.02 0.01,-0.02 0.01,0 0.02,0.01 0.02,0.01l0.03 0.28c0,0 0,0.01 -0.01,0.01 0,0 0,0 0,0zm-0.05 -0.36c-0.01,0 -0.02,0 -0.02,-0.01l0 -0.06c0,-0.01 0,-0.02 0.01,-0.02 0.01,0 0.02,0.01 0.02,0.02l0 0.06c0,0 0,0.01 -0.01,0.01 0,0 0,0 0,0zm0.16 0.35c-0.01,0 -0.02,0 -0.02,-0.01l0 -0.55c0,-0.01 0.01,-0.02 0.02,-0.02 0.01,0 0.01,0.01 0.01,0.02l0 0.55c0,0.01 0,0.01 -0.01,0.01zm0.11 0.01c0,0 0,0 0,0 -0.01,0 -0.02,-0.01 -0.01,-0.01l0.03 -0.28c0,0 0.01,-0.01 0.02,-0.01 0.01,0 0.01,0.01 0.01,0.02l-0.03 0.27c-0.01,0.01 -0.01,0.01 -0.02,0.01zm0.05 -0.35c0,0 0,0 0,0 -0.01,0 -0.02,-0.01 -0.02,-0.02l0.01 -0.06c0,-0.01 0.01,-0.02 0.02,-0.02 0.01,0 0.01,0.01 0.01,0.02l-0.01 0.06c0,0.01 0,0.02 -0.01,0.02zm0.06 0.37c0,0 0,0 0,0 -0.01,0 -0.02,-0.01 -0.01,-0.02l0.14 -0.53c0,-0.01 0.01,-0.01 0.02,-0.01 0.01,0 0.01,0.01 0.01,0.02l-0.15 0.53c0,0.01 0,0.01 -0.01,0.01zm0.09 0.06c-0.01,0 -0.01,0 -0.01,-0.01 -0.01,0 -0.01,-0.01 -0.01,-0.02l0.13 -0.24c0.01,-0.01 0.02,-0.01 0.02,0 0.01,0 0.01,0.01 0.01,0.02l-0.13 0.24c0,0 -0.01,0.01 -0.01,0.01zm0.16 -0.32c0,0 0,0 -0.01,-0.01 0,0 0,-0.01 0,-0.02l0.03 -0.05c0.01,-0.01 0.02,-0.01 0.02,0 0.01,0 0.01,0.01 0.01,0.02l-0.03 0.05c-0.01,0 -0.01,0.01 -0.02,0.01zm-0.07 0.38c0,0 -0.01,-0.01 -0.01,-0.01 0,0 -0.01,-0.01 0,-0.02l0.32 -0.45c0.01,-0.01 0.02,-0.01 0.02,0 0.01,0 0.01,0.01 0.01,0.02l-0.33 0.45c0,0 0,0.01 -0.01,0.01zm0.09 0.07c-0.01,0 -0.01,0 -0.01,-0.01 -0.01,0 -0.01,-0.01 0,-0.02l0.18 -0.2c0.01,0 0.02,0 0.03,0 0,0.01 0,0.02 0,0.02l-0.19 0.2c0,0 -0.01,0.01 -0.01,0.01zm0.25 -0.26c-0.01,0 -0.01,-0.01 -0.01,-0.01 -0.01,0 -0.01,-0.01 0,-0.02l0.03 -0.05c0.01,0 0.02,0 0.03,0 0,0.01 0,0.02 0,0.02l-0.04 0.05c0,0 -0.01,0.01 -0.01,0.01zm-0.18 0.34c0,0 -0.01,0 -0.01,-0.01 0,0 0,-0.01 0,-0.02l0.43 -0.35c0.01,0 0.02,0 0.02,0 0.01,0.01 0.01,0.02 0,0.02l-0.43 0.36c0,0 0,0 -0.01,0zm0.07 0.09c-0.01,0 -0.01,0 -0.01,-0.01 -0.01,0 -0.01,-0.01 0,-0.02l0.23 -0.14c0.01,-0.01 0.02,0 0.02,0 0.01,0.01 0.01,0.02 0,0.02l-0.23 0.15c-0.01,0 -0.01,0 -0.01,0zm0.31 -0.19c0,0 -0.01,0 -0.01,0 -0.01,-0.01 0,-0.02 0,-0.03l0.05 -0.03c0.01,0 0.01,0 0.02,0 0,0.01 0,0.02 0,0.02l-0.05 0.04c0,0 -0.01,0 -0.01,0zm-0.26 0.29c0,0 -0.01,0 -0.01,-0.01 -0.01,-0.01 0,-0.02 0.01,-0.02l0.5 -0.23c0.01,0 0.02,0 0.02,0.01 0,0.01 0,0.02 -0.01,0.02l-0.5 0.23c0,0 -0.01,0 -0.01,0z"/>
 </g>
</svg>
