<?xml version="1.0" encoding="UTF-8"?>
<!DOCTYPE svg PUBLIC "-//W3C//DTD SVG 1.1//EN" "http://www.w3.org/Graphics/SVG/1.1/DTD/svg11.dtd">
<!-- Creator: CorelDRAW 2019 (64-Bit) -->
<svg xmlns="http://www.w3.org/2000/svg" xml:space="preserve" width="64px" height="63px" version="1.1" style="shape-rendering:geometricPrecision; text-rendering:geometricPrecision; image-rendering:optimizeQuality; fill-rule:evenodd; clip-rule:evenodd"
viewBox="0 0 1.81 1.8"
 xmlns:xlink="http://www.w3.org/1999/xlink"
 xmlns:xodm="http://www.corel.com/coreldraw/odm/2003">
 <defs>
  <style type="text/css">
   <![CDATA[
    .str0 {stroke:#64868C;stroke-width:0.03;stroke-miterlimit:10}
    .fil3 {fill:none;fill-rule:nonzero}
    .fil5 {fill:#793F2F;fill-rule:nonzero}
    .fil0 {fill:#81CCCD;fill-rule:nonzero}
    .fil4 {fill:#64868C;fill-rule:nonzero}
    .fil1 {fill:#8DBDC5;fill-rule:nonzero}
    .fil2 {fill:#6EADB6;fill-rule:nonzero}
    .fil6 {fill:#6EADB6;fill-rule:nonzero}
    .fil7 {fill:#64868C;fill-rule:nonzero}
    .fil8 {fill:#81CCCD;fill-rule:nonzero}
   ]]>
  </style>
 </defs>
 <g id="Capa_x0020_1">
  <metadata id="CorelCorpID_0Corel-Layer"/>
  <g id="_1938358073008">
   <path class="fil0" d="M0.9 0.83c-0.01,-0.11 -0.15,-0.27 -0.15,-0.27 0,0 -0.12,0.18 -0.12,0.29 0.01,0.11 0.07,0.2 0.15,0.19 0.07,0 0.12,-0.09 0.12,-0.21z"/>
   <path class="fil1" d="M0.75 0.56c0,0 -0.02,0.03 -0.04,0.06 0.02,0.09 0.04,0.27 -0.06,0.32 0.03,0.06 0.07,0.1 0.13,0.1 0.07,0 0.12,-0.09 0.12,-0.21 -0.01,-0.11 -0.15,-0.27 -0.15,-0.27z"/>
   <path class="fil2" d="M0.75 0.56c0,0 0,0 0,0.01 0.02,0.05 0.1,0.31 -0.04,0.45 0.02,0.02 0.04,0.02 0.07,0.02 0.07,0 0.12,-0.09 0.12,-0.21 -0.01,-0.11 -0.15,-0.27 -0.15,-0.27z"/>
   <path class="fil3 str0" d="M0.9 0.83c-0.01,-0.11 -0.15,-0.27 -0.15,-0.27 0,0 -0.12,0.18 -0.12,0.29 0.01,0.11 0.07,0.2 0.15,0.19 0.07,0 0.12,-0.09 0.12,-0.21z"/>
   <path class="fil4" d="M0.79 0.89c0,-0.07 -0.03,-0.18 -0.03,-0.18 0,0 -0.02,0.11 -0.01,0.18 0,0.08 0.01,0.14 0.02,0.14 0.02,0 0.02,-0.06 0.02,-0.14z"/>
   <path class="fil4" d="M0.7 0.93c-0.02,-0.03 -0.02,-0.07 -0.01,-0.11 0,-0.03 0.02,-0.05 0.01,-0.05 0.01,0 0,0.03 0.01,0.06 0,0.03 0.01,0.06 0.02,0.09 0.02,0.05 0.05,0.09 0.04,0.1 0,0.01 -0.05,-0.02 -0.07,-0.09z"/>
   <path class="fil5" d="M0.85 0.92c0.01,-0.03 0.01,-0.07 0,-0.1 -0.01,-0.03 -0.02,-0.05 -0.02,-0.05 0,0 0,0.02 0,0.05 0,0.03 0,0.07 -0.01,0.1 -0.01,0.05 -0.04,0.1 -0.03,0.1 0,0.01 0.05,-0.03 0.06,-0.1z"/>
   <path class="fil1" d="M0.85 1.19l-0.25 -0.44c0,0 -0.26,0.48 0.25,0.44z"/>
   <path class="fil2" d="M0.58 0.8c0.04,0.09 0.12,0.25 0.12,0.39 0.04,0 0.09,0.01 0.15,0l-0.25 -0.44c0,0 -0.01,0.02 -0.02,0.05z"/>
   <path class="fil0" d="M0.61 1.15c0.02,-0.09 -0.02,-0.2 -0.06,-0.28 -0.02,0.1 -0.03,0.22 0.06,0.28z"/>
   <path class="fil3 str0" d="M0.85 1.19l-0.25 -0.44c0,0 -0.26,0.48 0.25,0.44z"/>
   <path class="fil4" d="M0.76 1.1c0,0 -0.1,-0.08 -0.13,-0.21 0,0 0,0.16 0.07,0.22l0.06 0.03 0 -0.04z"/>
   <path class="fil0" d="M0.91 0.83c0.01,-0.11 0.15,-0.27 0.15,-0.27 0,0 0.12,0.18 0.12,0.29 -0.01,0.11 -0.07,0.2 -0.14,0.19 -0.08,0 -0.13,-0.09 -0.13,-0.21z"/>
   <path class="fil1" d="M1.06 0.56c0,0 0.02,0.03 0.04,0.06 -0.02,0.09 -0.04,0.27 0.06,0.32 -0.02,0.06 -0.07,0.1 -0.12,0.1 -0.08,0 -0.13,-0.09 -0.13,-0.21 0.01,-0.11 0.15,-0.27 0.15,-0.27z"/>
   <path class="fil2" d="M1.06 0.56c0,0 0,0 0,0.01 -0.01,0.05 -0.1,0.31 0.04,0.45 -0.02,0.02 -0.04,0.02 -0.06,0.02 -0.08,0 -0.13,-0.09 -0.13,-0.21 0.01,-0.11 0.15,-0.27 0.15,-0.27z"/>
   <path class="fil3 str0" d="M0.91 0.83c0.01,-0.11 0.15,-0.27 0.15,-0.27 0,0 0.12,0.18 0.12,0.29 -0.01,0.11 -0.07,0.2 -0.14,0.19 -0.08,0 -0.13,-0.09 -0.13,-0.21z"/>
   <path class="fil4" d="M1.02 0.89c0,-0.07 0.03,-0.18 0.03,-0.18 0,0 0.02,0.11 0.02,0.18 -0.01,0.08 -0.02,0.14 -0.03,0.14 -0.02,0 -0.02,-0.06 -0.02,-0.14z"/>
   <path class="fil4" d="M1.12 0.93c0.01,-0.03 0.01,-0.07 0,-0.11 0,-0.03 -0.01,-0.05 -0.01,-0.05 0,0 0,0.03 0,0.06 -0.01,0.03 -0.02,0.06 -0.03,0.09 -0.02,0.05 -0.05,0.09 -0.04,0.1 0,0.01 0.05,-0.02 0.08,-0.09z"/>
   <path class="fil5" d="M0.96 0.92c-0.01,-0.03 -0.01,-0.07 0,-0.1 0.01,-0.03 0.02,-0.05 0.02,-0.05 0,0 0,0.02 0,0.05 0,0.03 0,0.07 0.01,0.1 0.02,0.05 0.04,0.1 0.04,0.1 -0.01,0.01 -0.06,-0.03 -0.07,-0.1z"/>
   <path class="fil1" d="M0.96 1.19l0.25 -0.44c0,0 0.27,0.48 -0.25,0.44z"/>
   <path class="fil2" d="M1.23 0.8c-0.04,0.09 -0.12,0.25 -0.12,0.39 -0.04,0 -0.09,0.01 -0.15,0l0.25 -0.44c0,0 0.01,0.02 0.02,0.05z"/>
   <path class="fil0" d="M1.2 1.15c-0.02,-0.09 0.02,-0.2 0.06,-0.28 0.03,0.1 0.04,0.22 -0.06,0.28z"/>
   <path class="fil3 str0" d="M0.96 1.19l0.25 -0.44c0,0 0.27,0.48 -0.25,0.44z"/>
   <path class="fil4" d="M1.05 1.1c0,0 0.1,-0.08 0.13,-0.21 0,0 0,0.16 -0.07,0.22l-0.06 0.03 0 -0.04z"/>
   <path class="fil0" d="M1.06 0.78c0,-0.12 -0.15,-0.3 -0.15,-0.3 0,0 -0.14,0.18 -0.14,0.3 0,0.12 0.06,0.22 0.14,0.22 0.08,0 0.15,-0.1 0.15,-0.22z"/>
   <path class="fil1" d="M0.91 0.48c0,0 -0.02,0.02 -0.04,0.06 0.01,0.1 0.02,0.29 -0.09,0.34 0.03,0.07 0.08,0.12 0.13,0.12 0.08,0 0.15,-0.1 0.15,-0.22 0,-0.12 -0.15,-0.3 -0.15,-0.3z"/>
   <path class="fil2" d="M0.91 0.48c0,0 0,0 0,0 0.02,0.06 0.09,0.35 -0.06,0.49 0.02,0.02 0.04,0.03 0.06,0.03 0.08,0 0.15,-0.1 0.15,-0.22 0,-0.12 -0.15,-0.3 -0.15,-0.3z"/>
   <path class="fil3 str0" d="M1.06 0.78c0,-0.12 -0.15,-0.3 -0.15,-0.3 0,0 -0.14,0.18 -0.14,0.3 0,0.12 0.06,0.22 0.14,0.22 0.08,0 0.15,-0.1 0.15,-0.22z"/>
   <path class="fil4" d="M0.94 0.84c0,-0.08 -0.03,-0.21 -0.03,-0.21 0,0 -0.02,0.13 -0.02,0.21 0,0.08 0.01,0.15 0.02,0.15 0.02,0 0.03,-0.07 0.03,-0.15z"/>
   <path class="fil4" d="M0.83 0.87c-0.01,-0.03 -0.01,-0.08 0,-0.11 0.01,-0.04 0.02,-0.06 0.02,-0.06 0,0 0,0.03 0,0.06 0,0.03 0.01,0.07 0.02,0.1 0.02,0.06 0.05,0.11 0.04,0.12 0,0.01 -0.06,-0.03 -0.08,-0.11z"/>
   <path class="fil4" d="M1 0.88c0.02,-0.04 0.02,-0.09 0.01,-0.12 -0.01,-0.03 -0.02,-0.06 -0.02,-0.06 0,0 0,0.03 0,0.06 0,0.04 -0.01,0.08 -0.02,0.11 -0.02,0.06 -0.05,0.1 -0.04,0.11 0,0.01 0.05,-0.03 0.07,-0.1z"/>
   <path class="fil0" d="M1.06 1.08c0,-0.12 -0.15,-0.3 -0.15,-0.3 0,0 -0.14,0.18 -0.14,0.3 0,0.12 0.06,0.22 0.14,0.22 0.08,0 0.15,-0.1 0.15,-0.22z"/>
   <path class="fil1" d="M0.91 0.78c0,0 -0.02,0.02 -0.04,0.06 0.01,0.1 0.02,0.29 -0.09,0.34 0.03,0.07 0.08,0.12 0.13,0.12 0.08,0 0.15,-0.1 0.15,-0.22 0,-0.12 -0.15,-0.3 -0.15,-0.3z"/>
   <path class="fil2" d="M0.91 0.78c0,0 0,0 0,0 0.02,0.06 0.09,0.35 -0.06,0.49 0.02,0.02 0.04,0.03 0.06,0.03 0.08,0 0.15,-0.1 0.15,-0.22 0,-0.12 -0.15,-0.3 -0.15,-0.3z"/>
   <path class="fil3 str0" d="M1.06 1.08c0,-0.12 -0.15,-0.3 -0.15,-0.3 0,0 -0.14,0.18 -0.14,0.3 0,0.12 0.06,0.22 0.14,0.22 0.08,0 0.15,-0.1 0.15,-0.22z"/>
   <path class="fil4" d="M0.94 1.13c0,-0.08 -0.03,-0.2 -0.03,-0.2 0,0 -0.02,0.12 -0.02,0.2 0,0.09 0.01,0.15 0.02,0.15 0.02,0 0.03,-0.06 0.03,-0.15z"/>
   <path class="fil4" d="M0.83 1.17c-0.01,-0.03 -0.01,-0.08 0,-0.11 0.01,-0.04 0.02,-0.06 0.02,-0.06 0,0 0,0.03 0,0.06 0,0.03 0.01,0.07 0.02,0.1 0.02,0.06 0.05,0.11 0.04,0.11 0,0.01 -0.06,-0.03 -0.08,-0.1z"/>
   <path class="fil4" d="M1 1.17c0.02,-0.03 0.02,-0.08 0.01,-0.11 -0.01,-0.04 -0.02,-0.06 -0.02,-0.06 0,0 0,0.03 0,0.06 0,0.03 -0.01,0.07 -0.02,0.1 -0.02,0.06 -0.05,0.11 -0.04,0.12 0,0 0.05,-0.03 0.07,-0.11z"/>
   <path class="fil1" d="M0.92 1.29c-0.08,0.01 -0.14,0.01 -0.19,0 -0.15,-0.02 -0.21,-0.11 -0.23,-0.16 -0.02,-0.03 -0.02,-0.04 -0.02,-0.04 0.25,-0.05 0.44,0.2 0.44,0.2z"/>
   <path class="fil2" d="M0.48 1.09c0.01,0 0.31,0.1 0.32,0.21 0.04,0 0.08,0 0.12,-0.01 0,0 -0.19,-0.25 -0.44,-0.2z"/>
   <path class="fil0" d="M0.73 1.29c-0.15,-0.02 -0.21,-0.11 -0.23,-0.16 0.07,0.03 0.23,0.1 0.23,0.16z"/>
   <path class="fil3 str0" d="M0.92 1.29c0,0 -0.19,-0.25 -0.44,-0.2 0,0 0.04,0.25 0.44,0.2z"/>
   <path class="fil4" d="M0.91 1.29c0,0 -0.19,-0.13 -0.31,-0.15 0,0 0.18,0.1 0.19,0.16l0.12 -0.01z"/>
   <path class="fil1" d="M0.9 1.29c0.08,0.01 0.14,0.01 0.19,0 0.15,-0.02 0.21,-0.11 0.24,-0.16 0.01,-0.03 0.01,-0.04 0.01,-0.04 -0.25,-0.05 -0.44,0.2 -0.44,0.2z"/>
   <path class="fil6" d="M1.34 1.09c-0.01,0 -0.3,0.1 -0.32,0.21 -0.04,0 -0.07,0 -0.12,-0.01 0,0 0.19,-0.25 0.44,-0.2z"/>
   <path class="fil0" d="M1.09 1.29c0.15,-0.02 0.21,-0.11 0.24,-0.16 -0.08,0.03 -0.24,0.1 -0.24,0.16z"/>
   <path class="fil3 str0" d="M0.9 1.29c0,0 0.19,-0.25 0.44,-0.2 0,0 -0.03,0.25 -0.44,0.2z"/>
   <path class="fil4" d="M0.91 1.29c0,0 0.19,-0.13 0.32,-0.15 0,0 -0.19,0.1 -0.2,0.16l-0.12 -0.01z"/>
   <path class="fil4" d="M0.98 1.41l-0.04 -0.13 -0.06 0 -0.04 0.13c0,0.02 0.01,0.03 0.02,0.03l0.1 0c0.01,0 0.02,-0.01 0.02,-0.03z"/>
   <path class="fil4" d="M0.88 1.31c0,0 -0.02,0.08 -0.07,0.08 0,0 -0.01,-0.05 0.03,-0.07 0,0 -0.08,0.05 -0.13,0.04 0,0 0.08,-0.11 0.17,-0.05z"/>
   <path class="fil4" d="M0.94 1.31c0,0 0.02,0.08 0.08,0.08 0,0 0,-0.05 -0.04,-0.07 0,0 0.08,0.05 0.13,0.04 0,0 -0.08,-0.11 -0.17,-0.05z"/>
   <path class="fil7" d="M0.65 1.38l-0.63 0c0,0 0,0 0,0.01l0 0.02c0,0 0,0 0,0l0.63 0c0,0 0.01,0 0.01,0l0 -0.02c0,-0.01 -0.01,-0.01 -0.01,-0.01z"/>
   <path class="fil7" d="M1.81 1.38l-0.64 0c0,0 0,0 0,0.01l0 0.02c0,0 0,0 0,0l0.64 0c0,0 0,0 0,0l0 -0.02c0,-0.01 0,-0.01 0,-0.01z"/>
   <g>
    <path class="fil8" d="M0.06 1.64c0,0.01 0,0.01 0.01,0.01 0,0.01 0,0.01 0,0.01 0.01,0 0.01,0 0.01,0 0.01,0 0.01,0.01 0.02,0.01 0,0 0.01,0 0.02,0 0,0.01 0.01,0.01 0.01,0.01 0,0 0.01,0.01 0.01,0.01 0,0 0,0 0,0 0,0 0,0 0,0 0,0 0.01,0 0.01,0.01 0,0 0,0 0,0 0,0 0,0.01 0.01,0.01 0,0 0,0.01 0,0.01 0,0.01 0,0.01 0,0.02 0,0.01 0,0.01 -0.01,0.01 0,0.01 0,0.01 0,0.02 0,0 -0.01,0.01 -0.01,0.01 -0.01,0 -0.02,0.01 -0.02,0.01 -0.01,0 -0.02,0.01 -0.02,0.01 -0.01,0 -0.02,0 -0.03,0 0,0 -0.01,0 -0.01,-0.01 -0.01,0 -0.02,0 -0.02,0 -0.01,0 -0.01,-0.01 -0.02,-0.01 0,0 0,-0.01 -0.01,-0.01 0,0 0,0 0,0 0,0 0,-0.01 -0.01,-0.01 0,0 0,0 0,0 0,0 0,0 0,-0.01 0,0 0,0 0,0 0,0 0,0 0.01,0 0,0 0,-0.01 0,-0.01 0,0 0,0 0,0 0,0 0,0 0,0 0.01,0 0.01,0 0.01,-0.01 0,0 0,0 0,0 0,0 0,0 0,0 0,0 0.01,0 0.01,0 0,-0.01 0,-0.01 0,-0.01 0,0 0,0 0,0 0.01,0 0.01,0.01 0.01,0.01 0,0 0,0 0,0 0,0 0,0 0,0 0,0 0.01,0 0.01,0.01 0,0 0.01,0 0.01,0 0.01,0.01 0.01,0.01 0.02,0.01 0,0 0.01,0 0.01,0 0,0 0.01,-0.01 0.01,-0.01 0,0 0,0 0,0 0,0 0,0 0,-0.01 0,0 0,0 0,0 0,0 0,-0.01 0,-0.01 -0.01,0 -0.01,0 -0.01,0 -0.01,-0.01 -0.01,-0.01 -0.01,-0.01 -0.01,0 -0.01,0 -0.01,0 -0.01,0 -0.02,-0.01 -0.02,-0.01 -0.01,0 -0.01,-0.01 -0.02,-0.01 0,0 0,0 -0.01,-0.01 0,0 0,0 0,-0.01 -0.01,0 -0.01,0 -0.01,-0.01 0,0 0,-0.01 0,-0.01 0,-0.01 0,-0.02 0,-0.02 0,-0.01 0.01,-0.02 0.01,-0.02 0,0 0,0 0,0 0,0 0,0 0,0 0,0 0,0 0,0 0,0 0,0 0.01,0 0,0 0,-0.01 0,-0.01 0,0 0,0 0,0 0,0 0,0 0,0 0,0 0,0 0,0 0.01,0 0.01,0 0.01,-0.01 0.01,0 0.01,0 0.02,0 0,0 0.01,0 0.02,0 0,0 0.01,0 0.02,0 0,0 0,0 0,0 0.01,0 0.01,0 0.01,0 0,0 0.01,0 0.01,0.01 0,0 0.01,0 0.01,0 0,0 0,0 0.01,0 0,0.01 0,0.01 0,0.01 0.01,0 0.01,0 0.01,0.01 0,0 0,0 0,0 0,0 0,0 0,0.01 0,0 0,0 -0.01,0 0,0 0,0 0,0 0,0.01 0,0.01 0,0.01 0,0 -0.01,0 -0.01,0 0,0 0,0.01 0,0.01 0,0 0,0 0,0 -0.01,0 -0.01,0 -0.01,0 0,0 0,0 0,0 -0.01,0 -0.01,0 -0.01,0 0,-0.01 0,-0.01 -0.01,-0.01 0,0 0,0 0,0 0,0 -0.01,0 -0.01,-0.01 0,0 -0.01,0 -0.01,0 0,0 -0.01,0 -0.01,0.01 0,0 0,0 -0.01,0zm0.03 -0.02c0,0 0,0 0,0 0,0 0,0 0,0 0.01,0 0.01,0 0.01,0 0,0 0,0 0,0 0,0 0,0 0,0 0,0 0,0 0,0 0,0 0,0 0,0 0,0.01 0,0.01 0,0.01 0,0 0,0 0,0 0,0 0,0 0,0 0,0 0,0 0,-0.01 0,0 0,0 0,0 0,0 0,0 0,0 0,0 0,0 0,0 0,0 0.01,0 0.01,0 0,0 0,0 0,0 0,0 0,0 0,0 0,0 0,0 0,0 0,0 0,0 0,0 0,0 0,0 0,0 0,0 0,0 0,-0.01 0,0 0,0 0,0l0 0 0 0c0,0 0,0 0.01,0 0,0 0,0 0,0 0,0 0,0 0,0 0,0 0,0 0,0 0,0 0,0 -0.01,0 0,0 0,0 0,0 0,0 0,0 0,0 0,0 0,0 0,0l0 0c0,0 0,0 -0.01,0 0,0 0,0 0,0 0,0 0,-0.01 0,-0.01 0,0 0,0 0,0 0,0 0,0 0,0 0,0.01 -0.01,0.01 -0.01,0.01 0,0 0,0 0,0 0,0 0,0 0,0 0,0 0,0 0,0 0,0 0,0 0,0 0,0.01 0,0.01 0,0.01 0,0 0,0 0,0 0,0 0,0 0,0 0,0 0,0 0,0 0,0 0,0 0,0 -0.01,0 -0.01,0 -0.01,0 0,-0.01 0,-0.01 0,-0.01 0,0 0,0 0,0 0,0 0,0 0,0 0,0 0,0 0,0 0,0 0,0 0,0 0,0 0,0 0,0 0,0 0,0 0,0 0,0 0,0 0,0l0 0 0 0c0,0 0,0 -0.01,0 0,0 0,0 0,0l0 0 0 0c0,0 0,0 0,0 0,0 0,0 0,-0.01 0,0 0,0 0,0 0,0 0,0 0,0 0,0 0,0 0,0.01 0,0 0,0 0,0l0 0 0 0c0,0 0,0 0,0 0,0 0,0 0,0l0 0 0 0c0,0 0,0 0,0 0,0 0,0 0,0 0,0 0,0 0,0 0,0 0,0 0,0 0,0 0,0 0,0 0,0 0,0 0,0 0,0 0,0 0,0 0,0 0,0 0,0l0 0 0.01 0 0 0 0 0c0,0 0,0 0,0 0,0 0,0 0,0 0,0 0,0 0,0 0,0 0,0 0,0 0,0 0,0 0,0 0,0 0,0 0,0.01 0,0 0,0 0,0 0,0 0,0 0,0 0,0 0,0 0.01,0 0,0 0,0 0,0l0 0 0 0zm-0.02 -0.02c0,0 0,0 0,0 0,0 0,0 0,0 0,0 0,0 0,0 0,0 0,0 0,0 0,0 0,0 0,0 0,0 0,0 0,0zm-0.02 0.01c0,0 0,0 0,0 0,0 0,0 0,0 0,0 0,0 0,0 0,-0.01 0,-0.01 0,-0.01 0,0 0,0 0,0 0,0.01 0,0.01 0,0.01 0,0 0,0 0,0 0,0 0,0 0,0zm0.04 0c0,0 0,0 0,0 0,0 0,-0.01 0,-0.01 0,0 0,0.01 0,0.01 0,0 0,0 0,0zm0 0l0 0 0 -0.01 0 0 0 0.01zm-0.03 0c0,0 0,0 0,0 0,0 0,0 0,0 0,0 0,0 0,0 0,0 0,0 0,0 0,0 0.01,0 0.01,0 0,0 0,0 0,0 -0.01,-0.01 -0.01,-0.01 -0.01,-0.01 0,0 0,0.01 0,0.01 0,0 0,0 0,0zm0.06 0c0,0 0.01,0 0,0 0,0.01 0,0.01 0,0.01 0,0 0,0 0,0 0,0 0,0 0,0 0,0 0,0 0,0 0.01,0 0.01,0 0.01,0 0,0 0,0 0,0 0,0 0,0 0,0 0,0 0,0 0,-0.01 0,0 0,0 0,0 0,0 0,0 0,0 0,0 0,0 0,0 0,0 0,0 0,0 0,0 0,0 0,0 0,0 0,0 0,0 0,0 0,0 0,0 0,0 0,0 0,0 0,0 0,0 0,0 -0.01,0 -0.01,0 -0.01,0zm-0.05 0.01c0,-0.01 0,-0.01 0,-0.01 0,0.01 0,0.01 0,0.01 0,0 0,0 0,0 0,0 0,0 0,0zm-0.03 0c0,0 0,0 0,0 0,0 0,0 0,0 0,0 0,0 0,0 0,0 0,0 0,0.01l0 0c0,-0.01 0,-0.01 0,-0.01 0,0 0,0 0,0 0,0 0,0 0,0 0,0 0.01,0 0.01,0 0,0 -0.01,0 -0.01,0 0,0 0,0 0,0zm0.07 0c0,0 0,0 0,0 0.01,0 0.01,0 0.01,0 0,0 0,0 0,0 0,0 0,0 -0.01,0zm-0.06 0c0,0 0,0 0,0 0,0 0,0 0,0 0,0 0.01,0 0.01,0 0,0 0,0 0,0 0,0 0,0 0,0 -0.01,0 -0.01,0 -0.01,0 0,0 0,0 0,0 0,0 0,0 0,0zm0.08 0c0,0 0,0 0,0 0,0 0,0 0,0 0,0 0,0 0,0 0,0 0,0 0,0 0,0 0,0 0,0 0,0 0,0 0,0zm-0.01 0c0,0 0,0 0,0 0,0 0,0 0,0 0,0 0,0 0,0 0,0 0,0 0,0zm-0.05 0.01c0,0 0,0 0,0 0,0 0,0 0,0 0,0 0,-0.01 0,-0.01 0,0 0,0 0,0 0,0 0,0.01 0,0.01 0,0 0,0 0,0zm0.05 -0.01c0,0.01 0,0.01 0,0.01 0,0 0,0 0,0 0.01,0 0.01,0 0.01,0 0,-0.01 -0.01,-0.01 -0.01,-0.01zm0 0.02c0,0 0,-0.01 0,-0.01 0,0 0,0 0,0 0,0 -0.01,0 -0.01,0 0,0 0,0 0,0 0,0 0,0 0,0 0,0 0,0 0,0 0,0 0,0 0,0 0,0 0,0 0,0 0,0 0,0 0,0 0,0 0,0.01 0.01,0.01zm0.01 0c0,0 0,0 0,0 0,0 0,-0.01 0,-0.01 0,0 0,0 0,0 0,0 0,0 0,0 0,0 0,0 0,0 0,0 0,0 0,0 0,0 0,0 0,0 0,0 0,0 0,0.01zm-0.01 -0.01l0 0 0 0 0 0 0 0zm-0.08 0.01c0,0 0,0 0,0 0,-0.01 0,-0.01 0,-0.01 0,0 0,0 0,0 0,0 0,0 0,0 0,0 0,0 0,0.01 0,0 0,0 0,0zm0.02 -0.01l0 0 0 0 0 0 0 0zm-0.01 0.01c0,0 0,0 0,0 0,0 0,0 0,-0.01 0,0 0,0 0,0 0,0 0,0 0,0 0,0 0,0 0,0 0,0 0,0 0,0 0,0 0,0.01 0,0.01 0,0 0,0 0,0zm0.07 0c0,0 0,0 0,0 0,0 0,0 0,0 0,0 0,0 0,0zm-0.08 0.01c0,0 0,0 0,0 0,0 0,0 0,0 0,0 0,-0.01 0,-0.01 0,0 0,0 0,0 0,0 0,0 0,0 0,0 0,0 0,0 0,0 0,0 0,0.01 0,0 0,0 0,0 0,0 0,0 0,0 0,0 0,0 0,0l0 0 0 0c0,0 0,0 0,0 0,0 0,0 0,0 0.01,0 0.01,0 0.01,0 0,0 0,0 0,0 0,0 0,0 0,0 0,0 0,0 -0.01,0 0,0 0,0 0,0 0,0 0,0 0,0l0 0 0 0zm-0.01 0l0.01 0 0 -0.01c-0.01,0 -0.01,0 -0.01,0 0,0 0,0 0,0.01zm-0.01 0.01c0,0 0,0 0,0 0.01,0 0.01,0 0.01,0 0,0 0,0 0,0 0,0 0,0 0,-0.01 0,0 0,0 0,0.01 -0.01,0 -0.01,0 -0.01,0zm0.04 0.02c0,0 0,0 0,0 0,0 0,0 0,0 0,0 0,-0.01 0,-0.01 0.01,0 0.01,0 0.01,0 0,0 0,0 0,0 0,0 0,0 0,0 0,0 0,0 0,0 0,0.01 0,0.01 0,0.01 0,0 0,0 0,0 0,0 0,0 0,0 0,0 0,0 0,0 0,0 0,0 0,0 0,0 0,0 0,0 0,0 0,0 0,0 0,0 0,0 0,0 0,0 0,0 0.01,0 0,0 0,0 0,0 0,0 0,0 0,-0.01 0,0 0,0 -0.01,0 0,0 0,0 0,0 0,0 0,0 0,0 0,0 0,0 0,0 0,0 0,0 0,0 0,0 0,0 0,0 0,0 0,0 0,0 0,0 0,0 0,0 0,0 0,0 0,0 0,0 0,0 0,0 0,0 -0.01,0 -0.01,0 0,0 0,0 0,0 0,0 0,0 0,0 0,0 0,0 0,0 0,0 0,0 0,0 0,0 0,0 0,-0.01 0,0 0,0 0,0 0,0 0,0 0,0 0,0 0,0 0,0 0,0 0,0 0,0 0,0 0,0 -0.01,0 0.01,0 0.01,0 0.01,0 0,0 -0.01,0 -0.01,0 0,0 0,0 0,0.01 0,0 0,0 0,0 0,0 0,0 0,0 0.01,0 0.01,0 0.01,0 0,0 0,0 0,0 0,0 0,0 0,0 0,0 0,0 0,0 0,0 0,0 0,0 0,0 0,0 0,0 0,0 0,0.01 0,0.01 0,0 0,0 0,0 -0.01,0 -0.01,0 -0.01,0 0,0 0,0 0,0 0,0 0,0 0,0 0,0 0.01,0 0.01,0 0,0 0,0 0,0l0 0 0 0c0,0 0,0 0,0 0,0 0,0 0,0.01 0,0 -0.01,0 -0.01,0 0,0 0,0 0,0 0.01,0 0.01,0 0.01,0 0,0 0,0 0,-0.01 0,0 0,0 0,0l0 0 0 0zm-0.02 -0.02c-0.01,0 -0.01,0 -0.01,0 0,0 0,0 0,0 0,0 0,0 0,0 0,0 0,0 0,0 0,0 0,0 0,0 0,0 0,0 0,0 0,0 0,0 0,0 0,0 0,0 0,0 0,0 0,0 0,0l0 0 0.01 0c0,0.01 0,0.01 -0.01,0.01 0,0 0,0 0,0 0,0 0,0 0,0 0,0 0,0 0,0 0,0 0,0 0.01,0 0,0 0,0 0,0 0,0 0,0 0,0 0,0 -0.01,0 -0.01,0 0,0 0,0 0,0 0,0 0,0 0,0.01 0,0 0,0 0,0 0,0 0,0 0,0 0,0 0,0 0,0 0,0 0.01,0 0.01,0 0,0 0,0 0,0 0,-0.01 0,-0.01 0,-0.01 0,0 0,0 0,0 0,0 0,0 0.01,0 0,0 0,0 0,0 0,0 0,0 0,0 0,0 0,0 -0.01,-0.01 0,0 0,0 0,0 0,0 0,0 0,0 0,0 0,0 0,0.01 0,0 0,0 0,0 0,0 0,0 0,0 0,0 0,0 0,0 0,-0.01 0,-0.01 0,-0.01 0,0 0,0 0,0 0,0 0,0 0,0l0 0 0 0zm-0.02 0.01l0.01 0 0 -0.01 -0.01 0 0 0.01zm0.08 0.02c0,0 0,-0.01 0,-0.01 0,0 0,0 0,0 0,0 0,0 0.01,0 0,0 0,0 0,0 0,0 -0.01,0 -0.01,0 0,0 0,0 0,0 0,0 0,0 0,0 0,0 0,0 0,0.01zm-0.06 0c0,0 0,-0.01 0,-0.01 0,0 0.01,0 0.01,0 0,0 0,0 0,0 0,0 0,0 0,0 0,0 0,0 0,0 0,0 0,0 0,0 0,0 0,0 0,0 -0.01,0 -0.01,0 -0.01,0 0,0 0,0 0,0 0,0 0,0 0,0 0,0 0,0 0,0 0,0.01 0,0.01 0,0.01 0,0 0,0 0,0l0.01 0c0,0 0,0 0,0 0,0 0,0 0,0 0,0 0,0 0,0 0,0 0,0 0,0 0,0 0,0 0,0 0,0 0,0 0,0 0,0 0,0 0,0l-0.01 0zm0.03 0c0,-0.01 0,-0.01 -0.01,-0.01 0,0 0,0.01 0,0.01 0.01,0 0.01,0 0.01,0l0 0 0 0c0,0 0,0 0,0 0,0 0,0 0,0 0,0 0,0 -0.01,0 0,0 0,0 0.01,0l-0.01 0 0 0c0,0 0,0 0,0 0,0 0,0 0,0 0,0.01 0,0.01 0,0.01 0,0 0,0 0,0l0 -0.01 0.01 0 0 0c0,0 0,0 0,0 0,0 0,0 0,0 0,0 0,0 0,0 0,0 0,0 0,0 0,0 0,0 0.01,0.01 0,0 0,0 0,0 0,0 0,0 0,0 0,-0.01 0,-0.01 0,-0.01 0.01,0 0.01,0.01 0.01,0.01 0,0 0,0 0,0 0,0 0,0 0,0 0,0 0,0 0,0 0,0 0,0 0,0 0,0 0,0 0,0 0,0 0,0 0,0 0,0 0,0 0,0 0,0 0,0 0.01,0 0,0 0,0 0,0l0 0 0 0c0,0.01 0,0.01 0,0.01 0,0 0,0 0,0 0,0 0,0 0,0 0,0 0,0 0,0 0,0 0,0 0.01,0 0,0 0,0 0,0 0,0 0,0 0,0.01 0,0 0,0 0,0 0,0 0,0 0,0 0,0 0,0 0,0 0,0 0,0 0,0 0,0.01 0,0.01 0,0.01 0,-0.01 0,-0.01 0,-0.01 0,0 0.01,0 0.01,0 0,0 0,0 0,0 0,0 0,0 0,0 0,0 0,0 0,0 0,0 0,0 0,0 0,0 0,-0.01 0,-0.01 0.01,0 0.01,0 0.01,0 0,0 0,0 0,0 0,0 0,0 0,0 0,0 0,0 0,0 0,0 0,0 0,0 0,0 0.01,0 0.01,0 0,0 0,0 0,0 0,0 0,0 0,0 0,0 0,0 0,0 -0.01,0 -0.01,0 -0.01,0 0,0 0,0 0,0 0,0 0,0 0,0 0,0 0,0 0,0 0,-0.01 0,-0.01 0,-0.01 0,0 0,0 0,0 0,0 0,0 0,0 0,0 0,0 0,0 0,0 0,-0.01 0,-0.01 0,0 0,0 0,0 0,0 0,0 0,0 0,0 0,0 0,0 0,0 0,0 0,0 0,0.01 0,0.01 0,0.01 0,0 0,0 -0.01,0 0,0 0,0 0,0 0,0 0,0 0,0 -0.01,0 -0.01,0 -0.01,0 0,0 0,0 0,0 0,0 0,0.01 0,0.01l0 0 0 0c0,0 0,0 0,0 0,0 0,0 0,0 -0.01,0 -0.01,0 -0.01,0 0,0 0,-0.01 0,-0.01l0 0 0 0c0,0 0,0 0,0 0,0 0,0 0,0 -0.01,0 -0.01,-0.01 -0.01,-0.01 0,0 0,0 0,0 0,0 0,0 0,0 0,0 0,0 0,0 0,0 0,0 0,0 0,0 0,0 0,0 0,0 0,0 -0.01,0 0,0 0,0 0,0 0,0 0,0 0,0 0,0 0,0 0,0 0,0 0,0 0,0l0 0 0 0 0 -0.01 0 0 0 0.01 0 0 0 0c0,0 0,0 0,0 -0.01,0 -0.01,0 -0.01,0 0,0 0,0 0,0 0,0 0,0 0,0l0 0 0 0zm0.03 0c0,0 0,0 0,0 0,0 0.01,0 0.01,0 0,0 0,0 0,0 0,0 0,0 0,0 0,0 0,0 0,0 0,0 -0.01,0 -0.01,0 0,0 0,0 0,0 0,0 0,0 0,0zm-0.01 0l0 0 0 0 0 0 0 0zm0.02 0.01c0,0 0,0 0,0 0,0 0,0 0,0 0,0 0,0 0,0 0,0 0,0 0,0 0,0 0,0 0,0 0,-0.01 0,-0.01 0,-0.01 0,0 0,0 0,0 0,0 0,0 0.01,0 0,0 0,0 0,0 0,0 0,0 0,0 0,0 0,0 0,0 0,0 0,0 0,0 0,0 0,0 0,0 0,0 0,0 0,0 0,0 0,0 0,0 0,0 0,0 0,0 0,0 0,0 0,0 0,0 0,0 -0.01,0 0,0 0,0 0,0 0,0 0,0.01 0,0.01zm0 0c0,0 0,0 0,0 0,0 0,0 0,0 0,0 0,0 0,0 -0.01,0 -0.01,0 -0.01,0 0,0 0,0 0.01,0 0,0 0,0 0,0zm0.03 0c0,0 0,0 0,0 0,0 0,0 0,0 0,0 0,0 0,0 0,0 0,0 0,0zm-0.06 0c0,0 0,0 0,0 0,0 0,0 0,0 0,0 0,0.01 0,0.01 0,0 0,0 0,0 0,-0.01 0,-0.01 0,-0.01 0,0 0,0 0,0 0,0 0,0 0,0 0,0 0,0 0,0 0,0 0,0 0,0 0,0 0,0 0,0zm0.01 0.01c0.01,0 0.01,0 0.01,0 0,0 0,0 0,0 0,0 0,0 0,0 0,0 0,0 -0.01,0 0,0 0,0 0,0 0,0 0,0 0,0zm0.05 0c0,0 0,0 0,0 0,0 0,0 0,0 0,0 0,0 0,0 0,0 0,0 0,0 0,0 0,0 0,0 0,0 0,0 0,0 0,0 0,0 0,0zm0 0.01c-0.01,0 -0.01,0 -0.01,0 0,0 0,0 0,0 0,0 0,0 0,0 0,0 0,0 0,-0.01 0,0 0,0.01 0,0.01 0,0 0,0 0,0 0,0 0,0 0,0 0,0 -0.01,0 -0.01,0 0.01,0 0.01,0 0.01,0 0,0 0,0 0,0 0,0 0,0 0,0 0,0 0.01,0 0.01,0l0 0 0 0c0,0 0,0 0,0 0,0 0,0 0,0.01 0,0 0,0 0,0 0,0 0,0 0,0 0,0 0,0 0,0 0,0 0,0 0,0 0,0 0,-0.01 0.01,-0.01 0,0 0,0 0,0 0,0 0,0 -0.01,0 0,0 0,0 0,0 0,0 0,0 0,0 0,0 0,0 0,0 0,0 0,0 0,0 0,0 0,0 0,0 0,0 0,0 0,0 0,0 0,0 0,0 0,0 0,0 0,0 0,0 0,0 0,0l0 0 0 0zm-0.02 0.01c0,0 0,0 0,0 0,0 0,0 0,0 0,0 0,0 0,0 0,0 0,0 0,0 0,0 0,0 0,0 0,0 0,0 0,0 0,0 0,0 0,0 0,0 0,0 0,0 0,0 0,0 0,0 0,0 0,0 0,0 0,0 0,0 0,0 0,0 0,0 0,0 0,0 0,0 0,0 0,0 0,0 0,0 0,0 0,0 0,0 0,0 0,0 0,0zm0.01 0c0,0 0,0 0,0 0,0 0,0 0,0 0,0 0,0 0,0 0,0 0,0 0,0l0 0c0,0 0,0 0,0 0,0 0,0 0,0 0,0 0,0 0,0 0,0 0,0 0,0zm0.01 0.01c0,0 0,0 0,0 0,0 0,-0.01 0,-0.01 0,0 0,0 0,0 0,0 0,0 0,0 0,0 0,0 0,0 0,0 0,0 0,0 0,0 0,0.01 0,0.01 0,0 0,0 0,0zm-0.03 0c0,0.01 0,0.01 0,0.01 0,0 0,0 0,0 0,0 0,0 0,0 0.01,0 0.01,0 0.01,0 0,0 0,0 0,0 0,0 0,-0.01 0,-0.01 0,0 0,0 0,0 0,0 0.01,0 0.01,0 0,0 0,0 0,0 0,0 -0.01,0 -0.01,0 0,0 0,0 0,0 0,0 0,0 0,0 0,0 -0.01,0.01 -0.01,0.01 0,0 0,0 0,-0.01zm-0.08 0.01c0,0 0,0 0,0 -0.01,0 -0.01,0 -0.01,0 0,0 0,0 0,0 0,0 -0.01,0 -0.01,0 0,0.01 0.01,0.01 0.01,0.01 0,0 0,0 0,0 0,0 0,0 0,0 0.01,0 0.01,0 0.01,0 0,0 0,0 0,0 0,0 0,0 0,0 0,0 0,0 0.01,0 0,0 0,0 0,0 0,0 0,-0.01 0,-0.01 0,0 0,0 0,0 0,0 0,0 0,0 0,0 0,0 0,-0.01 0,0.01 0,0.01 0,0.01 0,0 0,0 0,0 0,0 0,0 0,0 0,0 0,0 0,0 0,0 0,0 -0.01,0 0,0 0,0 0,0 0,0 0,0 0,0 0,-0.01 0,-0.01 0.01,-0.01l-0.01 0c0,0 0,0 0,0 0,0.01 0,0.01 0,0.01 0,0 0,0 0,0 0,0 0,0 0,0zm0.1 0c0,0 0,0 0,0 0,0 0,0 0,0 0,0 0,0 0,0 0,0 0,-0.01 0,-0.01 0,0 0,0 0,0 0,0 0,0 0,0 0,0 0,0.01 0,0.01 0,0 0,0 0,0 0,0 0,0 0,0 0,0 0,0 0,0zm0.01 0.01c0,0 0,0 0,-0.01 0,0 0,0 0,0 0,0 0,0 0,0 0,0 0,0 0,0 0,0 0,0 0,0 0,0 0,0 0,0 0,0 0,0 0,0 0,0 0,0 0,0.01zm-0.08 0c0,0 0,0 0,-0.01 0,0 0,0 -0.01,0 0,0 0,0 0,0 0,0.01 0,0.01 0,0.01 0,0 0,0 0,0 0,0 0,0 0,0l0 0 0 0c0,0 0,0 0,0 0,0.01 0,0.01 0,0.01 0,0 0.01,0 0.01,-0.01 0,0 0,0 0,0 0,0 0,0 -0.01,0 0,0 0,0 0,0 0,0 0,0 0,0l0 0 0 0c0,0 0,0 0,0 0.01,0 0.01,0 0.01,0 0,0 0,0 0,0 0,0 0,0 0,0 0,0 0,0 0,0 0,0 0,0 0,0 0,0 0,0 0,0 0,0 0,0 0,0 0,0 0,0 0,0 0,0 0,0 0,0l0 0 0 0c0,0 0.01,0 0.01,0 0,0 0,0 0,0 0,0 0,0 0,0 0,0 0,0 0,0 0,0 0,0 0,0 0,0 0,0 -0.01,0l0 0 0 0zm0.04 0c0,0 0,0 0,0 0,0 0,0 0,0 0,0 0,0 0,0 0,0 0,0 0.01,0 0,0 0,0 0,0 0,0 0,0 0,-0.01l0 0c0,0.01 -0.01,0.01 -0.01,0.01 0,0 0,0 0,0 0,0 0,0 0,0 0,0 0,0 0,0zm0.02 0l0 0c0,0 0,0 0,-0.01 0,0.01 0,0.01 0,0.01 0,0 0,0 0,0l0 0 -0.01 0c0,0 0,0 0,0 0,0 0,0 0,0 0,0 0,0 0,0 0.01,0 0.01,0 0.01,0 0,0 0,0 0,0 0,0 0,0 0,0 0,0 0,0 0,0 0,0 0,0 0,0 0,0 0,0 0,0l0 0zm0 0c0,0 0,0 0,0 0,0.01 0,0.01 0.01,0.01 0,0 0,0 0,-0.01 0,0 0,0 0,0 0,0 0,0 0.01,0 0,0 0,0 0,0.01 0,0 0,0 0,-0.01 0,0 0,0 0,0 0,0 0,0 0,0 0,0 0,0 0,0 0,0 0,0 0,0 0,0 0,0 0,0 -0.01,0 -0.01,0 -0.01,0 0,0 0,0 0,0 0,0 0,0 0,0 0,0 0,0 0,0 0,0 0,0 0,0 0,0 0,0 -0.01,0zm-0.04 0.01c0,0 0.01,0.01 0.01,0.01 0,-0.01 0,-0.01 0,-0.01 0,0 0,0 0,0 0,0 0,0 0,0 0.01,0 0.01,0 0.01,0 0,0 0,0 0,0 0,0 0,0 0,0 0,0 0,-0.01 0,-0.01 0,0.01 0,0.01 0,0.01 -0.01,0 -0.01,0 -0.01,0 0,0 0,0 0,0 0,0 0,0 -0.01,0 0,0 0,-0.01 0,-0.01 0,0 0,0 0.01,0 0,0 0,0 0,0l-0.01 0c0,0 0,0 0,0 0,0 0,0.01 0,0.01 0,0 0,0 0,0 0,0 0,0 0,0zm-0.04 0l0 0c0,0 0,0 0,0 0,0 0,-0.01 0,-0.01 0,0 0,0 0,0 0,0 0,0 0,0 0,0 0,0 0,0 0,0.01 0,0.01 0,0.01 0,0 0,0 0,0 0,0 0,0 0,0zm0.01 0.01c0,0 0,0 0,0 0,0 0,0 0.01,0 0,0 0,0 0,0 -0.01,0 -0.01,0 -0.01,-0.01 0,0 0,0 0,0l0 0c0,0 0,0 0,0 0,0 0,0 0,0 0,0 0,0 0,0 0,0 0,0.01 0,0.01zm0.07 -0.01l0 0 -0.01 0 0 0 0 0 0 0 0 0c0,0 0,0 0,0 0,0 0,0 0,0 0,0 0,0 0,0 0,0 0,0.01 0,0.01 0,0 0,0 0,0 0.01,0 0.01,0 0.01,-0.01 0,0 0,0 0,0 0,0 0,0 0,0l0 0 0 0zm-0.05 0c0,0.01 0,0.01 -0.01,0.01 0,0 0,0 0,0 0,0 0,0 0,0 0,0 0,0 0,0 0,0 0,0 0,0 0,0 0,0 0,0 0,0 0,0 0,0l0 0c0.01,0 0.01,0 0.01,0 0,0 0,0 0,-0.01 0,0 0,0 0,0 0,0 0,0 0,0zm0 0.01c0,0.01 0,0.01 0,0.01 0,0 0,0 0.01,0 0,0 0,0 0,0 0,0 0,-0.01 0,-0.01 0,0 0,0 0,0 0,0.01 0,0.01 0,0.01 0,0 0,0 0,0 0.01,0 0.01,0 0.01,-0.01 0,0 0,0 0,0 0,0 -0.01,0 -0.01,0 0,0 0,0 0,0 0,0 0,0 0,0 0,0 0,0 0,0 0,0 0,0 0,0 -0.01,0 -0.01,0 -0.01,0 0,0 0,0 0,0zm0.01 -0.09l0 0 0 0 0 0c0,0 0,0 0,0 0,0 0,0 0,0 0,0 0,0 0,0 0,0 0,0 0,0l0 0zm0.03 0.02l0 0 0 0 0 0 0 0c0.01,0 0.01,0 0.01,0 0,0 -0.01,0 -0.01,0 0,0 0,0 0,0 0,0 0,0 0,0l0 0zm0.01 -0.01l0 0c0,0 0,0 0,0 0,0 0,0 0,0 0.01,0 0.01,0 0.01,0 0,0 0,0 0,0 0,0 0,0 -0.01,0l0 0zm-0.03 -0.08c0,0 0,0 0,0 0,0 0,0 0,0l0 0zm-0.02 -0.01c0,0 0,0 0,0l0 0zm0 0c0,0 0,0 0,0 0,0 0,0 0,0l0 0zm0.01 0c0,0 0,0 0,0l0 0zm0.03 0c0,0 0,0 0,0l0 0zm-0.07 0.04c0,0 0,0 0,0 0,0 0,0 0,0l0 0zm-0.01 0.01c0,0 0,0 0,0 0.01,0 0.01,0 0.01,0l-0.01 0zm0.03 0.02c0,0 0,0 0,0 0,0 0,0 0,0l0 0zm0.01 0.01c0,0 0,0 0,0 0,0 0,0 0,0l0 0zm0.03 0.01c0,0 0,0 0,0 0,0 0,0 0,0l0 0zm-0.02 -0.01c0,0 0,0 0,0l0 0zm0 0c0,0 0,0 0,0 0,0 0,0 0,0l0 0zm-0.03 0c-0.01,0 -0.01,0 -0.01,0l0.01 0zm0.07 0.02c0,0 0,0 -0.01,0 0,0 0,0 0,0l0.01 0zm-0.01 0c0,0 0,0 0,0 0,0 0,0 0,0l0 0zm-0.04 -0.02c0,0 0,0 -0.01,0 0,0 0,0 0,0l0.01 0zm0.07 0.03c0,0 0,0 0,0l0 0zm-0.09 0.04c0,0 0,0 0,0 0,0 0,0 0,0l0 0zm0.01 0l0 0 0 0zm0.06 0c0,0 0,0 0,0 0,0 0,0 0,0l0 0zm-0.01 0.01c0,0 0,0 0,0 0.01,0 0.01,0 0.01,0l-0.01 0zm0.01 -0.06l0 0c0,0 0,0 0,0 0,0 0,0 0,0 0,0 0,0 0,0 0,0 0,0 0,0 0,0 0,0 0,0l0 0zm0 0.01l-0.01 0c0,0 0,-0.01 0,-0.01 0,0 0.01,0 0.01,0 0,0 0,0 0,0 0,0 0,0 0,0.01 0,0 0,0 -0.01,0l0.01 0zm-0.02 -0.11l-0.01 0c0,0 0,0 0,0 0.01,0 0.01,0 0.01,0 0,0 0,0 0,0 0,0 0,0 0,0 0,0 0,0.01 0,0l0 0z"/>
    <path class="fil8" d="M0.31 1.72c0,0 0,0 0,0 0,0 0,0 0,0 0,0 -0.01,0 -0.01,0 0,0 0,0 0.01,0 0,0 0,0 0,0 0,0 0,0 0,0 0,0 0,0 0,0 0,0 0,0 0,0l0 0 0 0zm0 0c0,0 0,0 0,0 0,0 0,0.01 0,0.01l0 0c0,0 0,-0.01 0,-0.01zm0.08 -0.11c0,0 0,0 0,0 0,0 0,0 0,0 -0.01,0 -0.01,0 -0.01,0 0,0 0,0 0.01,0zm-0.02 0c0.01,0 0.01,0 0,0 0,0 0,0 0,0 0,0 0,0 0,0 0,0 0,0 0,0 0,0 0,0 0,0 0,0 0,0 0,0zm0 0.01c0.01,0 0.01,0 0.01,0 0,0 0,0 0,0l0 0c0,0 0,0 0,0 0,0 0,0 -0.01,0zm0 0.01c0,0 0,0 0,0 0,0 0,0 0,0 0,0 0,0 0,0 0,0 0,0 0,0 0,0 0,0 0,0 0,0 0,0 0,0l0 0 0 0c0,0 0,0 0,0 0,0 0,0 -0.01,0 0.01,0 0.01,0 0.01,0 0,0 0,0 0,0l0 0 0 0zm0 0.01c0,0 0,0 0,0 0,0 0,0 0.01,0 0,0 0,0 -0.01,0 0,0 0,-0.01 0,-0.01 0,0.01 0,0.01 0,0.01zm-0.03 0c0,0 0,0 0,0 0,0 0,0 0,0 0,0 0,0 0,0 0,0 0,0 0,0zm0.01 0.01c0,0 0,0 0,0 0,0 0,0 0,0 0,0 0,0 0.01,0 0,0 0,0 0,0 0,0 0,0 0,0 0,0 0,0 0,0 -0.01,0 -0.01,0 -0.01,0 0,0 0,0 0,0 0,0 0,0 0,0 0,0 0,0 0,-0.01 0,0 0,0 0,0 0,0 0,0 0,0 0,0 0,0 0,0 0,0.01 0,0.01 0,0.01 0,0 0,0 0,0 0,0 0,0 0,0zm-0.02 0l0 0c0,0 0,0 0,0 0,0 0,0 0,0l0 0c0,0 0,0 0,0 0,0 0,0 0,0zm0.02 0.01c0,0 0,0 0,0 0,0 0,0 0,0 0,0 0,0 0,0 0,0 0,0 0,0 0,0 0,0 0,0 0,0 0,0 0,0zm-0.02 0.01c0,0 0,0 0,0 0,0 0,0 0.01,0 0,0 0,0 0,0 0,0 0,0 0,0 0,0 0,0 0,0 0,0 0,0 0,0 0,0.01 0,0.01 0,0.01 0,0 0,0 0,0 0,0 0,0 0,-0.01 0,0 0,0 0,0 0,0 0,0 0,0 0,0 0,0 0,0 0,0 0,0 0,0 0,0 -0.01,0 -0.01,0zm-0.01 0.01l0 0c0,0 0,0 0,0 0,0 0,0 0,0 0.01,0 0.01,0 0.01,0 0,0 0,0 0,0 0,0 0,0 0,0 -0.01,0 -0.01,0 -0.01,0 0,0 0,0 0,0 0,0 0,0 0,0 0,0 0,0 0,0 0,0 0,0 0,0 0,0 0,0 0,-0.01 0,0 0,0 0,0 0,0 0,0.01 0,0.01 0,0 0,0 0,0 0,0 0,0 0,0 0,0 0,0 0,0zm0.04 0.01c0,0 0,0 0,0 0,0 0,0 0,0 0,-0.01 0,-0.01 -0.01,-0.01 0,0 0,0 0,0.01 0,0 0,0 0,0 0,0 0,0 0.01,0zm-0.03 0.01c0,0 0,0 0,0 0,0 0,0 0,0 0,0 0,0 0,0 0,0 0,0 0,0 0,0 0,0 0,0 0,0 0,0 0,0 0,0 0,0 0,0zm0.01 0c0,0 0,0 0,0 0,0 0.01,0 0.01,0 0,0 0,0 0,0 0,0 0,0 0,0l-0.01 0c0,0 0,0 0,0 0,0 0,0 0,0zm-0.03 0.01c0,0 0,-0.01 0,-0.01 0,0 0,0 0,0 0.01,0 0.01,0 0.01,0 0,0 0,0 0,0 0,0 0,0 0,0 0,0 0,0 0,0l0 0c-0.01,0 -0.01,0 -0.01,0 0,0 0,0 0,0 0,0 0,0 0,0 0,0 0,0 0,0 0,0 0,0 0,0 0,0 0,0 0,0 0,0 0,0 0,0 0,0 0,0 0,0 0,0 0,0 0,0 0,0 0,0 0,0 0,0 0,0 0,0 0,0 -0.01,0 -0.01,0 0,0 0,0 0,0.01 0,-0.01 0,-0.01 0.01,-0.01 0,0 0,0 0,0.01 0,0 0,0 0,0 0,0 0,0 0,0l0 0 0 0c0,0 0,0 0,0 0,0 0,0 0,0 0,0 0,0 0,0 0,0 0,0 0,0.01 0,0 -0.01,0 -0.01,0 0,0 0,0 0,0 0,0 0,0 0,0 0,0 -0.01,0 -0.01,0 0,0 0,0.01 0,0.01 0,0 0,0 0,0 0,0 0,0 0,0 0,0.01 0,0.01 0,0.01 0,0 0,0 0,0l0 0 0 0c0,0 0,0 0,0 0,0 0,0 0,0 0,0 0,0.01 0,0.01 -0.01,0 -0.01,0 -0.01,0 0,0 0,0 0,0 0.01,0 0.01,0 0.01,0 0,0 0,0 0,0 0,0 0,0 0,0 0,0 0,0 0,0 0,0 0,0 0,0 0,0 0,0 0,0 0,0 0,0 0,0 0,0 0,0 0,0 0,0 0,0 0,0 0,0 0,0 0,0 0.01,0 0.01,0 0.01,0 -0.01,0 -0.01,0 -0.01,0 0,0 0,-0.01 0.01,-0.01 0,0 0,0 0,0 0,0 0,0 0,0 0,0 0,0 0,0 0,0 0,0 0,0 0,0 0,0 0,0 0,0 0,0 0,0 0,0 0,0 0,0 0,0 0,0 0,0 0,0 0,0 0,0l0 -0.01 0 0c0,0 0,0 0,0 0,0 0,0 0,0l0 0 0 0c0,0 0,0 0,0 0,0 0,0 0,0 0,0 0.01,0 0.01,0 0,0 0,0 0,0 0,0 0,0 0,0 0,0 0.01,0 0.01,0 0,0 0,0 0,0 0,-0.01 0,-0.01 0,-0.01 0,0 0,0 0,0 0,0 0,0 0,0 0,0 0,0 0,0 0,0 0.01,0 0.01,0 -0.01,0 -0.01,0 -0.01,0 0,0 0,0 0,0 0,0 0,0 0,0 0,0 0,0 0,0 0,0 0,0 0,-0.01 0,0 0,0 0,0 0,0 0,0 0,0 0,0 0.01,0 0.01,0 0,0 -0.01,0 -0.01,0 0,0 0,0 0,0 0,0 0,0 0,0 0,0 0,0 0,0 0,0 0,0 0,0 0,0 -0.01,0 -0.01,0 0,0 0,0 0,0l0 0 0 0zm0.02 0c0,0 0,0 0,0 0,0 0,0 0,0 0,0 0,0 0,0 0,0 0,0 0,0 0,0 0,0 0,0 0,0 0,0 0,0 0,0 0,0 0,0 0,0 0,0 0,0zm0 0.01l0 0c0,0 0,0 0,0 0,0 0,0 0,0l0 0c0,0 0,0 0,0 0,0 0,0 0,0zm0 0.01c0,0 0,0 0,-0.01 0,0 0,0 0,0 0,0 0,0 0,0 0,0 0,0 0,0 0,0 0,0 0,0 0,0 0,0 0,0 0,0 0,0 0,0 0,0 0,0 0,0.01 0,-0.01 0,-0.01 0,0 0,0 0,0 0,0 0,0 0,0 0,0 0,0 0,0 0,0zm-0.01 0c0,0 0,0 0,0 0,0 0,0 0,0 0,0 0,0 0,0 0,0 0,0 0,0 0,0 0,0 0,0 0,0 0,0 0,0zm-0.01 0.01c0,0 0,0 0,0 0,0 0,0 0,0 0,0 0,0 0,0 -0.01,0 -0.01,0 0,0zm0.01 0.01c0,0 0,0 0,0 0,0 0,0 0,0 0,0 0,0 0,0 0,0 0,0 -0.01,0 0,0 0,0 0,0 0,0 0,0 0,0 0,0 0,0 0,0 0,0 0,0 0,0 0,0 0,0 0,0 0,0 0,0 0,0 0,0 0,0 0,0 0,0 0,0 0,0 0,0 0,0 0,0 0,0 0,0 0,0 0,0 0,0 0,0 0,0 0,0 0,0 0,0 0,0 0,0 0.01,0 0.01,0 0.01,0 0,0 0,0 0,0 0,0 0,0 0,0l0 0 0 0c0,0 0,0 0,0 0,0 0,0 0.01,0 0,0 0,0 0,0 0,0 0,0 0,0 0,0 0,0 0,0 0,0 -0.01,0 -0.01,0l0 0 0 0zm-0.04 0.02c0.01,0 0.01,0 0.01,0 0,-0.01 0,-0.01 0,-0.01 0,0 -0.01,0 -0.01,0 0,0 0,0 0,0 0,0 0,0 0,0 0,0 0,0 0,0 0,0.01 0,0.01 0,0.01 0,0 0,0 0,0zm0.02 0c0,0 0,0 0,0 0,0 0,0 0,0 0,0 0,0 0,0 0,0 0,0 0,0 0,0 0,0 0,0 0,0 0,0 0,0 0,0 0,0 0,0 0,0 0,0 0,0zm0 0.01c0,0 0,0 0,0 0,0 0,0 0,0 0,0 0,0 0,0 0,0 0,0 0.01,0 0,0 0,0 0,0 0,0 0,0 -0.01,0zm-0.03 0.01c0,0 0,0 0,0 0,0 0,-0.01 0,-0.01 0,0 0,0 0,0 0,0 0,0 0,0 0,0 0,0 0,0 0,0 0,0.01 0,0.01zm0.02 0l0.01 0c0,0 0,0 0,0 0,0 0,-0.01 0,-0.01l-0.01 0c0,0 0,0.01 0,0.01 0,0 0,0 0,0zm0.01 -0.05l-0.01 0c0,0 0.01,-0.01 0.01,-0.01 0,0 0,0 0,0l0 0.01 0 0c0,0 0,0 0,0 0,0 -0.01,0 -0.01,0l0.01 0zm0 -0.01l0 0c0,0 0,0 0,0 0,0 0,0 0,0 0,0 0,0 0,0 0,0 0,0 0,0 0,0 0,0 0,0l0 0zm0.01 -0.01c0,0 0,0 0,0l0 0zm0.06 -0.09c0,0 0,0 0,0l0 0zm-0.08 0.11c0,0 0,0 0,0 0,0 0,0 0.01,0l-0.01 0zm0.01 0c0,0 0,0 0,0 0,-0.01 0,-0.01 0,-0.01l0 0.01zm0 -0.01c0,0 0,0 0,0 0,0 0,0 0,0l0 0zm0.01 -0.02c0,0 0,0 0,0 0,0 0,0 0,0l0 0zm0.01 0.04c0,0 0,0 0,0 0,0 0,0 0,0l0 0zm-0.01 0.04c-0.01,0 -0.01,0 -0.01,0 0,0 0,0 0,0 0,0 -0.01,0 -0.01,0 0,0 0,0 0,0 0,0 0,0 -0.01,0 0,0 0,0 -0.01,0 0,0 0,0 -0.01,0 0,0 0,0 0,0 0,0 0,-0.01 0,-0.02 0.01,0 0.01,-0.01 0.01,-0.02 0.01,0 0.01,-0.01 0.01,-0.01 0,0 0,-0.01 0,-0.01 0,0 0,0 0.01,0 0,0 0,0 0,-0.01 0,0 0,0 0,0 0,-0.01 0,-0.01 0.01,-0.02 0,0 0,0 0,0 0,0 0,-0.01 0,-0.01 0,0 0,-0.01 0.01,-0.01 0,0 0,-0.01 0,-0.01 0,-0.01 0.01,-0.01 0.01,-0.01 0,-0.01 0,-0.01 0,-0.01 0,0 0,0 0,-0.01 0,0 0.01,0 0.01,0 0,0 0,0 0,0 0,-0.01 0,-0.01 0,-0.01 0,0 0,-0.01 0,-0.01 0,0 0.01,0 0.01,0 0,0 0,0 0,0 0,0 0,0 0,0 0,0 0,0 0,-0.01 0,0 0,0 0,0 0,0 0,0 0,0 0,-0.01 0,-0.01 0,-0.01 0.01,0 0.01,0 0.01,0 0,0 0,0 0,-0.01 0,0 0,0 0,0 0,0 0,0 0,0 0,0 0,0 0.01,0 0,0 0,0 0,0 0,0 0.01,0 0.01,0 0,0 0.01,0 0.01,0 0,0 0,0 0.01,0 0,0 0,0 0,0 0,0 0.01,0 0.01,0 0,0 0,0 0,0 0,0 0,0 0,0 0,0.01 0,0.01 0,0.01 0,0 0,0.01 0,0.01 -0.01,0 -0.01,0 -0.01,0.01 0,0 0,0.01 -0.01,0.01 0,0.01 0,0.01 0,0.02 -0.01,0 -0.01,0.01 -0.01,0.02 0,0 -0.01,0.01 -0.01,0.02 0,0 0,0 0,0 0,0 -0.01,0 -0.01,0 0,0.01 0,0.01 0,0.01 0,0 0,0.01 0,0.01 0,0 -0.01,0.01 -0.01,0.01 0,0.01 0,0.01 -0.01,0.02 0,0 0,0.01 0,0.01 0,0.01 -0.01,0.01 -0.01,0.02 0,0 0,0 0,0 0,0 0,0 0,0 0,0 0,0 0,0.01 0,0 -0.01,0 -0.01,0 0,0 0,0 0,0 0,0 0,0 0,0 0,0 0,0 0,0 0,0 0,0 0,0.01 0,0 0,0 0,0 0,0 0,0 0,0z"/>
    <path class="fil8" d="M0.61 1.79c0,0 0,0 -0.01,0 0,0 0,0 0,0 -0.01,0 -0.01,0 -0.01,0 0,0 0,0 -0.01,0 0,0 -0.01,0 -0.01,0 0,0 -0.01,0 -0.01,0 0,0 -0.01,0 -0.01,0 0,-0.01 0,-0.01 0,-0.01 0,-0.01 0,-0.01 0,-0.01 0,0 0,-0.01 -0.01,-0.01 0,0 -0.01,0 -0.01,0 -0.01,0 -0.02,0 -0.02,0 -0.01,0 -0.01,0 -0.02,0 0,0 -0.01,0 -0.02,0 0,0 0,0 0,0 0,0 0,0 0,0 0,0.01 0,0.01 0,0.01 0,0 0,0 0,0 0,0 0,0 0,0 0,0.01 0,0.01 0,0.01 0,0 -0.01,0.01 -0.01,0.01 0,0 0,0 0,0 0,0 -0.01,0 -0.01,0 -0.01,0 -0.01,0 -0.02,0 0,0 -0.01,0 -0.01,0 0,0 -0.01,0 -0.01,0 0,0 0,0 0,-0.01 0,0 0,0 0,0 0,0 0,-0.01 0,-0.01 0.01,0 0.01,0 0.01,0 0.01,-0.03 0.01,-0.05 0.02,-0.07 0.01,-0.02 0.02,-0.04 0.03,-0.06 0,-0.01 0,-0.01 0,-0.01 0,-0.01 0,-0.01 0.01,-0.02 0,0 0,0 0,-0.01 0,0 0.01,-0.01 0.01,-0.01 0,0 0,0 0.01,0 0,0 0,0 0.01,0 0,0 0.01,0 0.01,0 0,0 0.01,0 0.01,0 0,0 0,0 0,0 0,0.01 0.01,0.01 0.01,0.01 0,0 0,0 0,0 0,0.01 0,0.01 0,0.01 0.01,0.02 0.01,0.04 0.02,0.05 0.01,0.02 0.02,0.04 0.02,0.06 0,0 0.01,0.01 0.01,0.02 0,0.01 0.01,0.01 0.01,0.02 0,0 0,0 0,0.01 0,0 0,0 0,0 0.01,0.01 0.01,0.01 0.01,0.01 0,0.01 0,0.01 0,0.01zm-0.12 -0.08l0.04 0c-0.01,0 -0.01,-0.01 -0.01,-0.02 0,-0.01 -0.01,-0.02 -0.01,-0.03 0,0 0,0 0,0 0,0.01 -0.01,0.02 -0.01,0.03 0,0.01 -0.01,0.02 -0.01,0.02zm0.05 -0.03c0,0 0,0 0,0 0.01,0 0.01,0 0.01,0 0,0 0,0 0,0 0,-0.01 0,-0.01 0,-0.01 0,0 0,0 0,0 0,0 -0.01,0 -0.01,0 0,0 0,0 0,0 0,0 0,0 0,0 0,0 0,0 0,0 0,0 0,0 0,0.01 0,0 0,0 0,0 0,0 0,0 0,0zm0.02 0.04c0,0 0,0 0,0 0,0 0,0 0,0 0,-0.01 0,-0.01 0,-0.01 0,0 0,0 0,0l0 0.01zm0.02 0.02l0 0 0 -0.01 0 0 0 0.01zm-0.05 0c0,0 0,0 0,0 0,0 0,0 0,0 0,0 0,0 0,0zm0.04 0.03c0,0 0,-0.01 0,-0.01 0,0 0,0 0,0 0,0 0,0 0,0 0,0 0,0 0,0 0,0 0,0 0,0 0,0 0,0 0,0 0,0 0,0 0,0 0,0.01 0,0.01 0,0.01zm0.01 0.01c0,0 0,0 0,0 0,0 0,0 0,0l0 0 0 0 0 -0.01c0,0 0,0 0,0.01 0,0 0,0 0,0 0,0 0,0 0,0 0,0 0,0 0,0 0,0 0,0 0,0 0,0 0,0 0,0l0 0 0 0zm0.01 0c0,0 0,0 0,0 0,0 0,0 0,0 0,0 0,0 0,0 0,0 0,0 0,0 0,0 0,0 0,0 0,0 0,0 0,0 0,0 0,0 0,0 0,0 0,0 0,0zm-0.01 0c0,0 0,0 0,0l0 0zm-0.15 0.01c0,0 0,0 0,0 0,0 0,-0.01 0,-0.01 0,0 0,0 0,0 0,0 0,0 0,0 0,0 0,0 0,0 0,0 0,0 -0.01,0 0.01,0 0.01,0 0.01,0 0,0 0,0 0,0 0,0 0,0 0,0 0,0 -0.01,0 -0.01,0 0.01,0 0.01,0 0.01,0 0,0 0,0 0,0 0,0 0,0 0,0 0,0 0,0 0,0 0,0 -0.01,0 -0.01,0 0,0 0,0 0,0 0,0 0,0 0,0 0,0 0,0 0,0 0,0 0,0 0,0 0,0 0,0 0,0 0,0 0,0 0,0 0,0 0,0 0,0 0,0 0,0 0,0 0,0 0,0 0,0 0,0 0,0 0,0 0,0 0,0 0,0 0,0 0,0 0,0 0,0 0,0 0,0 0,0.01 0,0.01 0,0.01 0,0 0,0 0,0 0,0 0,0 0.01,0 0,0 0,0 0,0 0,0 0,0 0,0zm-0.01 -0.01c0,0 0,0 0,0 0,0 0,0 0,0 0,0 0,0 0,0 0,0 0,0 0,0 0,0 0,0 0,0 0,0 0,0 0,0zm0 -0.01c0,0 0,0 0,0 0,0 0,0 0,0.01 0,0 0,0 0,0 0,0 0,0 0,0 0,0 0,0 0,0 0,-0.01 0,-0.01 0,-0.01 0,0 0,0 0,0 0,0 0,0 0,0zm0.02 0.01c0,0 0,0 0,0 0,0 0,0 0,0 0,0 -0.01,0 -0.01,0 0,0 0,0 0,0 0,0 0,0 0,0 0,0 0.01,0 0.01,0 0,0 0,0 0,0zm0.07 -0.06c0,0 0,0 0,0 0,0 0,0 0,0 0,0 -0.01,0 -0.01,0 0,0 0,0 0,0l0 0.01c0,-0.01 0,-0.01 0,-0.01 0,0 0,0 0,0.01 0,0 0,0 0,0 0,-0.01 0.01,-0.01 0.01,-0.01 0,0 0,0 0,0 0,0 0,0 0,0 0,0 0,0 0,0zm0 0.01c0,0 0,0 0,0 0.01,0 0.01,-0.01 0.01,-0.01 0,0 0,0 0,0 0,0 0,0 0,0 0,0 0,0 0,0 0,0 0,0 0,0 0,0 0,0 0,0 0,0 0,0 -0.01,0 0,0 0,0 0,0 0,0 0,0 0,0 0,0 0,0 0,0 0,0 0,0 0,0 0,0 0,0.01 0,0.01l0 0 0 0c0,0 0,0 0,0 0,0 0,0 0,0 0,0 0,0 0,0 0,0 0,0 0,0 0,0 0,0 0,0 0,0 0,0 0,0l0 0 0 0zm0 0c0,0 0,0 0,0 0,0 0,0 0,0 0,0 0,0 0,0 0,0 0,0 0,0 0,0 0.01,0.01 0.01,0 0,0 0,0 0,0 0,0 0,0 -0.01,0 0,0 0,0 0,0 0,0 0,0 0,0zm0.01 0.01c0,0 0,0 0,0 0,0 0,0 0,0 0,0 0,0 0,0 0,0 0,0 0,0 0,0 0,0 0,0 0,0 0,0 0,0 0,0 0,0 0,0zm0 0c0,0 0,0 0,0 0,0 0,0 0,0 0,0 0,0 0,0 0,0 0,0 0,0 0,0 0,0 0,0 0,0 0,0 0,0zm-0.02 -0.01c0.01,0 0.01,0 0.01,0 0,0 0,0 0,0 0,0 0,0 0,0 0,0 0,0 0,0 0,0 0,0 0,0 0,0 0,0 0,0l0 0c0,0 0,0 0,0 0,0 0,0 -0.01,0zm0.01 0.01c0,0 0,0 0,0 0,0 0,0 0,0 0,0 0,0 0,0 0,0 0,0 0,0 0,0 0,0 0,0 0,0 0,0 0,0 0,0 0,0 0,0 0,0 0,0 0,0 0,0 0,0 0,0zm0 0.01c0,0 0,0 0,0l0 0c0,0 0,0 0,0 0,0 0,0 0,0l0 0 0 0c0,0 0,0 0,0 0,0 0,0 0,0l0 0c0,0 0,0 0,0l0 0 0 0zm-0.01 -0.03c0,0 0,0 0,0 0,0 0,0 0,0 0,0 0,0 0,0 0,0 0,0 0,0zm0.01 0c0,0 0,0 0,0 0,0 0,0 0,0l0 0zm0 0.01c0,0 0,0 0,0 0,0 0,0 0,0l0 0zm0 0.02c0,0 0,0 0,0 0,0 0,0 0,0l0 0zm0.18 -0.01c0,0 0,0 0.01,0 0,0 0,0 0.01,0 0,0 0.01,0 0.02,0 0,0 0.01,0 0.02,0 0,0 0,0 0.01,0 0,0 0,0 0.01,0 0,0.01 0,0.01 0,0.01 0,0 0,0 0,0.01 0,0 0,0 0,0 0,0 0,0.01 0,0.01 0,0 0,0 0,0.01 0,0 0,0 0,0 0,0 0,0.01 0,0.01 0,0 0,0 -0.01,0 0,0 0,0 0,0 0,0 -0.01,0 -0.01,0 0,0 -0.01,0 -0.01,0 0,0 0,0 -0.01,0 0,0 -0.01,0 -0.02,0 0,0 -0.01,0 -0.01,0 -0.01,0 -0.02,0 -0.02,0 -0.01,0 -0.01,0 -0.01,0 -0.01,0 -0.02,0 -0.02,0 -0.01,0 -0.01,0 -0.02,0 0,0 0,0 0,0 0,-0.01 0,-0.01 0,-0.01 0,-0.01 0,-0.02 0,-0.04 0,-0.01 0,-0.02 0,-0.03 0,-0.01 0,-0.02 0,-0.04 0,-0.01 0,-0.02 0,-0.03 0,-0.01 0,-0.01 0,-0.01 0,-0.01 0,-0.01 0,-0.02 0,0 0,0 0,0 0,-0.01 0,-0.01 0,-0.01 0,0 0,-0.01 0,-0.01 0,0 0.01,0 0.01,0 0,0 0,0 0.01,0 0,0 0,0 0,0 0.01,0 0.01,0 0.01,0 0,0 0,0 0.01,0 0,0 0,0 0,0 0,0 0.01,0 0.01,0 0,0 0,0 0,0 0.01,0.01 0.01,0.01 0.01,0.01 0,0 0,0.01 0,0.01 0,0.01 0,0.02 0,0.03 0,0.01 0,0.02 0,0.04 0,0.01 0,0.02 0,0.03 0,0.01 0,0.02 0,0.03zm-0.04 -0.11c0,0 0,0 0.01,0 0,0 0,0 0,0 0,0 0,0 0,0 0,0 -0.01,0 -0.01,0 0,0 0,0 0,0zm0.01 0c0,0 0,0 0,0 0,0 0,0 0,0 0,0 0,0 0,0l0 0c0,0 0,0 0,0 0,0 0,0 0,0 0,0 0,0 0,0zm0 0.01c0,0 0,0 0.01,0 0,0 0,0 0,0l0 0c0,0 0,0 0,0 0,0 -0.01,0 -0.01,0 0,0 0,0 0,0 0,0 0,0 0,0zm0 0.04c0,0 -0.01,0 -0.01,0 0,0 0,0 0,0 0,0 0,0 0,0 0,0 0,0 0,0 0,0 0,0 0,0 0.01,0 0.01,0 0.01,0zm0.02 0.03c0,0 0,0 0,0 0,0 0,0 0,-0.01 0,0 0,0.01 0,0.01 0,0 0,0 0,0 0,0 0,0 0,0zm-0.01 0.04l0 0c0,0 0,0 0,0 0,0 0,0 0,0 0,-0.01 0,-0.01 0,-0.01 0,0 0,0 0,0 0,0 0,0 0,0 0,0 0,0 0,0 0,0 0,0 0,0 0,0 0,0 0,0 0,0 0,0 0,0 0,0 0,0 0,-0.01 0,0 0,0 0,0 0,0 0,0 0,0 0,0 0,-0.01 -0.01,-0.01 0,0 0,0 0,0 0,0 0,0 0,-0.01 0,0 0,0 0,0 0,0 0,0 0,0 0,0.01 0,0.01 0,0.01 0,0 0,0 0,0 0,0 0,0.01 0,0.01 0,0 0,0 0,0 0,0 0,0 0,0 0.01,0 0.01,0.01 0.01,0.01 0,0 0,0 0,0 0,0 0,0 0,0 0,0 0,0 0,0 0,0.01 0,0.01 0,0.01 0,0 0,0 0,0l0 0 0 0c0,0 0,0 0,0.01 0,0 0,0 0,0 0,0 0,0 0,0 0,0.01 0,0.01 0,0.01 0,0 0,0 0,0 0,0 0,0 0,0 0,0 0,0 0,0 0,0 0,0 0,0.01 0,0 0,0 0,0 0,0 0,0 0,0 0,0 0.01,0 0.01,0l0 0c0,0 -0.01,-0.01 -0.01,-0.01 0,-0.01 0,-0.01 0,-0.01 0,0 0,-0.01 0,-0.01 0,0 0,0 0,0l0 0c0,0 0,0 0,0l0 0zm-0.03 0c0,0 0,0 0,0 0.01,0.01 0.01,0.01 0.01,0.01 0,0 0,-0.01 0,-0.01 0,0 0,0 0,0 0,0 0,0 0,0 0,0 0,0 -0.01,0 0,0 0,0 0,0zm0.1 0.01c0,0 0,0 0,0 0.01,0 0.01,0 0.01,0 0,0 0,0 -0.01,0 0,0 0,0 0,0l0 0c0,0 0,0 0,0 0,0 0,0 0,0 0,0 0,0 0,0 0,0 0,0 0,0zm-0.1 0c0,0 0,0 0,0 0,0 0,0 0,0 0,0 0,0 0,0 0,0 0,0 0,0zm0.03 0.01c0,0 0,0 0,0 0,0 0,0 0,0 0,0 0,0 0,0l0 0c0,0 0,0 0,0 0,0 0,0 0,0 0,0 0,0 0,0zm0.07 0c0,0 0,0 0,0 0,0 0,0 0,0 0,0 0,0 0,0 0,0 0,0 0,0 0,0 0,0 0,0 0,0 0,0 0,0 0,0 0,0 0,0zm-0.03 0c0,0 0,0 0,0 0,0 0,0 0,0 0,0 0,0 0,0 0,0 0,0 0,0 0,0 0,0 0,0 0,0 0,0 0,0 0,0 0,0 0,0zm0.04 0l0 0c0,0 -0.01,0 -0.01,0 0,0 0,0 0,0 0,0 0,0 0,0 0,0 0,0 0,0.01 0,0 0,0 0,0l0 0c0,0 0,0 0,0 0,0 0,0 0,0 0,0 0.01,0 0.01,0l0 0 0 0c0,0 0,0 0,0 0,0 0,0 0,0 0,0 0,0 0,0 0,0 0,0 0,-0.01 0,0 0,0 0,0 0,0 0,0 0,0 0,0 0,0.01 0,0.01l0 0 0 -0.01zm-0.09 -0.02c0,0 0,0 0.01,0l-0.01 0zm0.09 0.03c0,0 0,0 0,0 0,0 0,0 0,0l0 0z"/>
    <path class="fil8" d="M0.88 1.6c0,0 0,0 0,0 0,0 0,0 0,0l0 0c0,0 0,0 0,0 0,0 0,0 0,0 0,0 0,0 0,0zm0.01 0c0,0 0,0 0,0 0,0.01 0,0.01 0,0.01 0,-0.01 0,-0.01 0,-0.01 0,0 0,0 0,0 0,0 0,0 0,0 0,0 0,0 0,0 0,0 0,0 0,0 0,0 0,0 0,0zm0.03 0.01c0,0 0,0 0,0 0,0 0,0 0,0 0,0 0,0 0,0 0,0 0,0 0,0zm-0.05 0c0,0 0.01,0 0.01,0 0,0 0,0 0,0 0,0 0,0 0,0 0,0 0,0 -0.01,0l0 0zm0.03 0c0,0 0,0 0,0 0,0 0,0 0,0 0,0 0,0 0,0 0,0 0,0 0,0 0,0 0,0 0,0 0,0 0,0 0,0 0,0 0,0 0,0zm0.03 0c0,0 0,0 0,0 0,0 0,0 0,0 0,0 0,0 0,0 0,0 0,0 0,0 0,0 0,0 0,0l0 0c0,0 0,0 0,0 0,0 0,0 0.01,0l0 0c0,0 0,0 -0.01,0zm-0.07 0.01c0,0 0,0 0,0 0,0 0,0 0,0 0,0 0,0 0,0 0,0 0,0 0,0 0,0 0,0 0,0zm0.03 0c0,0 0,0 0,0 0,0 0,0 0,0l0 0c0,0 0,0 0,0l0 0c0,0 0,0 0,0 0,0 0,0 0,0 0,0 0,0.01 0,0.01 0,0 0,0 0,0 0,-0.01 0,-0.01 0,-0.01 0,0 0,0 0,0 0,0 0,0 0,0l0 0zm0.02 0c0,0 0,0 0,0 0,0 0,0 0,0 0,0 0,0 0,0 0,0 0,0 0,0 0,0 0,0 0,0 0,0 0,0 0,0 0,0 0,0 0,0zm-0.03 0.01l0 0 0 -0.01c0,0 0,0 0,0 0,0 0,0 -0.01,0 0,0 0,0 0,0 0,0 0,0 0,0.01 0.01,0 0.01,0 0.01,0zm0.05 0l0 0c0,-0.01 0,-0.01 0,-0.01 0,0 0,0 0,0l0 0.01zm-0.01 0l0 0c0,0 0,0 0,0 0,-0.01 0,-0.01 0,-0.01l0 0c0,0.01 0,0.01 0,0.01 0,0 0,0 0,0 0,0 0,0 0,0 0,0 0,0 0,0zm0.02 0c0,0 0,0 0,0 0,0 0,0 0,0 0,0 0,0 0,0 0,0 0,0 0,0 0,0 0,0 0,0 0,0 0,0 0,0l0 0zm-0.07 0l0 0c0,0 0,0 0,0 0,0 0,0 0,0 0,0 0,0 0,0zm-0.02 0c0,0 0,0 0,0.01 0,0 0,0 0,0 0,0 0,0 0,0 0,0 0,0 0,0 0,-0.01 0,-0.01 0,-0.01 0,0 0,0 0,0 0,0 0,0 0,0zm0.04 -0.01c0,0 0,0 0,0l0 0zm-0.04 0.14c0,-0.01 0,-0.01 0,-0.01 0,0 0,0 -0.01,0 0,0 0,0 0,0 0,0 0,0.01 0,0.01 0,0 0,0 0,0 0.01,0 0.01,0 0.01,0zm0 -0.02c0,0 0,0 0,0 0,0 0,0 -0.01,0 0,0.01 0,0.01 0,0.01 0,0 0,0 0.01,0 0,0 0,0 0,0 0,0 0,-0.01 0,-0.01zm0.08 0.01l0 0c0,0 0,0 0,0 0,0 0,0 0,0 0,0 0,0 0,0 0,0 0,0 0,0 0,0 0,0 0,0l0 0 0 0c0,0 0,0 0,0 0,0 0,0 0,0 0,0 0,0 0,0 0,0 0,0 0,0 -0.01,0 -0.01,0 -0.01,0 0,0 0,0 0,0 0,0 0,0 0,0 0,0 0,0 0,0 0,0 0,0 0,0 0,0 0,0 0,0 0,0 0,0 0,0 0,0 0.01,0 0.01,0 0,0 0,0 0,0 0,0 0,0 0,0 0,0 0,0 0,0 0,0 0,0 0,0l0 0zm-0.02 0.01l0 0c0,0 0,0 0,0 0,0 0,0 0,0 0,0 0,0 0,0 0,0 0,0 0,0 0,0 0,0 0,0 0,0 0,0 0,0l0 0 0 0c0,0 0,0 0,0 0,0 0,0 0,0 0,0 0,0 0,0 0,-0.01 0,-0.01 0,-0.01 0,0 0,0 0,0 -0.01,0 -0.01,0 -0.01,0 0,0 0,0 0,0 0,0 0,0.01 0,0.01 0,0 0,0 0,0 0,0 0,0 0,0 0,0 0,0 0,0 0,0 0,0 0,0 0,0 0,0 0,0 0,0 0,0 0,0l0 0c0,0 0,0 0,0 0,0 0,0 0,0 0,0 0,0 0,0 0,0 0,0 0.01,0 0,0 0,0 0,0l0 0 0 0zm-0.02 0c0,0 0,0 0,0 0,0 0,-0.01 0,-0.01 0,0 0,0 0,0 0,0 0,0.01 0,0.01 0,0 0,0 0,0zm0.02 0c0,0 0,0 0,0 0,0 0,0 0,0 0,0 0.01,0 0.01,0 0,0 0,0 0,0 0,-0.01 0,-0.01 -0.01,-0.01 0,0 0,0 0,0.01 0,0 0,0 0,0zm-0.03 0c0,0 0,0 0,0 0,0 0,0 -0.01,0 0,0 0,0 0,0 0,0 0,0.01 0,0.01 0,0 0,0 0,0 0,0 0,0 0,0 0.01,0 0.01,0 0.01,0l0 -0.01zm0.05 0c0,0 0,0 0,0 0,0 0,0 0,0 0,0 0,0 0,0.01 0,0 0,0 0,0 0,0 0,0 0,0 0,-0.01 0,-0.01 0,-0.01 0,0 0,0 0,0 0,0 0,0 0,0 0,0 0,0 0,0l0 0 0 0 0 0c0,0 0,0 0,0 0,0 -0.01,0 -0.01,0 0,0 0,0 0.01,0l0 0 0 0zm-0.05 0.01c0,0 0,-0.01 0,-0.01 0,0 0,0 0,0 0,0 0,0 0.01,0 0,0 0,0 0,0l0 0c-0.01,0 -0.01,0 -0.01,0 0,0 0,0 0,0 0,0 0,0.01 0,0.01 0,0 0,0 0,0l0 0c0,0 0,0 0.01,0 0,0 0,0 0,0l0 0c0,0 0,0 0,0 0,0 0,0 0,0 0,0 0,0 0,0 0,0 0,0 0,0 0,0 0,0 0,0 0,0 0,0 0,0 -0.01,0 -0.01,0 -0.01,0 0,0 0,0 0,0l0 0zm-0.01 0l0 0 0 0c0,0 0,0 0,0 0,0 0,0 -0.01,0 0,0 0,0 0,0 0,0 0,0 0,0 0,0 0,0.01 0,0.01l0 0c0,0 0.01,0 0.01,-0.01 0,0 0,0 0,0l0 0zm0.05 0c0,0 0,0 0,0 0,0 0,0 0,0 0,0 0,0 0,0 0,0 0,0 0,0l0 0c0,0 0,0 0,0 0,0 0,0 0,0zm-0.05 0c0,0 -0.01,0 -0.01,0 0,0 0,0 0,0 0.01,0 0.01,0 0.01,0l0 0 0 0zm0.03 0.01l0.01 0c0,0 0,0 0,0 0,0 0,0 0,0 0,0 0,0 0,0l0 0 0 0c0,0 0,0 0,0 0,0 0,0 0,0 -0.01,0 -0.01,0 -0.01,0 0,0 0,0 0,-0.01 0,0 0,0 0,0 0,0 0,0 0,0 0,0 0,0 0,0 0,0 0,0 0,0 0,0 0,0 0,0 0,0 0,0 0,0 0,0 0,0 0,0 0,0.01 0,0.01 0,0.01 0,0 0,0 0,0l0 0zm0.02 0c0,0 0,0 0,0 -0.01,-0.01 -0.01,-0.01 -0.01,-0.01 0,0 0,0 0,0 0,0 0,0 0,0 0,0 0,0 0,0 0,0 0,0 0,0 0,0 0,0 0,0 0,0 0,0 0,0.01l0 0c0,-0.01 0,0 0,0 0,0 0,0 0,0 0,0 0,0 0.01,0 0,0 0,0 0,0 0,0 0,0 0,0zm0.01 0c0,0 0,0 0,-0.01 0,0 0,0 0,0 0,0 0,0 0,0 0,0 0,0 0,0 0,0 0,0 0,0 0,0 0,0 0,0 0,0 0,0 0,0 0,0 0,0 0,0 0,0 0,0 0,0 0,0 0,0 0,0l0 0.01c0,0 0,0 0,0 0,0 0,0 0,0 0,0 0,0 0,0 0,0 0,0 0,0 0,0 0,0 0,0 0,0 0,0 0,0 0,0 0,0 0,0 0,0 0,0 0,0 0,0 0,0 0,0zm-0.05 0c0.01,0 0.01,0 0.01,0 0,0 0,0 0,0l-0.01 0 0 0c0,0 0,0 0,0 0,0 0,0 0,0 0,0 0,0 0,0 0,0 0,0.01 0,0.01 0,0 0,0 0,0 0,0 0,0 0,0 0,0 0,0 0,-0.01l0 0c0,0 0,0 0,0 0,0 0.01,0 0.01,0 0,0 0,0 0,0.01 0,0 0,-0.01 0,-0.01 0,0 0,0 0,0 0,0 0.01,0 0.01,0 0,0 0,0 0,0 0,0 0,0 0,0 0,0 0,0 0,0 0,0 0,0 0,0 -0.01,0 -0.01,0 -0.01,0 0,0 0,0 0,0 0,0 0,0 0,0 0,0 0,0 -0.01,0zm-0.02 -0.02c0,0 0,0 0,0 0.01,0 0.01,0 0.01,0 0,0 0,0 0,0 0,0 0,0 0,0 0,0 0,0 0,0 0,0 0,0 0,0 0,0 0,0 0,0 0,0 0,0 0,0 0,0 0,0 0,0 0,0 0,0 -0.01,0 0,0 0,0 0,0zm0.08 0.02c0,0 0,0 0,0 0,0 0,0 -0.01,0 0,0 0,0 0,0 0.01,0 0.01,0 0.01,0zm-0.12 -0.03c0,0 0,0 0,0 0,0 0,0 0,0 0,0 0,0 0,0 0,0 0,0 0,0 0,0 0,0 0,0 0,0 0,0 0,0zm0.06 0.01l0 -0.01c0,0 0.01,0 0.01,0 0,0 0,0 0,0l-0.01 0c0,0 0,0 0,0 0,0 0,0 0,0l0 0 0 0c0,0 0,0 0,0 0,0 0,0 0,0 0,0 0,0 0,0 0,0 0,0.01 0,0.01 0,0 0,0 0,0 0,0 0,0 0,0 0,0 0,0 0,0l0 0zm-0.04 -0.02c0,0 0,0 0,0 0,0 0,0 0,0 0,0 0,0 0,0 0,0 0,0 0,0 0,0 0,0 0,0 0,0 0,0 0,0 0,0 0,0 0,0zm0.02 0.04c0,0 0,0 0,0 0,0 0,0 0,0 0,0 0,0 0,0l0 0 0 0 0 0c0,0 0,0 0,0 0,0 0,0 0,0 0,0 0,0 0,0 0,0 0,0 0,0 0,0 0,0 0,0l0 0c0,0 0,0 0,0 0,0 0,0 0,0 0,0 0,0 0,-0.01 0,0 0,0 0,0 0,0 0,0 0,0 0,0 0,-0.01 0,-0.01 0,0 0,0 0,0 0,0 0,0 0,0 0,0 0,0 0,0 0,0 0,0 0,0 0,0 0,0 0,0 0,0 -0.01,0 -0.01,0 0,0 0,0 0,0 0,0 0,0 0,0.01 0,0 0.01,0 0.01,0 0,0 0,0 0,0 0,0 -0.01,0 -0.01,0 0,0 0,0 0,0 0,0 0,0 0,0 0,0 0,0 0,0.01 0,0 0,0 0,0 0,0 0,0 0,0 0,0 0,0 0,0 0,0 0,0 0,0 0,0 0,0 0,0 0,0 0,0 0,0 0,0 0,0 0,0 0,0 0,0 0,0 0,0 0,0 0,0 0,0 0,0 0,0 0,0 0,-0.01 0,-0.01 0,0 0,0 0.01,0 0,0 0,0.01 0,0.01 0,0 0,0 0,0zm-0.03 -0.06c0,0 0,0.01 0,0.01 0.01,0 0.01,0 0.01,0 0,0 0,0 0,0 0,0 0,0 0,0 0,0 0,0 0,0 0,0 0,0 0,0 0,0 0,0 0,0 0,0 0,0 0,0 0,0 0,0 0,0 0,0 0,0 0,0 -0.01,0 -0.01,-0.01 -0.01,-0.01 0,0 0,0 0.01,0 0,0 0,0 0,0 0,0 0,0 0,0 0,0 0,0 0,0 0,0 0,0 0,0 -0.01,0 -0.01,0 -0.01,0zm-0.02 0c0,0 0,0 0,0 0,0 0,0 0,0 0,0 0,0 0,0 0,0 0,0 0,0 0,0 0,0 0,0 0,0 0,0 0,0 0,0 0,0 0,0zm0.01 -0.02c0,0 0,0 0,0 0,0 0,0 0,0 0,0 0,0 0,0 0,0 0,0 0,0 0,0 0,0 0,0 0,0 0,0 0,0 0,0 0,0 0,0 0,0 0,0 0,0zm0 0c0,0 0,0 0,0 0.01,0 0.01,0 0.01,0 0,0 0,0 0,0 0,0 0,0 0,0 0,0 0,-0.01 0,-0.01 -0.01,0 -0.01,0 -0.01,0 0,0 0,0 0,0 0,0 0,0 -0.01,0 0,0 0,0 0,0 0,0 0,0 0,0 0,0 0,0 0,0 0,0 0,0 0,0 0.01,0 0.01,0 0.01,0 0,0 0,0 0,0 0,0 0,0 0,0 0,0 0,0 0,0.01 0,0 0,0 0,0 0,0 0,0 0,0zm-0.02 -0.01c0,0 0,0 0,0 0,0.01 0,0.01 0,0.01 0,0 0,0 0,0 0,0 0,0 0,0 0,0 0,0 0.01,0 0,-0.01 0,-0.01 0,-0.01 0,0 0,0 0,0 0,0 -0.01,0 -0.01,0zm0.03 0c0,0 0,0 0,0 0,0 0,0 0,0 0,0 0,0 0,0 0,0 0,0 0,0 0,0 0,0 0,0 0,0 0,0 0,0 0,-0.01 0,-0.01 0,-0.01 0,0 0,0 0,0 0,0.01 0,0.01 0,0.01 0,0 0,0 0,0zm-0.02 0c0,0 0.01,0 0.01,0 0,-0.01 0,-0.01 -0.01,-0.01 0,0 0,0 0,0.01l0 0zm-0.01 -0.01c0,0 0,0 0,0 0,0 0,0 0,0 0,0 0,0 0,0 0,0 0,0 0,0 0,0 0,0 0,0zm0.03 0c0,0 0,0 0,0 0,0 0,0 0,-0.01 0,0 0,0 0,0 0,0 0,0 0,0 0,0 0,0 0,0 0,0 0,0 0,0 0,0 0,0 0,0 -0.01,0 -0.01,0 -0.01,0 0,0 0,0 0,0 0,0 0,0 0,0 0,0 0,0 0,0l0 0 -0.01 0c0,0 0,0 0,0 0,0 0,0 0,0 0,0 0,0 0,0 0,0 0,0 0,0 0,0 0,0 0,0l0.01 0 0 0c0,0 0,0 0,0 0,0.01 0,0.01 0,0.01 0,0 0,0 0,0 0,0 0,0 0,0 0,0 0,0 0,0 0,0 0,0 0,0 0,0 0,0 0,0 0,0 0,0 0,0 0,0 0,0 0.01,0 0,0 0,0 0,0 0,0 0,0 0,0 0,0 0,0 0,0 0,0 0,0 0,0 0,0 0,0 0,0l0 0 0 0zm0 -0.02c0,0 0,0 0,0.01 0,0 0,0 0,0 0,0 0,0 0,0 0,0 0,0 0,0 0,0 0,0 0,0 0.01,0 0.01,0 0.01,0 0,0 0,0 -0.01,0 0,0 0,-0.01 0,-0.01zm-0.03 0c0,0 0,0 0,0 0,0 0,0 0,0 0,0 0,0 0,0 0,0 0,0 0,0zm0.04 0c0,0 0,0 0,0 0,0 0,0 0,0 0,0 0,0 0,0 0,0 0,0 0,0zm-0.01 0c0,0 0,0 0,0 0,0 0,0 0,0 0,0 0,0 0,0 0,0 0,0 0,0l0 0zm0.01 -0.01c0,0 0,0.01 0,0.01 0,0 0,0 0,0 0,0 0,0 0,0 0,0 0,0 0,0 0,0 0,0 0,0 0,0 0,0 0,0 0,0 0,0 0,0 0,0 0,-0.01 0,-0.01zm-0.01 0c0,0 0,0 0,0 0,0 0,0 0,0.01 0.01,0 0.01,0 0.01,-0.01 0,0 0,0 0,0 0,0 0,0 -0.01,0 0,0 0,0 0,0l0 0zm-0.01 -0.01c0,0 0,0 0,0 0,0 0,0 0,0 0,0 0,0 0,0.01 0,0 0,0 0,0 0,0 0,0 0,0 0.01,0 0.01,0 0.01,0 0,0 0,0 0,0 0,0 0,0 0,0 0,0 0,0 0,0 0,0 0,-0.01 0,-0.01 0,0 0,0 0,0l0 0c0,0 0,0 0,0 0,0 0,0 0,0 0,0 0,0 0,0 0,0 0,0 0,0l0 0c0,0 0,0 0,0 0,0 0,0 0,-0.01 0,0 0,0 0,0 0,0 0,0 0,0 0,0 0,0 0,0 0,0 -0.01,0 -0.01,0 0,0 0,0 0,0 0,0 0,0 0,0 0,0 0,0 0,0l0 0c0,0 0,0 0,0 0,0 0,0 0,0 0,0 0,0 0,0 0,0 0,0 0.01,0 0,0 0,0 0,0 0,0 0,0 0,0 0,0 0,0 0,0.01 0,0 -0.01,0 -0.01,0zm0.02 0c0,0 0,0 0,0.01 0,0 0,0 0,0 0,0 0,0 0,0 0,0 0,0 0.01,0 0,0 0,0 0,0 0,0 0,0 0,0 0,0 0,0 0,0 0,-0.01 0,-0.01 0,-0.01 0,0 0,0 0,0 0,0 0,0 0,0 0,0 0,0 0,0 0,0 0,0 0,0 0,0 0,0 0,0 0,0 -0.01,0.01 -0.01,0.01 0,0 0,-0.01 0,-0.01zm-0.01 -0.01c0,0 0,0 0,0.01 0,0 0,0 0,0 0,0 0,0 0,0 0.01,0 0.01,0 0.01,0 0,0 0,0 0,0 0,-0.01 -0.01,-0.01 -0.01,-0.01zm0.01 -0.01c0,0 0,0.01 0,0.01 0.01,0 0.01,0 0.01,0 0,0 0,0 0,0 0,0 -0.01,0 -0.01,0 0,-0.01 0,-0.01 0,-0.01 0,0 0,-0.01 0,-0.01 0,0 0,0 0,0 0,0 0,0 0,0.01l0 0c0,0 0,0 0,0 0,0 0,0 0,0zm0.02 0.01c0,-0.01 0,-0.01 0,-0.01 0,0 -0.01,0 -0.01,0 0,0.01 0,0.01 0,0.01 0,0 0,0 0,0 0,0 0,0 0,0 0.01,0 0.01,0 0.01,0 0,0 0,0 0,0l0 0zm0 -0.01c0,0 0,0 0,0 0,0 0,0 0,0 0,0 0,0 0,0 0,0 0,0 0,0 0,0 0,0 0,0 0,0 0,0 0,0l0 0 0 0c0,0 0,0 0,0 0,0 0,0 0,0 0,0 0,0 0,0zm-0.01 0.15l0 0c0,0 0,0 0,0 0,0 0,0 0,0 0,0 0,0 0,-0.01 0,0 0,0 0,0 0,0 -0.01,0 -0.01,0 0,0 0,0 0,0 0,0 0,0.01 0,0.01 0,0 0,0 0.01,0 0,0 0,0 0,0 0,0 0,0 0,0l0 0zm-0.02 0l0.01 0c0,0 0,0 0,0 0,0 0,0 0,0l0 0 -0.01 -0.01 0 0c0,0 0,0 0,0 0,0 0,0 0,0 0,0 0,0 0,0.01 0,0 0,0 0,0 0,0 0,0 0,0l0 0zm0.01 -0.01l0 0c0,0 0,0 0,0 0,0 0,0 0,-0.01 0,0 0,0 0,0 0,0 0,0 0,0 0,0 0,0 0,0 0,0 0,0 0,0 0,0 -0.01,0 -0.01,0 0,0 0,0 0,0 0,0 0,0 0,0 0,0 0,0 0,0 0,0 0,0.01 0.01,0.01 0,0 0,0 0,0 0,0 0,0 0,0l0 0zm-0.01 -0.09l0 0.01c0,0 0,0 0,0 0,0 0,0 0,0 0,0 0,0 0,0 0,0 0,0 -0.01,0 0,0 0,0 0,0l0 0 0 0c0,-0.01 0,-0.01 0,-0.01 0,0 0,0 0,0 0,0 0,0 0,0 0,0 0,0 0.01,0 0,0 0,0 0,0 0,0 0,0 0,0 0,0 0,0 0,0.01l0 -0.01zm-0.01 0.01c0,0 0,0 0,0 0,0 0,0 0,0 0,0 0,0 0,0 0,0 0,-0.01 0,-0.01 0,0 0,0 0,0 0,0 0,0 0,0 0,0 0,0 0,0.01l0 0 0 0zm0.09 0.08c0,0 0,0 0,0 0,0 0,0 0,0l0 0zm0.02 -0.01c0,0 0,0 0,0 0,0 0,0 0,0l0 0zm-0.08 0.02c0,0 0,0 0,0 0,0 0,0 0,0l0 0zm-0.01 -0.01c0,0 0,0 0,0 0,0 0,0 0,0l0 0zm0 0.01c0,0 0,0 0,0l0 0zm0.02 -0.01c0,0 0,0 0,0l0 0zm0.07 0c0,0 0,0 0,0l0 0zm-0.06 0.01c0,0 0,0 0,0 0,0 0,0 0,0l0 0zm0.03 0.01c0,0 0.01,0 0.01,0l-0.01 0zm-0.04 -0.03c0,0 0,0 0,0 0,0 0,0 0,0 0,0 0,0 0,0 0,0 0,0 0,-0.01 0,0 0,0 0,0 0,0 0,0 0,0l0 0.01zm0.02 0.03c0,0 0,0 0,0l0 0zm-0.05 -0.05c0,0 0,0 0,0 0,0 0,0 0,0l0 0zm-0.01 -0.05c0,0 0,0 0,0 0,0 0,0 0,0l0 0zm0.01 -0.01c0,0.01 0,0.01 0,0.01 0,0 0,0 0,0l0 -0.01zm-0.01 0c0,0 0,0 0,0 0,0 0,0 0,0l0 0zm0.11 -0.02c0,0 -0.01,0 -0.01,0 0,0 0,0 -0.01,-0.01 0,0 0,0 0,0 -0.01,0 -0.01,0 -0.02,0 0,0 -0.01,0 -0.02,0 0,0.01 -0.01,0.01 -0.01,0.02 -0.01,0 -0.01,0.01 -0.01,0.01 -0.01,0.01 -0.01,0.02 -0.01,0.02 0,0.01 0,0.01 0,0.02 0.01,0 0.01,0.01 0.01,0.01 0,0 0,0 0,0 0,0.01 0.01,0.01 0.01,0.01 0,0 0,0 0,0 0,0.01 0,0.01 0.01,0.01 0,0 0.01,0 0.01,0 0,0 0.01,0 0.01,0 0.01,0 0.01,0 0.01,0 0.01,0 0.01,0 0.01,0 0.01,0 0.01,0 0.01,0 0,0 0,0 0,0 0,-0.01 0,-0.01 0.01,-0.01 0,0 0,0 0,0 0,0 0,0 0,0.01 0,0 0.01,0 0.01,0 0,0.01 0,0.01 0,0.01 0.01,0.01 0.01,0.01 0.01,0.01 0,0 0,0 0,0 0,0 0,0 0,0 0,0.01 0,0.01 0.01,0.01 0,0 0,0 0,0 0,0 0,0.01 -0.01,0.01 0,0 0,0 0,0 -0.01,0.01 -0.01,0.01 -0.01,0.01 -0.01,0 -0.01,0 -0.01,0 -0.01,0 -0.01,0 -0.02,0.01 0,0 -0.01,0 -0.02,0 -0.01,0 -0.01,0 -0.02,-0.01 -0.01,0 -0.02,0 -0.02,0 -0.01,-0.01 -0.02,-0.01 -0.02,-0.02 -0.01,0 -0.01,-0.01 -0.02,-0.01 0,-0.01 0,-0.01 -0.01,-0.02 0,0 0,-0.01 0,-0.01 -0.01,-0.01 -0.01,-0.01 -0.01,-0.02 0,0 0,-0.01 0,-0.02 0,-0.01 0,-0.02 0,-0.03 0,0 0.01,-0.01 0.01,-0.02 0.01,-0.01 0.01,-0.02 0.02,-0.02 0.01,-0.01 0.01,-0.01 0.02,-0.02 0.01,0 0.02,-0.01 0.03,-0.01 0,0 0.01,0 0.02,0 0.01,0 0.02,0 0.03,0 0.01,0 0.02,0.01 0.03,0.01 0,0 0,0 0,0 0,0 0,0.01 0,0.01 0,0 0.01,0 0.01,0 0,0 0,0 0,0 0,0 0,0 0,0.01 -0.01,0 -0.01,0 -0.01,0 0,0 0,0 0,0 0,0.01 0,0.01 0,0.01 0,0 0,0 0,0 -0.01,0 -0.01,0 -0.01,0 0,0 0,0.01 0,0.01 0,0 0,0 0,0 -0.01,0 -0.01,0.01 -0.01,0.01 0,0 0,0 0,0z"/>
    <path class="fil8" d="M1 1.68l0 0c0,0.01 0,0.01 0,0.01 0,0 0,0 0,0 0,0 0,0 0,0 0,0 0,0 0,0l0 -0.01zm0.08 -0.09c0,0 0.01,0 0.02,0 0.01,0 0.02,0 0.02,0 0.01,0.01 0.01,0.01 0.01,0.01 0,0 0,0 0.01,0 0,0 0,0 0,0 0.01,0.01 0.01,0.01 0.01,0.01 0,0 0,0 0.01,0 0,0.01 0,0.01 0,0.01 0,0 0,0 0,0 0,0 0,0 0,0 0,0 0,0 0,0 0,0 0,0 0,0 0.01,0.01 0.01,0.01 0.01,0.01 0,0 0,0 0,0 0,0 0,0.01 0.01,0.01 0,0 0,0 0,0 0,0 0,0.01 0,0.01 0,0 0,0 0,0 0,0 0,0 0,0 0,0 0,0 0,0 0,0 0.01,0.01 0.01,0.01 0,0.01 0,0.01 0,0.02 0,0 0,0.01 0,0.01 0,0.01 0,0.01 0,0.02 0,0.01 -0.01,0.02 -0.01,0.03 -0.01,0.01 -0.01,0.02 -0.02,0.03 0,0 -0.01,0 -0.01,0.01 -0.01,0 -0.01,0 -0.02,0.01 0,0 -0.01,0 -0.01,0 -0.01,0 -0.01,0.01 -0.02,0.01 -0.01,0 -0.01,0 -0.02,0 -0.01,0 -0.02,-0.01 -0.03,-0.01 0,0 -0.01,0 -0.02,-0.01 0,0 -0.01,-0.01 -0.02,-0.01 0,0 0,-0.01 -0.01,-0.01 0,-0.01 0,-0.01 -0.01,-0.02 0,0 0,-0.01 -0.01,-0.02 0,0 0,-0.01 0,-0.02 0,0 0,-0.01 0,-0.02 0,0 0,-0.01 0,-0.01 0.01,-0.01 0.01,-0.01 0.01,-0.02 0,0 0,0 0,0 0,0 0,0 0,-0.01 0,0 0,0 0.01,0 0,0 0,0 0,0 0,-0.01 0,-0.01 0,-0.01 0,0 0,0 0,0 0,0 0,0 0,0 0,0 0,0 0,0 0,0 0,0 0,0 0,0 0,0 0,0 0.01,0 0.01,-0.01 0.01,-0.01 0,0 0,0 0,0 0.01,-0.01 0.01,-0.01 0.01,-0.01 0.01,-0.01 0.01,-0.01 0.02,-0.01 0,0 0.01,-0.01 0.02,-0.01 0,0 0.01,0 0.02,0zm-0.07 0.1c0,0 0,0 0,0 0,0 0,0 0,0 0,0 0,-0.01 0,-0.01 0,0 0,0 0,0 0,0 0,0 0,0 0,0 0,0 0,0 0,0 0,0 0,0 0,0 0,0 0,0 0,0 0,0 0,0 0,0 0,0 0,0l0 0 0 0c0,0 0,0 0.01,0 0,0 0,0 0,0l-0.01 0 0 0 0 0c0,0 0,-0.01 0,-0.01 0,0 0,0 0,0 0,0 0,0 0,0 0,0 0,0 0,0 0,0 -0.01,0 -0.01,0 0,-0.01 0,-0.01 0,-0.01 0,0.01 0,0.01 0,0.01 0,0 0,0 0,0 0,0 0,0 0,0 0,0 0,0 0,0 0,0 0,0 0,0 0,0 0,0 0,0 0,0 0.01,0 0.01,0 0,0 0,0 0,0 0,0 0,0 0,0 0,0 0,0 0,0 0,0.01 0,0.01 -0.01,0.01 0,0 0,0 0,0 0,0 0,0 0,0 0,0 0,0 0,0 0,0 0,0 0,0 0,0 0,0 0,0 0,0 0,0 0,0.01 0,0 0,0 0,0 0,0 0,0 0,0 0,0 0,0 0,0 -0.01,0 -0.01,0 -0.01,0 0,0 0,0 0,0 0,0 0,0 0,0 0,0 0,0 0,0.01 0,0 0,0 0,0 0,0 0,0 0,0 0,0 0,0 0,0 0,0 0.01,0 0.01,0 0,0 0,0 0,0 0,0 0,0 0,0 0,0 0,0 0,0 0,0 0,0 0,0 0.01,0 0.01,0 0.01,0 0,0 0,0 0,0 0,0 -0.01,0 -0.01,0 0,0 0,0 0,0 0.01,0 0.01,0 0.01,0 0,0 0,0 0,0 0,0 0,0 0,0 0,0 0,0 0,0l0 0 0 0c0,0 0,0 0,0l0 0 0 0c0,0 0,0 0,0 0,0 0,0 0,0 0,0 0,0 0,0 0,0 0,0 0,0l0 0 0 0c0,0 0,0 0,0 0,0 0,0 0,0 0,0 0,0 0,0 0,0 0,0 0,0l0 0 0 0 0 0c0,0 0,0 0,-0.01 0,0 0,0 0,0 0,0 0,0 0,0 0,0 0,0 0,0l0 0 0 0zm0.05 -0.08c0,0 0.01,0 0.01,0 0,0 0,0 0,0 0,0 0,0 0,0 0,0 0,0 0,0 0,0 0,0 0,0 0,0 0,0 0,-0.01 0,0 0,0 0,0 0,0 0,0 0,0 0,0 0,0 0,0 0,0 0,0 0,0 0,0 0,0 0,0 0,0 0,0 0,0 -0.01,0 -0.01,0 -0.01,0l0 0c0,0 0,0 0,0 0,0 0,0 -0.01,0l0 0c0.01,0 0.01,0 0.01,0 0,0 0,0 0,0 0,0 0,0 0,0l0.01 0c-0.01,0 -0.01,0 -0.01,0 0,0 0,0 0,0 0,0.01 0,0.01 0,0.01zm0.04 -0.01c0,0 0,0 0,0 0,0 0,0 0,0 0,0 0,0 0,0 0,0 0,0 0,0 0,0 0,0 0,0 0,0 0,0 0,0 0,0 0,0 0,0 0,0 0,0 0,0zm-0.01 0.01c0,0 0,0 0,0 0,0 0,0 0,0 0,0 0,0 0,0 0,0 0,0 0,0 0,0 0,0 0,0 0,0 0,0 0,0 0,0 0,0 0,0 0,-0.01 0,-0.01 0,-0.01 0,0 0,0 -0.01,0 0,0 0,0 0,0 0,0.01 0,0.01 0,0.01 0,0 0,0 0,0 0,0 0,0 0,0 0,0 0,0 0,0 0,0 0,0 0,0 0,0 0,0 0,0l0 0 0 0c0,0 0,0 0,0 0,0 0,0 0,0 0,0 0,0 0,0 0.01,0 0.01,0 0.01,0l0 0 0 0zm-0.04 0l0 0 0 0 0 0 0 0zm0.01 0.01c0,0 0,0 0,0 0,0 0,0 0,-0.01 0,0 0,0 0,0 -0.01,0 -0.01,0 -0.01,0 0,0 0,0 0,0 0,0 0,0 0,0 0,0.01 0,0.01 0,0.01 0,0 0.01,0 0.01,0zm0.06 -0.01c0,0 0,0 0,0 0,0.01 0,0.01 0,0.01 0,-0.01 0,-0.01 0,-0.01 0,0 0,0 0,0l0 0zm0.02 0.01c0,0 0,0 0,0 0.01,0 0.01,0 0.01,0 0,0 0,0 0,0 0,0 0,0 0,0 0,0 0,0 0,0 0,0 0,0 0,0 0,0 0,0 0,0 0,0 -0.01,0 -0.01,0 0,0 0,0 0,0 0,0 0,0 0,0zm0 0c0,0 0,0 0,0 0,0 0,0 0,0 0,0 0,0 0,0 0,0 0,0 0,0 0,0 0,0 0,0 0,0 0,0 0,0 0,0 0,0 0,0zm-0.06 0c0,0 0,0 0,0 0,0 0,0 0,0 0,0 0,0 0,0 0,0 0,0 0,0 0,0 0,0 0,0 0,0 0,0 0,0l0 0 0 0c0,0 0,0 0,0 -0.01,0 -0.01,0 -0.01,0 0.01,0 0.01,0 0.01,0 0,0 0,0 0,0 0,0 0,0 0,0l0 0zm-0.06 0.01c0,0 0,0 0,0 0,0 0,0 0.01,0 0,0 0,0 0,0 0,0 0,-0.01 0,-0.01 0,0 0,0 0,0 0,0 0,0 0,0 -0.01,0 -0.01,0 -0.01,0 0,0 0,0 0,0 0,0 0,0 0,0 0,0 0,0 0,0 0,0 0,0 0,0 0,0 0,0 0,0.01zm0.1 -0.01c0,0 0,0 0,0 0,0 0,0 0,0 0,0 0,0 0,0 0,0 0,0 0,0 0,0 0,0 0,0 0,0 0,0 0,0 0,0 0,0 0,0 0,0 0,0 0,0zm-0.08 0c0,0 0,0 0,0 0,0 0,0 0,0 0,0 0,0 0,0 0,0 0,0 0,0 0,0 0,0 0,0 0,0 0,0 0,0zm0.07 0c0,0 0,0 0,0 0,0 0,0 0,0 0,0 -0.01,0 -0.01,0 0,0 0,0 0,0 0,0 0,0 0,0 0,0 0,0 0,0 0,0 0,0.01 0,0.01 0.01,0 0.01,0 0.01,-0.01zm-0.05 0.01c0,0 0,0 0,0 0,0 0,0 0.01,0 0,0 0,0 0,0 0,0 0,0 0,0 0,0 0,0 0,0 0,0 0,0 0,0 0,0 0,0 0,0 0,0 0,0 0,0 0,0 0,0 0,-0.01 0,0 0,0 0,0 0,0 0,0 -0.01,0 0,0 0,0 0,0 0,0.01 0,0.01 0,0.01zm0.07 -0.01c0,0 0,0 0,0 0,0 0,0 0,0 0,0 0,0 0,0 0,0 0,0 0,0zm-0.08 0.01c0,0 0,0 0,0 0,0 0,0 0,0 0,0 0,0 0,0 0,-0.01 0,-0.01 0,-0.01 0,0 0,0.01 0,0.01 0,0 0,0 0,0zm0.09 0c0,0 0,0 0,0 0.01,0 0.01,0 0.01,0 0,0 0,0 0,0 0,0 0,0 0,0 0,0 0,0 0,0 0,0 0,-0.01 0,-0.01 0,0 0,0 0,0 -0.01,0.01 -0.01,0.01 -0.01,0.01zm-0.1 0.01c0,0 0,0 0,0 0,0 0,0 0,0 0,0 0,0 0,0 0,0 0,0 0,0 0,0 0.01,0 0.01,0 0,0 0,0 0,-0.01 0,0.01 0,0 0,0 0,0 -0.01,0 -0.01,0 0,0 0,0 0,0 0,0 0,0 0,0 0,0 0,0 0,0 0,0 0,0 0,0 0,0 0,0 0,0 0,0.01 0,0.01 0,0.01zm0.1 0l0 -0.01 0 0c0,0 0,0.01 0,0.01zm-0.01 -0.01c0,0 0,0 0,0 0,0 0,0 0,0 0,0 0,0 0,0zm-0.1 0.01c0,0 0,0 0,0 0,0 0,0 0,0 0,0 0,0 0,0 0,0 0,0 0,0 0,0 0,0 0,0 0,0 0,0 0,0 0,0 0,0 0,0 -0.01,0 -0.01,0 0,0zm0.06 0.1c0,0 0.01,0 0.01,0 0.01,0 0.01,0 0.02,-0.01 0,0 0,0 0.01,-0.01 0,0 0,-0.01 0,-0.01 0,0 0.01,-0.01 0.01,-0.01 0,-0.01 0,-0.01 0,-0.02 -0.01,0 -0.01,0 -0.01,-0.01 0,0 0,-0.01 0,-0.01 0,0 -0.01,-0.01 -0.01,-0.01 0,0 -0.01,0 -0.01,-0.01 -0.01,0 -0.01,0 -0.02,0 0,0 -0.01,0 -0.01,0 -0.01,0 -0.01,0 -0.01,0 -0.01,0 -0.01,0.01 -0.01,0.01 -0.01,0 -0.01,0 -0.01,0.01 0,0 -0.01,0 -0.01,0 0,0.01 0,0.02 0,0.02 0,0.01 0,0.02 0,0.03 0,0.01 0,0.01 0.01,0.02 0,0 0.01,0.01 0.02,0.01 0,0 0,0 0,0 0,0 0.01,0 0.01,0 0,0 0,0 0,0 0.01,0 0.01,0 0.01,0zm-0.07 -0.09c0,0 0,0 0,0 0,0 0,0 0,-0.01 0,0 0,0 -0.01,0 0,0 0,0 0,0 0,0 0,0.01 0,0.01 0,0 0,0 0,0l0 0 0 0c0,0 0,0 0,0 0,0 0,0 0,0l0 0 0 0 0 0 0 0 0 0 0 0 0 0c0,0 0,0 0,0 0,0 0,0 0,0 0,0 0,0 0,0l0.01 0 0 0zm0.03 0l0 0c0,0 0,0 0,0 0,0 0,0 0,0 0,0 0,0 0,0 0,0 0,0 0,0 0,0 0,0 0,0zm0.12 0c0,0 0,0 0,0 0,0 0,0 0,0 0,0 0,0 0,0 0,0 0,0 0,0zm-0.15 0c0,0 0,0 0,0 0,0 0,0 0,0 0,0 0,0 0.01,0 0,0 0,0 0,0 0,0 0,0 0,0 0,0 0,0 -0.01,0l0 0zm0.02 0.01c0,-0.01 0,-0.01 0,-0.01 0,0 0,0 -0.01,0 0.01,0 0.01,0 0.01,0 0,0 0,0.01 0,0.01zm0.12 -0.01c0,0 0,0 0,0 0,0 0,0 0,0 0,0 0,0 0,0 0,0 0,0 0,0 0,0 0,0 0,0 0,0 0,0 0,0zm-0.14 0.01c0,0 0,0 0,0 0,0 0,0 0,0 0,0 0,0 0,0 0,0 0,0 0,0zm0.13 0l0 0c0,0 0,0 0,0 0,0 0,0 0,0 0,0 0,0 0,0 0,0 0,0 0,0 0,0 0,0 0,0zm-0.15 0.01c0,0 0,0 0,0 -0.01,0 -0.01,0 -0.01,0 0,0 0,0 0,0 0,0.01 0,0.01 0,0.01 0.01,0 0.01,0 0.01,0 0,0 0,0 0,-0.01zm0.03 0.01c0,0 0,0 0,0 0,0 0,0 0,0 0,0 0,0 0,0 0,-0.01 0,-0.01 0,-0.01 0,0 0,0 0,0 0,0 0,0 0,0 0,0 0,0 0,0 0,0 0,0 0,0 -0.01,0 -0.01,0.01 0,0.01zm0.12 0c0,0 0,0 0.01,0 0,0 0,0 0,0 0,0 0,0 0,0 0,0 0,0 0,0 0,0 0,0 0,0 0,0 0,0 0,0 0,0 0,0 0,0 0,0 0,0 0,0 0,0 0,0 0,0 0,0 0,0 0,0 -0.01,0 -0.01,0 -0.01,0 0,0 0,0 0,0zm-0.16 0.01c0,0 0,-0.01 0,-0.01 0,0 0,0 0,0 0,0 0,0 0,0 0,0 0,0 0,0 0,0 0,0 0,0 0,0 0,0 0,0.01zm0.04 -0.01c0,0.01 0,0.01 0,0.01 0,0 0,0 0,0 0,0 0,0 0,0 0,0 0,0 0,-0.01zm0.15 0.01c0,0 0,0 0,0 0,0 0,0 0,0 0,0 0,0 0,0zm-0.03 0.01c0,0 0,0 0,0 0,0 0,0 0,0 0,0 0,-0.01 0,-0.01 0,0 0,0 0,0 0,0.01 0,0.01 0,0.01zm-0.13 0c0,0 0,0 0,0 0,0 0,0 0,0 0,0 0,0 0,0 0,0 0,0 0,0 0,0 0,0 0,0 0,0 0,0 0,0zm0.01 0.01c0,0 0,-0.01 0,-0.01 0,0 0,0 0,0 0,0 0,0 0,0 0,0.01 0,0.01 0,0.01zm-0.04 0c0,0 0,0 0,0 0,0 0,0 0,0 0,0 0,0 0,0 0,0 0,0 0,0l0 0zm0.01 0l0 0c0,0 0,0 0,0 0,0 0,0 0,0l0 0zm0.15 0c0,0 0,0 0,0 0,0 0,0 0,0l0 0c0,0 0,0 0,0zm-0.14 0.01c0,0 0,0 0,0 0,0 0,0 0,0 0,0 0,0 0,0 0,0 0,0 0,0 0,0 0,0 0.01,0 0,0 0,0 0,0 0,0 0,0 0,0 0,0 0.01,0 0.01,0 0,0 0,0 0,0 0,0 0,0 0,0 0,0 0,0 0,0 0,0 0,0 0,0 0,0 0,-0.01 0,-0.01 0,0 0,0 0,0 0,0 -0.01,0 -0.01,0.01 0,0 0,0 -0.01,0l0 0 0 0c0,0 0,-0.01 0,-0.01 0,0 0,0 -0.01,0 0,0 0,0 0.01,0.01 0,0 0,0 0,0l-0.01 0 0 0c0,0 0,0 0,0 0,0 0,0 0,0 0,0 0,0 0,0 0,0 0,0 0,0 0,0 0,0 0,0 0,0 0,0 0,0 0.01,0 0.01,0 0.01,0l0 0c0,0 0,0 0,0 0,0 0,0 0,0 0,0 0,0 0,0 0,0 0,0 0,0l0 0 0 0zm0.16 -0.01l0 0c0,0 0,0 0,0 0,0 0,0 0,0 0,0 0,0 0,0 0,0 -0.01,0 -0.01,0 0,0 0,0 0,0 0,0.01 0,0.01 0,0.01 0,0 0,0 0,0 0,0 0,0 0,0 0,0 0,0 0.01,0 0,0 0,0 0,0l-0.01 0 0.01 0c-0.01,0 -0.01,0 -0.01,0 0,0 0,0 0,0 0.01,0 0.01,0 0.01,0 0,0.01 0,0.01 0,0.01 0,0 0,0 0,0l0 0 0 0 0 0 0 0 0 0c0,0 0,0 0,0 0,0 0,0 0,0l0 0 0 0c0,0 0,0 0,0 0,0 0,0 0,0 0,0 0,0 0,-0.01 0,0 0,0 0,0l0 0 0 0c0,0 0,0 0,0 0,0 0,0 0,0l0.01 0 0 0 0 0 0 0 0 0 -0.01 0 0 0c0,0 0,0 0,0l0 0 0 0 0 0 0 0 0 -0.01 0 0zm-0.17 0.01c0,0 0,0 0,0 0,0 0,0 0,0 0,0 0,0 0,-0.01 0,0 0,0 0,0l0 0.01zm-0.01 0c0,0 0,0 0,0 0,0 0,0 0,0 0,0 0,0 0,0 0,0 0,0 0,0 0,0 0,0 0,0 0,0 0,0 0,0 0,0 0,0 0,0zm0.04 0.01c0,0 0,0 0,0 0,0 0,0 0,-0.01 0,0 0,0 0,0 0,0.01 0,0.01 0,0.01 0,0 0,0 0,0zm-0.03 0c0,0 0,0 0.01,0 0,0 0,0 0,0 0,0 0,0 0,0 0,0 0,0 -0.01,0 0,0 0,0 0,0 0,0 0,0 0,0 0,0.01 0,0.01 0,0.01 0,0 0,0 0,0 0,0 0,0 0,0 0,0 0.01,0 0.01,0 0,0 0,0 0,0 0,0 0,0 0,0 0,0 0,0 0,0 0,-0.01 0,-0.01 0,-0.01 0,0 0,0 0,0 0,0 -0.01,0 -0.01,0zm0.01 0l0 0 0 0c0,0 0,0 0,0 0,0 0,0 0,0zm0.01 0c0,0 0,0 0,0 0.01,0 0.01,0 0.01,0 0,0 0,0 0,0 0,0 0,0 0,0 -0.01,0 -0.01,0 -0.01,0 0,0 0,0 0,0zm0.02 0c0,0 0,0 0,0 0,0 0,0 0,0l-0.01 0c0,0 0.01,0 0.01,0zm0 0.01c0,0 0,0 0,0 0,0 0,0 0,0 0,0 0,0 0,0 0,0 0,0 0,0 0,0 0,0 0,0 0,0 0,0 0,0 0,0 0,0 0,0 0,0 0,0 0,0 0,0 0,0 0,0 0,0 0,0 0,0zm0.09 0c0,0 0,0 0,0 0,0 0,0 0,0 0,0 0,0 0,0 0,0 0,0 0,0 0,0 0,0 0,0 0,0 0,0 0,0zm-0.12 0c0,0 0,0 0,0l0 0c0,0 0,0 0,0zm0.11 0.01c0,0 0,0 0,0 0,0 0,0 0,0 0,0 0,0 0,0 0,0 0,0 0,0 0,0 0,0 0,-0.01 0,0 0,0 0,0 0,0 0,0 0,0.01 0,0 0,0 0,0 0,0 0,0 0,0l0 0 0 0c0,0 0,0 -0.01,0 0,0 0.01,0 0.01,0l0 0 0 0c0,0.01 0,0.01 0,0.01 0,0 0,0 0,0 0,0 0,0 0,0 0,0 0,0 0,-0.01l0 0 0 0c0,0 0,0 0,0 0,0 0,0 0,0 0,0 0,0 0,0 0,0 0,0 0,0l0 0 0 0zm0.04 0c0,0 0,0 0,0 0,0 0,0 0,0 0,0 0,0 0,0 0,0 0,0 0,0 0,0 0,0 0,0 0,0 0,0 0,0zm-0.13 0c0,0 0,0 0,0 0,0 0,0 0,0 0,0 0,0 0,0 -0.01,0 -0.01,0 -0.01,0 0,0 0,0 0,0 0.01,0 0.01,0 0.01,0 0,0 0,0 0,0 0,0 0,0 0,0zm0.01 0c0,0 0,0 0,0 0,0 0,0 0,0 0,0 0,0 0,0 0,0 0.01,0 0.01,0 0,0 0,0 -0.01,0 0,0 0,0 0,0 0,0 0,0 0,0 0,0 0,0 0,0zm0.09 0.01c0,-0.01 -0.01,-0.01 -0.01,-0.01 0,0 0,0.01 0.01,0.01zm0.01 0c0,0 0,0 -0.01,-0.01 0,0.01 0,0.01 0.01,0.01zm-0.05 0.01c0,0 0,0 0,0 0,0 0,0 0,0 0,0 0,0 0,0 0,0 0,0 0,0 0,-0.01 0,-0.01 0,-0.01 0,0 0,0 0,0 0,0 0,0 0,0 0,0 0,0 0,0 0,0 0,0 0,0 0,0 0,0 0,0 0,0 0,0 0,0 0,0.01 0,0.01 0,0.01zm0.02 -0.01l0 0c0,0 0,0 0,0 0,0 -0.01,0 -0.01,0 0,0 0,0 0,0 0,0 0,0 0,0 0,0 0,0 0,0 0,0 0,0 0,0 0,0 0.01,0 0.01,0 0,0 0,0 0,0zm0.02 0c0,0 0,0 0,0 0,0 0,0 0,0l-0.01 0c0,0 0,0 0,0 0,0 0,0 0.01,0 0,0 0,0 0,0 0,0 0,0 0,0zm-0.08 0.01c0,-0.01 0,-0.01 0,-0.01 0,0 0,0 0,0 0,0 0,0 0,0 0,0 0,0 0,0 0,0 0,0 0,0 0,0.01 0,0.01 0,0.01zm0.07 -0.01l0 0c0,0 0,0 0,0 0,0 0,0 0,0l0 0 0 0zm-0.09 0c0,0 -0.01,0 -0.01,0 0,0 0,0 0,0 0,0 0,0 0,0 0,0 0,0 0,0 0.01,0 0.01,0 0.01,0 0,0 0,0 0,0zm0.03 0.01c0,-0.01 0,-0.01 0,-0.01 0,0 0,0 0,0.01 0,0 0,0 0,0 0,0 0,0 0,0zm0.04 0c0,0 0,0 0,0 0,-0.01 0,-0.01 0,-0.01 0,0.01 0,0.01 0,0.01 0,0 0,0 0,0 0,0 0,0 0,0 0,0 0,0 0,0zm-0.06 0l0 0c0,0 0,0 0,0 0,0 0,0 0,0 0,0 0,0 0,0 0,0 0,0 0,0zm0.07 0c0,0 0,0 0,0 0,0 0,0 0,0 0,0 0,0 0,0 0,0 0,0 0,0zm0.01 0c0,0 0,0 0.01,0 0,0 0,0 0,0 0,0 0,0 0,0 0,0 0,0 0,0 0,0 0,0 0,0 0,0 0,0 -0.01,0 0,0 0,0 0,0 0,0 0,0 0,0 0,0 0,0 0,0 0,0 0,0 0,0zm-0.01 0.01c0,0 0,0 0,0 0,0 0,0 0,0 0,0 0,-0.01 0,-0.01 0,0 0,0 0,0l0 0c0,0 0,0.01 0,0.01 0,0 0,0 0,0zm-0.04 0c0,0 0,0 -0.01,0 0,0 0,0 0.01,0zm0.02 0c0,0 0,0 0,0 0,0 0,0 0,0 0,0 0,0 0,0 0,0 0,0 0,0 0,0 0,0 0,0 0,0 0,0 0,0 0,0 0,0 0,0 0,0 0,0 0,0 0,0 0,0 0,0 0,0 0,0 0,0 0,0 0,0 0,0 0,0 0,0 0,0zm-0.08 -0.09l0 0c0,0 0,0 0,0 0,0 0,0 0,0 0,0 0,0 0,0 0,0 0,0 0,0 0,0 0,0 0,0 0,0 0,0 0,0 0,-0.01 0,-0.01 0,-0.01 0,0 0,0 0,0 0,0 0,0 0,0 0,0.01 0,0.01 0,0.01l0 0zm0.16 0.03l0 0 0 0 0 0 0 0 0 0zm-0.16 -0.03c0,0 0,0 0,0 0,0 0,0 0,0l0 0zm0.05 -0.09c0,0 0,0 0,0l0 0zm0.03 0.01c0,0 0,0 -0.01,0 0,0 0,0 0,0l0.01 0zm-0.01 0.01c0,0 0,0 0,0l0 0zm-0.07 0.03c0,0 0,0 0,0 0,0 0,0 0,0l0 0zm0.01 0c0,0 -0.01,0 -0.01,0 0,0 0,0 0,0l0.01 0zm-0.01 0.03c0,0 0,0 0,0 0,0 0,0 0,0l0 0zm0 0.02c0,0 0,0 0,0 0,0 0,0 0,0l0 0zm0 0c0,0 0,0 0,0l0 0zm-0.01 0.02c0,0 0,0 0.01,0 0,0 0,0 0,0l-0.01 0zm0.01 0c0,0 0,0 0,0 0,0 0,0 0,0l0 0zm0.15 0c0.01,0 0.01,0 0.01,0 0,0 0,0 0,0l-0.01 0zm0.01 0c0,0 0,0 0,0 0,0 0,0 0,-0.01l0 0.01zm0.01 0c0,0 0,0 0,0 0,0 0,0 -0.01,0l0.01 0zm-0.01 0c0,0 0,0 0,0 0,0 0,0 0,0l0 0zm0 0l0 0 0 0zm0 0c0,0 0,0 0,0 0,0 0,0 0,0l0 0zm0 0.01c0,0 0,0 0,0 0,0 0,0 0,0l0 0zm-0.05 0.02c0,0 0,0 0,0l0 0zm0 0c0,0 0,0 0,0l0 0zm-0.12 -0.05l0 0c0,0 0,0 0,0 0,0 0,0 0,0 0,0 0,0 0,0 0,0 0,0 0,0 0,0 0,0 0,0l0 0zm0.02 0.02l0 0c0,0 0,0 0,0 0,0 0,0 0,0 0,0 0,0 0.01,0 0,0 0,0 0,0 0,0 -0.01,0 -0.01,0l0 0zm-0.02 -0.03l0 0c0,0 0,0 0,0 0,0 0,0 0,0 0.01,0 0.01,0 0.01,0 0,0 0,0 0,0 0,0.01 0,0.01 -0.01,0.01l0 -0.01z"/>
    <path class="fil8" d="M1.28 1.66l0.06 0 0 -0.04c0,0 0,0 0,0 0,-0.01 0,-0.01 0,-0.01 0,-0.01 0,-0.01 0,-0.01 0,0 0,-0.01 0.01,-0.01 0,0 0,0 0.01,0 0,0 0.01,0 0.01,0 0,0 0.01,0 0.01,0 0,0 0,0 0.01,0 0,0 0,0 0,0 0,0 0.01,0 0.01,0 0,0.01 0,0.02 0,0.03 0,0.01 0,0.01 0,0.02l0 0.13c0,0 0,0 0,0.01 0,0 0,0 0,0 0,0 0,0.01 0,0.01 0,0 0,0 0,0 -0.01,0 -0.01,0 -0.02,0 0,0 -0.01,0 -0.01,0 -0.01,0 -0.01,0 -0.01,0 -0.01,0 -0.01,0 -0.02,0 0,0 0,-0.01 0,-0.02 0,0 0,-0.01 0,-0.02 0,0 0,-0.01 0,-0.02 0,-0.01 0,-0.01 0,-0.02 0,0 -0.01,0 -0.01,0 -0.01,0 -0.01,0 -0.02,0 0,0 -0.01,0 -0.01,0 -0.01,0 -0.02,0 -0.02,0 0,0.01 0,0.01 0,0.02 0,0.01 0,0.02 0,0.02 0,0.01 0,0.02 0,0.02 0,0.01 0,0.02 0,0.02 -0.01,0 -0.01,0 -0.01,0 0,0 0,0 -0.01,0 0,0 0,0 0,0 -0.01,0 -0.01,0 -0.01,0 0,0 0,0 -0.01,0 0,0 0,0 0,0 -0.01,0 -0.01,0 -0.01,0 0,0 0,0 -0.01,0 0,0 0,0 0,0 0,-0.01 0,-0.01 0,-0.01 0,0 0,0 0,-0.01 0,0 0,0 0,0 0,-0.01 0,-0.01 0,-0.01 0,-0.01 0,-0.01 0,-0.01 0,0 0,-0.01 0,-0.01 0,0 0,0 0,0 0,0 0,-0.01 0,-0.01 0,0 0,0 0,0 0,-0.01 0,-0.01 0,-0.02 0,0 0,0 0,-0.01 0,0 0,-0.01 0,-0.01 0,0 0,-0.01 0,-0.01 0,-0.01 0,-0.01 0,-0.01 0,-0.01 0,-0.01 0,-0.02 0,0 0,0 0,-0.01 0,0 0,-0.01 0,-0.01 0,0 0,-0.01 0,-0.01 0,0 0,0 0,-0.01 0,0 0,0 0,-0.01 0,0 0,0 0,0 0,0 0,-0.01 0.01,-0.01 0,0 0,0 0,0 0,0 0,0 0.01,0 0,0 0,0 0,0 0.01,0 0.01,0 0.01,0 0.01,0 0.01,0 0.01,0 0.01,0 0.01,0 0.01,0 0,0 0.01,0 0.01,0 0,0 0,0.01 0,0.01 0,0 0,0 0,0.01 0,0 0,0 0,0.01 0,0 0,0 0,0.01 0,0 0,0 0,0.01 0,0 0,0 0,0 0,0.01 0,0.01 0,0.01 0,0 0,0.01 0,0.01zm-0.02 -0.05c0,0 0,0 0,0 0,0 0,0 0,0 0,0 0,0 0,0 0,0 0,0 0,0 0,0 0,0 0,0 0,0 0,0 0,0l0 0 0 0.01c0,0 0,0 0,0 0,0 0,0 0,0 0,0 0,0 0,0 0,0 0,0 0,0l0 0 0 0c0,0 0,0 0,0 0,0 -0.01,0 -0.01,0 0,0 0,0 0,0 0,0 0,0 0,0 0,0 0,0 0,0 0,0 0,0 0,0 0,0 0,0 0,0 0,0 0,0 0,0 0,0 0,0 0,0 0,0 0,0.01 0,0.01 0.01,0 0.01,0 0.01,0 0,0 0,-0.01 0,-0.01l0 0 0 0 0 0c0,0 0,0 0,0 0,0 0,0 0,0l0 0 0 -0.01zm-0.01 0.01c0,0 0,-0.01 0,-0.01 0,0 0,0 0,0 0,0 0,0 0,0 0,0 0,0 0,0 0,0 0,0 0,0 0,0 0,0 0,0 0,0 0,0 0,0 0,0 0,0 0,0 0,0 0,0 -0.01,0 0,0 0,0 0,0 0,0 0,0 0,0 0,0 0,0 0,0 0,0 0,0 0,0 0.01,0 0.01,0 0.01,0.01zm-0.01 0.01l0 0c0,0 0,0 0,0 0,0 0,0 0,0 0,0 0,0 0,0 0,0 0,0 0,0 0,0 0,0 0,0 0,0 0,0 0,0zm0 0.01c0,0 0,0 0,0 0,0 0,0 0,0 0,0 0,0 0,0 0,0 0,0 0,0 0,0 0,0 0,0zm0.01 0.01c0,0 0,0 0,0 0,0 0,0 0,0 0,0 0,0 0,0l0 0 0 0c0,0 0,0 0,0 0,0 0,0 0,0 0,0 0,0 0,0 0,0 0,0 0,0l0 0zm0.12 0.01c0,0 0,0 0,0 0,0 0,0 0,0 0,0 0,0 0,0 0,0 0,0 0,0 0,0 0,0 0,0 0,0 0,0 0,0zm-0.01 0.01c0,0 0,0 0,0 0,0 0,-0.01 0,-0.01 0,0.01 0,0.01 0,0.01 0,0 0,0 0,0 0,0 0,0 0,0 0,0 0,0 0,0zm0.01 0c0,0 0,0 0,0 0,0 0,0 0,0 0,0 0,0 0,0 0,0 0,0 0,0 0,0 0,0 0,0 0,0 0,0 0,0zm0 0c0,0 0,0 0,0 0,0 0,0 0,0 0,0 0,0 0,0zm-0.05 0.01c0,0 0,-0.01 0,-0.01 0,0.01 0,0.01 0,0.01 0,0 0,0 0,0 0,0 0,0 0,0 0,0 0,0 0,0zm0 0c0,0 -0.01,0 -0.01,0 0,0 0,0 0,0 0,0 0,0 0,0 0,0 0,0 0,0 0,0 0,0 0.01,0 0,0 0,0 0,0zm0.05 0.01c0,0 0,0 0,0 0,0 0,-0.01 0,-0.01 0,0 0,0 0,0 0,0 0,0 -0.01,0 0,0 0,0 0,0 0,0 0,0 0,0.01 0,0 0,0 0,0 0,0 0,0 0.01,0zm-0.06 0c0,0 0,0 0,0 0,0 0,0 0,0 0,0 0,0 0,0 0,0 0,0 0,0 0,0 0,0 0,0zm-0.07 0c0,0 0,0 0,0 0,0 0,0 0,0 0,0 0,0 0,0 0,0 0,0 0,0 0,0 0,0 0,0 0,0 0,0 0,0 0,0 0,0 0,0 0,0 0,0 0,0zm0.01 0l0.01 0c0,0 0,0 -0.01,0l0 0zm-0.01 0.01c0,0 0,0 0,0 0,-0.01 0,-0.01 0,-0.01l-0.01 0c0,0.01 0.01,0.01 0.01,0.01zm0.03 -0.01c0,0.01 0,0 0,0 0,0 0,0 0,0 0,0 -0.01,0 0,0zm-0.03 0c0,0 0,0 0,0 0,0 0,0 0,0 0,0.01 0,0.01 0,0.01 0,0 0,0 0,-0.01zm0.02 0.01c0,0 0,0 0,0 0,0 0,0 0,0 0,0 0,0 0,0 0,0 0,0 0,0 0,0 0,0 0,0 0,0 0,0 0,0zm0.1 0l0 0c0,0 0,0 0,0 0,0 0,0 0,0 0,0 0,0 0,0 0,0 0,0 0,0 0,0 0,0 0,0zm-0.12 0c0,0 0,0 0.01,0 0,0 0,0 0,0 0,0 0,0 0,0 0,0 0,0 0,0l-0.01 0 0 0zm0.02 0.01c0,0 0,0 0,0 0,0 0,0 0,0l0 0c0,0 0,0 0,0 0,0 0,0 0,0zm-0.01 0.01c0,0 0,0 0,0 0,0 0,0 0,0 0,0 0,0 0,0 0,0 0,0 0,0zm-0.01 0.01c0,0 0,0 0,0 0,0 0,-0.01 0,-0.01 0,0 0,0 0,0 0,0 0,0 0,0 0,0 0,0 0,0.01 0,0 0,0 0,0zm0.02 0c0,0 0,0 0,0 0,0 0,0 0,0 0,0 0,0 0,0 0,0 0,0 0,0 0,0 0,0 0,0 0,0 0,0 0,0zm0.1 0.01c0,0 0,0 0,0 0,0 0,0 0,0 0,0 0,0 0,0 0,0 0,0 0,0zm-0.13 0c0,0 0,0 0,0 0,0 0,0 0,0 0,0 0,0 0,0 0,0 0,0 0,0 0,0 0,0 0,0 0,0 0,0 0,0 0,0 0,0 0,0l0 0 0.01 0 0 0 0 0 0 0 0 0 -0.01 0zm0.03 0c0,0 0,0 0,0 0,0 -0.01,0 -0.01,0 0,0 0,0 0,0 0,0 0,0 0,0 0,0 0,0 0,0 0,0 0,0 0,0 0.01,0 0.01,0 0.01,0 0,0 0,0 0,0zm-0.01 0.01c0,0 0,0 0,0 0,0 -0.01,0 -0.01,0 0,0 0,0 0,0 0.01,0 0.01,0 0.01,0zm-0.01 0c0,0 0,0 0,0 0,0 0,0 -0.01,0 0,0 0,0 0,0 0,0 0,0 0,0 0,0 0,0 0,0 0,0 0,0 0,0l0 0 0 0.01 0 0 0.01 0c0,0 0,0 0,0 0,0 0,0 0,0l0 -0.01 0 0zm0 0.01l0 0 0 0 0 0c0,0 0,0 0,0 0,0 0,0 0,0l0 0c0,0 0,0 0,0 0,0 0,0 0,0 0,0 0,0 0,0.01 0,0 0,0 0,0 0,0 0,0 0,0 0,0 0,0 0,0 0,0 0,0 0,0 0,0 0,-0.01 0,-0.01 0,0 0,0 0,0 0,0 0,0 0,0l0 0zm0.12 0.01c0,0 0,0 0,0 0,0 0,0 0.01,0 0,0 0,0 0,0 0,0 0,0 0,0 0,0 0,0 0,0 0,0 0,0 0,0 0,0 0,0 0,0 0,0 0,0 0,0 0,0 0,0 0,0 0,0 0,0 0,0 0,0 0,0 0,0 0,0 0,0 0,0 0,0 0,-0.01 0,-0.01 0,0 0,0 0,0 0,0 0,0 0,0 0,0 -0.01,0 -0.01,0 0,0 0,0 0,0 0,0 0,0 0,0 0,0.01 0,0.01 0,0.01 0,0 0,0 0,0zm-0.11 -0.01c0,0 0,0 0,0 0,0 0,0 0,0 0,0 0,0 0,0 0,0 0.01,0 0.01,0 0,0 0,0 0,0 -0.01,0 -0.01,0 -0.01,0 0,0 0,0 0,0 0,0 0,0 0,0zm0.12 0.02c0,0 0,0 0,0 0,0 -0.01,0 -0.01,0 0,0 0,0 0,0 0,0 0,0 0,0 0,0 0,0 0,0 0,0 0,0 0.01,0zm-0.13 0c0,0 0,0 0,0 0,0 0,0 0,0 0,0 0,0 0,0 0,0 0,0 0,0 0,0 0,0 0,0 0,0 0,0 0,0zm0.02 -0.16c0,0 0,-0.01 0,-0.01 0,0 0,0 0,0l0 0.01zm0 0c0,0 0,0 0,0 0,0 0,0 0,0l0 0zm-0.01 0.03c0,0 0,0 0,0 0,0 0,0 0,0l0 0zm-0.02 0.09c0,0 0.01,0 0.01,0 0,0 0,0 0,0l-0.01 0zm0 0.01l0.01 0 -0.01 0zm0.01 0.01c0,0 0,0 0,0l0 0z"/>
    <path class="fil8" d="M1.45 1.68l0.01 0c0,0.01 0,0.01 0,0.01 0,0 0,0 0,0 0,0 -0.01,0 -0.01,0 0,0 0,0 0,0l0 -0.01zm0.08 -0.09c0.01,0 0.01,0 0.02,0 0.01,0 0.02,0 0.02,0 0.01,0.01 0.01,0.01 0.01,0.01 0,0 0.01,0 0.01,0 0,0 0,0 0,0 0.01,0.01 0.01,0.01 0.01,0.01 0,0 0.01,0 0.01,0 0,0.01 0,0.01 0,0.01 0,0 0,0 0.01,0 0,0 0,0 0,0 0,0 0,0 0,0 0,0 0,0 0,0 0,0.01 0,0.01 0,0.01 0,0 0,0 0,0 0,0 0.01,0.01 0.01,0.01 0,0 0,0 0,0 0,0 0,0.01 0,0.01 0,0 0,0 0,0 0,0 0,0 0,0 0,0 0,0 0,0 0.01,0 0.01,0.01 0.01,0.01 0,0.01 0,0.01 0,0.02 0,0 0,0.01 0,0.01 0,0.01 0,0.01 0,0.02 0,0.01 -0.01,0.02 -0.01,0.03 -0.01,0.01 -0.01,0.02 -0.02,0.03 0,0 -0.01,0 -0.01,0.01 -0.01,0 -0.01,0 -0.02,0.01 0,0 -0.01,0 -0.01,0 -0.01,0 -0.01,0.01 -0.02,0.01 -0.01,0 -0.01,0 -0.02,0 -0.01,0 -0.02,-0.01 -0.02,-0.01 -0.01,0 -0.02,0 -0.03,-0.01 0,0 -0.01,-0.01 -0.01,-0.01 -0.01,0 -0.01,-0.01 -0.02,-0.01 0,-0.01 0,-0.01 -0.01,-0.02 0,0 0,-0.01 0,-0.02 -0.01,0 -0.01,-0.01 -0.01,-0.02 0,0 0,-0.01 0,-0.02 0,0 0,-0.01 0.01,-0.01 0,-0.01 0,-0.01 0,-0.02 0,0 0,0 0,0 0,0 0,0 0.01,-0.01 0,0 0,0 0,0 0,0 0,0 0,0 0,-0.01 0,-0.01 0,-0.01 0,0 0,0 0,0 0,0 0,0 0,0 0,0 0,0 0,0 0,0 0,0 0.01,0 0,0 0,0 0,0 0,0 0,-0.01 0,-0.01 0,0 0,0 0,0 0.01,-0.01 0.01,-0.01 0.02,-0.01 0,-0.01 0.01,-0.01 0.01,-0.01 0.01,0 0.01,-0.01 0.02,-0.01 0,0 0.01,0 0.02,0zm-0.07 0.1c0,0 0,0 0,0 0,0 0,0 0,0 0,0 0,-0.01 0,-0.01 0.01,0 0.01,0 0.01,0 0,0 -0.01,0 -0.01,0 0,0 0,0 0,0 0,0 0,0 0,0 0,0 0,0 0,0 0,0 0,0 0,0 0,0 0,0 0,0l0 0 0.01 0c0,0 0,0 0,0 0,0 0,0 0,0l0 0 0 0 -0.01 0c0,0 0,-0.01 0,-0.01 0,0 0,0 0,0 0,0 0,0 0,0 0,0 0,0 0,0 0,0 0,0 -0.01,0 0,-0.01 0,-0.01 0,-0.01 0,0.01 0,0.01 0,0.01 0,0 0,0 0,0 0,0 0,0 0,0 0,0 0,0 0,0 0,0 0,0 0,0 0.01,0 0.01,0 0.01,0 0,0 0,0 0,0 0,0 0,0 0,0 0,0 0,0 0,0 0,0 0,0 0,0 0,0.01 0,0.01 0,0.01 0,0 0,0 0,0 -0.01,0 -0.01,0 -0.01,0 0,0 0,0 0,0 0,0 0,0 0,0 0,0 0,0 0,0 0,0 0,0 0,0.01 0,0 0,0 0,0 0,0 0,0 0,0 0,0 0,0 0,0 0,0 0,0 -0.01,0 0,0 0,0 0,0 0,0 0,0 0,0 0,0 0,0 0,0.01 0,0 0,0 0,0 0,0 0,0 0,0 0,0 0.01,0 0.01,0 0,0 0,0 0,0 0,0 0,0 0,0 0,0 0,0 0,0 0,0 0,0 0,0 0,0 0.01,0 0.01,0 0,0 0,0 0,0 0,0 0,0 0,0 0,0 0,0 0,0 0,0 0,0 0,0 0,0 0,0 0,0 0,0 0,0 0,0 0,0 0,0 0,0 0,0 0,0 0,0l0 0 0 0c0,0 0,0 0,0l0 0 0 0c0,0 0,0 0,0 0,0 0,0 0,0 0,0 0,0 0,0 0,0 0,0 0,0l0 0 0 0c0,0 0,0 0,0 0,0 0,0 0,0 0,0 0,0 0,0 0,0 0,0 0,0l0 0 0 0 0 0c0,0 0,0 0,-0.01 0,0 0,0 0,0 0,0 0,0 0,0 0,0 0,0 0,0l0 0 0 0zm0.06 -0.08c0,0 0,0 0,0 0,0 0,0 0,0 0,0 0,0 0,0 0,0 0,0 0,0 0,0 0,0 0,0 0,0 0,0 0,-0.01 0,0 0,0 0,0 0,0 0,0 0,0 0,0 0,0 0,0 0,0 0,0 0,0 0,0 0,0 0,0 0,0 0,0 0,0 0,0 0,0 0,0l-0.01 0c0,0 0,0 0,0 0,0 0,0 0,0l0 0c0,0 0,0 0,0 0,0 0,0 0,0 0,0 0.01,0 0.01,0l0 0c0,0 0,0 0,0 0,0 0,0 0,0 0,0.01 0,0.01 0,0.01zm0.04 -0.01c0,0 0,0 0,0 0,0 0,0 0,0 0,0 0,0 -0.01,0 0,0 0,0 0,0 0,0 0,0 0,0 0,0 0,0 0,0 0,0 0,0 0,0 0.01,0 0.01,0 0.01,0zm-0.02 0.01c0,0 0,0 0,0 0,0 0,0 0,0 0,0 0,0 0,0 0,0 0,0 0,0 0,0 0,0 0,0 0,0 0,0 0,0 0,0 0,0 0,0 0,-0.01 0,-0.01 0,-0.01 0,0 0,0 0,0 0,0 0,0 -0.01,0 0,0.01 0,0.01 0,0.01 0,0 0,0 0,0 0,0 0,0 0,0 0,0 0,0 0,0 0,0 0.01,0 0.01,0 0,0 0,0 0,0l-0.01 0 0 0c0,0 0,0 0,0 0,0 0.01,0 0.01,0 0,0 0,0 0,0 0,0 0,0 0,0l0 0 0 0zm-0.04 0l0 0 0 0 0 0 0 0zm0.01 0.01c0,0 0,0 0,0 0,0 0,0 0,-0.01 0,0 0,0 0,0 0,0 0,0 0,0 0,0 0,0 0,0 0,0 0,0 0,0 0,0.01 0,0.01 0,0.01 0,0 0,0 0,0zm0.06 -0.01c0.01,0 0.01,0 0.01,0 0,0.01 0,0.01 0,0.01 0,-0.01 0,-0.01 0,-0.01 0,0 0,0 -0.01,0l0 0zm0.02 0.01c0.01,0 0.01,0 0.01,0 0,0 0,0 0,0 0,0 0,0 0,0 0,0 0,0 0,0 0,0 0,0 0,0 0,0 0,0 0,0 0,0 0,0 0,0 0,0 0,0 0,0 0,0 0,0 -0.01,0 0,0 0,0 0,0zm0 0c0,0 0,0 0,0 0,0 0,0 0,0 0,0 0,0 0,0 0,0 0,0 0,0 0,0 0,0 0,0 0,0 0,0 0,0 0,0 0,0 0,0zm-0.06 0c0,0 0,0 0,0 0,0 0,0 0,0 0,0 0,0 0,0 0,0 0,0 0,0 0,0 0,0 0,0 0,0 0,0 0,0l0 0 0 0c0,0 0,0 0,0 0,0 0,0 0,0 0,0 0,0 0,0 0,0 0,0 0,0 0,0 0,0 0,0l0 0zm-0.06 0.01c0,0 0,0 0.01,0 0,0 0,0 0,0 0,0 0,0 0,0 0,0 0,-0.01 0,-0.01 0,0 0,0 0,0 0,0 0,0 0,0 0,0 0,0 0,0 0,0 0,0 0,0 0,0 0,0 0,0 0,0 -0.01,0 -0.01,0 0,0 0,0 0,0 0,0 0,0 0,0.01zm0.1 -0.01c0,0 0,0 0,0 0,0 0,0 0,0 0,0 0,0 0,0 0,0 0,0 0,0 0,0 0,0 0,0 0,0 0,0 0,0 0,0 0,0 0,0 0,0 0,0 0,0zm-0.08 0c0,0 0,0 0,0 0,0 0,0 0,0 0,0 0,0 0,0 0,0 0,0 0,0 0,0 0,0 0,0 0,0 0,0 0,0zm0.07 0c0,0 0,0 0,0 0,0 0,0 0,0 0,0 0,0 0,0 0,0 -0.01,0 -0.01,0 0,0 0,0 0,0 0,0 0,0 0,0 0.01,0 0.01,0.01 0.01,0.01 0,0 0,0 0,-0.01zm-0.04 0.01c0,0 0,0 0,0 0,0 0,0 0,0 0,0 0,0 0,0 0,0 0,0 0,0 0,0 0,0 0,0 0,0 0,0 0,0 0,0 0,0 0,0 0.01,0 0.01,0 0.01,0 -0.01,0 -0.01,0 -0.01,-0.01 0,0 0,0 0,0 0,0 0,0 0,0 0,0 0,0 -0.01,0 0,0.01 0,0.01 0.01,0.01zm0.06 -0.01c0,0 0,0 0,0 0,0 0,0 0,0 0,0 0,0 0,0 0,0 0,0 0,0zm-0.08 0.01c0,0 0,0 0,0 0.01,0 0.01,0 0.01,0 0,0 0,0 0,0 0,-0.01 0,-0.01 -0.01,-0.01 0,0 0,0.01 0,0.01 0,0 0,0 0,0zm0.09 0c0,0 0.01,0 0.01,0 0,0 0,0 0,0 0,0 0,0 0,0 0,0 0,0 0,0 0,0 0,0 0,0 0,0 0,-0.01 0,-0.01 0,0 0,0 0,0 0,0.01 0,0.01 -0.01,0.01zm-0.1 0.01c0,0 0,0 0,0 0,0 0,0 0,0 0,0 0,0 0,0 0,0 0,0 0.01,0 0,0 0,0 0,0 0,0 0,0 0,-0.01 0,0.01 0,0 0,0 0,0 0,0 0,0 0,0 0,0 -0.01,0 0,0 0,0 0,0 0,0 0,0 0,0 0,0 0,0 0,0 0,0 0,0 0,0 0,0.01 0,0.01 0,0.01zm0.11 0l0 -0.01 -0.01 0c0,0 0,0.01 0.01,0.01zm-0.01 -0.01c0,0 -0.01,0 -0.01,0 0,0 0,0 0,0 0,0 0,0 0.01,0zm-0.11 0.01c0,0 0,0 0,0 0,0 0,0 0,0 0,0 0,0 0,0 0.01,0 0.01,0 0.01,0 0,0 -0.01,0 -0.01,0 0,0 0,0 0,0 0,0 0,0 0,0 0,0 0,0 0,0zm0.06 0.1c0.01,0 0.01,0 0.02,0 0,0 0.01,0 0.01,-0.01 0,0 0.01,0 0.01,-0.01 0,0 0,-0.01 0.01,-0.01 0,0 0,-0.01 0,-0.01 0,-0.01 0,-0.01 0,-0.02 0,0 0,0 -0.01,-0.01 0,0 0,-0.01 0,-0.01 0,0 -0.01,-0.01 -0.01,-0.01 0,0 -0.01,0 -0.01,-0.01 -0.01,0 -0.01,0 -0.02,0 0,0 -0.01,0 -0.01,0 -0.01,0 -0.01,0 -0.01,0 -0.01,0 -0.01,0.01 -0.01,0.01 -0.01,0 -0.01,0 -0.01,0.01 0,0 0,0 -0.01,0 0,0.01 0,0.02 0,0.02 0,0.01 0,0.02 0,0.03 0,0.01 0.01,0.01 0.01,0.02 0.01,0 0.01,0.01 0.02,0.01 0,0 0,0 0,0 0.01,0 0.01,0 0.01,0 0,0 0,0 0.01,0 0,0 0,0 0,0zm-0.07 -0.09c0,0 0,0 0,0 0,0 0,0 0,-0.01 0,0 0,0 0,0 0,0 0,0 0,0 0,0 0,0.01 0,0.01 0,0 0,0 0,0l0 0 0 0c-0.01,0 -0.01,0 -0.01,0 0,0 0,0 0,0l0 0 0 0 0 0 0 0 0 0 0 0 0 0c0,0 0,0 0,0 0,0 0,0 0,0 0.01,0 0.01,0 0.01,0l0 0 0 0zm0.03 0l0 0c0,0 0,0 0,0 0,0 0,0 0,0 0,0 0,0 0,0 0,0 0,0 0,0 0,0 0,0 0,0zm0.12 0c0,0 0,0 0,0 0,0 0,0 0,0 0,0 0,0 0,0 0,0 0,0 0,0zm-0.15 0c0,0 0.01,0 0.01,0 0,0 0,0 0,0 0,0 0,0 0,0 0,0 0,0 0,0 0,0 0,0 0,0 0,0 0,0 -0.01,0l0 0zm0.02 0.01c0,-0.01 0,-0.01 0,-0.01 0,0 0,0 0,0 0,0 0,0 0,0 0,0 0,0.01 0,0.01zm0.12 -0.01c0,0 0,0 0,0 0,0 0,0 0,0 0,0 0,0 0,0 0,0 0,0 0,0 0,0 0,0 0,0 0,0 0,0 0,0zm-0.14 0.01c0,0 0,0 0,0 0,0 0,0 0,0 0,0 0,0 0,0 0,0 0,0 0,0zm0.13 0l0 0c0,0 0,0 0,0 0,0 0,0 0,0 0,0 0,0 0,0 0,0 0,0 0,0 0,0 0,0 0,0zm-0.15 0.01c0,0 0,0 0,0 0,0 0,0 0,0 -0.01,0 0,0 0,0 0,0.01 0,0.01 0,0.01 0,0 0,0 0,0 0,0 0,0 0,-0.01zm0.03 0.01c0,0 0,0 0,0 0,0 0,0 0,0 0,0 0,0 0,0 0,-0.01 0,-0.01 0,-0.01 0,0 0,0 0,0 0,0 0,0 0,0 0,0 0,0 0,0 0,0 0,0 0,0 0,0 0,0.01 0,0.01zm0.13 0c0,0 0,0 0,0 0,0 0,0 0,0 0,0 0,0 0,0 0,0 0,0 0,0 0,0 0,0 0,0 0,0 0,0 0,0 0,0 0,0 0,0 0,0 0,0 0,0 0,0 0,0 0,0 0,0 0,0 0,0 0,0 0,0 0,0 0,0 0,0 0,0zm-0.17 0.01c0,0 0,-0.01 0,-0.01 0,0 0,0 0,0 0,0 0,0 0,0 0,0 0,0 0,0 0,0 0,0 0,0 0,0 0,0 0,0.01zm0.04 -0.01c0,0.01 0,0.01 0,0.01 0,0 0,0 0,0 0,0 0,0 0,0 0,0 0,0 0,-0.01zm0.15 0.01c0,0 0,0 0,0 0,0 0,0 0,0 0,0 0,0 0,0zm-0.02 0.01c0,0 0,0 0,0 0,0 0,0 -0.01,0 0,0 0,-0.01 0,-0.01 0,0 0,0 0,0 0,0.01 0,0.01 0.01,0.01zm-0.14 0c0,0 0,0 0,0 0,0 0,0 0,0 0,0 0,0 0,0 0,0 0,0 0,0 0,0 0,0 0,0 0,0 0,0 0,0zm0.01 0.01c0,0 0,-0.01 0,-0.01 0,0 0,0 0,0 0,0 0,0 0,0 0,0.01 0,0.01 0,0.01zm-0.04 0c0,0 0,0 0,0 0,0 0,0 0,0 0,0 0,0 0,0 0,0 0,0 0,0l0 0zm0.01 0l0 0c0,0 0,0 0,0 0,0 0,0 0,0l0 0zm0.16 0c0,0 0,0 0,0 0,0 0,0 0,0l-0.01 0c0,0 0,0 0.01,0zm-0.15 0.01c0,0 0,0 0,0 0,0 0,0 0,0 0,0 0,0 0,0 0,0 0,0 0,0 0.01,0 0.01,0 0.01,0 0,0 0,0 0,0 0,0 0,0 0.01,0 0,0 0,0 0,0 0,0 0,0 0,0 0,0 0,0 0,0 0,0 0,0 0,0 0,0 0,0 0,0 0,0 0,-0.01 0,-0.01 0,0 0,0 0,0 0,0 -0.01,0 -0.01,0.01 0,0 0,0 -0.01,0l0 0 0 0c0,0 0,-0.01 0,-0.01 0,0 0,0 0,0 0,0 0,0 0,0.01 0,0 0,0 0,0l0 0 0 0c0,0 -0.01,0 -0.01,0 0,0 0,0 0,0 0,0 0,0 0,0 0,0 0,0 0,0 0,0 0,0 0,0 0,0 0,0 0.01,0 0,0 0,0 0,0l0 0c0,0 0,0 0,0 0,0 0,0 0,0 0,0 0,0 0,0 0,0 0,0 0,0l0 0 0 0zm0.16 -0.01l0 0c0,0 0,0 0,0 0,0 0,0 0,0 0,0 0,0 0,0 0,0 0,0 0,0 -0.01,0 -0.01,0 -0.01,0 0,0.01 0,0.01 0,0.01 0,0 0,0 0,0 0,0 0,0 0.01,0 0,0 0,0 0,0 0,0 0,0 0,0l0 0 0 0c0,0 -0.01,0 -0.01,0 0.01,0 0.01,0 0.01,0 0,0 0,0 0,0 0,0.01 0,0.01 0,0.01 0,0 0,0 0,0l0 0 0 0 0 0 0 0 0 0c0,0 0,0 0,0 0,0 0,0 0,0l0 0 0 0c0,0 0,0 0,0 0,0 0,0 0,0 0,0 0,0 0,-0.01 0,0 0,0 0,0l0 0 0 0c0.01,0 0.01,0 0.01,0 0,0 0,0 0,0l0 0 0 0 0 0 0 0 0 0 0 0 0 0c0,0 0,0 0,0l-0.01 0 0 0 0 0 0 0 0 -0.01 0 0zm-0.17 0.01c0,0 0,0 0,0 0,0 0,0 0,0 0,0 0,0 0,-0.01 0,0 0,0 0,0l0 0.01zm-0.01 0c0,0 0,0 0,0 0,0 0,0 0.01,0 0,0 0,0 0,0 0,0 0,0 0,0 0,0 0,0 0,0 0,0 0,0 0,0 0,0 -0.01,0 -0.01,0zm0.04 0.01c0,0 0,0 0,0 0,0 0,0 0,-0.01 0,0 0,0 0,0 0,0.01 0,0.01 0,0.01 0,0 0,0 0,0zm-0.02 0c0,0 0,0 0,0 0,0 0,0 0,0 0,0 0,0 0,0 0,0 0,0 0,0 0,0 -0.01,0 -0.01,0 0,0 0,0 0,0 0,0.01 0,0.01 0,0.01 0,0 0,0 0,0 0.01,0 0.01,0 0.01,0 0,0 0,0 0,0 0,0 0,0 0,0 0,0 0,0 0,0 0,0 0,0 0,0 0,-0.01 0,-0.01 0,-0.01 0,0 0,0 0,0 0,0 0,0 0,0zm0 0l0 0 0 0c0,0 0,0 0,0 0,0 0,0 0,0zm0.02 0c0,0 0,0 0,0 0,0 0,0 0,0 0,0 0,0 0,0 0,0 0,0 0,0 0,0 0,0 0,0 0,0 0,0 0,0zm0.01 0c0,0 0,0 0,0 0,0 0,0 0,0l0 0c0,0 0,0 0,0zm0 0.01c0,0 0,0 0,0 0,0 0,0 0,0 0,0 0,0 0,0 0,0 0,0 0,0 0,0 0,0 0,0 0,0 0,0 0,0 0,0 0,0 0,0 0,0 0,0 0,0 0,0 0,0 0,0 0,0 0,0 0,0zm0.09 0c0,0 0,0 0,0 0,0 0,0 0,0 0,0 0,0 0,0 0,0 0,0 0,0 0,0 0,0 0,0 0,0 0,0 0,0zm-0.12 0c0,0 0,0 0,0l0 0c0,0 0,0 0,0zm0.11 0.01c0,0 0,0 0,0 0,0 0,0 0,0 0,0 0,0 0,0 0,0 0,0 0.01,0 0,0 0,0 0,-0.01 -0.01,0 -0.01,0 -0.01,0 0,0 0,0 0,0.01 0,0 0,0 0,0 0,0 0,0 0,0l0 0 0 0c0,0 0,0 0,0 0,0 0,0 0,0l0 0 0 0c0,0.01 0,0.01 0,0.01 0,0 0,0 0,0 0,0 0,0 0,0 0,0 0,0 0,-0.01l0 0 0 0c0,0 0,0 0,0 0,0 0,0 0,0 0,0 0,0 0,0 0,0 0,0 0,0l0 0 0 0zm0.04 0c0,0 0,0 0,0 0,0 0,0 0,0 0,0 0,0 0,0 0,0 0,0 0,0 0,0 0,0 0,0 0,0 0,0 0,0zm-0.13 0c0,0 0,0 0,0 0,0 0,0 0,0 0,0 0,0 0,0 0,0 0,0 0,0 0,0 0,0 0,0 0,0 0,0 0,0 0,0 0,0 0,0 0,0 0,0 0,0zm0.01 0c0,0 0,0 0,0 0,0 0,0 0,0 0,0 0.01,0 0.01,0 0,0 0,0 0,0 0,0 0,0 0,0 0,0 -0.01,0 -0.01,0 0,0 0,0 0,0 0,0 0,0 0,0zm0.09 0.01c0,-0.01 0,-0.01 -0.01,-0.01 0.01,0 0.01,0.01 0.01,0.01zm0.01 0c0,0 0,0 0,-0.01 0,0.01 0,0.01 0,0.01zm-0.05 0.01c0,0 0,0 0,0 0,0 0,0 0,0 0,0 0,0 0,0 0,0 0,0 0,0 0,-0.01 0,-0.01 0,-0.01 0,0 0,0 0,0 0,0 0,0 0,0 0,0 0,0 0,0 0,0 0,0 0,0 0,0 0,0 0,0 0,0 0,0 0,0 0,0.01 0,0.01 0,0.01zm0.02 -0.01l0 0c0,0 0,0 0,0 0,0 0,0 0,0 -0.01,0 -0.01,0 -0.01,0 0,0 0,0 0,0 0,0 0,0 0,0 0,0 0,0 0.01,0 0,0 0,0 0,0 0,0 0,0 0,0zm0.02 0c0,0 0,0 0,0 0,0 0,0 0,0l0 0c0,0 0,0 0,0 0,0 0,0 0,0 0,0 0,0 0,0 0,0 0,0 0,0zm-0.07 0.01c0,-0.01 0,-0.01 0,-0.01 0,0 0,0 -0.01,0 0,0 0,0 0,0 0,0 0,0 0,0 0,0 0,0 0,0 0.01,0.01 0.01,0.01 0.01,0.01zm0.06 -0.01l0 0c0,0 0,0 0,0 0,0 0,0 0,0l0 0 0 0zm-0.09 0c0,0 0,0 0,0 0,0 0,0 0,0 -0.01,0 -0.01,0 0,0 0,0 0,0 0,0 0,0 0,0 0,0 0,0 0,0 0,0zm0.04 0.01c0,-0.01 -0.01,-0.01 -0.01,-0.01 0,0 0,0 0,0.01 0,0 0,0 0,0 0.01,0 0.01,0 0.01,0zm0.04 0c0,0 0,0 0,0 -0.01,-0.01 -0.01,-0.01 -0.01,-0.01 0,0.01 0,0.01 0,0.01 0,0 0,0 0,0 0,0 0.01,0 0.01,0 0,0 0,0 0,0zm-0.07 0l0 0c0,0 0,0 0,0 0,0 0,0 0,0 0,0 0,0 0,0 0,0 0,0 0,0zm0.07 0c0,0 0,0 0,0 0,0 0,0 0,0 0,0 0,0 0,0 0,0 0,0 0,0zm0.01 0c0.01,0 0.01,0 0.01,0 0,0 0,0 0,0 0,0 0,0 0,0 0,0 0,0 0,0 0,0 0,0 0,0 0,0 0,0 0,0 0,0 0,0 0,0 0,0 0,0 0,0 0,0 0,0 -0.01,0 0,0 0,0 0,0zm0 0.01c0,0 0,0 0,0 0,0 -0.01,0 -0.01,0 0,0 0,-0.01 0,-0.01 0,0 0,0 0,0l0 0c0,0 0,0.01 0,0.01 0,0 0,0 0.01,0zm-0.05 0c0,0 0,0 -0.01,0 0,0 0.01,0 0.01,0zm0.02 0c0,0 0,0 0,0 0,0 0,0 0,0 0,0 0,0 0,0 0,0 0,0 0,0 0,0 0,0 0,0 0,0 0,0 0,0 0,0 0,0 0,0 0,0 0,0 0.01,0 0,0 0,0 0,0 0,0 0,0 0,0 0,0 0,0 0,0 -0.01,0 -0.01,0 -0.01,0zm-0.08 -0.09l0 0c0,0 0,0 0,0 0,0 0,0 0,0 0,0 0,0 0,0 0,0 0,0 0,0 0,0 0,0 0,0 0,0 0,0 0,0 0,-0.01 0,-0.01 0,-0.01 0,0 0,0 0,0 0,0 0,0 0,0 0,0.01 0,0.01 0,0.01l0 0zm0.16 0.03l0 0 0 0 0 0 0 0 0 0zm-0.16 -0.03c0,0 0,0 0,0 0,0 0,0 0,0l0 0zm0.06 -0.09c0,0 0,0 0,0l0 0zm0.02 0.01c0,0 0,0 0,0 0,0 0,0 -0.01,0l0.01 0zm-0.01 0.01c0,0 0,0 0,0l0 0zm-0.07 0.03c0,0 0,0 0,0 0,0 0,0 0,0l0 0zm0.01 0c0,0 0,0 0,0 0,0 0,0 0,0l0 0zm0 0.03c0,0 0,0 0,0 -0.01,0 -0.01,0 -0.01,0l0.01 0zm-0.01 0.02c0,0 0,0 0,0 0,0 0,0 0,0l0 0zm0 0c0,0 0,0 0,0l0 0zm0 0.02c0,0 0,0 0,0 0,0 0,0 0,0l0 0zm0 0c0,0 0,0 0,0 0,0 0,0 0,0l0 0zm0.16 0c0,0 0,0 0,0 0,0 0,0 0,0l0 0zm0 0c0,0 0,0 0,0 0,0 0,0 0,-0.01l0 0.01zm0.01 0c0,0 0,0 0,0 0,0 0,0 0,0l0 0zm-0.01 0c0,0 0,0 0,0 0,0 0,0 0,0l0 0zm0 0l0 0 0 0zm0 0c0,0 0,0 0,0 0,0 0,0 0,0l0 0zm0 0.01c0,0 0,0 0,0 0,0 0,0 0,0l0 0zm-0.05 0.02c0,0 0,0 0,0l0 0zm0 0c0,0 0,0 0,0l0 0zm-0.12 -0.05l0 0c0,0 0,0 0,0 0,0 0,0 0,0 0,0 0,0 0,0 0.01,0 0.01,0 0.01,0 -0.01,0 -0.01,0 -0.01,0l0 0zm0.02 0.02l0 0c0,0 0,0 0,0 0,0 0,0 0,0 0.01,0 0.01,0 0.01,0 0,0 0,0 0,0 0,0 0,0 -0.01,0l0 0zm-0.01 -0.03l-0.01 0c0,0 0,0 0,0 0,0 0.01,0 0.01,0 0,0 0,0 0,0 0,0 0,0 0,0 0,0.01 0,0.01 -0.01,0.01l0.01 -0.01z"/>
    <path class="fil8" d="M1.72 1.74c0.01,0 0.01,0 0.02,0 0,0 0,0 0.01,0 0,0 0.01,0 0.02,0 0,0 0.01,0 0.01,0 0.01,0 0.01,0 0.01,0 0.01,0 0.01,0 0.01,0 0,0.01 0,0.01 0,0.01 0,0 0,0 0,0.01 0,0 0,0 0,0 0,0 0,0.01 0,0.01 0,0 0,0 0.01,0.01 0,0 0,0 0,0 0,0 0,0.01 -0.01,0.01 0,0 0,0 0,0 0,0 0,0 0,0 -0.01,0 -0.01,0 -0.01,0 0,0 -0.01,0 -0.01,0 0,0 -0.01,0 -0.01,0 -0.01,0 -0.01,0 -0.02,0 -0.01,0 -0.01,0 -0.02,0 0,0 -0.01,0 -0.01,0 -0.01,0 -0.01,0 -0.02,0 0,0 -0.01,0 -0.01,0 -0.01,0 -0.01,0 -0.02,0 0,0 0,0 0,0 0,-0.01 0,-0.01 0,-0.01 0,-0.01 0,-0.02 0,-0.04 0,-0.01 0,-0.02 0,-0.03 0,-0.01 0,-0.02 0,-0.04 0,-0.01 0,-0.02 0,-0.03 0,-0.01 0,-0.01 0,-0.01 0,-0.01 0,-0.01 0,-0.02 0,0 0,0 0,0 0,-0.01 0,-0.01 0,-0.01 0,0 0,-0.01 0,-0.01 0,0 0,0 0.01,0 0,0 0,0 0,0 0.01,0 0.01,0 0.01,0 0,0 0.01,0 0.01,0 0,0 0,0 0,0 0.01,0 0.01,0 0.01,0 0,0 0.01,0 0.01,0 0,0 0,0 0,0 0,0.01 0,0.01 0,0.01 0.01,0 0.01,0.01 0.01,0.01 0,0.01 0,0.02 0,0.03 0,0.01 0,0.02 0,0.04 -0.01,0.01 -0.01,0.02 -0.01,0.03 0,0.01 0,0.02 0,0.03zm-0.03 -0.11c0,0 0,0 0,0 0,0 0,0 0,0 0,0 0,0 0,0 0,0 0,0 0,0 0,0 0,0 0,0zm0.01 0c0,0 0,0 0,0 0,0 0,0 0,0 0,0 0,0 0,0l0 0c0,0 0,0 0,0 0,0 0,0 0,0 0,0 0,0 0,0zm0 0.01c0,0 0,0 0,0 0,0 0,0 0.01,0l-0.01 0c0,0 0,0 0,0 0,0 0,0 0,0 0,0 0,0 0,0 0,0 0,0 0,0zm-0.01 0.04c0,0 0,0 0,0 0,0 0,0 0,0 0,0 0,0 0,0 0,0 0,0 0,0 0,0 0,0 0,0 0,0 0,0 0,0zm0.02 0.03c0.01,0 0.01,0 0.01,0 0,0 0,0 0,-0.01 0,0 -0.01,0.01 -0.01,0.01 0,0 0,0 0,0 0,0 0,0 0,0zm0 0.04l0 0c0,0 0,0 0,0 0,0 0,0 0,0 0,-0.01 0,-0.01 0,-0.01 0,0 0,0 0,0 0,0 0,0 0,0 0,0 0,0 0,0 0,0 0,0 0,0 0,0 0,0 0,0 0,0 0,0 0,0 0,0 0,0 0,-0.01 0,0 -0.01,0 -0.01,0 0,0 0,0 0,0 0,0 0,-0.01 0,-0.01 0,0 0,0 0,0 0,0 0,0 0,-0.01 0,0 0,0 0,0 0,0 0,0 0,0 0,0.01 0,0.01 0,0.01 0,0 0,0 0,0 0,0 0,0.01 0,0.01 0,0 0,0 0,0 0,0 0,0 0,0 0,0 0,0.01 0.01,0.01 0,0 0,0 0,0 0,0 0,0 0,0 0,0 0,0 0,0 0,0.01 0,0.01 0,0.01 0,0 0,0 0,0l0 0 0 0c0,0 0,0 0,0.01 0,0 0,0 0,0 0,0 0,0 0,0 0,0.01 0,0.01 0,0.01 0,0 0,0 0,0 0,0 0,0 0,0 0,0 0,0 0,0 0,0 0,0 0,0.01 0,0 0,0 0,0 0,0 0,0 0,0 0,0 0,0 0,0l0 0c0,0 0,-0.01 0,-0.01 0,-0.01 0,-0.01 0,-0.01 0,0 0,-0.01 0,-0.01 0,0 0,0 0,0l0 0c0,0 0,0 0,0l0 0zm-0.03 0c0,0 0,0 0,0 0,0.01 0,0.01 0.01,0.01 0,0 0,-0.01 0,-0.01 0,0 0,0 0,0 0,0 0,0 -0.01,0 0,0 0,0 0,0 0,0 0,0 0,0zm0.1 0.01c0,0 0,0 0,0 0,0 0,0 0,0 0,0 0,0 0,0 0,0 0,0 0,0l0 0c0,0 0,0 0,0 0,0 0,0 0,0 0,0 0,0 0,0 0,0 0,0 0,0zm-0.11 0c0,0 0.01,0 0.01,0 0,0 0,0 0,0 -0.01,0 -0.01,0 -0.01,0 0,0 0,0 0,0zm0.04 0.01c0,0 0,0 0,0 0,0 0,0 0,0 0,0 0,0 0,0l0 0c0,0 0,0 0,0 0,0 0,0 0,0 0,0 0,0 0,0zm0.07 0c0,0 0,0 0,0 0,0 0,0 0,0 0,0 0,0 0,0 0,0 0,0 0,0 0,0 0,0 0,0 0,0 0,0 0,0 0,0 0,0 0,0zm-0.03 0c0,0 0,0 0,0 0,0 0,0 0,0 0,0 0,0 0,0 0,0 0,0 0,0 0,0 0,0 0,0 0,0 0,0 0,0 0,0 0,0 0,0zm0.03 0l0 0c0,0 0,0 0,0 0,0 0,0 0,0 0,0 0,0 0,0 0,0 0,0 0,0.01 0,0 0,0 0,0l0 0c0,0 0,0 0,0 0,0 0,0 0,0 0,0 0,0 0,0l0.01 0 0 0c0,0 0,0 0,0 0,0 0,0 0,0 0,0 0,0 0,0 0,0 0,0 0,-0.01 0,0 0,0 0,0 0,0 0,0 0,0 0,0 0,0.01 0,0.01l0 0 -0.01 -0.01zm-0.08 -0.02c0,0 0,0 0,0l0 0zm0.09 0.03c0,0 0,0 0,0 0,0 0,0 0,0l0 0z"/>
   </g>
   <path class="fil4" d="M1.71 0.85l-0.26 0c-0.01,0 -0.01,0 -0.01,0.01l0 0c0,0 0,0.01 0.01,0.01l0.26 0c0,0 0.01,-0.01 0.01,-0.01l0 0c0,-0.01 -0.01,-0.01 -0.01,-0.01zm-1.33 0l-0.26 0c-0.01,0 -0.01,0 -0.01,0.01l0 0c0,0 0,0.01 0.01,0.01l0.26 0c0.01,0 0.01,-0.01 0.01,-0.01l0 0c0,-0.01 0,-0.01 -0.01,-0.01zm0.02 -0.05c0,0 0,0 0,-0.01l-0.38 -0.17c0,0 -0.01,-0.01 0,-0.01 0,-0.01 0.01,-0.01 0.01,-0.01l0.37 0.17c0.01,0.01 0.01,0.01 0.01,0.02 0,0 -0.01,0.01 -0.01,0.01zm-0.19 -0.23c0,0 -0.01,0 -0.01,0l-0.03 -0.02c-0.01,0 -0.01,-0.01 0,-0.01 0,-0.01 0.01,-0.01 0.01,-0.01l0.03 0.02c0.01,0.01 0.01,0.01 0.01,0.02 0,0 -0.01,0 -0.01,0zm0.23 0.15c0,0 0,0 -0.01,0l-0.17 -0.11c0,0 0,-0.01 0,-0.01 0,-0.01 0.01,-0.01 0.01,-0.01l0.18 0.11c0,0.01 0,0.01 0,0.02 0,0 -0.01,0 -0.01,0zm0.05 -0.06c0,0 -0.01,-0.01 -0.01,-0.01l-0.31 -0.26c-0.01,0 -0.01,-0.01 -0.01,-0.02 0.01,0 0.01,0 0.02,0l0.32 0.27c0,0 0,0.01 0,0.01 0,0 -0.01,0.01 -0.01,0.01zm0.06 -0.07c-0.01,0 -0.01,0 -0.01,0l-0.14 -0.15c0,0 0,-0.01 0,-0.01 0,-0.01 0.01,-0.01 0.02,0l0.13 0.15c0.01,0 0.01,0.01 0,0.01 0,0 0,0 0,0zm-0.19 -0.2c0,0 -0.01,0 -0.01,0l-0.02 -0.03c-0.01,0 -0.01,-0.01 0,-0.01 0,-0.01 0.01,-0.01 0.01,0l0.03 0.02c0,0.01 0,0.02 0,0.02 0,0 -0.01,0 -0.01,0zm0.25 0.15c0,0 -0.01,0 -0.01,0l-0.24 -0.34c0,0 0,-0.01 0.01,-0.01 0,-0.01 0.01,-0.01 0.01,0l0.24 0.33c0,0.01 0,0.02 0,0.02 0,0 -0.01,0 -0.01,0zm0.07 -0.04c0,0 -0.01,0 -0.01,-0.01l-0.09 -0.18c-0.01,0 0,-0.01 0,-0.01 0.01,0 0.01,0 0.02,0l0.09 0.18c0,0.01 0,0.02 0,0.02 0,0 -0.01,0 -0.01,0zm-0.12 -0.24c-0.01,0 -0.01,0 -0.01,-0.01l-0.02 -0.03c-0.01,-0.01 -0.01,-0.02 0,-0.02 0.01,0 0.01,0 0.02,0.01l0.02 0.03c0,0.01 0,0.02 -0.01,0.02 0,0 0,0 0,0zm0.2 0.21c-0.01,0 -0.01,-0.01 -0.01,-0.01l-0.11 -0.4c0,0 0,-0.01 0.01,-0.01 0.01,0 0.01,0 0.01,0.01l0.11 0.39c0,0.01 0,0.02 -0.01,0.02 0,0 0,0 0,0zm0.08 -0.03c-0.01,0 -0.01,0 -0.01,-0.01l-0.03 -0.2c0,-0.01 0,-0.01 0.01,-0.01 0,-0.01 0.01,0 0.01,0.01l0.03 0.2c0,0 -0.01,0.01 -0.01,0.01 0,0 0,0 0,0zm-0.04 -0.27c0,0 -0.01,0 -0.01,-0.01l-0.01 -0.04c0,-0.01 0.01,-0.01 0.01,-0.01 0.01,0 0.02,0 0.02,0.01l0 0.04c0,0.01 0,0.01 -0.01,0.01 0,0 0,0 0,0zm0.12 0.26c-0.01,0 -0.01,0 -0.01,-0.01l0 -0.41c0,0 0,-0.01 0.01,-0.01 0.01,0 0.01,0.01 0.01,0.01l0 0.41c0,0.01 0,0.01 -0.01,0.01zm0.08 0.01c0,0 0,0 0,0 0,0 -0.01,-0.01 -0.01,-0.01l0.03 -0.2c0,-0.01 0,-0.02 0.01,-0.01 0.01,0 0.01,0 0.01,0.01l-0.03 0.2c0,0.01 0,0.01 -0.01,0.01zm0.04 -0.26c0,0 0,0 0,0 -0.01,0 -0.01,-0.01 -0.01,-0.02l0 -0.04c0,-0.01 0.01,-0.01 0.01,-0.01 0.01,0 0.02,0 0.01,0.01l0 0.05c0,0 -0.01,0.01 -0.01,0.01zm0.04 0.28c0,0 0,0 0,0 0,-0.01 -0.01,-0.01 -0.01,-0.02l0.11 -0.4c0,0 0.01,-0.01 0.01,0 0.01,0 0.01,0 0.01,0.01l-0.11 0.4c0,0 0,0.01 -0.01,0.01zm0.07 0.03c0,0 -0.01,0 -0.01,0 0,0 -0.01,-0.01 0,-0.01l0.09 -0.18c0.01,-0.01 0.01,-0.01 0.02,-0.01 0,0.01 0.01,0.01 0,0.02l-0.09 0.18c0,0 -0.01,0 -0.01,0zm0.12 -0.23c0,0 0,0 0,0 -0.01,-0.01 -0.01,-0.01 -0.01,-0.02l0.03 -0.04c0,0 0.01,-0.01 0.01,0 0.01,0 0.01,0.01 0.01,0.01l-0.03 0.04c0,0.01 0,0.01 -0.01,0.01zm-0.05 0.28c0,0 -0.01,0 -0.01,0 0,-0.01 0,-0.01 0,-0.02l0.24 -0.33c0,-0.01 0.01,-0.01 0.02,-0.01 0,0.01 0,0.01 0,0.02l-0.24 0.33c0,0.01 -0.01,0.01 -0.01,0.01zm0.06 0.05c0,0 0,0 -0.01,0 0,-0.01 0,-0.01 0,-0.02l0.14 -0.15c0.01,0 0.01,0 0.02,0 0,0.01 0,0.01 0,0.02l-0.14 0.15c0,0 0,0 -0.01,0zm0.19 -0.19c0,0 -0.01,0 -0.01,-0.01 0,0 0,-0.01 0,-0.01l0.03 -0.04c0,0 0.01,0 0.01,0 0.01,0.01 0.01,0.01 0.01,0.02l-0.03 0.03c-0.01,0.01 -0.01,0.01 -0.01,0.01zm-0.13 0.25c0,0 -0.01,0 -0.01,0 0,-0.01 0,-0.01 0,-0.02l0.32 -0.26c0.01,0 0.01,0 0.02,0 0,0.01 0,0.02 -0.01,0.02l-0.31 0.26c-0.01,0 -0.01,0 -0.01,0zm0.05 0.07c-0.01,0 -0.01,0 -0.01,-0.01 -0.01,0 0,-0.01 0,-0.01l0.17 -0.11c0.01,0 0.02,0 0.02,0.01 0,0 0,0.01 0,0.01l-0.18 0.11c0,0 0,0 0,0zm0.23 -0.14c0,0 -0.01,0 -0.01,0 0,-0.01 0,-0.02 0,-0.02l0.04 -0.03c0,0 0.01,0 0.01,0.01 0.01,0 0.01,0.01 0,0.01l-0.03 0.03c-0.01,0 -0.01,0 -0.01,0zm-0.19 0.21c-0.01,0 -0.01,0 -0.01,0 -0.01,-0.01 0,-0.02 0,-0.02l0.38 -0.17c0,0 0.01,0 0.01,0.01 0,0 0,0.01 0,0.01l-0.38 0.17c0,0 0,0 0,0z"/>
  </g>
 </g>
</svg>
