<?xml version="1.0" encoding="UTF-8"?>
<!DOCTYPE svg PUBLIC "-//W3C//DTD SVG 1.1//EN" "http://www.w3.org/Graphics/SVG/1.1/DTD/svg11.dtd">
<!-- Creator: CorelDRAW 2019 (64-Bit) -->
<svg xmlns="http://www.w3.org/2000/svg" xml:space="preserve" width="12.8114mm" height="7.59mm" version="1.1" style="shape-rendering:geometricPrecision; text-rendering:geometricPrecision; image-rendering:optimizeQuality; fill-rule:evenodd; clip-rule:evenodd"
viewBox="0 0 35.55 21.06"
 xmlns:xlink="http://www.w3.org/1999/xlink"
 xmlns:xodm="http://www.corel.com/coreldraw/odm/2003">
 <defs>
  <style type="text/css">
   <![CDATA[
    .fil1 {fill:#FDBE01}
    .fil0 {fill:white}
   ]]>
  </style>
 </defs>
 <g id="Capa_x0020_1">
  <metadata id="CorelCorpID_0Corel-Layer"/>
  <path class="fil0" d="M9.53 11.06c-0.29,0.16 -0.58,0.23 -0.87,0.23 -0.41,0 -0.74,-0.14 -0.98,-0.43 -0.24,-0.29 -0.36,-0.69 -0.36,-1.19 0,-0.5 0.12,-0.9 0.37,-1.19 0.24,-0.29 0.57,-0.44 0.98,-0.44 0.28,0 0.57,0.06 0.87,0.19l0 0.69 -0.32 0 0 -0.46c-0.16,-0.06 -0.34,-0.09 -0.56,-0.09 -0.31,0 -0.55,0.11 -0.72,0.32 -0.17,0.21 -0.25,0.53 -0.25,0.97 0,0.45 0.09,0.79 0.26,1.01 0.17,0.22 0.42,0.33 0.73,0.33 0.26,0 0.55,-0.08 0.86,-0.23l0 0.32zm0.52 -1.92c0.27,-0.15 0.54,-0.23 0.82,-0.23 0.24,0 0.43,0.05 0.56,0.17 0.13,0.11 0.19,0.29 0.19,0.53l0 1.34 0.29 0 0 0.29 -0.61 0 -0.02 -0.26 -0.01 -0.01c-0.19,0.22 -0.41,0.33 -0.69,0.33 -0.2,0 -0.36,-0.06 -0.48,-0.18 -0.12,-0.12 -0.18,-0.27 -0.18,-0.45 0,-0.24 0.11,-0.43 0.32,-0.55 0.21,-0.12 0.52,-0.18 0.92,-0.18l0.1 0 0 -0.34c0,-0.14 -0.03,-0.25 -0.1,-0.3 -0.07,-0.06 -0.18,-0.09 -0.34,-0.09 -0.19,0 -0.35,0.03 -0.48,0.09l0 0.31 -0.3 0 0 -0.47zm1.08 1.05c-0.27,0 -0.47,0.03 -0.62,0.1 -0.14,0.07 -0.22,0.19 -0.22,0.36 0,0.12 0.03,0.21 0.1,0.27 0.07,0.06 0.16,0.08 0.27,0.08 0.23,0 0.43,-0.09 0.6,-0.28l0 -0.53 -0.14 0zm1.01 0.76l0.29 0 0 -1.68 -0.29 0 0 -0.29 0.62 0 0.02 0.3 0.01 0c0.21,-0.24 0.45,-0.36 0.72,-0.36 0.19,0 0.34,0.05 0.42,0.17 0.09,0.11 0.13,0.27 0.13,0.47l0 1.4 0.29 0 0 0.1c-0.05,0.07 -0.1,0.14 -0.14,0.19l-0.74 0 0 -0.29 0.23 0 0 -1.35c0,-0.16 -0.03,-0.26 -0.08,-0.31 -0.05,-0.05 -0.13,-0.08 -0.23,-0.08 -0.23,0 -0.43,0.12 -0.62,0.36l0 1.38 0.23 0 0 0.29 -0.87 0 0 -0.29zm2.74 -0.51l0 -1.18 -0.29 0 0 -0.29 0.64 0 0 1.18c-0.12,0.08 -0.24,0.18 -0.35,0.29zm-0.1 -2.09c0,-0.08 0.02,-0.14 0.07,-0.19 0.04,-0.04 0.11,-0.07 0.18,-0.07 0.07,0 0.13,0.02 0.18,0.07 0.05,0.04 0.07,0.1 0.07,0.18 0,0.08 -0.02,0.14 -0.07,0.18 -0.05,0.04 -0.11,0.07 -0.19,0.07 -0.07,0 -0.13,-0.02 -0.18,-0.07 -0.04,-0.04 -0.07,-0.1 -0.07,-0.17zm1.32 1.58l0 -1.89 -0.29 0 0 -0.29 0.64 0 0 2.47c-0.07,-0.13 -0.16,-0.21 -0.28,-0.26 -0.02,-0.01 -0.05,-0.02 -0.07,-0.02zm0.49 1.01l0.15 0 0 0.29 -0.17 0c0.01,-0.1 0.01,-0.2 0.01,-0.29zm0.45 0l0.29 0 0 -2.91 -0.29 0 0 -0.29 0.64 0 0 3.2 0.29 0 0 0.29 -0.93 0 0 -0.29zm1.4 -1.81c0.27,-0.15 0.54,-0.23 0.82,-0.23 0.24,0 0.43,0.05 0.56,0.17 0.13,0.11 0.19,0.29 0.19,0.53l0 1.34 0.29 0 0 0.29 -0.61 0 -0.02 -0.26 -0.01 -0.01c-0.19,0.22 -0.41,0.33 -0.69,0.33 -0.2,0 -0.36,-0.06 -0.48,-0.18 -0.12,-0.12 -0.18,-0.27 -0.18,-0.45 0,-0.24 0.11,-0.43 0.32,-0.55 0.21,-0.12 0.52,-0.18 0.92,-0.18l0.1 0 0 -0.34c0,-0.14 -0.03,-0.25 -0.1,-0.3 -0.07,-0.06 -0.18,-0.09 -0.34,-0.09 -0.19,0 -0.35,0.03 -0.48,0.09l0 0.31 -0.3 0 0 -0.47zm1.08 1.05c-0.27,0 -0.47,0.03 -0.62,0.1 -0.14,0.07 -0.22,0.19 -0.22,0.36 0,0.12 0.03,0.21 0.1,0.27 0.07,0.06 0.16,0.08 0.27,0.08 0.23,0 0.43,-0.09 0.6,-0.28l0 -0.53 -0.14 0z"/>
  <path class="fil1" d="M13 18.78c0.1,-0.23 0.25,-0.41 0.43,-0.56 0.18,-0.15 0.37,-0.28 0.57,-0.41 -0.24,0.43 -0.58,0.75 -1,0.97zm12.08 -2.41c2.64,-0.73 2.6,-2.97 2.51,-5.46l0.52 0c0.09,2.44 -0.12,4.85 -2.73,5.73 -0.27,0.09 -0.55,0.17 -0.83,0.24 -0.18,0.04 -0.4,0.1 -0.64,0.16 -0.24,0.06 -0.5,0.12 -0.78,0.18 -0.27,0.06 -0.55,0.11 -0.83,0.15 -0.27,0.04 -0.54,0.06 -0.79,0.06 -0.25,0 -0.48,-0.03 -0.68,-0.08 -0.24,-0.06 -0.4,-0.18 -0.49,-0.35 -0.09,-0.17 -0.12,-0.38 -0.1,-0.62 0.01,-0.1 0.04,-0.17 0.09,-0.22 0.05,-0.05 0.1,-0.1 0.14,-0.16 0.08,-0.1 0.18,-0.2 0.29,-0.31 0.12,-0.11 0.24,-0.21 0.37,-0.29 0.13,-0.09 0.27,-0.16 0.41,-0.22 0.14,-0.06 0.28,-0.09 0.41,-0.09 0.15,0 0.28,0.08 0.39,0.25 0.06,0.1 0.08,0.18 0.05,0.26 -0.03,0.08 -0.07,0.15 -0.13,0.22 -0.21,0.21 -0.43,0.38 -0.67,0.5 -0.24,0.13 -0.51,0.19 -0.81,0.19 -0.07,0 -0.13,0.01 -0.17,0.02 -0.04,0.01 -0.07,0.06 -0.09,0.14 -0.03,0.17 0.02,0.28 0.14,0.31 0.13,0.04 0.27,0.07 0.41,0.09 0.14,0.01 0.29,0.02 0.44,0.02 0.23,0 0.45,-0.02 0.68,-0.05 0.23,-0.03 0.45,-0.07 0.67,-0.12 0.22,-0.05 0.43,-0.1 0.62,-0.14 0.2,-0.05 0.38,-0.09 0.54,-0.12 0.34,-0.09 0.68,-0.19 1.02,-0.29l0.02 -0.01 -0.01 -0zm-2.94 -0.91c-0.18,0.23 -0.38,0.41 -0.59,0.54 -0.21,0.13 -0.45,0.22 -0.71,0.26 0.04,-0.1 0.11,-0.21 0.21,-0.3 0.1,-0.1 0.21,-0.18 0.33,-0.26 0.13,-0.07 0.26,-0.13 0.39,-0.18 0.13,-0.04 0.25,-0.07 0.37,-0.07zm-3.14 0.26c-0.11,0.07 -0.22,0.15 -0.31,0.24 -0.1,0.09 -0.2,0.18 -0.3,0.27 0.01,-0.14 0.04,-0.29 0.1,-0.45 0.05,-0.13 0.05,-0.23 0.01,-0.3 -0.05,-0.07 -0.16,-0.12 -0.33,-0.14l-0.18 0.75 -0.01 0c-0.55,0.11 -1.09,0.24 -1.63,0.39 -0.54,0.14 -1.07,0.33 -1.59,0.56 -0.02,0.01 -0.04,0.01 -0.06,0.01 -0.02,0 -0.05,0 -0.07,0.01 -0.17,-0.41 -0.41,-0.62 -0.72,-0.62 -0.17,0 -0.35,0.06 -0.55,0.17 -0.17,0.1 -0.32,0.2 -0.47,0.32 -0.15,0.12 -0.31,0.24 -0.47,0.36 0.03,-0.1 0.05,-0.21 0.09,-0.31 0.03,-0.1 0.06,-0.21 0.09,-0.31 0.03,-0.22 0.14,-0.4 0.33,-0.54 0.31,-0.24 0.65,-0.53 1,-0.88 0.35,-0.35 0.69,-0.72 1,-1.13 0.31,-0.4 0.6,-0.81 0.84,-1.23 0.25,-0.42 0.43,-0.82 0.54,-1.21 0.04,-0.16 0.08,-0.32 0.1,-0.5 0.02,-0.17 0.02,-0.34 0.01,-0.51 -0.02,-0.17 -0.08,-0.3 -0.18,-0.39 -0.1,-0.1 -0.23,-0.14 -0.38,-0.14 -0.18,0 -0.38,0.08 -0.58,0.25 -0.21,0.17 -0.4,0.36 -0.59,0.6 -0.19,0.23 -0.36,0.47 -0.5,0.7 -0.15,0.24 -0.26,0.42 -0.33,0.56 -0.48,0.92 -0.87,1.87 -1.17,2.86 -0.1,0.32 -0.19,0.65 -0.28,0.98 -0.02,0 -0.04,0.01 -0.07,0.02 -0.07,0.03 -0.19,0.07 -0.36,0.12 -0.17,0.05 -0.36,0.11 -0.57,0.18 -0.21,0.07 -0.43,0.13 -0.66,0.2 -0.23,0.07 -0.45,0.13 -0.65,0.19 -0.2,0.06 -0.38,0.1 -0.53,0.14 -0.15,0.03 -0.26,0.05 -0.31,0.05 -0.04,0 -0.08,-0.01 -0.12,-0.04 -0.03,-0.03 -0.04,-0.08 -0.03,-0.16 0.04,-0.25 0.11,-0.49 0.19,-0.72 0.08,-0.23 0.22,-0.43 0.43,-0.6 -0.1,-0.14 -0.21,-0.21 -0.34,-0.21 -0.09,0 -0.17,0.05 -0.25,0.15 -0.08,0.1 -0.15,0.22 -0.22,0.35 -0.07,0.13 -0.12,0.26 -0.16,0.39 -0.04,0.13 -0.07,0.23 -0.09,0.3 -0.02,0.08 -0.04,0.16 -0.03,0.23 -0.05,-0.02 -0.1,-0.04 -0.16,-0.05 -0.1,-0.02 -0.21,-0.03 -0.31,-0.03 -0.1,-0 -0.2,-0.01 -0.31,-0.01 -0.77,0.07 -1.53,0.14 -2.29,0.2 -0.76,0.07 -1.52,0.13 -2.29,0.2 -0.24,0.03 -0.49,0.07 -0.73,0.12 -0.24,0.05 -0.49,0.1 -0.74,0.14 0.03,-0.06 0.05,-0.11 0.07,-0.16 0.02,-0.04 0.04,-0.09 0.06,-0.13 0.5,-0.98 0.94,-1.98 1.33,-2.99 0.39,-1.02 0.75,-2.05 1.08,-3.1 0.07,-0.21 0.1,-0.43 0.08,-0.67 0,-0.12 -0.05,-0.23 -0.14,-0.33 -0.09,-0.1 -0.19,-0.14 -0.28,-0.14 -0.03,0 -0.09,0.02 -0.16,0.05 -0.07,0.03 -0.14,0.07 -0.21,0.11 -0.07,0.04 -0.14,0.09 -0.2,0.13 -0.07,0.04 -0.12,0.08 -0.15,0.1 -0.02,0.02 -0.02,0.06 -0.01,0.12 0.01,0.06 0.01,0.11 0.01,0.16 0.02,0 0.04,0 0.07,0.01 0.03,0 0.05,0.01 0.08,0.01 0.02,0 0.04,-0.01 0.08,-0.03 0.09,-0.03 0.17,-0.07 0.25,-0.12 0.08,-0.04 0.17,-0.1 0.29,-0.16 -0.02,0.08 -0.03,0.14 -0.05,0.2 -0.01,0.05 -0.03,0.1 -0.05,0.14 -0.13,0.35 -0.26,0.7 -0.39,1.04 -0.13,0.34 -0.26,0.69 -0.4,1.04 -0.31,0.79 -0.63,1.58 -0.98,2.36 -0.34,0.78 -0.73,1.54 -1.15,2.28 -0.08,0.14 -0.17,0.26 -0.26,0.37 -0.1,0.11 -0.22,0.19 -0.37,0.26 -0.06,0.03 -0.12,0.06 -0.17,0.1 -0.05,0.04 -0.1,0.09 -0.14,0.13 -0.03,0.03 -0.05,0.06 -0.07,0.1 -0.02,0.04 -0.03,0.09 -0.02,0.13 0.02,0.15 0.07,0.26 0.16,0.34 0.09,0.08 0.2,0.12 0.32,0.12 0.09,0 0.19,-0.03 0.31,-0.1 0.12,-0.07 0.21,-0.14 0.25,-0.23 0.1,-0.17 0.22,-0.3 0.38,-0.38 0.16,-0.08 0.32,-0.14 0.5,-0.18 1.1,-0.27 2.2,-0.47 3.3,-0.6 1.1,-0.13 2.22,-0.2 3.35,-0.23 0.04,0 0.09,0 0.12,0l0.02 -0 0.03 0.03c0.14,0.17 0.33,0.26 0.56,0.26 0.13,0 0.26,-0.01 0.4,-0.04 0.14,-0.03 0.26,-0.06 0.39,-0.1 0.38,-0.12 0.75,-0.24 1.12,-0.37l1.07 -0.35c-0.14,0.55 -0.26,1.1 -0.36,1.66 -0.01,0.05 0,0.11 0.03,0.16 0.03,0.06 0.05,0.11 0.07,0.16 0,0.01 0.02,0.01 0.07,0.01 0.06,0 0.1,-0.01 0.1,-0.03 0.07,-0.12 0.14,-0.24 0.2,-0.36 0.06,-0.12 0.13,-0.23 0.21,-0.35 0.17,-0.22 0.35,-0.41 0.56,-0.57 0.21,-0.16 0.44,-0.29 0.7,-0.37 0.09,-0.03 0.15,-0.05 0.2,-0.05 0.08,0 0.14,0.05 0.17,0.14 0.02,0.09 0.03,0.17 0.03,0.26 0,0.08 -0.05,0.16 -0.16,0.23 -0.17,0.1 -0.31,0.19 -0.44,0.27 -0.13,0.09 -0.24,0.18 -0.35,0.27 -0.11,0.09 -0.21,0.19 -0.31,0.31 -0.1,0.11 -0.21,0.25 -0.32,0.41 -0.06,0.07 -0.09,0.15 -0.08,0.23 0,0.08 0.04,0.16 0.11,0.23 0.08,0.09 0.17,0.13 0.26,0.13 0.06,0 0.14,-0.02 0.22,-0.07 0.31,-0.17 0.58,-0.38 0.81,-0.62 0.24,-0.24 0.41,-0.52 0.54,-0.86 0.05,-0.15 0.15,-0.25 0.29,-0.31 0.51,-0.23 1.02,-0.42 1.55,-0.58 0.51,-0.16 1.03,-0.3 1.56,-0.42l-0.02 0.08c-0.08,0.35 -0.16,0.71 -0.24,1.07 -0.01,0.04 0.01,0.1 0.06,0.16 0.05,0.07 0.1,0.11 0.15,0.12 0.03,0.02 0.06,0.03 0.07,0.03 0.04,0 0.08,-0.02 0.1,-0.07 0.02,-0.05 0.04,-0.09 0.06,-0.14 0.13,-0.3 0.28,-0.58 0.45,-0.86 0.17,-0.27 0.39,-0.51 0.66,-0.71 0.18,-0.15 0.37,-0.29 0.56,-0.43 0.19,-0.14 0.42,-0.2 0.68,-0.2l0.1 0c-0.08,-0.2 -0.2,-0.3 -0.35,-0.3 -0.06,0 -0.15,0.03 -0.26,0.08 -0.11,0.05 -0.23,0.11 -0.35,0.18 -0.12,0.07 -0.24,0.13 -0.35,0.2 -0.11,0.07 -0.19,0.13 -0.24,0.17zm-5.59 -1.58c0.17,-0.46 0.37,-0.92 0.58,-1.36 0.21,-0.45 0.47,-0.86 0.77,-1.26 0.14,-0.17 0.29,-0.34 0.46,-0.5 0.17,-0.16 0.33,-0.32 0.5,-0.46 0.06,-0.06 0.15,-0.09 0.26,-0.09 0.04,0 0.07,0 0.09,0.01 0.03,0.02 0.06,0.06 0.07,0.13 0.01,0.07 0.02,0.14 0.02,0.2 -0.01,0.33 -0.09,0.68 -0.23,1.03 -0.14,0.36 -0.32,0.71 -0.54,1.05 -0.21,0.34 -0.45,0.67 -0.69,0.98 -0.25,0.31 -0.48,0.57 -0.69,0.8 -0.17,0.19 -0.35,0.38 -0.52,0.56 -0.17,0.18 -0.35,0.37 -0.52,0.55 -0.05,-0.03 -0.09,-0.06 -0.1,-0.08 0.1,-0.25 0.19,-0.51 0.27,-0.77 0.09,-0.26 0.18,-0.52 0.28,-0.79zm-3.58 0.8c0.08,-0.01 0.16,-0.06 0.25,-0.14 0.09,-0.09 0.13,-0.17 0.13,-0.25 0,-0.05 -0.02,-0.1 -0.07,-0.14 -0.04,-0.04 -0.1,-0.07 -0.16,-0.1 -0.06,-0.03 -0.12,-0.05 -0.18,-0.06 -0.06,-0.01 -0.11,-0.02 -0.16,-0.02 -0.17,0 -0.22,0.08 -0.16,0.25 0,0.14 0.03,0.25 0.1,0.34 0.07,0.09 0.15,0.13 0.24,0.12z"/>
  <path class="fil0" d="M31.7 9.42c-0.63,0 -1.17,-0.37 -1.43,-0.9 -0.27,0 -0.54,0 -0.81,0 -0.7,0.1 -1.12,0.95 -1.33,2.38 -0.19,0 -0.38,0 -0.57,0 0,-0.54 0,-1.07 0,-1.61 0.61,-0.26 0.12,-1.83 -1.03,-1.59 0,-0.44 0,-0.89 0,-1.33 0.3,0 0.6,0 0.9,0 0.07,-0.38 0.14,-0.75 0.2,-1.13 -0.24,-0.48 -0.3,-0.76 -0.28,-1.18 -0.49,-0.87 -1.02,-1.93 -1.52,-2.88 -0.37,-0.7 0.03,-1.21 0.45,-1.21 0.25,0 0.52,0.19 0.62,0.63 0.33,1.35 0.68,3.22 1.18,3.29 0.1,0.41 0.2,0.82 0.3,1.23 -0.08,1.53 0.71,1.98 1.91,1.94 0.27,-0.5 0.79,-0.84 1.4,-0.84 0.82,0 1.5,0.63 1.58,1.43 1.34,0.42 2.1,1.35 2.24,2.83 0.01,4.24 0.02,6.35 0.04,10.56l-5.53 0c2.88,0 3.24,-1.48 3.52,-4.71 0.16,-1.92 0.33,-3.83 0.49,-5.75 0.06,-0.96 -0.4,-1.48 -1.07,-1.81 -0.29,0.38 -0.75,0.63 -1.26,0.63z"/>
 </g>
</svg>
