<?xml version="1.0" encoding="UTF-8"?>
<!DOCTYPE svg PUBLIC "-//W3C//DTD SVG 1.1//EN" "http://www.w3.org/Graphics/SVG/1.1/DTD/svg11.dtd">
<!-- Creator: CorelDRAW 2019 (64-Bit) -->
<svg xmlns="http://www.w3.org/2000/svg" xml:space="preserve" width="10.5863mm" height="7.59mm" version="1.1" style="shape-rendering:geometricPrecision; text-rendering:geometricPrecision; image-rendering:optimizeQuality; fill-rule:evenodd; clip-rule:evenodd"
viewBox="0 0 33.69 24.15"
 xmlns:xlink="http://www.w3.org/1999/xlink"
 xmlns:xodm="http://www.corel.com/coreldraw/odm/2003">
 <defs>
  <style type="text/css">
   <![CDATA[
    .fil0 {fill:#2F4858}
    .fil1 {fill:#FDBE01;fill-rule:nonzero}
   ]]>
  </style>
 </defs>
 <g id="Capa_x0020_1">
  <metadata id="CorelCorpID_0Corel-Layer"/>
  <g id="_2770301839232">
   <path class="fil0" d="M14.7 14.26c-0.33,0.18 -0.66,0.27 -1,0.27 -0.48,0 -0.85,-0.17 -1.12,-0.5 -0.27,-0.33 -0.41,-0.79 -0.41,-1.37 0,-0.58 0.14,-1.03 0.42,-1.37 0.28,-0.33 0.65,-0.5 1.12,-0.5 0.33,0 0.66,0.07 0.99,0.21l0 0.79 -0.37 0 0 -0.53c-0.18,-0.07 -0.39,-0.11 -0.64,-0.11 -0.36,0 -0.63,0.12 -0.82,0.36 -0.19,0.24 -0.29,0.61 -0.29,1.11 0,0.52 0.1,0.9 0.3,1.15 0.2,0.25 0.48,0.37 0.83,0.37 0.3,0 0.63,-0.09 0.98,-0.27l0 0.37zm0.6 -2.21c0.31,-0.17 0.62,-0.26 0.94,-0.26 0.28,0 0.49,0.06 0.64,0.19 0.15,0.13 0.22,0.33 0.22,0.6l0 1.54 0.33 0 0 0.34 -0.69 0 -0.02 -0.3 -0.01 -0.01c-0.21,0.25 -0.48,0.37 -0.79,0.37 -0.23,0 -0.41,-0.07 -0.55,-0.2 -0.14,-0.14 -0.2,-0.31 -0.2,-0.52 0,-0.28 0.12,-0.49 0.36,-0.63 0.24,-0.14 0.6,-0.21 1.06,-0.21l0.11 0 0 -0.39c0,-0.16 -0.04,-0.28 -0.12,-0.35 -0.08,-0.07 -0.21,-0.1 -0.39,-0.1 -0.22,0 -0.4,0.04 -0.55,0.11l0 0.36 -0.35 0 0 -0.54zm1.24 1.21c-0.31,0 -0.54,0.04 -0.71,0.12 -0.16,0.08 -0.25,0.21 -0.25,0.41 0,0.14 0.04,0.24 0.12,0.31 0.08,0.06 0.18,0.1 0.31,0.1 0.27,0 0.5,-0.11 0.69,-0.33l0 -0.61 -0.16 0zm1.16 0.87l0.33 0 0 -1.93 -0.33 0 0 -0.34 0.71 0 0.02 0.34 0.01 0c0.24,-0.28 0.52,-0.41 0.83,-0.41 0.22,0 0.38,0.06 0.49,0.19 0.1,0.13 0.15,0.31 0.15,0.54l0 1.61 0.33 0 0 0.12c-0.06,0.08 -0.11,0.16 -0.16,0.22l-0.84 0 0 -0.34 0.27 0 0 -1.55c0,-0.18 -0.03,-0.3 -0.09,-0.36 -0.06,-0.06 -0.15,-0.09 -0.26,-0.09 -0.26,0 -0.5,0.14 -0.71,0.41l0 1.59 0.27 0 0 0.34 -1 0 0 -0.34zm3.14 -0.58l0 -1.35 -0.33 0 0 -0.34 0.73 0 0 1.35c-0.14,0.1 -0.27,0.21 -0.4,0.33zm-0.11 -2.39c0,-0.09 0.03,-0.17 0.08,-0.22 0.05,-0.05 0.12,-0.08 0.21,-0.08 0.08,0 0.15,0.03 0.21,0.08 0.05,0.05 0.08,0.12 0.08,0.2 0,0.09 -0.03,0.16 -0.08,0.21 -0.05,0.05 -0.12,0.08 -0.21,0.08 -0.08,0 -0.15,-0.03 -0.2,-0.08 -0.05,-0.05 -0.08,-0.12 -0.08,-0.2zm1.51 1.81l0 -2.17 -0.33 0 0 -0.34 0.73 0 0 2.83c-0.08,-0.15 -0.19,-0.24 -0.32,-0.3 -0.03,-0.01 -0.05,-0.02 -0.08,-0.03zm0.56 1.16l0.18 0 0 0.34 -0.19 0c0.01,-0.12 0.01,-0.23 0.01,-0.34zm0.51 0l0.33 0 0 -3.33 -0.33 0 0 -0.34 0.73 0 0 3.67 0.33 0 0 0.34 -1.07 0 0 -0.34zm1.6 -2.07c0.31,-0.17 0.62,-0.26 0.94,-0.26 0.28,0 0.49,0.06 0.64,0.19 0.15,0.13 0.22,0.33 0.22,0.6l0 1.54 0.33 0 0 0.34 -0.69 0 -0.02 -0.3 -0.01 -0.01c-0.21,0.25 -0.48,0.37 -0.79,0.37 -0.23,0 -0.41,-0.07 -0.55,-0.2 -0.13,-0.14 -0.2,-0.31 -0.2,-0.52 0,-0.28 0.12,-0.49 0.36,-0.63 0.24,-0.14 0.6,-0.21 1.06,-0.21l0.11 0 0 -0.39c0,-0.16 -0.04,-0.28 -0.12,-0.35 -0.08,-0.07 -0.21,-0.1 -0.39,-0.1 -0.22,0 -0.4,0.04 -0.55,0.11l0 0.36 -0.35 0 0 -0.54zm1.24 1.21c-0.31,0 -0.54,0.04 -0.71,0.12 -0.16,0.08 -0.25,0.21 -0.25,0.41 0,0.14 0.04,0.24 0.12,0.31 0.08,0.06 0.18,0.1 0.31,0.1 0.27,0 0.5,-0.11 0.69,-0.33l0 -0.61 -0.16 0z"/>
   <path class="fil0" d="M4.42 10.81c0.72,0 1.34,-0.42 1.64,-1.03 0.31,0 0.62,0 0.93,0 0.8,0.12 1.29,1.09 1.52,2.73 0.22,0 0.44,0 0.66,0 0,-0.61 0,-1.23 0,-1.84 -0.71,-0.3 -0.14,-2.09 1.19,-1.82 0,-0.51 0,-1.02 0,-1.52 -0.35,0 -0.69,0 -1.04,0 -0.08,-0.43 -0.16,-0.86 -0.23,-1.29 0.27,-0.55 0.35,-0.88 0.32,-1.35 0.56,-1 1.17,-2.22 1.74,-3.3 0.43,-0.8 -0.03,-1.39 -0.52,-1.38 -0.29,0 -0.59,0.21 -0.71,0.72 -0.38,1.55 -0.78,3.7 -1.36,3.78 -0.12,0.47 -0.23,0.94 -0.35,1.41 0.1,1.76 -0.81,2.28 -2.19,2.23 -0.31,-0.58 -0.91,-0.97 -1.61,-0.97 -0.94,0 -1.72,0.72 -1.81,1.64 -1.53,0.48 -2.41,1.55 -2.57,3.24 -0.01,4.86 -0.03,7.28 -0.04,12.11l6.35 0c-3.3,0 -3.72,-1.7 -4.03,-5.4 -0.19,-2.2 -0.38,-4.4 -0.57,-6.59 -0.07,-1.1 0.45,-1.7 1.22,-2.07 0.33,0.44 0.86,0.72 1.45,0.72z"/>
   <path class="fil1" d="M7.78 15.78c-0.34,0.89 -0.71,1.77 -1.09,2.63 -0.39,0.87 -0.81,1.72 -1.28,2.55 -0.09,0.16 -0.19,0.3 -0.29,0.42 -0.11,0.12 -0.24,0.22 -0.41,0.29 -0.07,0.03 -0.13,0.07 -0.19,0.12 -0.06,0.05 -0.11,0.1 -0.16,0.15 -0.03,0.03 -0.06,0.07 -0.08,0.12 -0.02,0.05 -0.03,0.1 -0.02,0.15 0.02,0.17 0.08,0.29 0.18,0.38 0.1,0.09 0.22,0.13 0.36,0.13 0.1,0 0.21,-0.04 0.35,-0.11 0.14,-0.07 0.23,-0.16 0.28,-0.26 0.11,-0.2 0.25,-0.34 0.42,-0.42 0.18,-0.09 0.36,-0.16 0.56,-0.2 1.23,-0.3 2.46,-0.52 3.69,-0.67 1.23,-0.14 2.48,-0.23 3.75,-0.26 0.05,0 0.1,0 0.14,0 0.04,0 0.11,-0 0.18,-0.01 -0.09,-0.25 -0.24,-0.4 -0.47,-0.42 -0.12,-0.02 -0.23,-0.03 -0.34,-0.04 -0.11,-0 -0.23,-0.01 -0.34,-0.01 -0.86,0.08 -1.71,0.15 -2.55,0.23 -0.84,0.07 -1.7,0.15 -2.55,0.23 -0.27,0.03 -0.54,0.07 -0.81,0.13 -0.27,0.06 -0.54,0.11 -0.83,0.16 0.03,-0.07 0.06,-0.13 0.08,-0.18 0.02,-0.05 0.05,-0.1 0.07,-0.15 0.56,-1.09 1.05,-2.21 1.49,-3.34 0.87,-2.28 1.13,-3.19 1.28,-4.87 -0.22,0 -0.44,0 -0.66,0 0.05,1.02 -0.56,2.86 -0.73,3.27zm10.23 3.98c-0.08,0.03 -0.21,0.07 -0.4,0.13 -0.19,0.06 -0.4,0.12 -0.64,0.2 -0.23,0.07 -0.48,0.15 -0.74,0.23 -0.26,0.08 -0.5,0.15 -0.72,0.21 -0.22,0.06 -0.42,0.11 -0.59,0.15 -0.17,0.04 -0.29,0.06 -0.34,0.06 -0.05,0 -0.09,-0.01 -0.13,-0.04 -0.04,-0.03 -0.05,-0.09 -0.03,-0.18 0.05,-0.28 0.12,-0.55 0.21,-0.8 0.09,-0.25 0.25,-0.48 0.48,-0.67 -0.11,-0.16 -0.23,-0.23 -0.38,-0.23 -0.1,0 -0.19,0.06 -0.28,0.17 -0.09,0.11 -0.17,0.24 -0.24,0.39 -0.07,0.15 -0.13,0.29 -0.18,0.44 -0.05,0.15 -0.08,0.26 -0.1,0.34 -0.08,0.26 -0.04,0.49 0.12,0.68 0.16,0.19 0.37,0.29 0.63,0.29 0.15,0 0.29,-0.01 0.45,-0.04 0.15,-0.03 0.29,-0.07 0.43,-0.12 0.42,-0.14 0.84,-0.27 1.25,-0.41 0.41,-0.14 0.83,-0.27 1.25,-0.41 0.07,-0.02 0.13,-0.05 0.2,-0.08 0.06,-0.03 0.13,-0.07 0.21,-0.11 -0.08,-0.14 -0.18,-0.2 -0.29,-0.2 -0.04,0 -0.09,0.01 -0.15,0.03zm-2.78 -1.3c0.09,-0.01 0.18,-0.06 0.28,-0.16 0.1,-0.1 0.15,-0.19 0.15,-0.28 0,-0.06 -0.02,-0.11 -0.07,-0.15 -0.05,-0.04 -0.11,-0.08 -0.18,-0.11 -0.07,-0.03 -0.14,-0.05 -0.2,-0.07 -0.07,-0.01 -0.13,-0.02 -0.18,-0.02 -0.19,0 -0.24,0.09 -0.18,0.28 0,0.16 0.04,0.28 0.11,0.38 0.07,0.1 0.16,0.14 0.27,0.13zm3.54 4.3c0.12,-0.25 0.28,-0.46 0.48,-0.63 0.2,-0.17 0.41,-0.32 0.64,-0.45 -0.27,0.48 -0.64,0.84 -1.11,1.08zm0.45 -5.2c0.2,-0.52 0.41,-1.02 0.64,-1.52 0.23,-0.5 0.52,-0.97 0.86,-1.4 0.16,-0.2 0.33,-0.38 0.51,-0.56 0.19,-0.18 0.37,-0.35 0.56,-0.52 0.07,-0.07 0.17,-0.1 0.29,-0.1 0.05,0 0.08,0.01 0.1,0.01 0.04,0.02 0.07,0.07 0.08,0.15 0.01,0.08 0.02,0.15 0.02,0.22 -0.01,0.37 -0.09,0.76 -0.26,1.16 -0.16,0.4 -0.36,0.79 -0.6,1.18 -0.24,0.39 -0.5,0.75 -0.78,1.09 -0.28,0.34 -0.53,0.64 -0.77,0.89 -0.2,0.21 -0.39,0.42 -0.59,0.63 -0.2,0.2 -0.39,0.41 -0.59,0.61 -0.06,-0.04 -0.1,-0.07 -0.12,-0.09 0.11,-0.28 0.21,-0.57 0.31,-0.86 0.1,-0.29 0.2,-0.59 0.31,-0.88zm5.46 2.21c-0.06,-0.01 -0.12,-0.02 -0.18,-0.02 -0.06,-0.01 -0.12,-0.01 -0.18,-0.01 -0.61,0.13 -1.22,0.27 -1.82,0.43 -0.6,0.16 -1.19,0.37 -1.78,0.62 -0.02,0.01 -0.04,0.01 -0.07,0.01 -0.02,0 -0.05,0.01 -0.08,0.01 -0.2,-0.46 -0.46,-0.69 -0.8,-0.69 -0.19,0 -0.39,0.06 -0.61,0.19 -0.19,0.11 -0.36,0.23 -0.53,0.36 -0.17,0.13 -0.34,0.27 -0.53,0.4 0.03,-0.12 0.06,-0.23 0.1,-0.35 0.03,-0.12 0.07,-0.23 0.1,-0.35 0.04,-0.24 0.16,-0.44 0.37,-0.6 0.35,-0.26 0.72,-0.59 1.12,-0.98 0.39,-0.39 0.77,-0.81 1.12,-1.26 0.35,-0.45 0.67,-0.91 0.94,-1.38 0.28,-0.47 0.48,-0.92 0.61,-1.35 0.05,-0.18 0.09,-0.36 0.11,-0.56 0.02,-0.2 0.03,-0.39 0.01,-0.57 -0.02,-0.19 -0.09,-0.33 -0.2,-0.44 -0.12,-0.11 -0.26,-0.16 -0.42,-0.16 -0.2,0 -0.42,0.09 -0.65,0.28 -0.23,0.19 -0.45,0.41 -0.66,0.67 -0.21,0.26 -0.4,0.52 -0.56,0.78 -0.17,0.26 -0.29,0.47 -0.37,0.63 -0.54,1.02 -0.97,2.09 -1.31,3.19 -0.34,1.1 -0.61,2.22 -0.81,3.35 -0.01,0.06 0,0.12 0.03,0.18 0.03,0.06 0.05,0.12 0.07,0.18 0,0.01 0.02,0.01 0.07,0.01 0.07,0 0.11,-0.01 0.12,-0.03 0.08,-0.14 0.15,-0.27 0.22,-0.4 0.07,-0.13 0.15,-0.26 0.23,-0.39 0.19,-0.24 0.39,-0.46 0.62,-0.64 0.23,-0.18 0.49,-0.32 0.78,-0.42 0.1,-0.04 0.17,-0.06 0.22,-0.06 0.09,0 0.15,0.05 0.19,0.16 0.02,0.1 0.03,0.19 0.04,0.29 0.01,0.09 -0.06,0.18 -0.18,0.26 -0.19,0.11 -0.35,0.21 -0.49,0.31 -0.14,0.1 -0.27,0.2 -0.4,0.3 -0.12,0.1 -0.24,0.22 -0.35,0.34 -0.11,0.13 -0.23,0.28 -0.36,0.45 -0.07,0.08 -0.1,0.16 -0.1,0.26 0.01,0.09 0.05,0.18 0.12,0.26 0.09,0.1 0.19,0.15 0.29,0.15 0.07,0 0.15,-0.02 0.25,-0.07 0.34,-0.2 0.64,-0.42 0.91,-0.69 0.26,-0.26 0.46,-0.59 0.6,-0.97 0.06,-0.17 0.17,-0.28 0.32,-0.35 0.57,-0.25 1.14,-0.47 1.73,-0.65 0.59,-0.18 1.18,-0.34 1.79,-0.48 0.07,-0.02 0.13,-0.04 0.19,-0.06 0.06,-0.02 0.12,-0.04 0.19,-0.06 0,-0.02 -0,-0.04 -0.01,-0.06 -0,-0.02 -0.01,-0.04 -0.01,-0.06zm0.79 -0.44c-0.13,0.08 -0.24,0.17 -0.35,0.27 -0.11,0.1 -0.22,0.2 -0.34,0.3 0.01,-0.16 0.05,-0.32 0.12,-0.5 0.06,-0.15 0.06,-0.26 0.01,-0.34 -0.05,-0.08 -0.18,-0.13 -0.37,-0.16 -0.1,0.41 -0.19,0.81 -0.29,1.2 -0.09,0.39 -0.18,0.79 -0.27,1.2 -0.01,0.05 0.01,0.11 0.07,0.18 0.05,0.07 0.11,0.12 0.17,0.14 0.04,0.02 0.06,0.03 0.07,0.03 0.05,0 0.09,-0.03 0.11,-0.08 0.02,-0.05 0.05,-0.11 0.07,-0.15 0.15,-0.33 0.31,-0.65 0.5,-0.96 0.19,-0.31 0.44,-0.57 0.74,-0.8 0.2,-0.17 0.41,-0.32 0.63,-0.48 0.21,-0.15 0.47,-0.23 0.76,-0.23l0.12 0c-0.09,-0.22 -0.22,-0.34 -0.39,-0.34 -0.07,0 -0.17,0.03 -0.29,0.09 -0.13,0.06 -0.26,0.12 -0.4,0.2 -0.14,0.07 -0.27,0.15 -0.39,0.23 -0.12,0.08 -0.21,0.14 -0.27,0.19zm3.51 -0.29c-0.2,0.25 -0.42,0.45 -0.66,0.6 -0.23,0.15 -0.5,0.24 -0.79,0.29 0.05,-0.12 0.13,-0.23 0.23,-0.34 0.11,-0.11 0.23,-0.2 0.37,-0.29 0.14,-0.08 0.29,-0.15 0.43,-0.2 0.15,-0.05 0.28,-0.07 0.41,-0.07zm4.41 0.69c-0.38,0.11 -0.76,0.22 -1.13,0.34 -0.38,0.12 -0.75,0.23 -1.13,0.33 -0.19,0.04 -0.39,0.09 -0.61,0.14 -0.22,0.05 -0.45,0.11 -0.7,0.16 -0.24,0.05 -0.49,0.1 -0.75,0.13 -0.25,0.03 -0.51,0.05 -0.76,0.05 -0.17,0 -0.33,-0.01 -0.49,-0.02 -0.16,-0.01 -0.31,-0.05 -0.46,-0.1 -0.14,-0.04 -0.19,-0.16 -0.16,-0.35 0.02,-0.09 0.05,-0.14 0.1,-0.15 0.05,-0.01 0.11,-0.02 0.19,-0.02 0.34,0 0.64,-0.07 0.91,-0.21 0.26,-0.14 0.51,-0.33 0.75,-0.56 0.07,-0.08 0.12,-0.16 0.15,-0.25 0.03,-0.09 0.01,-0.19 -0.06,-0.29 -0.13,-0.19 -0.27,-0.28 -0.44,-0.28 -0.15,0 -0.3,0.03 -0.46,0.1 -0.16,0.06 -0.31,0.14 -0.46,0.24 -0.15,0.1 -0.29,0.21 -0.42,0.33 -0.13,0.12 -0.24,0.24 -0.33,0.34 -0.05,0.06 -0.1,0.12 -0.16,0.18 -0.06,0.06 -0.09,0.14 -0.1,0.25 -0.03,0.27 0.01,0.5 0.11,0.7 0.1,0.19 0.29,0.32 0.55,0.39 0.22,0.06 0.48,0.09 0.76,0.09 0.28,0 0.58,-0.02 0.89,-0.07 0.31,-0.04 0.61,-0.1 0.92,-0.17 0.31,-0.07 0.6,-0.14 0.87,-0.2 0.27,-0.07 0.51,-0.13 0.72,-0.18 0.31,-0.08 0.62,-0.17 0.92,-0.27 0.3,-0.1 0.61,-0.21 0.92,-0.31 0.04,-0.02 0.07,-0.05 0.1,-0.1 0.02,-0.04 0.05,-0.09 0.07,-0.12 -0.05,-0.02 -0.1,-0.04 -0.15,-0.07 -0.05,-0.03 -0.1,-0.04 -0.15,-0.03z"/>
  </g>
 </g>
</svg>
